<?xml version="1.0" encoding="UTF-8"?>
<svg version="1.1" xmlns="http://www.w3.org/2000/svg" width="2511" height="996">
<path d="M0 0 C13.81378755 37.25121926 13.81378755 37.25121926 18.1875 50 C21.36822641 59.2593182 24.7077975 68.4535848 28.09057617 77.64086914 C33.09213893 91.22818168 38.04971242 104.83142981 43 118.4375 C43.43987244 119.64630829 43.87974487 120.85511658 44.33294678 122.10055542 C49.65796794 136.73940287 54.94228406 151.3902404 60.11450195 166.08374023 C64.00270462 177.09355745 68.05568109 188.04085493 72.10955811 198.99050903 C75.80891404 208.98679651 79.43480589 218.9979236 82.88354492 229.08398438 C86.10713342 238.4438282 89.5622614 247.7172873 93 257 C96.81595953 267.30430079 100.62072427 277.60604486 104.1875 288 C107.36830025 297.25929287 110.70779699 306.45358341 114.09057617 315.64086914 C119.09213893 329.22818168 124.04971242 342.83142981 129 356.4375 C129.43987244 357.64630829 129.87974487 358.85511658 130.33294678 360.10055542 C135.65796794 374.73940287 140.94228406 389.3902404 146.11450195 404.08374023 C150.24660017 415.78417101 154.55158049 427.42017249 158.88037109 439.04907227 C161.97269502 447.37542015 164.96491628 455.72904388 167.86328125 464.125 C172.07331971 476.31306358 176.5221394 488.4082494 181 500.5 C185.88778303 513.69868093 190.70111834 526.91313665 195.29629517 540.21687317 C197.55433447 546.74731699 199.88482936 553.24142537 202.375 559.6875 C202.70371094 560.55181641 203.03242188 561.41613281 203.37109375 562.30664062 C204.77339627 565.96568506 206.20366051 569.5135351 208 573 C208.31710937 572.08605469 208.63421875 571.17210937 208.9609375 570.23046875 C212.15839023 561.07102543 215.48610679 551.965329 218.875 542.875 C221.92853143 534.67647725 224.91410819 526.46379831 227.75 518.1875 C231.62580192 506.88596304 235.78056247 495.6912247 239.9303894 484.48831177 C243.81123076 474.00677458 247.61237574 463.5079899 251.234375 452.93359375 C253.84135995 445.358792 256.63453977 437.86007443 259.50512695 430.38134766 C262.05372382 423.6905987 264.42439454 416.94502992 266.765625 410.1796875 C270.82283817 398.45634897 275.01697702 386.78582141 279.25 375.125 C279.99627444 373.06611672 280.74244803 371.00719689 281.48852539 368.94824219 C283.32214361 363.88924568 285.15761324 358.83092332 286.99371338 353.77282715 C288.20255665 350.44185428 289.41003853 347.11038913 290.61741638 343.77888489 C295.42312708 330.5208391 300.26145931 317.27645165 305.1875 304.0625 C308.38653129 295.47519498 311.46609055 286.85614098 314.4375 278.1875 C318.89895787 265.17646605 323.62890798 252.26983086 328.39013672 239.36621094 C331.17460966 231.81736885 333.94746185 224.26426602 336.7164917 216.70974731 C337.65006633 214.16455493 338.58595169 211.62022123 339.52197266 209.07592773 C342.70920714 200.39282531 345.81901174 191.68775607 348.83984375 182.9453125 C352.95714304 171.03577013 357.25630714 159.19516158 361.57962036 147.35910034 C363.79244544 141.30063998 365.99982642 135.24019726 368.20703125 129.1796875 C368.6331218 128.00995895 369.05921234 126.84023041 369.49821472 125.63505554 C372.55155151 117.2470318 375.57530781 108.84930207 378.5625 100.4375 C382.17483784 90.2666134 385.87772504 80.13110593 389.60668945 70.00244141 C394.1309418 57.69801786 398.55354042 45.35740311 402.96582031 33.01245117 C406.91078006 21.98345531 410.93305443 10.98458979 415 0 C419.28146787 0.52302022 423.10673011 1.21729095 427.125 2.78515625 C428.08148437 3.15189453 429.03796875 3.51863281 430.0234375 3.89648438 C431.00570312 4.28126953 431.98796875 4.66605469 433 5.0625 C441.87205502 8.51067264 450.81231963 11.6948022 459.80754089 14.80493164 C469.84451067 18.28011086 479.83980195 21.86651092 489.8269043 25.48217773 C492.82832064 26.56822462 495.83111043 27.65041269 498.83398438 28.73242188 C510.6229692 32.99038829 522.34373074 37.39090205 534 42 C533.47697978 46.28146787 532.78270905 50.10673011 531.21484375 54.125 C530.84810547 55.08148438 530.48136719 56.03796875 530.10351562 57.0234375 C529.71873047 58.00570312 529.33394531 58.98796875 528.9375 60 C525.48412622 68.88543741 522.29610668 77.83946879 519.18147278 86.84832764 C515.4292664 97.68523945 511.53459384 108.46906929 507.625 119.25 C506.87505782 121.32160605 506.12513947 123.39322074 505.37524414 125.46484375 C501.10452394 137.25290042 496.81601201 149.03388804 492.39501953 160.76660156 C489.90574835 167.41178042 487.56386087 174.10351902 485.2421875 180.80859375 C481.15931982 192.59741602 476.94248741 204.33488224 472.6875 216.0625 C471.93572646 218.13799745 471.1840184 220.21351862 470.43237305 222.2890625 C465.99750484 234.52834381 461.53177975 246.75580661 457.03417969 258.97216797 C452.97041211 270.03157475 449.00138671 281.12443801 445.03207397 292.21801758 C440.94799012 303.62898366 436.8200109 315.0202371 432.54663086 326.36206055 C430.01441313 333.12215173 427.63034688 339.92738635 425.2734375 346.75 C420.65568605 360.10123294 415.76033673 373.34580852 410.85449219 386.59326172 C406.44565096 398.50767508 402.11690816 410.44112547 397.96943665 422.44920349 C394.31266145 433.024627 390.50385949 443.54383072 386.6875 454.0625 C385.93572646 456.13799745 385.1840184 458.21351862 384.43237305 460.2890625 C379.99750484 472.52834381 375.53177975 484.75580661 371.03417969 496.97216797 C366.97041211 508.03157475 363.00138671 519.12443801 359.03207397 530.21801758 C354.94799012 541.62898366 350.8200109 553.0202371 346.54663086 564.36206055 C344.01441313 571.12215173 341.63034688 577.92738635 339.2734375 584.75 C334.65568605 598.10123294 329.76033673 611.34580852 324.85449219 624.59326172 C320.44565096 636.50767508 316.11690816 648.44112547 311.96943665 660.44920349 C308.31266145 671.024627 304.50385949 681.54383072 300.6875 692.0625 C299.93572646 694.13799745 299.1840184 696.21351862 298.43237305 698.2890625 C293.99750484 710.52834381 289.53177975 722.75580661 285.03417969 734.97216797 C280.97004691 746.03256864 277.00044964 757.12635879 273.03106689 768.22103882 C269.31333589 778.60942487 265.54879646 788.97645929 261.6875 799.3125 C258.52783659 807.77429477 255.49103401 816.26798011 252.5625 824.8125 C248.10109269 837.82355044 243.37109155 850.73017043 238.60986328 863.63378906 C235.50011939 872.06445658 232.40448242 880.50030466 229.3125 888.9375 C228.98862305 889.820961 228.66474609 890.704422 228.33105469 891.61465454 C224.27273117 902.69181289 220.28082253 913.7849791 216.45043945 924.94335938 C214.12841757 931.69499376 211.64766695 938.36810346 209 945 C208.01 945 207.02 945 206 945 C201.68465788 933.92356328 197.53611294 922.81037057 193.6875 911.5625 C189.18619363 898.42551938 184.4168164 885.39369431 179.60986328 872.36621094 C176.82539034 864.81736885 174.05253815 857.26426602 171.2835083 849.70974731 C170.34993367 847.16455493 169.41404831 844.62022123 168.47802734 842.07592773 C165.27054893 833.33741033 162.14386528 824.57614165 159.10546875 815.77734375 C154.90488129 803.62229863 150.46595171 791.55959253 146 779.5 C141.55543771 767.4981662 137.13769191 755.4939954 132.96484375 743.39453125 C129.34572653 732.90177314 125.52565109 722.49130579 121.64581299 712.0925293 C116.30695414 697.77576069 111.02700495 683.45169767 106.09863281 668.98779297 C103.01518003 659.9610664 99.7315778 651.01315003 96.42944336 642.06445312 C92.61975726 631.73170677 88.89540579 621.36965392 85.1875 611 C80.40900642 597.63813918 75.5513363 584.30804137 70.625 571 C66.67896319 560.34003581 62.79382173 549.67011589 59.11572266 538.9140625 C55.6019342 528.71095241 51.81803821 518.60685467 48.06951904 508.48831177 C44.16160438 497.93518592 40.33895213 487.36320721 36.69311523 476.71606445 C34.60713114 470.65554869 32.37515415 464.66490816 30.0625 458.6875 C27.10236889 451.0332093 24.3447346 443.32700974 21.6875 435.5625 C18.07447262 425.01177424 14.29247902 414.53290991 10.43164062 404.07055664 C6.62131676 393.73574057 2.89613407 383.37169067 -0.8125 373 C-5.59099358 359.63813918 -10.4486637 346.30804137 -15.375 333 C-19.32103681 322.34003581 -23.20617827 311.67011589 -26.88427734 300.9140625 C-30.10745284 291.5548154 -33.56250456 282.28205613 -37 273 C-40.81595569 262.69570956 -44.6210586 252.3940626 -48.1875 242 C-51.14657692 233.37821769 -54.23119696 224.80590085 -57.375 216.25 C-57.60841095 215.61461304 -57.8418219 214.97922607 -58.08230591 214.32458496 C-60.57506716 207.54365459 -63.08356835 200.7687019 -65.609375 194 C-70.02402226 182.16060256 -74.30798644 170.29490714 -78.39282227 158.33764648 C-81.62729488 148.93664727 -85.07973541 139.62348603 -88.5625 130.3125 C-92.38504723 120.0907105 -96.15488648 109.86439178 -99.67407227 99.53320312 C-102.04027212 92.63942408 -104.52933932 85.7941588 -107.04296875 78.953125 C-107.40630814 77.96239487 -107.76964752 76.97166473 -108.14399719 75.95091248 C-109.63162235 71.89530537 -111.11935115 67.8398029 -112.62026978 63.78909302 C-113.67948254 60.93041701 -114.73095914 58.06899491 -115.78125 55.20703125 C-116.10582687 54.33826355 -116.43040375 53.46949585 -116.76481628 52.57440186 C-117.05963394 51.76714661 -117.3544516 50.95989136 -117.65820312 50.12817383 C-117.91831177 49.42477371 -118.17842041 48.7213736 -118.44641113 47.99665833 C-119 46 -119 46 -119 42 C-107.10093869 37.28848538 -95.12977958 32.83986553 -83.06362915 28.57546997 C-69.67866082 23.84368669 -56.32353654 19.05643357 -43.05224609 14.01367188 C-33.57530056 10.42733549 -24.00057996 7.13233001 -14.4140625 3.85253906 C-12.11844133 3.04182819 -9.85831571 2.16652038 -7.59375 1.2734375 C-4 0 -4 0 0 0 Z " fill="#FFFFFF" transform="translate(119,50)"/>
<path d="M0 0 C6.46278234 0.61986606 12.2472981 2.60301051 18.36328125 4.71875 C19.46810349 5.0955188 20.57292572 5.4722876 21.71122742 5.86047363 C25.24699657 7.06785868 28.77974567 8.2838257 32.3125 9.5 C34.61374188 10.28701532 36.91517268 11.07347846 39.21679688 11.859375 C43.81599514 13.43010886 48.41020955 15.01449894 53.00244141 16.60546875 C57.81622949 18.26731013 62.64637424 19.86442376 67.49365234 21.42578125 C68.69749069 21.82124146 69.90132904 22.21670166 71.14164734 22.62414551 C73.44756615 23.38079492 75.7588506 24.12133211 78.07575989 24.84362793 C79.61643379 25.3551239 79.61643379 25.3551239 81.18823242 25.87695312 C82.09602951 26.16735474 83.0038266 26.45775635 83.93913269 26.75695801 C86 28 86 28 86.89846802 30.29222107 C87.01544011 33.41177569 86.46753129 35.50264139 85.4362793 38.44750977 C85.06806564 39.51796036 84.69985199 40.58841095 84.32048035 41.69129944 C83.90921402 42.84633469 83.49794769 44.00136993 83.07421875 45.19140625 C82.44179008 47.01223976 82.44179008 47.01223976 81.79658508 48.86985779 C80.66864402 52.11638159 79.52598591 55.35753896 78.38031006 58.59783936 C77.25674173 61.78403802 76.14767528 64.97526724 75.03710938 68.16601562 C70.6365938 80.78845587 66.15390247 93.38094202 61.64453125 105.96484375 C58.3092893 115.27395246 55.06355837 124.5975646 52 134 C48.36678857 145.02696307 44.54430858 155.97462162 40.60498047 166.89599609 C38.01113244 174.1081341 35.51886309 181.34418324 33.125 188.625 C29.92962014 198.34250156 26.55126158 207.98726122 23.125 217.625 C19.25737034 228.50517154 15.49232928 239.40884872 11.875 250.375 C8.70404251 259.98321587 5.42530739 269.54191566 2 279.0625 C-4.71631883 297.73600917 -11.14384857 316.50349915 -17.50390625 335.30078125 C-19.16911382 340.22140732 -20.8344963 345.14197415 -22.5 350.0625 C-22.91852234 351.29929504 -23.33704468 352.53609009 -23.76824951 353.81036377 C-28.63240538 368.17767603 -33.53638072 382.52139586 -38.70703125 396.78149414 C-42.0593772 406.05872793 -45.15760161 415.41548896 -48.24780273 424.78222656 C-51.47473016 434.52441986 -54.88991143 444.18951219 -58.37744141 453.84106445 C-61.51202441 462.54471933 -64.4780538 471.29521577 -67.31298828 480.10107422 C-69.20719675 485.91142223 -71.39753348 491.46954617 -74 497 C-76 496 -76 496 -77.3046875 492.50390625 C-77.83421845 490.85871967 -78.35700813 489.21135606 -78.875 487.5625 C-81.78299684 478.56630516 -84.8656915 469.64476097 -88.03741455 460.73922729 C-92.1471288 449.19762605 -96.16294821 437.6356087 -100 426 C-103.5342154 415.28327786 -107.21818698 404.63125636 -111 394 C-115.21410781 382.15349667 -119.27271466 370.26983296 -123.2109375 358.328125 C-126.35331836 348.84093692 -129.65059541 339.41568996 -133 330 C-137.21410781 318.15349667 -141.27271466 306.26983296 -145.2109375 294.328125 C-148.35331836 284.84093692 -151.65059541 275.41568996 -155 266 C-159.21255391 254.15786491 -163.26990939 242.27866002 -167.20654297 230.34130859 C-170.39168794 220.72484097 -173.73286957 211.1700509 -177.125 201.625 C-180.46174914 192.23539782 -183.76402806 182.8425171 -186.875 173.375 C-190.43820286 162.53188781 -194.21454184 151.76695953 -198 141 C-202.05145172 129.47548905 -206.0620133 117.94526676 -209.87402344 106.33886719 C-213.77989796 94.52204681 -217.9463991 82.79396486 -222.078125 71.0546875 C-227.05597886 56.90742787 -227.05597886 56.90742787 -229.421875 49.984375 C-229.8873877 48.62650879 -229.8873877 48.62650879 -230.36230469 47.24121094 C-231 45 -231 45 -231 42 C-230.44909698 41.81367004 -229.89819397 41.62734009 -229.33059692 41.43536377 C-223.4086856 39.43191673 -217.48776675 37.42555544 -211.56744385 35.41741943 C-209.27833283 34.64112422 -206.98906758 33.86528363 -204.699646 33.08990479 C-193.18921115 29.19009066 -181.68421374 25.28294432 -170.25 21.1640625 C-169.45463837 20.87841431 -168.65927673 20.59276611 -167.83981323 20.29846191 C-164.18994569 18.98589761 -160.5451386 17.66140157 -156.90673828 16.31738281 C-155.6280579 15.8544634 -154.34925724 15.39187604 -153.0703125 14.9296875 C-151.98508301 14.52991699 -150.89985352 14.13014648 -149.78173828 13.71826172 C-146.86086312 12.96407401 -145.74822472 12.89445901 -143 14 C-142.01681519 15.60224915 -142.01681519 15.60224915 -141.32763672 17.70825195 C-140.92545677 18.89557671 -140.92545677 18.89557671 -140.51515198 20.10688782 C-140.10159706 21.40942757 -140.10159706 21.40942757 -139.6796875 22.73828125 C-139.37961288 23.6372966 -139.07953827 24.53631195 -138.77037048 25.46257019 C-137.79045445 28.40787676 -136.83303324 31.36001114 -135.875 34.3125 C-134.86341641 37.36857207 -133.84615446 40.42271891 -132.82887268 43.47689819 C-132.15392284 45.50523673 -131.48093825 47.53423029 -130.80992126 49.56387329 C-128.26492553 57.25588556 -125.58707874 64.88750194 -122.8125 72.5 C-118.75214231 83.71452222 -114.97046201 95.01069443 -111.22866821 106.33422852 C-107.94319088 116.27011947 -104.56373409 126.15949554 -101 136 C-96.8825012 147.36960959 -93.03429063 158.81508065 -89.24157715 170.29577637 C-84.39621381 184.95105965 -79.27895079 199.49528554 -74 214 C-73.74943848 213.2378418 -73.49887695 212.47568359 -73.24072266 211.69042969 C-68.64464958 197.7375439 -63.99124493 183.81763794 -59 170 C-55.61583721 160.62483001 -52.37189557 151.21569879 -49.25 141.75 C-45.36947813 129.9988413 -41.34886309 118.30178107 -37.25 106.625 C-36.95585205 105.78701874 -36.6617041 104.94903748 -36.35864258 104.08566284 C-34.85121247 99.7930923 -33.34204515 95.5011349 -31.83203125 91.20947266 C-28.79629571 82.5800908 -25.77292867 73.94637473 -22.75 65.3125 C-22.45782593 64.4783255 -22.16565186 63.644151 -21.86462402 62.78469849 C-17.63702526 50.71292462 -13.44567127 38.62924699 -9.28662109 26.53369141 C-6.23820131 17.67224601 -3.14294015 8.82834002 0 0 Z " fill="#FFAC03" transform="translate(401,0)"/>
<path d="M0 0 C11.22 0 22.44 0 34 0 C34.33 16.17 34.66 32.34 35 49 C36.98 46.03 38.96 43.06 41 40 C43.37890625 37.87890625 43.37890625 37.87890625 45.5625 36.5625 C46.28566406 36.11003906 47.00882813 35.65757812 47.75390625 35.19140625 C56.10319425 30.76265348 66.79933815 30.49307064 75.9375 33 C82.35648732 35.61924195 88.03899186 40.67415248 91.375 46.75 C95.69504254 57.37341606 96.42680244 67.71874314 96.34057617 79.04980469 C96.33972806 80.62790918 96.34020864 82.20601485 96.34190369 83.78411865 C96.34275787 88.03131256 96.32522657 92.27824779 96.30418181 96.52538204 C96.28531789 100.97762142 96.28365697 105.42986794 96.28010559 109.88214111 C96.27081349 118.29663196 96.24623844 126.71100467 96.21605712 135.1254437 C96.18242442 144.71197995 96.16600488 154.2985221 96.15097082 163.88510275 C96.11968606 183.59014891 96.06470981 203.2950333 96 223 C84.78 223 73.56 223 62 223 C61.98541748 218.39659668 61.97083496 213.79319336 61.95581055 209.05029297 C61.90551468 193.85502876 61.8390791 178.65986696 61.76428509 163.46470451 C61.71932475 154.25024433 61.67991062 145.03582282 61.65356445 135.82128906 C61.63058632 127.78964395 61.59719034 119.75812119 61.55129844 111.72657311 C61.52736372 107.47414913 61.50863658 103.22184634 61.50238609 98.96935654 C61.49633635 94.9654517 61.47634063 90.96185696 61.44572449 86.95806694 C61.43694248 85.48995683 61.43322203 84.02180619 61.43499184 82.55367088 C61.43664787 80.54574448 61.41815798 78.53783185 61.39872742 76.52999878 C61.39411845 75.40725492 61.38950949 74.28451107 61.38476086 73.12774467 C60.81650606 68.5083665 59.34414124 65.1201177 55.75 62.125 C51.13680962 60.23778575 47.51928515 60.52336152 42.8125 62 C38.49716994 65.06867915 36.679499 69.15762619 35.46228123 74.24930096 C34.95635681 77.25968883 34.86015625 80.09118346 34.84178162 83.14399719 C34.8319928 84.37933701 34.82220398 85.61467682 34.81211853 86.88745117 C34.80621517 88.24829063 34.80040468 89.60913049 34.79467773 90.9699707 C34.78509311 92.40911639 34.77508269 93.84825929 34.76467896 95.28739929 C34.73768711 99.18778744 34.71664665 103.08818761 34.69667697 106.98861718 C34.67478206 111.06723732 34.64741054 115.14582062 34.62062073 119.22441101 C34.57074119 126.94490519 34.52578481 134.66541988 34.48259836 142.38595408 C34.43318545 151.17673724 34.37828237 159.96748343 34.32291877 168.75823081 C34.20917148 186.83878772 34.10304142 204.91937868 34 223 C22.78 223 11.56 223 0 223 C0 149.41 0 75.82 0 0 Z " fill="#FFFDF8" transform="translate(1296,377)"/>
<path d="M0 0 C15.18 0 30.36 0 46 0 C52.90387556 44.41693196 59.75688911 88.84124186 66.50761223 133.28172684 C67.86387761 142.21008199 69.22285754 151.1380148 70.58533257 160.06542456 C71.56903798 166.51234632 72.54992396 172.95969308 73.52864867 179.40737283 C74.10460095 183.20121745 74.68172217 186.99487473 75.26190758 190.78807449 C75.8970301 194.94094849 76.52631118 199.09468676 77.1550293 203.24853516 C77.43768143 205.08803993 77.43768143 205.08803993 77.7260437 206.96470642 C77.89525833 208.08902573 78.06447296 209.21334503 78.23881531 210.37173462 C78.46073815 211.83041678 78.46073815 211.83041678 78.68714428 213.31856728 C79 216 79 216 79 221 C68.44 221 57.88 221 47 221 C45.58449659 213.92248294 44.34386915 207.00310874 43.375 199.875 C43.2409375 198.93785156 43.106875 198.00070312 42.96875 197.03515625 C42.84242188 196.11347656 42.71609375 195.19179688 42.5859375 194.2421875 C42.4729834 193.4260498 42.3600293 192.60991211 42.24365234 191.76904297 C41.928926 188.19226324 42 184.59059965 42 181 C30.45 181 18.9 181 7 181 C6.71125 184.135 6.4225 187.27 6.125 190.5 C3.74455041 215.76634877 3.74455041 215.76634877 2 221 C-8.89 221 -19.78 221 -31 221 C-30.39986501 213.79838007 -29.78293367 206.74825017 -28.74082947 199.62249756 C-28.61746847 198.75878202 -28.49410748 197.89506648 -28.36700827 197.00517774 C-27.95887784 194.15367586 -27.54574178 191.30292359 -27.13256836 188.45214844 C-26.83655373 186.391335 -26.540852 184.3304766 -26.24543762 182.26957703 C-25.44703808 176.7059561 -24.64429096 171.14297038 -23.84073329 165.58009243 C-23.00004486 159.75487198 -22.16339577 153.92907144 -21.3263092 148.10333252 C-19.74254897 137.08541436 -18.15518201 126.06801903 -16.56650311 115.05080914 C-14.75717743 102.50220103 -12.95189686 89.95301203 -11.14694774 77.40377378 C-7.43578372 51.60186857 -3.71903322 25.80077223 0 0 Z M23 46 C18.71 81.31 14.42 116.62 10 153 C19.24 153 28.48 153 38 153 C34.63581645 126.34139396 31.18511938 99.69558359 27.625 73.0625 C27.53447357 72.38526382 27.44394714 71.70802765 27.35067749 71.01026917 C26.23604902 62.67320916 25.11915335 54.33645382 24 46 C23.67 46 23.34 46 23 46 Z " fill="#FFFDF8" transform="translate(872,379)"/>
<path d="M0 0 C12.12175007 10.24516115 14.96671402 25.91718694 16.25439453 41.06103516 C16.5734487 46.29097105 16.541361 51.51252633 16.5 56.75 C16.479375 60.483125 16.45875 64.21625 16.4375 68.0625 C5.8775 68.0625 -4.6825 68.0625 -15.5625 68.0625 C-15.9375 55.8125 -15.9375 55.8125 -16.04052734 52.03027344 C-16.25159898 37.84552339 -16.25159898 37.84552339 -21.5625 25.0625 C-25.20873943 22.77057807 -28.49977596 22.79029383 -32.6328125 23.4609375 C-35.93981503 24.49186542 -37.51337507 26.35042289 -39.5625 29.0625 C-42.79529488 36.95732538 -42.87408259 46.76269332 -40.4375 54.9375 C-37.02282477 63.07071022 -31.45765272 69.6080722 -25.375 75.875 C-24.04259542 77.27438421 -22.71056683 78.67412652 -21.37890625 80.07421875 C-20.72937988 80.75274902 -20.07985352 81.4312793 -19.41064453 82.13037109 C1.73052239 104.23224626 18.85053259 126.29753821 19.6875 158.25 C19.28358504 175.36589658 17.96512227 194.48894477 6.4375 208.0625 C-5.57438799 218.90104131 -19.8413663 219.68543851 -35.265625 219.19433594 C-46.28603498 218.5617869 -54.75862547 214.30250703 -62.3125 206.375 C-72.32903512 194.15575462 -74.76324324 177.52764894 -74.66015625 162.1875 C-74.65803383 160.97259888 -74.65803383 160.97259888 -74.65586853 159.7331543 C-74.65032383 157.17623006 -74.63778207 154.61939724 -74.625 152.0625 C-74.61997784 150.31640753 -74.61541619 148.57031366 -74.61132812 146.82421875 C-74.60122848 142.57024995 -74.58164289 138.31647588 -74.5625 134.0625 C-64.0025 134.0625 -53.4425 134.0625 -42.5625 134.0625 C-42.376875 140.745 -42.376875 140.745 -42.1875 147.5625 C-42.79659332 168.6178257 -42.79659332 168.6178257 -34.68359375 186.91015625 C-30.80874935 189.0152743 -26.8373898 188.67220876 -22.5625 188.0625 C-18.95318118 186.18264645 -17.88885134 184.92929841 -16.4609375 181.13671875 C-12.76756996 167.18500474 -14.38562315 150.00829331 -21 137.30078125 C-27.68816777 126.03057546 -36.83639701 116.68327343 -46.125 107.5625 C-61.83912352 92.06385096 -74.27511838 74.87329315 -75.5625 52.0625 C-75.60375 51.34191406 -75.645 50.62132812 -75.6875 49.87890625 C-76.12897614 33.51669687 -73.90052499 15.60812529 -62.5625 3.0625 C-46.97597076 -10.41543113 -16.81119449 -11.87213917 0 0 Z " fill="#FFFDF8" transform="translate(1539.5625,382.9375)"/>
<path d="M0 0 C12.12175007 10.24516115 14.96671402 25.91718694 16.25439453 41.06103516 C16.5734487 46.29097105 16.541361 51.51252633 16.5 56.75 C16.479375 60.483125 16.45875 64.21625 16.4375 68.0625 C5.8775 68.0625 -4.6825 68.0625 -15.5625 68.0625 C-15.9375 55.8125 -15.9375 55.8125 -16.04052734 52.03027344 C-16.25159898 37.84552339 -16.25159898 37.84552339 -21.5625 25.0625 C-25.20873943 22.77057807 -28.49977596 22.79029383 -32.6328125 23.4609375 C-35.93981503 24.49186542 -37.51337507 26.35042289 -39.5625 29.0625 C-42.79529488 36.95732538 -42.87408259 46.76269332 -40.4375 54.9375 C-37.02282477 63.07071022 -31.45765272 69.6080722 -25.375 75.875 C-24.04259542 77.27438421 -22.71056683 78.67412652 -21.37890625 80.07421875 C-20.72937988 80.75274902 -20.07985352 81.4312793 -19.41064453 82.13037109 C1.73052239 104.23224626 18.85053259 126.29753821 19.6875 158.25 C19.28358504 175.36589658 17.96512227 194.48894477 6.4375 208.0625 C-5.57438799 218.90104131 -19.8413663 219.68543851 -35.265625 219.19433594 C-46.28603498 218.5617869 -54.75862547 214.30250703 -62.3125 206.375 C-72.32903512 194.15575462 -74.76324324 177.52764894 -74.66015625 162.1875 C-74.65803383 160.97259888 -74.65803383 160.97259888 -74.65586853 159.7331543 C-74.65032383 157.17623006 -74.63778207 154.61939724 -74.625 152.0625 C-74.61997784 150.31640753 -74.61541619 148.57031366 -74.61132812 146.82421875 C-74.60122848 142.57024995 -74.58164289 138.31647588 -74.5625 134.0625 C-64.0025 134.0625 -53.4425 134.0625 -42.5625 134.0625 C-42.376875 140.745 -42.376875 140.745 -42.1875 147.5625 C-42.79659332 168.6178257 -42.79659332 168.6178257 -34.68359375 186.91015625 C-30.80874935 189.0152743 -26.8373898 188.67220876 -22.5625 188.0625 C-18.95318118 186.18264645 -17.88885134 184.92929841 -16.4609375 181.13671875 C-12.76756996 167.18500474 -14.38562315 150.00829331 -21 137.30078125 C-27.68816777 126.03057546 -36.83639701 116.68327343 -46.125 107.5625 C-61.83912352 92.06385096 -74.27511838 74.87329315 -75.5625 52.0625 C-75.60375 51.34191406 -75.645 50.62132812 -75.6875 49.87890625 C-76.12897614 33.51669687 -73.90052499 15.60812529 -62.5625 3.0625 C-46.97597076 -10.41543113 -16.81119449 -11.87213917 0 0 Z " fill="#FFFDF8" transform="translate(808.5625,382.9375)"/>
<path d="M0 0 C11.77920518 9.39531842 15.54359642 23.40030404 17.53789902 37.76080704 C18.4319521 45.86518679 18.21678371 54.05810641 18.17578125 62.19921875 C18.17526086 64.27130635 18.17578545 66.34339445 18.17729187 68.41548157 C18.17720287 72.72766632 18.1669196 77.03966133 18.14868164 81.35180664 C18.1259544 86.84181205 18.12546617 92.33154226 18.13219929 97.82158184 C18.13556092 102.08987314 18.12886878 106.3581032 18.11907005 110.62638283 C18.11525876 112.64951061 18.11405265 114.67264525 18.1156559 116.69577599 C18.12120366 158.5322818 18.12120366 158.5322818 4.8125 172.25 C4.21566406 172.87390625 3.61882812 173.4978125 3.00390625 174.140625 C-7.7424403 184.43290057 -20.65044801 184.62992612 -34.703125 184.4609375 C-47.05259095 184.12139007 -56.30841957 180.55099502 -64.9375 171.625 C-78.39149465 155.21237226 -77.34754179 131.44690263 -77.35546875 111.453125 C-77.35868959 109.53179907 -77.36205426 107.61047339 -77.36555481 105.68914795 C-77.37151636 101.67492098 -77.37339778 97.66071545 -77.37280273 93.64648438 C-77.37270128 88.5420529 -77.38634949 83.43776105 -77.40357494 78.33336258 C-77.41477816 74.36785266 -77.4167194 70.40237562 -77.41619301 66.4368515 C-77.41736078 64.5568875 -77.42171355 62.67692231 -77.42952538 60.79697418 C-77.50683326 40.27253103 -77.07831559 18.13712694 -62.1875 2.25 C-45.30476857 -12.55723968 -18.02379798 -12.58587791 0 0 Z M-37.91264915 22.58914948 C-42.63931207 28.74695265 -42.62195149 36.72350034 -42.57568359 44.13476562 C-42.58094055 45.18476242 -42.58619751 46.23475922 -42.59161377 47.3165741 C-42.60474219 50.76328719 -42.59610083 54.20953278 -42.5859375 57.65625 C-42.58796028 60.06563403 -42.59087343 62.47501747 -42.59463501 64.88439941 C-42.59904868 69.92445731 -42.59265796 74.96435528 -42.57861328 80.00439453 C-42.56152222 86.45026634 -42.5713685 92.89576333 -42.58933067 99.3416214 C-42.60019424 104.31401368 -42.59671032 109.28631776 -42.5889473 114.25871277 C-42.58695241 116.63486272 -42.58937943 119.0110208 -42.59638596 121.38716125 C-42.60404264 124.71340006 -42.59233666 128.03903993 -42.57568359 131.36523438 C-42.58175629 132.33796799 -42.58782898 133.3107016 -42.59408569 134.31291199 C-42.52535205 141.75958888 -41.3594572 148.11982639 -37.0625 154.3125 C-33.06553725 157.00610533 -29.87162417 157.14424189 -25.1875 156.25 C-20.86773605 153.99621011 -19.22559304 151.10414042 -17.79679585 146.60950756 C-15.97146004 139.54086649 -16.03819113 132.04304959 -16.04223633 124.78393555 C-16.03887772 123.89627502 -16.0355191 123.0086145 -16.03205872 122.09405518 C-16.02264538 119.19159503 -16.02061055 116.28919316 -16.01953125 113.38671875 C-16.01631222 111.3470711 -16.01294767 109.30742367 -16.00944519 107.26777649 C-16.00347811 103.00378891 -16.00160281 98.73982153 -16.00219727 94.47583008 C-16.0022988 89.04272246 -15.98864454 83.60974576 -15.97142506 78.17666912 C-15.96024531 73.96675535 -15.95827988 69.75687266 -15.95880699 65.54694557 C-15.95763595 63.54531211 -15.95326405 61.5436776 -15.94547462 59.54205894 C-15.08716296 39.39468974 -15.08716296 39.39468974 -22.1875 21.25 C-24.67906187 19.27393369 -26.367205 19.22670491 -29.5625 18.8125 C-33.24904796 19.2574282 -35.20936823 20.0205602 -37.91264915 22.58914948 Z " fill="#FFFDF8" transform="translate(1656.1875,416.75)"/>
<path d="M0 0 C9.728167 8.84378818 13.73331675 22.5280117 14.91796875 35.3515625 C15.0526633 39.66315612 15.03443205 43.97182658 15.015625 48.28515625 C15.01461792 49.37896606 15.01361084 50.47277588 15.01257324 51.59973145 C15.00736429 55.66285255 14.9934031 59.72595864 14.98046875 63.7890625 C14.95984375 72.8846875 14.93921875 81.9803125 14.91796875 91.3515625 C-4.55203125 91.3515625 -24.02203125 91.3515625 -44.08203125 91.3515625 C-43.97890625 99.7459375 -43.87578125 108.1403125 -43.76953125 116.7890625 C-43.74463623 119.42189209 -43.71974121 122.05472168 -43.6940918 124.76733398 C-43.66177663 126.87745905 -43.62839937 128.98756823 -43.59375 131.09765625 C-43.5875061 132.17438599 -43.58126221 133.25111572 -43.5748291 134.36047363 C-43.44239256 141.36516294 -43.17440978 148.98158005 -38.2109375 154.390625 C-35.66705745 155.53887178 -33.80729445 155.75179113 -31.01953125 155.7265625 C-30.16230469 155.73429688 -29.30507812 155.74203125 -28.421875 155.75 C-25.57354355 155.26497528 -24.93126252 154.51484998 -23.08203125 152.3515625 C-20.30907445 147.12852215 -19.62281437 141.96153622 -19.5703125 136.1328125 C-19.55367554 135.47249023 -19.53703857 134.81216797 -19.51989746 134.13183594 C-19.46280954 131.70538982 -19.43002439 129.27842055 -19.39453125 126.8515625 C-19.29140625 121.4065625 -19.18828125 115.9615625 -19.08203125 110.3515625 C-7.86203125 110.3515625 3.35796875 110.3515625 14.91796875 110.3515625 C15.40155419 158.9518995 15.40155419 158.9518995 2.921875 173.453125 C-6.61323456 182.48638669 -18.6929683 184.92497663 -31.45703125 184.7890625 C-32.46000244 184.78148926 -33.46297363 184.77391602 -34.49633789 184.76611328 C-45.84618167 184.51464913 -55.60027777 182.36522804 -64.08203125 174.3515625 C-64.69691406 173.79984375 -65.31179688 173.248125 -65.9453125 172.6796875 C-81.30655154 157.28555501 -79.24202257 129.51789863 -79.25 109.421875 C-79.25322133 107.49958269 -79.25658603 105.57729061 -79.26008606 103.65499878 C-79.26604279 99.642552 -79.26792947 95.63012666 -79.26733398 91.61767578 C-79.2672324 86.51205367 -79.28089694 81.4065707 -79.29810619 76.30098152 C-79.30929901 72.33551418 -79.31125099 68.37007975 -79.31072426 64.40459824 C-79.31189295 62.52380772 -79.31625114 60.64301604 -79.32405663 58.76224136 C-79.39675027 39.44396882 -78.86854073 18.61462372 -65.3046875 3.3515625 C-49.13729973 -11.9892717 -17.61398238 -13.94577967 0 0 Z M-39.08203125 21.3515625 C-43.95263829 27.4398213 -44.22730528 33.57651218 -44.1796875 41.0546875 C-44.17827255 41.89247742 -44.1768576 42.73026733 -44.17539978 43.59344482 C-44.16981322 46.26285407 -44.15726319 48.9321787 -44.14453125 51.6015625 C-44.13951451 53.41406129 -44.13495191 55.22656139 -44.13085938 57.0390625 C-44.12070013 61.47662114 -44.10112211 65.91399736 -44.08203125 70.3515625 C-35.83203125 70.3515625 -27.58203125 70.3515625 -19.08203125 70.3515625 C-19.03588033 65.24675767 -18.99612764 60.14268975 -18.97216797 55.0378418 C-18.96216964 53.30474379 -18.94856652 51.5716624 -18.93115234 49.83862305 C-18.90663041 47.33377966 -18.89548629 44.82916114 -18.88671875 42.32421875 C-18.87639618 41.56134048 -18.86607361 40.79846222 -18.85543823 40.01246643 C-18.85407742 33.34554825 -19.24699556 26.79827676 -23.33203125 21.3515625 C-28.96302747 17.25629252 -33.19476328 17.86281111 -39.08203125 21.3515625 Z " fill="#FFFDF8" transform="translate(1964.08203125,416.6484375)"/>
<path d="M0 0 C9.728167 8.84378818 13.73331675 22.5280117 14.91796875 35.3515625 C15.0526633 39.66315612 15.03443205 43.97182658 15.015625 48.28515625 C15.01461792 49.37896606 15.01361084 50.47277588 15.01257324 51.59973145 C15.00736429 55.66285255 14.9934031 59.72595864 14.98046875 63.7890625 C14.95984375 72.8846875 14.93921875 81.9803125 14.91796875 91.3515625 C-4.55203125 91.3515625 -24.02203125 91.3515625 -44.08203125 91.3515625 C-43.97890625 99.7459375 -43.87578125 108.1403125 -43.76953125 116.7890625 C-43.74463623 119.42189209 -43.71974121 122.05472168 -43.6940918 124.76733398 C-43.66177663 126.87745905 -43.62839937 128.98756823 -43.59375 131.09765625 C-43.5875061 132.17438599 -43.58126221 133.25111572 -43.5748291 134.36047363 C-43.44239256 141.36516294 -43.17440978 148.98158005 -38.2109375 154.390625 C-35.66705745 155.53887178 -33.80729445 155.75179113 -31.01953125 155.7265625 C-30.16230469 155.73429688 -29.30507812 155.74203125 -28.421875 155.75 C-25.57354355 155.26497528 -24.93126252 154.51484998 -23.08203125 152.3515625 C-20.30907445 147.12852215 -19.62281437 141.96153622 -19.5703125 136.1328125 C-19.55367554 135.47249023 -19.53703857 134.81216797 -19.51989746 134.13183594 C-19.46280954 131.70538982 -19.43002439 129.27842055 -19.39453125 126.8515625 C-19.29140625 121.4065625 -19.18828125 115.9615625 -19.08203125 110.3515625 C-7.86203125 110.3515625 3.35796875 110.3515625 14.91796875 110.3515625 C15.40155419 158.9518995 15.40155419 158.9518995 2.921875 173.453125 C-6.61323456 182.48638669 -18.6929683 184.92497663 -31.45703125 184.7890625 C-32.46000244 184.78148926 -33.46297363 184.77391602 -34.49633789 184.76611328 C-45.84618167 184.51464913 -55.60027777 182.36522804 -64.08203125 174.3515625 C-64.69691406 173.79984375 -65.31179688 173.248125 -65.9453125 172.6796875 C-81.30655154 157.28555501 -79.24202257 129.51789863 -79.25 109.421875 C-79.25322133 107.49958269 -79.25658603 105.57729061 -79.26008606 103.65499878 C-79.26604279 99.642552 -79.26792947 95.63012666 -79.26733398 91.61767578 C-79.2672324 86.51205367 -79.28089694 81.4065707 -79.29810619 76.30098152 C-79.30929901 72.33551418 -79.31125099 68.37007975 -79.31072426 64.40459824 C-79.31189295 62.52380772 -79.31625114 60.64301604 -79.32405663 58.76224136 C-79.39675027 39.44396882 -78.86854073 18.61462372 -65.3046875 3.3515625 C-49.13729973 -11.9892717 -17.61398238 -13.94577967 0 0 Z M-39.08203125 21.3515625 C-43.95263829 27.4398213 -44.22730528 33.57651218 -44.1796875 41.0546875 C-44.17827255 41.89247742 -44.1768576 42.73026733 -44.17539978 43.59344482 C-44.16981322 46.26285407 -44.15726319 48.9321787 -44.14453125 51.6015625 C-44.13951451 53.41406129 -44.13495191 55.22656139 -44.13085938 57.0390625 C-44.12070013 61.47662114 -44.10112211 65.91399736 -44.08203125 70.3515625 C-35.83203125 70.3515625 -27.58203125 70.3515625 -19.08203125 70.3515625 C-19.03588033 65.24675767 -18.99612764 60.14268975 -18.97216797 55.0378418 C-18.96216964 53.30474379 -18.94856652 51.5716624 -18.93115234 49.83862305 C-18.90663041 47.33377966 -18.89548629 44.82916114 -18.88671875 42.32421875 C-18.87639618 41.56134048 -18.86607361 40.79846222 -18.85543823 40.01246643 C-18.85407742 33.34554825 -19.24699556 26.79827676 -23.33203125 21.3515625 C-28.96302747 17.25629252 -33.19476328 17.86281111 -39.08203125 21.3515625 Z " fill="#FFFDF8" transform="translate(1135.08203125,416.6484375)"/>
<path d="M0 0 C10.56 0 21.12 0 32 0 C33.2455315 6.22765751 34.39706025 12.28795951 35.17333984 18.56274414 C35.274496 19.35666061 35.37565216 20.15057709 35.47987366 20.96855164 C35.81068125 23.57362415 36.13607462 26.17933621 36.4609375 28.78515625 C36.6949623 30.64564454 36.92914754 32.50611266 37.16348267 34.36656189 C37.65512451 38.2773486 38.14391788 42.18847889 38.63085938 46.09985352 C39.11916646 50.01999208 39.61158001 53.93957367 40.10839844 57.85864258 C42.77036361 78.85985787 45.28925476 99.86407548 47.3515625 120.93359375 C47.43775219 121.80673784 47.52394188 122.67988194 47.61274338 123.57948494 C47.85396462 126.04012797 48.08966188 128.50122137 48.32275391 130.96264648 C48.39236958 131.67737814 48.46198524 132.39210979 48.53371048 133.12849998 C48.9318625 137.44500117 49.06111564 141.67178311 49 146 C49.66 146 50.32 146 51 146 C51.03963867 145.36126953 51.07927734 144.72253906 51.12011719 144.06445312 C54.18058672 95.87473951 60.40184033 47.94321358 66 0 C76.89 0 87.78 0 99 0 C96.35323974 19.38437362 93.15970604 38.67188766 89.97160077 57.97289038 C89.49995783 60.82859441 89.02883117 63.68438318 88.55784416 66.54019547 C87.07779918 75.51330632 85.59587565 84.48610392 84.11123139 93.45845497 C82.40839921 103.74955368 80.71196108 114.0416798 79.02096611 124.33473003 C77.70464775 132.34468268 76.38260274 140.35367728 75.05629867 148.36198246 C74.26793357 153.12295458 73.48190423 157.88428245 72.7019062 162.64663315 C71.96887101 167.12128583 71.22866014 171.59469548 70.48319244 176.06729317 C70.21299313 177.6957175 69.94525193 179.3245522 69.68033409 180.95384407 C64.47068769 212.9578927 64.47068769 212.9578927 57.0703125 218.42578125 C56.42835938 218.71839844 55.78640625 219.01101563 55.125 219.3125 C54.16980469 219.77076172 54.16980469 219.77076172 53.1953125 220.23828125 C47.5243905 222.20594992 41.80450791 222.13483324 35.8828125 222.09765625 C35.02565643 222.0962413 34.16850037 222.09482635 33.28536987 222.09336853 C30.5652101 222.08780022 27.84513462 222.07525364 25.125 222.0625 C23.27343869 222.0574809 21.42187609 222.05291871 19.5703125 222.04882812 C15.04681691 222.03869485 10.52350209 222.01911339 6 222 C6 214.08 6 206.16 6 198 C13.625 197.625 13.625 197.625 15.99072266 197.52197266 C20.25808886 197.28254947 24.1047479 196.90668496 28 195 C30.45541751 190.73323947 29.9766081 186.9529184 29.29983521 182.26702881 C29.20152881 181.52042488 29.10322241 180.77382095 29.00193703 180.00459266 C27.90671358 171.88531008 26.5722773 163.80419278 25.20263672 155.72753906 C24.92611781 154.07805396 24.64997582 152.42850564 24.37417603 150.77890015 C23.78614785 147.26636815 23.19561824 143.75426989 22.60305405 140.24250031 C21.6658051 134.68730882 20.7349435 129.13105808 19.80496216 123.574646 C17.83315355 111.79894903 15.85441586 100.02442023 13.875 88.25 C11.73040981 75.49277128 9.58706239 62.73534058 7.45158207 49.97658324 C6.52694743 44.45365563 5.59836673 38.93141056 4.66673636 33.40965891 C4.08950242 29.98352748 3.51562172 26.55684059 2.94265366 23.12999344 C2.67640365 21.54185628 2.40875145 19.95395347 2.13959503 18.3663063 C1.77248973 16.19974903 1.41040081 14.03241023 1.04953003 11.86480713 C0.84564604 10.65260624 0.64176205 9.44040535 0.43169975 8.1914711 C0 5 0 5 0 0 Z " fill="#FFFDF8" transform="translate(2078,411)"/>
<path d="M0 0 C9.06998779 7.97120072 13.31921777 21.41404429 14.15335083 33.15930176 C14.36206877 38.71085501 14.27545406 44.25922452 14.1875 49.8125 C14.17241177 51.48761805 14.15873075 53.16274939 14.14648438 54.83789062 C14.11642028 58.89253529 14.05764998 62.9452848 14 67 C3.11 67 -7.78 67 -19 67 C-19.04898437 64.48246094 -19.09796875 61.96492188 -19.1484375 59.37109375 C-19.20254845 56.91522615 -19.25981605 54.45945085 -19.31738281 52.00366211 C-19.35551129 50.30549076 -19.39039146 48.60724308 -19.421875 46.90893555 C-19.46787822 44.45854533 -19.52581151 42.00867333 -19.5859375 39.55859375 C-19.59748871 38.80726669 -19.60903992 38.05593964 -19.62094116 37.28184509 C-19.76720832 31.98008703 -19.99021526 26.23309416 -23.6875 22.125 C-28.09505658 19.98078329 -31.57599686 19.53446051 -36.25 21.0625 C-40.53089431 24.07858463 -41.96416749 28.01084661 -43 33 C-43.09191532 34.51519948 -43.13470527 36.03381436 -43.14044189 37.55178833 C-43.14615204 38.45997818 -43.15186218 39.36816803 -43.15774536 40.30387878 C-43.15886322 41.29301773 -43.15998108 42.28215668 -43.16113281 43.30126953 C-43.16609772 44.3489299 -43.17106262 45.39659027 -43.17617798 46.47599792 C-43.19079207 49.94494279 -43.19760134 53.41384189 -43.203125 56.8828125 C-43.20887826 59.29694622 -43.21463597 61.71107993 -43.22039795 64.12521362 C-43.23090662 69.19089979 -43.23674978 74.25657009 -43.24023438 79.32226562 C-43.24571052 85.79841255 -43.26972052 92.27434832 -43.29820633 98.75042915 C-43.31687689 103.74000653 -43.32204073 108.72953357 -43.32357025 113.71914291 C-43.32658869 116.10564195 -43.33458975 118.49214026 -43.34775543 120.87860489 C-43.36490355 124.22668508 -43.36291379 127.5742564 -43.35644531 130.92236328 C-43.3656601 131.89935684 -43.37487488 132.8763504 -43.3843689 133.88294983 C-43.34603712 140.25035699 -42.53751263 146.10598126 -40 152 C-37.10538643 154.7338017 -35.44953834 154.95183518 -31.5 155.375 C-27.62551784 154.95987691 -25.90939294 154.58612706 -23 152 C-20.39415539 146.21644079 -19.54067748 141.42278782 -19.48828125 135.125 C-19.47033005 134.31506592 -19.45237885 133.50513184 -19.43388367 132.6706543 C-19.38021475 130.11382065 -19.34602636 127.55716888 -19.3125 125 C-19.27928842 123.25388117 -19.24479527 121.50778621 -19.20898438 119.76171875 C-19.12212833 115.50779265 -19.06169258 111.25466103 -19 107 C-8.11 107 2.78 107 14 107 C14.06961654 111.72876828 14.12911427 116.45569398 14.16479492 121.18457031 C14.17969902 122.78652027 14.20002947 124.3884308 14.22631836 125.99023438 C14.50726935 143.57446106 12.84047039 161.72727615 0 175 C-11.96820134 185.3618832 -26.98547083 185.02676166 -42 184 C-45.94010558 183.4408431 -49.3512904 182.57370431 -53 181 C-53.79277344 180.6596875 -54.58554688 180.319375 -55.40234375 179.96875 C-65.16818805 175.15894981 -70.54868268 166.99213391 -74.05859375 156.98046875 C-78.85301593 141.613731 -79.30948254 125.96818052 -79.265625 110 C-79.26697809 108.22656196 -79.26892391 106.45312429 -79.27142334 104.6796875 C-79.27434441 100.992151 -79.27017555 97.30471246 -79.26074219 93.6171875 C-79.24934956 88.94132686 -79.25592543 84.26569601 -79.26788712 79.58984375 C-79.27518813 75.93650651 -79.27278043 72.28322183 -79.26763153 68.62988281 C-79.26631769 66.90787731 -79.26786106 65.18586669 -79.27259064 63.46386719 C-79.31614373 43.16198506 -79.34537447 18.62493343 -64.96484375 2.75390625 C-48.55372415 -13.02045033 -17.82960239 -13.71258511 0 0 Z " fill="#FFFDF8" transform="translate(1780,417)"/>
<path d="M0 0 C9.06998779 7.97120072 13.31921777 21.41404429 14.15335083 33.15930176 C14.36206877 38.71085501 14.27545406 44.25922452 14.1875 49.8125 C14.17241177 51.48761805 14.15873075 53.16274939 14.14648438 54.83789062 C14.11642028 58.89253529 14.05764998 62.9452848 14 67 C3.11 67 -7.78 67 -19 67 C-19.04898437 64.48246094 -19.09796875 61.96492188 -19.1484375 59.37109375 C-19.20254845 56.91522615 -19.25981605 54.45945085 -19.31738281 52.00366211 C-19.35551129 50.30549076 -19.39039146 48.60724308 -19.421875 46.90893555 C-19.46787822 44.45854533 -19.52581151 42.00867333 -19.5859375 39.55859375 C-19.59748871 38.80726669 -19.60903992 38.05593964 -19.62094116 37.28184509 C-19.76720832 31.98008703 -19.99021526 26.23309416 -23.6875 22.125 C-28.09505658 19.98078329 -31.57599686 19.53446051 -36.25 21.0625 C-40.53089431 24.07858463 -41.96416749 28.01084661 -43 33 C-43.09191532 34.51519948 -43.13470527 36.03381436 -43.14044189 37.55178833 C-43.14615204 38.45997818 -43.15186218 39.36816803 -43.15774536 40.30387878 C-43.15886322 41.29301773 -43.15998108 42.28215668 -43.16113281 43.30126953 C-43.16609772 44.3489299 -43.17106262 45.39659027 -43.17617798 46.47599792 C-43.19079207 49.94494279 -43.19760134 53.41384189 -43.203125 56.8828125 C-43.20887826 59.29694622 -43.21463597 61.71107993 -43.22039795 64.12521362 C-43.23090662 69.19089979 -43.23674978 74.25657009 -43.24023438 79.32226562 C-43.24571052 85.79841255 -43.26972052 92.27434832 -43.29820633 98.75042915 C-43.31687689 103.74000653 -43.32204073 108.72953357 -43.32357025 113.71914291 C-43.32658869 116.10564195 -43.33458975 118.49214026 -43.34775543 120.87860489 C-43.36490355 124.22668508 -43.36291379 127.5742564 -43.35644531 130.92236328 C-43.3656601 131.89935684 -43.37487488 132.8763504 -43.3843689 133.88294983 C-43.34603712 140.25035699 -42.53751263 146.10598126 -40 152 C-37.10538643 154.7338017 -35.44953834 154.95183518 -31.5 155.375 C-27.62551784 154.95987691 -25.90939294 154.58612706 -23 152 C-20.39415539 146.21644079 -19.54067748 141.42278782 -19.48828125 135.125 C-19.47033005 134.31506592 -19.45237885 133.50513184 -19.43388367 132.6706543 C-19.38021475 130.11382065 -19.34602636 127.55716888 -19.3125 125 C-19.27928842 123.25388117 -19.24479527 121.50778621 -19.20898438 119.76171875 C-19.12212833 115.50779265 -19.06169258 111.25466103 -19 107 C-8.11 107 2.78 107 14 107 C14.06961654 111.72876828 14.12911427 116.45569398 14.16479492 121.18457031 C14.17969902 122.78652027 14.20002947 124.3884308 14.22631836 125.99023438 C14.50726935 143.57446106 12.84047039 161.72727615 0 175 C-11.96820134 185.3618832 -26.98547083 185.02676166 -42 184 C-45.94010558 183.4408431 -49.3512904 182.57370431 -53 181 C-53.79277344 180.6596875 -54.58554688 180.319375 -55.40234375 179.96875 C-65.16818805 175.15894981 -70.54868268 166.99213391 -74.05859375 156.98046875 C-78.85301593 141.613731 -79.30948254 125.96818052 -79.265625 110 C-79.26697809 108.22656196 -79.26892391 106.45312429 -79.27142334 104.6796875 C-79.27434441 100.992151 -79.27017555 97.30471246 -79.26074219 93.6171875 C-79.24934956 88.94132686 -79.25592543 84.26569601 -79.26788712 79.58984375 C-79.27518813 75.93650651 -79.27278043 72.28322183 -79.26763153 68.62988281 C-79.26631769 66.90787731 -79.26786106 65.18586669 -79.27259064 63.46386719 C-79.31614373 43.16198506 -79.34537447 18.62493343 -64.96484375 2.75390625 C-48.55372415 -13.02045033 -17.82960239 -13.71258511 0 0 Z " fill="#FFFDF8" transform="translate(1254,417)"/>
<path d="M0 0 C27.72 0 55.44 0 84 0 C84 9.9 84 19.8 84 30 C76.08 30 68.16 30 60 30 C60 93.03 60 156.06 60 221 C48.45 221 36.9 221 25 221 C25 157.97 25 94.94 25 30 C16.75 30 8.5 30 0 30 C0 20.1 0 10.2 0 0 Z " fill="#FFFDF8" transform="translate(957,379)"/>
<path d="M0 0 C11.22 0 22.44 0 34 0 C34 12.21 34 24.42 34 37 C39.94 37 45.88 37 52 37 C52 45.25 52 53.5 52 62 C46.06 62 40.12 62 34 62 C34.08425098 78.76778194 34.17894315 95.53545728 34.28752708 112.30309772 C34.33767913 120.08835695 34.38412169 127.87360551 34.421875 135.65893555 C34.45478471 142.44350905 34.49461019 149.2280004 34.54279006 156.0124833 C34.5680653 159.60583061 34.58984347 163.19912334 34.60334396 166.79253578 C34.61853332 170.8010199 34.64916031 174.80924174 34.68115234 178.81762695 C34.68331253 180.0130864 34.68547272 181.20854584 34.68769836 182.44023132 C34.69886185 183.52978119 34.71002533 184.61933105 34.7215271 185.74189758 C34.72705786 186.69042256 34.73258862 187.63894754 34.73828697 188.61621571 C34.8438757 191.26477825 34.8438757 191.26477825 37 194 C42.09901951 195.69967317 47.64099317 195.58776871 53 196 C53 204.91 53 213.82 53 223 C48.9104589 223.04629669 44.82159867 223.08600292 40.73193359 223.10986328 C39.34518324 223.11982603 37.95845335 223.13340118 36.57177734 223.15087891 C14.91213518 223.41673733 14.91213518 223.41673733 6 217 C-0.72602178 208.81970325 -0.28283657 200.27630091 -0.22705078 190.17016602 C-0.226486 188.7701366 -0.22680453 187.37010659 -0.22793579 185.97007751 C-0.22850771 182.18543634 -0.21677954 178.4009229 -0.20278788 174.61631131 C-0.19025364 170.65517916 -0.1891079 166.69404382 -0.18673706 162.7328949 C-0.18053019 155.23908121 -0.16413014 147.74532614 -0.14403808 140.25153822 C-0.12165436 131.71708461 -0.11067944 123.18262814 -0.10064721 114.64815247 C-0.07976319 97.0987335 -0.04419803 79.5493752 0 62 C-5.28 62 -10.56 62 -16 62 C-16 53.75 -16 45.5 -16 37 C-10.72 37 -5.44 37 0 37 C0 24.79 0 12.58 0 0 Z " fill="#FFFDF8" transform="translate(2013,378)"/>
<path d="M0 0 C11.55 0 23.1 0 35 0 C35 72.93 35 145.86 35 221 C23.45 221 11.9 221 0 221 C0 148.07 0 75.14 0 0 Z " fill="#FFFDF8" transform="translate(670,379)"/>
<path d="M0 0 C11.22 0 22.44 0 34 0 C34 62.37 34 124.74 34 189 C22.78 189 11.56 189 0 189 C0 126.63 0 64.26 0 0 Z " fill="#FFFDF8" transform="translate(1822,411)"/>
<path d="M0 0 C0.75990234 -0.01160156 1.51980469 -0.02320313 2.30273438 -0.03515625 C8.94661525 -0.00111416 14.54795947 1.12821147 19.59375 5.63671875 C20.56828125 6.83748047 20.56828125 6.83748047 21.5625 8.0625 C22.2328125 8.87074219 22.903125 9.67898438 23.59375 10.51171875 C24.0784375 11.12660156 24.563125 11.74148438 25.0625 12.375 C26.2071875 10.7971875 26.2071875 10.7971875 27.375 9.1875 C32.6675069 3.18769955 38.73246739 0.50718866 46.68359375 -0.0703125 C56.04350985 -0.43137205 64.31478235 -0.33582426 71.81640625 5.8125 C78.99487749 13.00826876 79.40417549 23.30244673 79.40238953 32.92167664 C79.38690567 34.19920303 79.37142181 35.47672943 79.35546875 36.79296875 C79.34985795 38.14487736 79.34559489 39.49679216 79.34260559 40.84870911 C79.33127329 44.36851511 79.30191002 47.88793643 79.26849365 51.40759277 C79.23753865 55.01451416 79.22404652 58.62149906 79.20898438 62.22851562 C79.17702599 69.27751411 79.1243567 76.3261911 79.0625 83.375 C74.7725 83.375 70.4825 83.375 66.0625 83.375 C66.04791748 81.69543213 66.03333496 80.01586426 66.01831055 78.28540039 C65.96644172 72.70532033 65.90109877 67.12550412 65.82678509 61.54567814 C65.78225971 58.16613766 65.74296594 54.78671278 65.71606445 51.40698242 C65.68236885 47.51191389 65.63004295 43.61746297 65.57421875 39.72265625 C65.56782883 38.5223024 65.5614389 37.32194855 65.55485535 36.08522034 C65.35429954 24.47749343 65.35429954 24.47749343 59.5625 14.875 C54.29462379 11.71427427 49.04622544 11.78643684 43.0625 12.375 C37.82140997 13.97162345 33.78003162 16.54383267 31.0625 21.375 C28.47349854 29.40986265 27.60280992 37.08352776 27.55078125 45.484375 C27.52385445 47.12360931 27.52385445 47.12360931 27.49638367 48.79595947 C27.44280207 52.23893532 27.40855356 55.68177682 27.375 59.125 C27.34178084 61.47918517 27.30728703 63.83335271 27.27148438 66.1875 C27.18710613 71.91656882 27.12004834 77.64560142 27.0625 83.375 C22.7725 83.375 18.4825 83.375 14.0625 83.375 C14.04791748 81.62437256 14.03333496 79.87374512 14.01831055 78.07006836 C13.96652893 72.26646631 13.90120814 66.46310019 13.82678509 60.65975094 C13.78218094 57.14338947 13.74290362 53.6271412 13.71606445 50.1105957 C13.68492357 46.061719 13.63013901 42.01345462 13.57421875 37.96484375 C13.56782883 36.71041977 13.5614389 35.45599579 13.55485535 34.16355896 C13.43505926 27.01787934 13.20752191 21.34046241 8.625 15.5625 C3.45033657 11.62975579 -1.65234889 11.79633878 -7.9375 12.375 C-12.59233218 13.54297071 -15.77393512 15.79921558 -18.9375 19.375 C-22.96009531 26.9776262 -23.53745954 34.5938651 -23.546875 43.04296875 C-23.56341125 44.20379471 -23.57994751 45.36462067 -23.59698486 46.56062317 C-23.6451396 50.22797101 -23.66676414 53.89490518 -23.6875 57.5625 C-23.71568676 60.06577566 -23.74561792 62.56903232 -23.77734375 65.07226562 C-23.85089024 71.17314298 -23.90066349 77.27379505 -23.9375 83.375 C-28.5575 83.375 -33.1775 83.375 -37.9375 83.375 C-37.9375 56.315 -37.9375 29.255 -37.9375 1.375 C-33.9775 1.375 -30.0175 1.375 -25.9375 1.375 C-25.2775 4.345 -24.6175 7.315 -23.9375 10.375 C-23.44121094 9.90449219 -22.94492187 9.43398438 -22.43359375 8.94921875 C-21.75425781 8.32660156 -21.07492187 7.70398438 -20.375 7.0625 C-19.71371094 6.44761719 -19.05242187 5.83273437 -18.37109375 5.19921875 C-12.48498867 0.78700194 -7.10472077 -0.10791981 0 0 Z " fill="#FFFDF8" transform="translate(1044.9375,713.625)"/>
<path d="M0 0 C58.75 0 58.75 0 72.8125 12.5 C73.8953125 13.7375 73.8953125 13.7375 75 15 C75.825 15.86625 76.65 16.7325 77.5 17.625 C87.38046884 29.71844451 88.91387867 46.58228769 87.55444336 61.56103516 C86.34505604 72.50287849 83.4579849 81.9628199 77 91 C76.29875 92.010625 75.5975 93.02125 74.875 94.0625 C63.80126069 106.72313031 46.70870922 108.84353061 31 110 C20.77 110 10.54 110 0 110 C0 73.7 0 37.4 0 0 Z M14 11 C14 39.71 14 68.42 14 98 C40.26305537 98.57534848 40.26305537 98.57534848 62.5234375 86.61328125 C72.5507302 76.1024389 73.38749018 62.65892277 73.21484375 48.97265625 C72.91512563 39.02611019 69.98826369 29.51219511 63.21484375 22.02734375 C49.51230806 9.19653995 32.08764985 11 14 11 Z " fill="#FFFDF8" transform="translate(667,687)"/>
<path d="M0 0 C4.29 0 8.58 0 13 0 C13 38.28 13 76.56 13 116 C9.37 116 5.74 116 2 116 C1.01 111.05 1.01 111.05 0 106 C-1.155 107.093125 -2.31 108.18625 -3.5 109.3125 C-10.96819837 115.79804069 -19.1870408 117.41454514 -28.953125 116.8203125 C-37.97410472 115.68690736 -45.51306171 112.44940987 -51.375 105.3125 C-60.02998458 92.56294764 -60.59493701 76.10592167 -58.46875 61.30078125 C-56.23625872 51.82482641 -52.74215488 44.15001819 -45 38 C-35.55573216 32.27094047 -25.82169274 31.89802784 -15 33 C-8.29671487 34.91182452 -4.96089775 38.03910225 0 43 C0 28.81 0 14.62 0 0 Z M-38.1875 50.25 C-46.070087 60.03101109 -45.74199702 72.04285546 -45 84 C-43.95462647 91.07841904 -41.10715 96.94137399 -36 102 C-29.87965836 105.99695781 -23.12815431 105.65701422 -16 105 C-10.86115514 103.83290319 -7.20055247 101.15206807 -4 97 C2.31051681 86.27624595 1.60940046 70.44677921 -1.125 58.625 C-3.22814978 52.43348428 -6.58082944 48.53049566 -12.0625 45.0625 C-21.36190633 41.72052585 -31.48098933 43.00631736 -38.1875 50.25 Z " fill="#FFFDF8" transform="translate(2456,681)"/>
<path d="M0 0 C0.60972656 0.43441406 1.21945313 0.86882813 1.84765625 1.31640625 C2.90146484 2.04537109 2.90146484 2.04537109 3.9765625 2.7890625 C11.49731819 8.64777273 15.38268667 16.99387255 16.84765625 26.31640625 C16.84765625 31.59640625 16.84765625 36.87640625 16.84765625 42.31640625 C-1.63234375 42.31640625 -20.11234375 42.31640625 -39.15234375 42.31640625 C-36.40637516 56.24583652 -36.40637516 56.24583652 -27.15234375 65.31640625 C-15.05178004 71.36668811 -2.46265016 67.90571105 9.84765625 64.31640625 C11.33265625 63.82140625 11.33265625 63.82140625 12.84765625 63.31640625 C12.84765625 67.60640625 12.84765625 71.89640625 12.84765625 76.31640625 C-2.86231659 81.72761912 -19.00449306 83.81447437 -34.58984375 76.69140625 C-43.41844782 71.8480176 -48.43329525 64.75883042 -51.8359375 55.4453125 C-55.64807816 41.95822174 -54.17534663 25.19983382 -47.46484375 13.00390625 C-42.95392021 6.09897906 -37.16538322 0.7891541 -29.32421875 -2.0234375 C-20.26889497 -3.90810464 -8.26906438 -4.71813415 0 0 Z M-32.90234375 14.234375 C-37.22147092 20.10049724 -37.57092282 23.40930158 -39.15234375 31.31640625 C-25.29234375 31.31640625 -11.43234375 31.31640625 2.84765625 31.31640625 C1.8942988 21.78283177 0.9183333 17.09632065 -5.77734375 10.87890625 C-14.02813006 5.45075736 -26.30731135 7.00633726 -32.90234375 14.234375 Z " fill="#FFFDF8" transform="translate(2365.15234375,716.68359375)"/>
<path d="M0 0 C0.60972656 0.43441406 1.21945313 0.86882813 1.84765625 1.31640625 C2.90146484 2.04537109 2.90146484 2.04537109 3.9765625 2.7890625 C11.49731819 8.64777273 15.38268667 16.99387255 16.84765625 26.31640625 C16.84765625 31.59640625 16.84765625 36.87640625 16.84765625 42.31640625 C-1.63234375 42.31640625 -20.11234375 42.31640625 -39.15234375 42.31640625 C-36.40637516 56.24583652 -36.40637516 56.24583652 -27.15234375 65.31640625 C-15.05178004 71.36668811 -2.46265016 67.90571105 9.84765625 64.31640625 C11.33265625 63.82140625 11.33265625 63.82140625 12.84765625 63.31640625 C12.84765625 67.60640625 12.84765625 71.89640625 12.84765625 76.31640625 C-2.86231659 81.72761912 -19.00449306 83.81447437 -34.58984375 76.69140625 C-43.41844782 71.8480176 -48.43329525 64.75883042 -51.8359375 55.4453125 C-55.64807816 41.95822174 -54.17534663 25.19983382 -47.46484375 13.00390625 C-42.95392021 6.09897906 -37.16538322 0.7891541 -29.32421875 -2.0234375 C-20.26889497 -3.90810464 -8.26906438 -4.71813415 0 0 Z M-32.90234375 14.234375 C-37.22147092 20.10049724 -37.57092282 23.40930158 -39.15234375 31.31640625 C-25.29234375 31.31640625 -11.43234375 31.31640625 2.84765625 31.31640625 C1.8942988 21.78283177 0.9183333 17.09632065 -5.77734375 10.87890625 C-14.02813006 5.45075736 -26.30731135 7.00633726 -32.90234375 14.234375 Z " fill="#FFFDF8" transform="translate(2280.15234375,716.68359375)"/>
<path d="M0 0 C0.60972656 0.43441406 1.21945312 0.86882813 1.84765625 1.31640625 C2.90146484 2.04537109 2.90146484 2.04537109 3.9765625 2.7890625 C11.49731819 8.64777273 15.38268667 16.99387255 16.84765625 26.31640625 C16.84765625 31.59640625 16.84765625 36.87640625 16.84765625 42.31640625 C-1.63234375 42.31640625 -20.11234375 42.31640625 -39.15234375 42.31640625 C-36.40637516 56.24583652 -36.40637516 56.24583652 -27.15234375 65.31640625 C-15.05178004 71.36668811 -2.46265016 67.90571105 9.84765625 64.31640625 C11.33265625 63.82140625 11.33265625 63.82140625 12.84765625 63.31640625 C12.84765625 67.60640625 12.84765625 71.89640625 12.84765625 76.31640625 C-2.86231659 81.72761912 -19.00449306 83.81447437 -34.58984375 76.69140625 C-43.41844782 71.8480176 -48.43329525 64.75883042 -51.8359375 55.4453125 C-55.64807816 41.95822174 -54.17534663 25.19983382 -47.46484375 13.00390625 C-42.95392021 6.09897906 -37.16538322 0.7891541 -29.32421875 -2.0234375 C-20.26889497 -3.90810464 -8.26906438 -4.71813415 0 0 Z M-32.90234375 14.234375 C-37.22147092 20.10049724 -37.57092282 23.40930158 -39.15234375 31.31640625 C-25.29234375 31.31640625 -11.43234375 31.31640625 2.84765625 31.31640625 C1.8942988 21.78283177 0.9183333 17.09632065 -5.77734375 10.87890625 C-14.02813006 5.45075736 -26.30731135 7.00633726 -32.90234375 14.234375 Z " fill="#FFFDF8" transform="translate(1805.15234375,716.68359375)"/>
<path d="M0 0 C0.60972656 0.43441406 1.21945312 0.86882813 1.84765625 1.31640625 C2.90146484 2.04537109 2.90146484 2.04537109 3.9765625 2.7890625 C11.49731819 8.64777273 15.38268667 16.99387255 16.84765625 26.31640625 C16.84765625 31.59640625 16.84765625 36.87640625 16.84765625 42.31640625 C-1.63234375 42.31640625 -20.11234375 42.31640625 -39.15234375 42.31640625 C-36.40637516 56.24583652 -36.40637516 56.24583652 -27.15234375 65.31640625 C-15.05178004 71.36668811 -2.46265016 67.90571105 9.84765625 64.31640625 C11.33265625 63.82140625 11.33265625 63.82140625 12.84765625 63.31640625 C12.84765625 67.60640625 12.84765625 71.89640625 12.84765625 76.31640625 C-2.86231659 81.72761912 -19.00449306 83.81447437 -34.58984375 76.69140625 C-43.41844782 71.8480176 -48.43329525 64.75883042 -51.8359375 55.4453125 C-55.64807816 41.95822174 -54.17534663 25.19983382 -47.46484375 13.00390625 C-42.95392021 6.09897906 -37.16538322 0.7891541 -29.32421875 -2.0234375 C-20.26889497 -3.90810464 -8.26906438 -4.71813415 0 0 Z M-32.90234375 14.234375 C-37.22147092 20.10049724 -37.57092282 23.40930158 -39.15234375 31.31640625 C-25.29234375 31.31640625 -11.43234375 31.31640625 2.84765625 31.31640625 C1.8942988 21.78283177 0.9183333 17.09632065 -5.77734375 10.87890625 C-14.02813006 5.45075736 -26.30731135 7.00633726 -32.90234375 14.234375 Z " fill="#FFFDF8" transform="translate(886.15234375,716.68359375)"/>
<path d="M0 0 C0.94746094 -0.02900391 1.89492187 -0.05800781 2.87109375 -0.08789062 C10.30341576 -0.1539783 17.55677758 0.9567584 23.32006836 6.02197266 C31.64882064 14.94311382 30.52062472 27.3740202 30.47265625 38.78125 C30.4712413 40.05730103 30.46982635 41.33335205 30.46836853 42.64807129 C30.46374011 46.01488156 30.45477971 49.38162207 30.44366455 52.74841309 C30.4333733 56.19424848 30.4288545 59.64009112 30.42382812 63.0859375 C30.41283326 69.82814403 30.3961208 76.57031799 30.375 83.3125 C27.075 83.3125 23.775 83.3125 20.375 83.3125 C18.78361915 79.13512526 18.16221942 75.78089215 18.375 71.3125 C17.715 71.3125 17.055 71.3125 16.375 71.3125 C15.99601562 72.20582031 15.99601562 72.20582031 15.609375 73.1171875 C13.05072798 77.66769264 8.19978848 80.46093204 3.5625 82.625 C-6.69237585 84.83683597 -17.72344322 85.46970334 -27.125 80.0625 C-32.77585433 75.98263007 -34.7367398 71.78212818 -36 65 C-36.96247194 57.30022447 -36.42055189 51.61565728 -32.125 45.0625 C-25.63842685 37.23816836 -15.66083957 34.83012836 -5.93066406 33.52636719 C1.79911534 32.80937367 9.62473098 33.09413525 17.375 33.3125 C16.46249341 22.97342382 16.46249341 22.97342382 11.375 14.3125 C7.27845776 11.24009332 1.77215968 11.08051681 -3.16796875 11.55859375 C-10.23766721 12.71137286 -16.89725724 14.89380016 -23.625 17.3125 C-24.29619549 15.8562455 -24.96181807 14.39742133 -25.625 12.9375 C-25.99625 12.12539063 -26.3675 11.31328125 -26.75 10.4765625 C-27.625 8.3125 -27.625 8.3125 -27.625 6.3125 C-25.54280951 5.49707569 -23.45920239 4.68526811 -21.375 3.875 C-20.21484375 3.42253906 -19.0546875 2.97007812 -17.859375 2.50390625 C-11.7900786 0.26823548 -6.43280221 0.06407174 0 0 Z M-17.625 48.0625 C-20.63013152 51.44327295 -22.503608 54.75841227 -22.72265625 59.3671875 C-22.35396384 64.13321128 -21.02170733 67.01284145 -17.625 70.3125 C-12.29437685 73.73328538 -5.67983163 72.9519111 0.375 72.3125 C6.25270624 70.46041027 11.19316477 67.74813518 14.375 62.3125 C16.22842936 57.70559465 16.59338299 53.8867987 16.5 48.9375 C16.48195313 47.69226563 16.46390625 46.44703125 16.4453125 45.1640625 C16.42210937 44.22304688 16.39890625 43.28203125 16.375 42.3125 C4.93825984 42.22598911 -7.4796773 42.14439509 -17.625 48.0625 Z " fill="#FFFDF8" transform="translate(1647.625,713.6875)"/>
<path d="M0 0 C0.94746094 -0.02900391 1.89492188 -0.05800781 2.87109375 -0.08789062 C10.30341576 -0.1539783 17.55677758 0.9567584 23.32006836 6.02197266 C31.64882064 14.94311382 30.52062472 27.3740202 30.47265625 38.78125 C30.4712413 40.05730103 30.46982635 41.33335205 30.46836853 42.64807129 C30.46374011 46.01488156 30.45477971 49.38162207 30.44366455 52.74841309 C30.4333733 56.19424848 30.4288545 59.64009112 30.42382812 63.0859375 C30.41283326 69.82814403 30.3961208 76.57031799 30.375 83.3125 C27.075 83.3125 23.775 83.3125 20.375 83.3125 C18.78361915 79.13512526 18.16221942 75.78089215 18.375 71.3125 C17.715 71.3125 17.055 71.3125 16.375 71.3125 C15.99601563 72.20582031 15.99601563 72.20582031 15.609375 73.1171875 C13.05072798 77.66769264 8.19978848 80.46093204 3.5625 82.625 C-6.69237585 84.83683597 -17.72344322 85.46970334 -27.125 80.0625 C-32.77585433 75.98263007 -34.7367398 71.78212818 -36 65 C-36.96247194 57.30022447 -36.42055189 51.61565728 -32.125 45.0625 C-25.63842685 37.23816836 -15.66083957 34.83012836 -5.93066406 33.52636719 C1.79911534 32.80937367 9.62473098 33.09413525 17.375 33.3125 C16.46249341 22.97342382 16.46249341 22.97342382 11.375 14.3125 C7.27845776 11.24009332 1.77215968 11.08051681 -3.16796875 11.55859375 C-10.23766721 12.71137286 -16.89725724 14.89380016 -23.625 17.3125 C-24.29619549 15.8562455 -24.96181807 14.39742133 -25.625 12.9375 C-25.99625 12.12539063 -26.3675 11.31328125 -26.75 10.4765625 C-27.625 8.3125 -27.625 8.3125 -27.625 6.3125 C-25.54280951 5.49707569 -23.45920239 4.68526811 -21.375 3.875 C-20.21484375 3.42253906 -19.0546875 2.97007812 -17.859375 2.50390625 C-11.7900786 0.26823548 -6.43280221 0.06407174 0 0 Z M-17.625 48.0625 C-20.63013152 51.44327295 -22.503608 54.75841227 -22.72265625 59.3671875 C-22.35396384 64.13321128 -21.02170733 67.01284145 -17.625 70.3125 C-12.29437685 73.73328538 -5.67983163 72.9519111 0.375 72.3125 C6.25270624 70.46041027 11.19316477 67.74813518 14.375 62.3125 C16.22842936 57.70559465 16.59338299 53.8867987 16.5 48.9375 C16.48195313 47.69226563 16.46390625 46.44703125 16.4453125 45.1640625 C16.42210937 44.22304688 16.39890625 43.28203125 16.375 42.3125 C4.93825984 42.22598911 -7.4796773 42.14439509 -17.625 48.0625 Z " fill="#FFFDF8" transform="translate(952.625,713.6875)"/>
<path d="M0 0 C0.7115625 0.4125 1.423125 0.825 2.15625 1.25 C10.38299698 6.65263981 14.719263 15.63876605 17 25 C19.83939705 39.41968304 17.63441124 53.41600635 10 66 C4.73933976 73.36927199 -3.47555216 77.88369082 -12.3515625 79.40234375 C-24.58868848 80.97165818 -35.81151698 78.92711519 -45.625 71.375 C-54.18452732 63.55808007 -57.69503085 52.95222131 -58.28125 41.62109375 C-58.67712472 28.48826034 -57.07622737 16.01782214 -48.0625 5.8046875 C-36.18403424 -5.69197043 -14.46819797 -8.90350644 0 0 Z M-37.25 13 C-44.70698633 22.84077704 -45.10034207 34.14075768 -44 46 C-42.67817178 53.71224951 -39.85022457 60.06033358 -33.4375 64.8125 C-27.45198036 68.93171062 -21.03760243 68.67330137 -14 68 C-7.87393683 66.36415752 -3.97002568 63.62205736 -0.5 58.3125 C4.96588585 47.87481968 5.33419467 35.71926674 2.75390625 24.3515625 C0.61064349 17.6663595 -3.34317052 13.00692088 -9 9 C-18.0427877 4.66858068 -30.13546435 5.6199966 -37.25 13 Z " fill="#FFFDF8" transform="translate(1504,718)"/>
<path d="M0 0 C0.54527344 0.37125 1.09054687 0.7425 1.65234375 1.125 C2.58046875 1.7025 3.50859375 2.28 4.46484375 2.875 C10.08347333 8.65416186 11.7815824 15.5056737 11.76586914 23.36230469 C11.76575584 25.25381256 11.76575584 25.25381256 11.76564026 27.18353271 C11.76053403 28.55464721 11.75531805 29.92576131 11.75 31.296875 C11.74813403 32.70363311 11.74671097 34.11039188 11.74571228 35.51715088 C11.74190119 39.21280727 11.73208295 42.90842413 11.7210083 46.60406494 C11.71076389 50.37796494 11.70620817 54.15187135 11.70117188 57.92578125 C11.69045938 65.32554091 11.67287402 72.72525987 11.65234375 80.125 C7.36234375 80.125 3.07234375 80.125 -1.34765625 80.125 C-1.35700195 78.37960937 -1.36634766 76.63421875 -1.37597656 74.8359375 C-1.4116166 69.04427944 -1.46548589 63.25294194 -1.53155899 57.46156311 C-1.57092941 53.95303584 -1.60316832 50.4447556 -1.61865234 46.93603516 C-1.63680969 42.89445442 -1.68680578 38.85379476 -1.73828125 34.8125 C-1.73950989 33.5632373 -1.74073853 32.31397461 -1.74200439 31.02685547 C-1.87276952 23.19751056 -2.44418152 16.90649114 -8.34765625 11.1875 C-14.41285309 7.96536418 -22.49763965 8.0786144 -28.9921875 9.84375 C-33.60293616 11.74004464 -36.83809826 13.68501279 -39.34765625 18.125 C-42.25917038 25.55594175 -42.81278116 32.55898845 -42.859375 40.4765625 C-42.8773262 41.61660736 -42.8952774 42.75665222 -42.91377258 43.9312439 C-42.96752997 47.5374594 -43.00166051 51.1435452 -43.03515625 54.75 C-43.06835979 57.20965333 -43.10285222 59.66928962 -43.13867188 62.12890625 C-43.22323667 68.12751005 -43.29021233 74.12607768 -43.34765625 80.125 C-47.96765625 80.125 -52.58765625 80.125 -57.34765625 80.125 C-57.34765625 53.065 -57.34765625 26.005 -57.34765625 -1.875 C-53.38765625 -1.875 -49.42765625 -1.875 -45.34765625 -1.875 C-44.68765625 1.095 -44.02765625 4.065 -43.34765625 7.125 C-42.39890625 6.2175 -41.45015625 5.31 -40.47265625 4.375 C-30.10323994 -4.27301123 -12.12463632 -6.91464408 0 0 Z " fill="#FFFDF8" transform="translate(1414.34765625,716.875)"/>
<path d="M0 0 C0.54527344 0.37125 1.09054687 0.7425 1.65234375 1.125 C2.58046875 1.7025 3.50859375 2.28 4.46484375 2.875 C10.08347333 8.65416186 11.7815824 15.5056737 11.76586914 23.36230469 C11.76575584 25.25381256 11.76575584 25.25381256 11.76564026 27.18353271 C11.76053403 28.55464721 11.75531805 29.92576131 11.75 31.296875 C11.74813403 32.70363311 11.74671097 34.11039188 11.74571228 35.51715088 C11.74190119 39.21280727 11.73208295 42.90842413 11.7210083 46.60406494 C11.71076389 50.37796494 11.70620817 54.15187135 11.70117188 57.92578125 C11.69045938 65.32554091 11.67287402 72.72525987 11.65234375 80.125 C7.36234375 80.125 3.07234375 80.125 -1.34765625 80.125 C-1.35700195 78.37960937 -1.36634766 76.63421875 -1.37597656 74.8359375 C-1.4116166 69.04427944 -1.46548589 63.25294194 -1.53155899 57.46156311 C-1.57092941 53.95303584 -1.60316832 50.4447556 -1.61865234 46.93603516 C-1.63680969 42.89445442 -1.68680578 38.85379476 -1.73828125 34.8125 C-1.73950989 33.5632373 -1.74073853 32.31397461 -1.74200439 31.02685547 C-1.87276952 23.19751056 -2.44418152 16.90649114 -8.34765625 11.1875 C-14.41285309 7.96536418 -22.49763965 8.0786144 -28.9921875 9.84375 C-33.60293616 11.74004464 -36.83809826 13.68501279 -39.34765625 18.125 C-42.25917038 25.55594175 -42.81278116 32.55898845 -42.859375 40.4765625 C-42.8773262 41.61660736 -42.8952774 42.75665222 -42.91377258 43.9312439 C-42.96752997 47.5374594 -43.00166051 51.1435452 -43.03515625 54.75 C-43.06835979 57.20965333 -43.10285222 59.66928962 -43.13867188 62.12890625 C-43.22323667 68.12751005 -43.29021233 74.12607768 -43.34765625 80.125 C-47.96765625 80.125 -52.58765625 80.125 -57.34765625 80.125 C-57.34765625 53.065 -57.34765625 26.005 -57.34765625 -1.875 C-53.38765625 -1.875 -49.42765625 -1.875 -45.34765625 -1.875 C-44.68765625 1.095 -44.02765625 4.065 -43.34765625 7.125 C-42.39890625 6.2175 -41.45015625 5.31 -40.47265625 4.375 C-30.10323994 -4.27301123 -12.12463632 -6.91464408 0 0 Z " fill="#FFFDF8" transform="translate(1321.34765625,716.875)"/>
<path d="M0 0 C4.29 0 8.58 0 13 0 C13.01458252 1.68480469 13.02916504 3.36960937 13.04418945 5.10546875 C13.09601923 10.69753021 13.16135222 16.28932711 13.23571491 21.88113403 C13.28027556 25.26855042 13.31956199 28.6558505 13.34643555 32.04345703 C13.38008992 35.94593252 13.43241401 39.84778692 13.48828125 43.75 C13.49467117 44.95551514 13.5010611 46.16103027 13.50764465 47.40307617 C13.6391317 54.97961993 13.77795453 61.85850567 19.5 67.4375 C25.62809475 71.26755922 33.51931194 70.84057423 40.45703125 69.5390625 C45.27723694 67.97226524 48.50283719 65.34070682 51 61 C54.175151 54.03928234 54.46748482 47.29838375 54.51171875 39.74609375 C54.52966995 38.60463394 54.54762115 37.46317413 54.56611633 36.28712463 C54.6199442 32.67061975 54.65402723 29.05424476 54.6875 25.4375 C54.72069729 22.97328932 54.75518916 20.50909573 54.79101562 18.04492188 C54.87565512 12.03004205 54.94259762 6.01519892 55 0 C59.62 0 64.24 0 69 0 C69 27.06 69 54.12 69 82 C65.37 82 61.74 82 58 82 C56.43413992 80.43413992 56.38905307 78.5748512 55.9375 76.4375 C55.76089844 75.61121094 55.58429688 74.78492188 55.40234375 73.93359375 C55.26957031 73.29550781 55.13679688 72.65742187 55 72 C54.5153125 72.47050781 54.030625 72.94101562 53.53125 73.42578125 C46.1278842 80.3023691 39.1339109 82.98607979 29 83 C19.05702789 82.38416276 11.79803012 80.79803012 4.6875 73.6875 C-0.47915911 65.45911697 -0.40494596 57.91162412 -0.29296875 48.4375 C-0.28736387 47.03646298 -0.28309799 45.63542003 -0.28010559 44.234375 C-0.26872681 40.57150646 -0.23932118 36.90900266 -0.20599365 33.24627686 C-0.17514116 29.49887015 -0.16156804 25.75140373 -0.14648438 22.00390625 C-0.1144434 14.6690864 -0.06173407 7.33464106 0 0 Z " fill="#FFFDF8" transform="translate(1992,715)"/>
<path d="M0 0 C0.94140625 1.875 0.94140625 1.875 1 4 C0.22265625 6.140625 0.22265625 6.140625 -0.9375 8.25 C-1.50791016 9.30960938 -1.50791016 9.30960938 -2.08984375 10.390625 C-2.39019531 10.92171875 -2.69054688 11.4528125 -3 12 C-4.22009766 11.566875 -4.22009766 11.566875 -5.46484375 11.125 C-12.44341132 8.8642267 -18.68337052 7.59456587 -26 7.5625 C-26.70503662 7.55283203 -27.41007324 7.54316406 -28.13647461 7.53320312 C-32.79509236 7.60861939 -36.06633877 8.51219342 -40 11 C-42.32877362 13.87594836 -42.32877362 13.87594836 -41.9375 17.4375 C-40.75711679 21.92295619 -39.85970972 22.46647133 -36 25 C-31.14295476 27.24978374 -26.14524278 29.15373437 -21.16601562 31.11328125 C-2.22275238 38.73809316 -2.22275238 38.73809316 2 47 C4.04628787 53.1388636 4.10571965 60.50016765 1.375 66.4375 C-3.1445334 73.99090703 -9.75410627 76.80544067 -18 79 C-25.13355574 80.40032815 -32.07139125 79.98102521 -39.25 79.25 C-39.99451416 79.1763623 -40.73902832 79.10272461 -41.50610352 79.02685547 C-46.72325192 78.40652557 -51.1417551 77.00045378 -56 75 C-56 70.71 -56 66.42 -56 62 C-53.62369792 62.71614583 -51.24739583 63.43229167 -48.87109375 64.1484375 C-47.92363281 64.42945313 -46.97617188 64.71046875 -46 65 C-44.93007812 65.35707031 -43.86015625 65.71414063 -42.7578125 66.08203125 C-38.2314812 67.18773588 -34.07608965 67.33071913 -29.4375 67.3125 C-28.61314453 67.32861328 -27.78878906 67.34472656 -26.93945312 67.36132812 C-20.99999551 67.36607589 -16.5610635 66.47569471 -12.125 62.1875 C-10.32217167 58.68200046 -10.82615393 55.56461464 -11.25 51.75 C-12.294941 49.31180434 -13.61262305 49.09196546 -16 48 C-16.72574219 47.65582031 -17.45148438 47.31164062 -18.19921875 46.95703125 C-22.502067 44.97785615 -26.80924239 43.05788696 -31.21875 41.328125 C-51.21481557 33.46100049 -51.21481557 33.46100049 -55 25 C-57.11617746 19.22860692 -56.28051979 13.39552894 -53.96875 7.8515625 C-50.97374083 2.12723045 -45.76861301 -0.66044323 -40 -3 C-28.76330778 -6.31621668 -10.26275387 -6.08998581 0 0 Z " fill="#FFFDF8" transform="translate(1971,718)"/>
<path d="M0 0 C4.62 0 9.24 0 14 0 C19.21059735 13.15658114 24.08019693 26.41468177 28.8125 39.75 C29.48610419 41.6407048 30.15993142 43.53133015 30.83398438 45.421875 C31.47936617 47.23430397 32.12455579 49.04680139 32.76953125 50.859375 C33.06535599 51.69063904 33.36118073 52.52190308 33.66596985 53.37835693 C35.15388757 57.57204828 36.6107306 61.77226921 38 66 C38.27038086 65.20343994 38.54076172 64.40687988 38.81933594 63.58618164 C44.2803562 47.52698269 49.83905843 31.50784311 55.625 15.5625 C55.88825073 14.83418976 56.15150146 14.10587952 56.42272949 13.35549927 C57.16661792 11.29961185 57.91453899 9.24524496 58.6640625 7.19140625 C59.09154785 6.01779541 59.5190332 4.84418457 59.95947266 3.63500977 C61 1 61 1 62 0 C64.35313555 -0.07271741 66.70833668 -0.08370868 69.0625 -0.0625 C70.99802734 -0.04896484 70.99802734 -0.04896484 72.97265625 -0.03515625 C73.97167969 -0.02355469 74.97070312 -0.01195312 76 0 C75.3582156 5.4178797 73.59131947 10.08647063 71.60546875 15.12109375 C71.26163651 16.00641785 70.91780426 16.89174194 70.56355286 17.80389404 C69.44363141 20.68391174 68.31569148 23.56071306 67.1875 26.4375 C66.4154833 28.41751714 65.64400206 30.39774313 64.87304688 32.37817383 C63.32323098 36.35788706 61.7706471 40.3365043 60.21630859 44.31445312 C58.20817054 49.45894539 56.21861287 54.61037429 54.23828125 59.765625 C53.68010799 61.21688348 53.12192163 62.66813692 52.5637207 64.11938477 C51.78612175 66.14141758 51.00912761 68.16367028 50.23422241 70.18673706 C49.53358545 72.01475027 48.82940146 73.84140284 48.125 75.66796875 C47.73570313 76.68141357 47.34640625 77.6948584 46.9453125 78.73901367 C46 81 46 81 45 82 C42.46950598 82.07313567 39.96695163 82.09247527 37.4375 82.0625 C36.37112305 82.05573242 36.37112305 82.05573242 35.28320312 82.04882812 C33.52209987 82.03700864 31.76103964 82.01907263 30 82 C29.32964722 80.22230225 29.32964722 80.22230225 28.64575195 78.40869141 C26.92285802 73.84043578 25.19898444 69.27255032 23.474823 64.70477295 C22.70175393 62.65639465 21.92890538 60.6079331 21.15628052 58.55938721 C17.12686435 47.87671946 13.08922848 37.19781575 8.9765625 26.546875 C8.51877663 25.35927078 8.51877663 25.35927078 8.05174255 24.14767456 C6.6275631 20.45363414 5.19857163 16.7615979 3.76098633 13.07275391 C3.25580883 11.7647308 2.75083198 10.45663017 2.24609375 9.1484375 C1.80966553 8.02614746 1.3732373 6.90385742 0.92358398 5.74755859 C0 3 0 3 0 0 Z " fill="#FFFDF8" transform="translate(1530,715)"/>
<path d="M0 0 C0.95197266 -0.020625 1.90394531 -0.04125 2.88476562 -0.0625 C9.55523281 -0.09882657 15.17002295 0.9771504 21.4375 3.25 C20.92952991 7.5677458 20.24067221 11.28302114 18.4375 15.25 C8.4375 13.25 8.4375 13.25 5.8046875 12.69921875 C-0.94894781 11.41758829 -7.37937175 12.30234496 -13.5625 15.25 C-19.54146462 19.91023971 -22.51594451 25.84001339 -23.5625 33.25 C-24.54876545 44.62766786 -24.65765596 55.97903882 -17.125 65.25 C-10.22371769 70.63636668 -4.20451279 72.01329155 4.4375 71.25 C8.48858848 70.42044294 12.45606107 69.36203721 16.4375 68.25 C18.4175 67.755 18.4175 67.755 20.4375 67.25 C20.4375 71.21 20.4375 75.17 20.4375 79.25 C10.96797278 84.56288776 -0.92082991 85.20815824 -11.4609375 83.12890625 C-21.23121393 80.36025109 -28.43743372 76.1687606 -33.5625 67.25 C-39.99458043 54.16880575 -40.69312872 37.80937588 -36.53125 23.859375 C-33.26689728 15.06668301 -28.57641418 8.45677109 -20.15234375 3.96484375 C-13.19227953 0.8073512 -7.59747777 0.04001305 0 0 Z " fill="#FFFDF8" transform="translate(2192.5625,713.75)"/>
<path d="M0 0 C0.95197266 -0.020625 1.90394531 -0.04125 2.88476562 -0.0625 C9.55523281 -0.09882657 15.17002295 0.9771504 21.4375 3.25 C20.92952991 7.5677458 20.24067221 11.28302114 18.4375 15.25 C8.4375 13.25 8.4375 13.25 5.8046875 12.69921875 C-0.94894781 11.41758829 -7.37937175 12.30234496 -13.5625 15.25 C-19.54146462 19.91023971 -22.51594451 25.84001339 -23.5625 33.25 C-24.54876545 44.62766786 -24.65765596 55.97903882 -17.125 65.25 C-10.22371769 70.63636668 -4.20451279 72.01329155 4.4375 71.25 C8.48858848 70.42044294 12.45606107 69.36203721 16.4375 68.25 C18.4175 67.755 18.4175 67.755 20.4375 67.25 C20.4375 71.21 20.4375 75.17 20.4375 79.25 C10.96797278 84.56288776 -0.92082991 85.20815824 -11.4609375 83.12890625 C-21.23121393 80.36025109 -28.43743372 76.1687606 -33.5625 67.25 C-39.99458043 54.16880575 -40.69312872 37.80937588 -36.53125 23.859375 C-33.26689728 15.06668301 -28.57641418 8.45677109 -20.15234375 3.96484375 C-13.19227953 0.8073512 -7.59747777 0.04001305 0 0 Z " fill="#FFFDF8" transform="translate(2119.5625,713.75)"/>
<path d="M0 0 C2.97 0 5.94 0 9 0 C9 6.27 9 12.54 9 19 C16.92 19 24.84 19 33 19 C33 22.3 33 25.6 33 29 C25.08 29 17.16 29 9 29 C9.07403547 36.29632303 9.15690384 43.59142866 9.26245117 50.88720703 C9.29567236 53.36826235 9.32371298 55.84939273 9.34643555 58.33056641 C9.3800322 61.90039001 9.43235283 65.46952745 9.48828125 69.0390625 C9.49467117 70.14553131 9.5010611 71.25200012 9.50764465 72.39199829 C9.61379953 77.97281234 9.78181133 82.21543632 13 87 C16.50982972 89.87018786 20.93543147 89.22409786 25.25 89.125 C25.99507812 89.11597656 26.74015625 89.10695313 27.5078125 89.09765625 C29.33868059 89.07418358 31.16938238 89.03831525 33 89 C33 92.3 33 95.6 33 99 C24.88622903 103.05688548 16.60254214 102.34234535 8 100 C2.75905332 97.72132753 -0.65836514 93.61618797 -3.25 88.5625 C-5.29298066 81.58231606 -5.13285255 74.59071415 -5.09765625 67.37890625 C-5.0962413 66.27900864 -5.09482635 65.17911102 -5.09336853 64.04588318 C-5.08779503 60.55139383 -5.07524739 57.05696981 -5.0625 53.5625 C-5.05748158 51.1855478 -5.05291927 48.8085946 -5.04882812 46.43164062 C-5.03783428 40.62106878 -5.02058792 34.81054545 -5 29 C-8.63 29 -12.26 29 -16 29 C-16 26.69 -16 24.38 -16 22 C-14.89591797 21.75443359 -14.89591797 21.75443359 -13.76953125 21.50390625 C-7.89339815 19.64399946 -7.89339815 19.64399946 -3.98828125 15.09472656 C-2.14424875 10.19245708 -1.02326523 5.12763294 0 0 Z " fill="#FFFDF8" transform="translate(1708,696)"/>
<path d="M0 0 C0.80566406 0.00322266 1.61132812 0.00644531 2.44140625 0.00976562 C3.70404297 0.02233398 3.70404297 0.02233398 4.9921875 0.03515625 C5.84167969 0.03966797 6.69117188 0.04417969 7.56640625 0.04882812 C9.66669659 0.06062751 11.7669508 0.07856319 13.8671875 0.09765625 C13.94373286 4.61383224 13.96947446 8.68850842 12.8671875 13.09765625 C11.8771875 13.05125 10.8871875 13.00484375 9.8671875 12.95703125 C1.34695214 12.67327515 -5.21084683 12.74013619 -11.8359375 18.60546875 C-18.97556928 26.05702619 -19.58427432 35.03862147 -19.64453125 44.9140625 C-19.66248245 46.01113022 -19.68043365 47.10819794 -19.69892883 48.23851013 C-19.75273131 51.7123541 -19.78683133 55.18606303 -19.8203125 58.66015625 C-19.85351206 61.02801346 -19.88800413 63.39585292 -19.92382812 65.76367188 C-20.00844065 71.54156877 -20.07539502 77.31942771 -20.1328125 83.09765625 C-24.7528125 83.09765625 -29.3728125 83.09765625 -34.1328125 83.09765625 C-34.1328125 56.03765625 -34.1328125 28.97765625 -34.1328125 1.09765625 C-30.1728125 1.09765625 -26.2128125 1.09765625 -22.1328125 1.09765625 C-21.4728125 5.05765625 -20.8128125 9.01765625 -20.1328125 13.09765625 C-18.616875 11.24140625 -18.616875 11.24140625 -17.0703125 9.34765625 C-13.72345721 5.50421471 -10.68765816 3.33042373 -6.1328125 1.09765625 C-3.8362755 -0.05061225 -2.54968083 -0.0179555 0 0 Z " fill="#FFFDF8" transform="translate(809.1328125,713.90234375)"/>
<path d="M0 0 C4.62 0 9.24 0 14 0 C14 27.06 14 54.12 14 82 C9.38 82 4.76 82 0 82 C0 54.94 0 27.88 0 0 Z " fill="#FFFDF8" transform="translate(1226,715)"/>
<path d="M0 0 C11.55 0 23.1 0 35 0 C35 9.9 35 19.8 35 30 C23.45 30 11.9 30 0 30 C0 20.1 0 10.2 0 0 Z " fill="#FFFDF8" transform="translate(1821,365)"/>
<path d="M0 0 C5.28 0 10.56 0 16 0 C16.0705793 9.51938369 15.80471248 18.98140177 15.34375 28.48828125 C15.27622478 29.92700482 15.20896916 31.36574107 15.14196777 32.80448914 C14.96708832 36.54451277 14.78861049 40.28435579 14.60931396 44.02416992 C14.42611827 47.85910748 14.24642114 51.69420892 14.06640625 55.52929688 C13.71431011 63.01969344 13.35840224 70.50990223 13 78 C11.52093108 78.02689216 10.04172517 78.04634621 8.5625 78.0625 C7.32693359 78.07990234 7.32693359 78.07990234 6.06640625 78.09765625 C4 78 4 78 3 77 C2.81676784 74.93308874 2.70091603 72.8601811 2.61108398 70.78710938 C2.58167725 70.13817719 2.55227051 69.489245 2.52197266 68.82064819 C2.4253672 66.66185909 2.33564638 64.50284232 2.24609375 62.34375 C2.18062178 60.84214737 2.11478525 59.34056059 2.04859924 57.83898926 C1.91041418 54.68151466 1.77540181 51.5239258 1.64282227 48.36621094 C1.47367261 44.33915579 1.29874429 40.31237986 1.12164211 36.28566742 C0.98529323 33.17829398 0.85108923 30.07083094 0.7176075 26.96333313 C0.65383983 25.48031298 0.5896526 23.99731081 0.52502251 22.514328 C0.19970257 15.00648441 -0.08294697 7.51635196 0 0 Z " fill="#FFFDF8" transform="translate(2494,687)"/>
<path d="M0 0 C4.95 0 9.9 0 15 0 C16.61661481 3.23322961 14.99616557 6.26242727 14 9.5625 C13.77795898 10.30886719 13.55591797 11.05523438 13.32714844 11.82421875 C6.74069997 33.25930003 6.74069997 33.25930003 3 37 C1.31391034 37.07205511 -0.37500659 37.08386068 -2.0625 37.0625 C-2.98160156 37.05347656 -3.90070313 37.04445313 -4.84765625 37.03515625 C-5.55792969 37.02355469 -6.26820312 37.01195312 -7 37 C-6.21626673 29.22219136 -4.55064598 21.64082631 -2.9375 14 C-2.65270113 12.63938435 -2.36819349 11.27870771 -2.08398438 9.91796875 C-1.39218036 6.61138004 -0.69647785 3.3056074 0 0 Z " fill="#FFFDF8" transform="translate(1842,778)"/>
<path d="M0 0 C4.95 0 9.9 0 15 0 C16.61661481 3.23322961 14.99616557 6.26242727 14 9.5625 C13.77795898 10.30886719 13.55591797 11.05523438 13.32714844 11.82421875 C6.74069997 33.25930003 6.74069997 33.25930003 3 37 C1.31391034 37.07205511 -0.37500659 37.08386068 -2.0625 37.0625 C-2.98160156 37.05347656 -3.90070313 37.04445313 -4.84765625 37.03515625 C-5.55792969 37.02355469 -6.26820312 37.01195312 -7 37 C-6.21626673 29.22219136 -4.55064598 21.64082631 -2.9375 14 C-2.65270113 12.63938435 -2.36819349 11.27870771 -2.08398438 9.91796875 C-1.39218036 6.61138004 -0.69647785 3.3056074 0 0 Z " fill="#FFFDF8" transform="translate(1148,778)"/>
<path d="M0 0 C1.16015625 0.08314453 1.16015625 0.08314453 2.34375 0.16796875 C5.28102054 1.04595723 6.04772805 2.14013751 7.5 4.8125 C8.27597145 9.56619898 8.33856175 14.17349295 6.125 18.5 C1.9635861 20.58070695 -1.9504965 20.51533028 -6.5 19.8125 C-9.125 18.5 -9.125 18.5 -10.5 15.8125 C-11.10051156 11.15676919 -11.59807573 6.68210999 -9.16015625 2.53125 C-6.37672361 -0.35042144 -3.77479591 -0.33344031 0 0 Z " fill="#FFFDF8" transform="translate(2503.5,777.1875)"/>
<path d="M0 0 C2.14637492 1.60361345 2.90001894 2.46774789 3.3984375 5.12109375 C3.33599347 11.29264533 3.33599347 11.29264533 1.8125 14.5 C-0.52568323 16.43504819 -1.96925642 16.85567888 -5 17 C-8.28534111 16.21777593 -9.6712284 15.38356686 -11.875 12.8125 C-13.35980235 9.10049414 -12.99481182 6.83713132 -12 3 C-8.50982189 -1.55240623 -5.38996471 -1.13472941 0 0 Z " fill="#FFFDF8" transform="translate(1238,685)"/>
</svg>
