<?xml version="1.0" standalone="no"?>
<!DOCTYPE svg PUBLIC "-//W3C//DTD SVG 20010904//EN"
 "http://www.w3.org/TR/2001/REC-SVG-20010904/DTD/svg10.dtd">
<svg version="1.0" xmlns="http://www.w3.org/2000/svg"
 width="1080.000000pt" height="1080.000000pt" viewBox="0 0 1080.000000 1080.000000"
 preserveAspectRatio="xMidYMid meet">

<g transform="translate(0.000000,1080.000000) scale(0.100000,-0.100000)"
fill="#000000" stroke="none">
<path d="M5315 9698 c-243 -12 -358 -30 -485 -76 -240 -88 -474 -186 -590
-249 -200 -109 -616 -366 -730 -453 -363 -275 -597 -437 -694 -485 -28 -13
-82 -32 -121 -41 -117 -28 -113 -14 -39 -144 101 -177 260 -408 330 -480 23
-25 50 -62 58 -82 14 -33 14 -44 1 -100 -7 -35 -29 -146 -46 -248 -30 -169
-33 -203 -33 -400 -1 -125 4 -244 11 -285 7 -38 42 -147 78 -242 36 -95 65
-179 65 -188 0 -9 -8 -18 -17 -22 -43 -15 -77 -50 -102 -102 -24 -51 -26 -67
-26 -181 0 -124 0 -126 38 -204 67 -141 167 -258 290 -339 121 -79 266 -91
446 -37 35 11 65 20 67 20 2 0 48 -56 103 -124 109 -135 189 -220 291 -310
l65 -57 -75 -66 c-267 -237 -377 -393 -498 -708 -102 -266 -152 -507 -152
-735 0 -235 53 -359 228 -539 115 -117 350 -191 607 -191 89 0 326 23 395 39
25 5 90 17 144 26 301 48 544 132 676 235 56 43 56 43 96 -12 71 -98 178 -222
274 -318 99 -100 178 -150 234 -150 71 0 165 94 282 277 21 35 43 63 48 63 4
0 40 -16 80 -35 103 -50 213 -69 361 -62 203 9 331 47 414 122 96 87 190 246
227 385 12 45 17 104 18 195 0 136 -5 162 -81 430 -52 182 -161 424 -253 560
-93 138 -243 309 -283 324 -16 6 -27 16 -25 22 2 6 30 22 63 37 159 71 355
207 425 295 64 81 143 223 176 317 42 121 53 207 69 540 17 338 21 371 66 525
54 184 60 285 23 415 -15 56 -15 60 20 230 39 187 43 252 25 421 -13 136 -46
277 -109 473 -57 179 -57 181 -4 286 60 118 78 258 50 391 -43 201 -200 430
-396 578 -107 80 -368 210 -597 296 -124 47 -391 92 -703 120 -96 8 -216 20
-266 26 -153 17 -371 24 -519 17z m612 -1768 c38 -5 129 -14 203 -20 178 -15
243 -23 375 -49 77 -15 165 -23 295 -27 161 -5 194 -3 258 13 85 23 109 16
166 -47 85 -95 316 -533 316 -601 l0 -21 -32 21 c-142 93 -285 134 -523 150
-264 17 -438 -13 -604 -106 -91 -51 -193 -154 -217 -220 l-18 -51 -123 -7
c-67 -3 -127 -4 -132 -1 -5 4 -21 30 -34 59 -45 96 -111 157 -250 231 -178 94
-365 128 -596 108 -264 -23 -420 -69 -562 -164 -99 -66 -241 -210 -282 -286
-33 -60 -49 -176 -37 -262 4 -30 6 -58 4 -62 -4 -6 -231 -118 -240 -118 -20 0
13 73 96 215 184 312 278 522 339 750 l26 100 65 32 c36 18 99 47 140 64 41
17 145 64 230 104 239 112 432 173 620 194 107 12 437 13 517 1z m-512 -654
c161 -35 248 -77 331 -160 77 -77 106 -147 107 -256 1 -171 -104 -376 -289
-566 -143 -147 -147 -128 -24 121 186 376 175 527 -47 638 -188 94 -398 119
-639 76 -399 -72 -416 -73 -422 -32 -3 20 53 75 103 101 30 15 159 48 258 67
194 36 483 41 622 11z m1646 -6 c201 -41 388 -116 515 -205 75 -54 126 -109
160 -177 55 -106 39 -325 -33 -447 -52 -89 -177 -201 -199 -178 -3 3 13 37 35
75 66 110 85 173 85 277 0 106 -15 142 -92 226 -82 90 -236 166 -457 225 -84
22 -107 24 -347 24 l-256 0 -27 31 c-14 17 -24 37 -22 43 5 15 69 51 137 77
133 51 334 63 501 29z m-928 -475 c17 -129 40 -231 63 -276 37 -74 135 -197
226 -285 221 -214 447 -307 745 -306 132 1 278 62 384 159 31 29 60 53 64 53
9 0 0 -191 -20 -455 -31 -393 -106 -543 -344 -689 -284 -173 -522 -257 -916
-322 -55 -9 -154 -25 -220 -36 -171 -28 -506 -35 -640 -14 -529 82 -795 146
-970 234 -186 93 -443 342 -591 573 -51 80 -45 78 -149 38 -52 -21 -78 -24
-190 -24 -127 0 -132 1 -195 32 -79 39 -137 94 -201 191 -63 96 -84 159 -83
252 1 128 44 171 187 190 187 24 304 4 407 -72 66 -49 209 -113 222 -99 4 4 1
40 -6 81 -8 41 -17 127 -21 190 l-7 115 44 27 c62 38 231 119 241 115 5 -1 19
-25 31 -53 41 -97 102 -188 180 -271 196 -208 444 -283 713 -218 184 44 352
145 501 299 175 181 254 317 277 476 15 109 26 149 43 153 9 3 62 4 117 4
l100 -2 8 -60z m58 -2294 c17 -17 29 -40 29 -55 0 -37 -63 -217 -95 -271 -96
-165 -286 -82 -424 186 -35 66 -52 111 -48 122 5 15 23 17 129 18 68 0 173 6
233 13 61 8 118 14 128 15 10 0 32 -12 48 -28z m-79 -493 c38 -29 219 -473
254 -620 3 -15 -1 -51 -10 -81 -31 -107 -11 -264 44 -351 50 -78 49 -81 -31
-197 -130 -189 -151 -209 -191 -188 -48 25 -130 104 -235 225 -121 140 -183
227 -183 255 0 10 20 46 44 79 25 33 57 86 73 118 25 51 28 67 28 162 0 102
-1 108 -39 184 l-38 79 20 81 c11 45 35 118 52 164 l32 82 51 1 c29 1 63 5 77
9 35 11 34 11 52 -2z m-403 -411 c64 -32 104 -92 109 -165 3 -51 -1 -65 -38
-140 -33 -66 -62 -103 -134 -176 -127 -128 -226 -188 -400 -242 l-58 -18 -24
29 c-12 16 -28 50 -33 75 -19 81 -33 283 -26 363 8 94 49 248 70 263 14 10
157 30 270 38 105 7 219 -5 264 -27z m1130 -233 c17 -14 48 -60 68 -102 37
-75 38 -78 42 -210 3 -146 -8 -199 -52 -241 -23 -21 -25 -21 -105 -7 -96 17
-160 49 -240 121 -122 111 -156 280 -74 367 28 31 118 63 202 74 30 3 64 10
75 15 34 13 52 10 84 -17z"/>
</g>
</svg>
