<?xml version="1.0" standalone="no"?>
<!DOCTYPE svg PUBLIC "-//W3C//DTD SVG 20010904//EN"
 "http://www.w3.org/TR/2001/REC-SVG-20010904/DTD/svg10.dtd">
<svg version="1.0" xmlns="http://www.w3.org/2000/svg"
 width="1200.000000pt" height="1200.000000pt" viewBox="0 0 1200.000000 1200.000000"
 preserveAspectRatio="xMidYMid meet">

<g transform="translate(0.000000,1200.000000) scale(0.100000,-0.100000)"
fill="#000000" stroke="none">
<path d="M0 11610 l0 -390 175 0 175 0 0 390 0 390 -175 0 -175 0 0 -390z"/>
<path d="M412 11613 l3 -388 118 -3 117 -3 0 391 0 390 -120 0 -120 0 2 -387z"/>
<path d="M710 11585 l0 -414 -147 -3 -148 -3 -3 -1122 -2 -1123 -205 0 -205 0
0 -2970 0 -2970 24 0 c31 0 66 -43 66 -82 0 -34 -39 -78 -70 -78 -19 0 -20 -6
-20 -140 0 -121 2 -140 16 -140 22 0 74 -55 74 -79 0 -37 -23 -71 -57 -83
l-33 -12 0 -136 0 -136 33 -12 c34 -12 57 -46 57 -81 0 -27 -36 -68 -65 -75
-23 -6 -25 -11 -25 -66 l0 -60 595 0 595 0 0 -650 0 -650 -595 0 -595 0 0
-250 0 -250 6000 0 6000 0 0 6000 0 6000 -640 0 -640 0 0 -310 0 -310 -688 2
-687 3 -3 308 -2 307 -4315 0 -4315 0 0 -415z m10177 299 c15 -24 15 -29 2
-53 -28 -49 -99 -32 -99 24 0 55 67 75 97 29z m284 16 c27 -15 26 -75 -2 -90
-30 -17 -62 -8 -78 21 -13 24 -13 29 2 53 18 27 45 33 78 16z m-6291 -212 c15
-20 21 -21 44 -10 24 11 76 2 76 -13 0 -2 -12 0 -27 6 -18 7 -30 6 -37 -1 -17
-17 -55 -11 -66 10 -6 12 -21 20 -35 20 -14 0 -29 -8 -35 -20 -12 -22 -49 -27
-67 -9 -15 15 -49 -4 -65 -38 -7 -15 -20 -28 -28 -30 -11 -3 -11 -2 1 6 9 6
19 21 23 34 7 28 54 53 70 37 17 -17 54 -12 61 10 9 28 61 27 85 -2z m2473
-177 c-29 -85 -55 -157 -57 -158 -2 -2 -27 64 -56 147 -29 83 -51 152 -49 154
15 13 49 25 52 19 2 -5 12 -33 22 -63 10 -30 21 -59 25 -63 4 -4 19 26 34 66
l27 75 29 -11 28 -11 -55 -155z m-1530 136 c31 -14 57 -28 57 -32 0 -11 -83
-95 -93 -95 -6 0 -33 21 -59 47 l-48 47 -48 -47 c-26 -26 -52 -47 -57 -47 -11
0 -95 81 -95 92 0 10 54 38 105 55 62 20 170 11 238 -20z m672 3 c16 -16 26
-33 22 -36 -4 -4 -15 4 -26 17 l-20 24 -1 -123 c0 -132 9 -166 52 -194 59 -39
127 -28 178 27 22 23 25 37 29 117 2 73 0 89 -10 86 -10 -3 -16 -30 -19 -86
-4 -67 -9 -85 -29 -106 -33 -35 -83 -43 -119 -20 -45 29 -51 44 -52 130 0 87
10 110 42 93 15 -8 18 -22 18 -83 0 -52 4 -77 15 -86 20 -16 54 -3 61 24 9 37
0 129 -13 134 -10 3 -13 -14 -13 -62 0 -35 -4 -68 -10 -71 -6 -4 -10 20 -10
64 0 59 3 72 19 81 32 17 51 -12 51 -78 0 -75 -16 -106 -57 -110 -46 -5 -63
26 -63 111 0 51 -3 68 -12 64 -9 -2 -13 -28 -13 -81 0 -73 2 -79 28 -102 37
-31 81 -31 112 1 22 21 25 33 25 99 0 84 16 114 51 96 28 -16 27 -144 -1 -201
-55 -106 -209 -106 -262 1 -14 28 -18 61 -18 154 l0 119 -25 -23 c-14 -13 -25
-20 -25 -15 0 10 51 65 60 65 3 0 19 -13 35 -30z m719 -188 c37 -104 71 -194
76 -201 7 -12 38 66 125 312 15 42 31 77 35 77 4 0 23 -7 42 -15 l35 -14 -115
-316 c-67 -185 -118 -311 -123 -303 -4 7 -55 146 -114 308 -59 162 -109 298
-112 303 -4 7 52 36 72 37 6 0 42 -85 79 -188z m-2168 154 c35 9 66 -21 62
-60 -2 -24 1 -31 17 -34 25 -5 45 -21 45 -36 0 -6 -5 -3 -11 7 -5 9 -18 17
-27 17 -27 0 -41 20 -36 50 7 32 -16 55 -48 47 -23 -6 -48 8 -48 27 0 6 5 3
11 -7 7 -12 17 -15 35 -11z m-122 -2 c3 -8 2 -12 -4 -9 -6 3 -10 10 -10 16 0
14 7 11 14 -7z m-328 -15 c-20 -16 -26 -28 -22 -44 4 -15 0 -27 -12 -36 -15
-12 -16 -12 -5 2 7 8 10 25 6 37 -6 25 20 62 45 62 9 0 4 -8 -12 -21z m-3480
-23 c73 -84 9 -207 -98 -193 -110 15 -141 159 -46 214 38 22 118 11 144 -21z
m413 20 c34 -18 51 -54 51 -107 0 -56 -51 -109 -104 -109 -75 0 -126 51 -126
126 0 54 53 104 109 104 23 0 54 -6 70 -14z m439 -2 c12 -8 29 -28 37 -45 l16
-29 464 0 465 0 0 -25 0 -25 -465 0 -464 0 -16 -30 c-8 -16 -29 -36 -45 -45
-124 -64 -236 87 -138 186 24 24 38 29 77 29 26 0 56 -7 69 -16z m8917 -4 c41
-45 -18 -110 -70 -76 -27 18 -34 63 -13 84 18 18 63 14 83 -8z m291 10 c6 -6
110 -11 249 -12 l240 -3 -1 -32 c0 -18 -1 -238 -2 -488 l-2 -455 -25 0 -25 0
-2 458 -3 457 -203 3 c-168 2 -207 0 -233 -13 -37 -20 -67 -11 -80 22 -13 36
12 73 49 73 16 0 32 -4 38 -10z m-6198 -25 c-3 -3 -9 2 -12 12 -6 14 -5 15 5
6 7 -7 10 -15 7 -18z m-28 -18 c219 -113 134 -451 -114 -451 -153 0 -273 146
-237 289 40 161 205 237 351 162z m113 -42 c-3 -9 -8 -14 -10 -11 -3 3 -2 9 2
15 9 16 15 13 8 -4z m385 -28 c23 -23 42 -47 42 -52 0 -5 -21 -31 -47 -57
l-47 -48 47 -48 c26 -26 47 -52 47 -57 0 -11 -81 -95 -92 -95 -12 0 -44 71
-58 129 -8 32 -10 75 -6 109 7 57 48 162 63 162 5 0 28 -19 51 -43z m536 16
c7 -16 20 -47 26 -70 7 -24 17 -43 22 -43 11 0 10 -86 -1 -108 -6 -9 -17 -41
-26 -70 -9 -29 -24 -59 -32 -68 -14 -14 -20 -11 -59 27 -49 49 -52 58 -24 84
11 10 17 21 14 26 -3 5 1 27 7 49 12 38 11 42 -14 68 -15 16 -27 32 -27 37 0
11 81 95 92 95 4 0 14 -12 22 -27z m-1470 -19 c-13 -19 -14 -28 -5 -37 18 -18
13 -55 -9 -67 -12 -6 -20 -21 -20 -35 0 -14 8 -29 20 -35 22 -12 27 -49 9 -67
-8 -8 -8 -17 0 -31 6 -11 11 -24 11 -29 -1 -4 -8 5 -16 21 -11 20 -13 31 -5
39 17 17 13 51 -9 65 -11 7 -20 23 -20 37 0 14 9 30 20 37 22 14 27 47 10 64
-12 12 6 64 22 64 5 0 1 -11 -8 -26z m96 22 c0 -3 -4 -8 -10 -11 -5 -3 -10 -1
-10 4 0 6 5 11 10 11 6 0 10 -2 10 -4z m1147 -88 c68 -67 74 -71 98 -60 14 6
25 8 25 3 0 -5 -7 -12 -17 -15 -14 -6 -14 -8 3 -22 18 -14 18 -15 -5 -8 -20 5
-36 -6 -102 -72 l-79 -79 -82 83 -83 82 80 80 c44 44 82 80 85 80 2 0 37 -32
77 -72z m-1162 44 c-3 -3 -11 0 -18 7 -9 10 -8 11 6 5 10 -3 15 -9 12 -12z
m577 -14 c-19 -19 -14 -56 8 -63 28 -9 27 -61 -2 -85 -21 -16 -21 -20 -9 -44
11 -20 12 -31 3 -51 -6 -14 -16 -25 -22 -25 -7 0 -4 7 5 16 11 11 14 25 10 38
-17 55 -17 64 4 75 27 15 28 57 1 71 -11 6 -20 20 -20 30 0 22 21 62 29 54 3
-2 -1 -10 -7 -16z m-71 -11 c-10 -9 -11 -8 -5 6 3 10 9 15 12 12 3 -3 0 -11
-7 -18z m989 -97 c0 -61 -16 -66 -22 -7 -4 35 4 56 20 57 1 0 2 -22 2 -50z
m69 4 c6 -6 -31 -33 -44 -33 -5 0 -1 6 9 14 17 13 17 15 3 21 -10 3 -17 10
-17 15 0 8 34 -4 49 -17z m-1034 -14 c3 -5 -1 -10 -10 -10 -9 0 -13 5 -10 10
3 6 8 10 10 10 2 0 7 -4 10 -10z m5153 -26 c24 -17 30 -62 10 -82 -38 -38
-108 9 -89 61 15 38 44 46 79 21z m300 0 c41 -28 22 -94 -28 -94 -55 0 -78 52
-40 90 24 24 38 25 68 4z m302 -4 c24 -24 25 -47 3 -72 -18 -20 -63 -24 -81
-6 -20 20 -14 65 10 82 30 21 44 20 68 -4z m288 4 c24 -17 30 -62 10 -82 -38
-38 -108 9 -89 61 15 38 44 46 79 21z m-4956 -119 c3 -42 6 -50 23 -50 17 0
21 8 25 55 6 70 24 71 28 3 4 -69 -9 -93 -52 -93 -44 0 -57 18 -59 78 -1 89
29 95 35 7z m208 52 c8 0 23 3 32 7 12 5 25 0 43 -18 22 -22 26 -34 23 -73 -2
-36 -7 -49 -20 -51 -14 -3 -17 6 -20 50 -2 39 -7 53 -18 53 -11 0 -16 -14 -20
-50 -4 -36 -10 -51 -22 -53 -14 -3 -17 6 -20 50 -2 39 -7 53 -18 53 -11 0 -16
-14 -18 -53 -3 -44 -6 -53 -20 -50 -13 2 -18 16 -20 54 -3 46 0 54 24 73 17
13 34 19 43 15 9 -4 23 -7 31 -7z m162 -52 c3 -42 6 -50 23 -50 17 0 21 8 25
55 6 70 24 71 28 2 2 -36 8 -55 18 -59 22 -8 28 2 34 58 7 66 24 63 28 -5 4
-73 -9 -85 -95 -85 -37 0 -73 5 -80 11 -14 11 -19 119 -6 132 13 12 22 -9 25
-59z m294 29 c21 -31 15 -108 -8 -112 -15 -3 -18 4 -18 48 0 36 -4 52 -15 57
-19 7 -24 2 -30 -26 -2 -13 2 -24 10 -28 20 -7 19 -23 -2 -39 -34 -25 -43 -17
-43 39 0 56 5 68 34 84 26 14 54 5 72 -23z m117 19 c4 -2 14 -17 22 -34 14
-26 14 -32 0 -59 -15 -30 -47 -45 -82 -38 -14 3 -19 14 -21 61 -4 69 8 90 47
81 14 -4 29 -9 34 -11z m-1896 -9 c-3 -3 -12 -4 -19 -1 -8 3 -5 6 6 6 11 1 17
-2 13 -5z m-471 -51 c-3 -8 -2 -12 3 -9 4 3 18 -6 31 -19 13 -13 38 -29 56
-35 34 -11 42 -24 25 -34 -15 -9 -56 10 -94 43 -38 34 -53 68 -30 68 8 0 12
-6 9 -14z m437 -2 c-10 -28 -57 -72 -71 -66 -7 2 -10 1 -7 -5 6 -10 -26 -30
-49 -30 -30 0 -16 28 19 40 19 6 47 26 62 44 30 34 55 44 46 17z m-494 -5 c6
-7 8 -21 5 -30 -9 -24 25 -58 52 -52 14 4 27 0 35 -11 12 -14 12 -16 -1 -8 -8
5 -26 8 -41 7 -35 -3 -63 29 -55 63 5 20 2 27 -16 35 -15 6 -18 9 -7 9 9 1 22
-5 28 -13z m548 -1 c-9 -8 -13 -24 -10 -35 7 -26 -24 -61 -51 -59 -38 2 -45
-1 -48 -23 -4 -28 -54 -56 -71 -39 -17 17 -46 13 -59 -9 -9 -13 -24 -20 -45
-20 -23 0 -33 6 -38 20 -7 22 -26 25 -55 10 -24 -13 -70 4 -70 25 0 12 4 11
20 -5 22 -22 36 -25 45 -10 11 18 54 11 65 -10 6 -12 21 -20 35 -20 14 0 29 8
35 20 11 21 49 27 66 10 16 -16 64 5 64 28 0 27 20 42 50 36 32 -7 55 16 47
48 -6 22 7 48 25 48 5 0 3 -7 -5 -15z m515 -72 l48 -47 48 47 c26 26 53 47 59
47 6 0 30 -21 53 -46 41 -44 42 -48 25 -60 -39 -28 -127 -54 -185 -54 -58 0
-146 26 -185 54 -17 12 -16 16 25 60 23 25 47 46 53 46 6 0 33 -21 59 -47z
m-802 -23 c0 -5 -4 -10 -10 -10 -5 0 -10 5 -10 10 0 6 5 10 10 10 6 0 10 -4
10 -10z m5451 -60 c27 -15 26 -75 -2 -90 -30 -17 -62 -8 -78 21 -13 24 -13 29
2 53 18 27 45 33 78 16z m301 -7 c34 -31 11 -93 -35 -93 -27 0 -57 28 -57 53
0 48 56 73 92 40z m305 -9 c15 -24 15 -29 2 -53 -28 -49 -99 -32 -99 24 0 55
67 75 97 29z m284 16 c27 -15 26 -75 -2 -90 -30 -17 -62 -8 -78 21 -13 24 -13
29 2 53 18 27 45 33 78 16z m-883 -302 c21 -21 14 -66 -13 -84 -50 -32 -103
22 -70 72 17 26 62 33 83 12z m302 -7 c16 -31 12 -59 -12 -75 -30 -21 -44 -20
-68 4 -24 24 -26 53 -4 74 22 23 71 20 84 -3z m295 -1 c41 -45 -18 -110 -70
-76 -27 18 -34 63 -13 84 18 18 63 14 83 -8z m293 8 c21 -21 14 -66 -13 -84
-50 -32 -103 22 -70 72 17 26 62 33 83 12z m-694 -1314 c23 -9 20 -24 -5 -21
-29 3 -47 -26 -30 -47 8 -10 21 -14 32 -11 23 8 26 -10 3 -19 -28 -11 -64 20
-64 55 0 9 36 49 44 49 2 0 11 -3 20 -6z m238 -11 c20 -18 24 -63 6 -81 -36
-36 -98 11 -79 61 15 38 44 46 73 20z m-412 -13 l-25 -6 23 -15 c40 -25 15
-74 -26 -49 -15 8 -14 9 6 10 28 0 28 10 0 34 -20 18 -20 19 -4 32 10 7 25 10
34 6 14 -5 12 -7 -8 -12z m100 10 c0 -5 -9 -10 -20 -10 -11 0 -20 -4 -20 -10
0 -5 7 -10 15 -10 8 0 15 -4 15 -10 0 -5 -7 -10 -15 -10 -8 0 -15 -4 -15 -10
0 -5 9 -10 20 -10 11 0 20 -4 20 -10 0 -5 -13 -10 -30 -10 -29 0 -30 1 -30 50
0 49 1 50 30 50 17 0 30 -4 30 -10z m170 0 c0 -5 -4 -10 -10 -10 -5 0 -10 -18
-10 -40 0 -22 -4 -40 -10 -40 -5 0 -10 18 -10 40 0 22 -4 40 -10 40 -5 0 -10
5 -10 10 0 6 14 10 30 10 17 0 30 -4 30 -10z m40 -40 c0 -27 -4 -50 -10 -50
-5 0 -10 23 -10 50 0 28 5 50 10 50 6 0 10 -22 10 -50z m200 23 c0 15 5 27 10
27 6 0 10 -23 10 -52 l0 -52 -30 29 -30 29 0 -27 c0 -15 -4 -27 -10 -27 -5 0
-10 23 -10 52 l0 52 30 -29 30 -29 0 27z m-580 -14 c-13 -8 -13 -10 0 -18 8
-6 11 -13 8 -16 -4 -4 -16 0 -28 8 l-21 15 22 16 c13 8 25 13 28 10 3 -3 -1
-9 -9 -15z m670 -10 c0 -9 -33 -29 -47 -29 -4 0 1 7 11 15 17 13 17 15 3 21
-10 3 -17 10 -17 15 0 5 11 3 25 -3 14 -6 25 -15 25 -19z m-3325 -310 c25 -7
56 -27 81 -53 33 -35 46 -42 72 -40 30 2 32 1 32 -32 0 -30 -3 -34 -25 -34
-14 0 -25 -4 -25 -10 0 -5 11 -10 25 -10 21 0 25 -5 25 -30 0 -28 -2 -30 -38
-30 -30 0 -41 -5 -51 -23 -23 -43 -76 -69 -151 -75 l-70 -5 0 -83 0 -84 -50 0
-50 0 0 135 0 135 -25 0 c-21 0 -25 5 -25 30 0 23 5 30 19 30 11 0 23 5 26 10
4 6 -5 10 -19 10 -22 0 -26 5 -26 29 0 23 5 30 23 33 19 3 22 10 25 56 l3 52
92 0 c51 0 110 -5 132 -11z m385 -249 l0 -260 -50 0 -50 0 0 196 0 196 -30 -7
-30 -7 0 51 0 50 63 20 c107 33 97 58 97 -239z m410 253 c0 -5 -43 -122 -97
-260 l-98 -253 -52 0 -52 0 26 68 c14 37 49 130 78 207 l53 140 -104 3 -104 3
0 49 0 50 175 0 c96 0 175 -3 175 -7z m319 -31 c46 -36 71 -86 71 -140 0 -48
-5 -60 -98 -224 l-67 -118 -57 0 -57 0 50 88 c27 48 49 90 49 94 0 3 -9 4 -19
1 -31 -8 -108 32 -130 68 -41 68 -34 155 17 213 55 62 175 71 241 18z m617 22
c48 -23 99 -86 115 -142 8 -26 13 -80 12 -120 -2 -126 -61 -215 -160 -241
-140 -38 -256 75 -257 249 0 126 47 220 129 256 42 18 120 17 161 -2z m470 0
c48 -23 99 -86 115 -142 8 -26 13 -80 12 -120 -2 -126 -61 -215 -160 -241 -93
-25 -187 21 -228 112 -68 151 -19 340 100 393 42 18 120 17 161 -2z m-846
-414 c28 -28 25 -64 -6 -89 -34 -27 -50 -26 -79 4 -30 29 -31 45 -4 79 25 31
61 34 89 6z m-1914 -385 c-2 -7 -47 -36 -100 -66 -53 -30 -96 -56 -96 -59 0
-3 43 -29 96 -59 53 -30 98 -59 100 -66 3 -7 4 -38 2 -69 l-3 -56 -192 123
c-106 67 -193 124 -193 127 0 3 87 60 193 126 l192 121 3 -55 c2 -30 1 -60 -2
-67z m623 78 c19 -16 20 -20 8 -37 -11 -15 -17 -17 -35 -7 -31 17 -66 13 -95
-9 -33 -26 -41 -63 -22 -100 25 -49 79 -65 119 -35 17 13 21 12 32 -3 19 -25
17 -30 -18 -48 -84 -44 -198 27 -198 123 0 39 29 89 65 113 39 26 114 27 144
3z m246 -3 c116 -72 62 -250 -75 -250 -105 0 -171 107 -122 198 37 70 129 94
197 52z m271 -5 c52 -34 69 -125 34 -183 -26 -42 -73 -62 -145 -62 l-55 0 0
128 c0 71 3 132 8 136 12 13 131 -1 158 -19z m254 0 c0 -24 -3 -25 -55 -25
-54 0 -55 0 -55 -30 0 -29 2 -30 45 -30 41 0 45 -2 45 -25 0 -23 -4 -25 -45
-25 -43 0 -45 -1 -45 -30 0 -30 1 -30 55 -30 52 0 55 -1 55 -25 0 -25 -1 -25
-80 -25 l-80 0 0 135 0 135 80 0 c79 0 80 0 80 -25z m90 -85 l0 -110 55 0 c52
0 55 -1 55 -25 0 -25 -1 -25 -80 -25 l-80 0 0 135 0 135 25 0 25 0 0 -110z
m149 63 l23 -48 24 48 c21 41 29 47 55 47 l31 0 -41 -76 c-35 -64 -41 -84 -41
-135 0 -56 -1 -59 -25 -59 -24 0 -25 3 -25 55 0 46 -7 69 -40 129 -22 40 -40
76 -40 79 0 4 13 7 28 7 24 0 32 -8 51 -47z m421 -88 l0 -135 -25 0 c-22 0
-24 4 -27 57 l-3 58 -34 -53 c-18 -28 -34 -52 -36 -52 -2 0 -18 24 -36 52
l-34 53 -3 -58 c-3 -53 -5 -57 -27 -57 l-25 0 0 133 c1 106 3 129 13 116 7 -9
34 -47 60 -84 l48 -67 61 86 c34 47 63 86 65 86 1 0 3 -61 3 -135z m211 109
c11 -11 22 -37 26 -57 5 -31 1 -40 -25 -67 -23 -22 -40 -30 -66 -30 -36 0 -36
0 -36 -45 0 -41 -2 -45 -25 -45 l-25 0 0 136 0 136 65 -4 c48 -3 71 -9 86 -24z
m119 -109 l0 -135 -25 0 -25 0 0 135 0 135 25 0 25 0 0 -135z m239 118 c19
-16 20 -20 8 -37 -11 -15 -17 -17 -35 -7 -31 17 -66 13 -95 -9 -33 -26 -41
-63 -22 -100 25 -49 79 -65 119 -35 17 13 21 12 32 -3 19 -25 17 -30 -18 -48
-84 -44 -198 27 -198 123 0 39 29 89 65 113 39 26 114 27 144 3z m202 -4 c20
-20 20 -21 3 -34 -13 -9 -24 -10 -40 -3 -13 6 -30 8 -38 5 -29 -11 -16 -37 29
-58 77 -36 96 -89 50 -134 -33 -34 -103 -35 -141 -1 -27 23 -27 23 -7 34 15 8
29 8 52 -1 32 -12 61 -4 64 18 0 6 -25 27 -56 48 -49 33 -57 43 -57 70 0 18 4
37 8 43 25 37 101 45 133 13z m-7171 -257 l0 -118 -185 -105 c-118 -66 -183
-109 -180 -117 4 -10 -32 -12 -172 -10 -106 2 -178 7 -180 13 -3 9 691 454
710 455 4 0 7 -53 7 -118z m4568 -10 c100 -63 182 -117 182 -121 0 -3 -12 -13
-28 -22 -15 -9 -102 -64 -194 -122 l-168 -106 0 67 0 67 100 55 c55 30 100 57
100 60 0 3 -44 31 -97 62 l-98 55 -3 68 c-2 52 0 65 10 59 7 -4 95 -59 196
-122z m742 -137 c0 -21 -5 -25 -30 -25 l-30 0 0 -110 0 -110 -25 0 c-24 0 -24
1 -27 108 l-3 107 -32 3 c-27 3 -33 7 -33 28 0 24 1 24 90 24 89 0 90 0 90
-25z m225 5 c116 -72 62 -250 -75 -250 -105 0 -171 107 -122 198 37 70 129 94
197 52z m255 -5 c0 -21 -5 -25 -30 -25 l-30 0 0 -110 0 -110 -25 0 c-24 0 -24
1 -27 108 l-3 107 -32 3 c-27 3 -33 7 -33 28 0 24 1 24 90 24 89 0 90 0 90
-25z m200 0 c0 -24 -3 -25 -55 -25 -54 0 -55 0 -55 -30 0 -29 2 -30 45 -30 41
0 45 -2 45 -25 0 -23 -4 -25 -45 -25 -43 0 -45 -1 -45 -30 0 -30 1 -30 55 -30
52 0 55 -1 55 -25 0 -25 -1 -25 -80 -25 l-80 0 0 135 0 135 80 0 c79 0 80 0
80 -25z m257 -1 c21 -21 24 -32 20 -60 -4 -24 -2 -37 8 -40 25 -10 39 -61 26
-93 -16 -37 -48 -51 -116 -51 l-55 0 0 135 0 135 45 0 c36 0 52 -6 72 -26z
m260 -109 l62 -135 -29 0 c-20 0 -31 6 -35 20 -5 17 -15 20 -65 20 -49 0 -58
-3 -63 -20 -3 -14 -14 -20 -31 -20 -14 0 -26 3 -26 8 0 12 115 261 121 262 3
0 33 -61 66 -135z m258 123 c28 -12 30 -20 15 -49 -10 -18 -13 -18 -33 -4 -54
38 -131 -3 -131 -70 0 -68 88 -112 136 -68 27 24 22 33 -17 33 -31 0 -35 3
-35 25 0 24 2 25 65 25 63 0 65 -1 65 -26 0 -40 -30 -93 -61 -109 -40 -21
-106 -19 -144 5 -114 70 -62 250 72 250 23 0 54 -5 68 -12z m-6615 -170 l75
-48 -112 0 -113 0 0 71 0 71 38 -23 c20 -13 71 -45 112 -71z m3775 -2 c0 -16
-81 -52 -482 -215 -374 -152 -484 -200 -489 -216 -17 -52 -83 -74 -118 -39
-57 56 6 149 78 116 19 -8 98 21 492 183 258 106 480 192 494 192 17 -2 25 -8
25 -21z m-4750 -98 c15 -7 24 -18 23 -27 -4 -16 -12 -17 -58 -6 -35 9 -80 -27
-80 -63 0 -35 37 -72 71 -72 15 0 31 5 34 10 9 15 22 12 29 -7 9 -23 -19 -43
-60 -43 -71 0 -114 43 -114 116 0 28 8 44 34 70 37 37 74 44 121 22z m211 -7
c42 -26 60 -78 44 -126 -16 -49 -53 -75 -107 -75 -38 0 -50 5 -79 34 -28 28
-34 42 -34 76 0 34 6 48 34 76 40 40 92 46 142 15z m199 5 c18 -8 38 -23 44
-34 14 -26 14 -97 1 -123 -16 -28 -63 -49 -115 -49 l-45 0 0 110 0 110 40 0
c22 0 56 -6 75 -14z m215 -5 c0 -16 -8 -20 -42 -23 -35 -2 -43 -7 -43 -23 0
-16 8 -21 38 -23 28 -2 37 -8 37 -22 0 -14 -9 -20 -37 -22 -30 -2 -38 -7 -38
-23 0 -16 8 -21 43 -23 34 -3 42 -7 42 -23 0 -17 -7 -19 -65 -19 l-65 0 0 103
c0 57 3 107 7 110 3 4 33 7 65 7 51 0 58 -2 58 -19z m80 -71 l0 -90 45 0 c38
0 45 -3 45 -20 0 -18 -7 -20 -65 -20 l-65 0 0 110 c0 103 1 110 20 110 19 0
20 -7 20 -90z m123 55 c9 -19 20 -35 25 -35 5 0 16 16 25 35 11 23 24 35 37
35 26 0 25 -5 -10 -69 -22 -39 -30 -68 -30 -103 0 -41 -3 -48 -20 -48 -17 0
-20 7 -20 40 0 26 -12 63 -32 103 -18 34 -34 65 -36 70 -2 4 7 7 20 7 18 0 29
-9 41 -35z m239 -96 c4 -2 30 27 58 66 l50 69 0 -112 c0 -104 -1 -112 -19
-112 -17 0 -20 8 -23 47 l-3 47 -29 -44 c-32 -48 -30 -49 -78 21 l-17 24 0
-47 c-1 -41 -4 -48 -21 -48 -19 0 -20 7 -20 111 l0 112 48 -66 c26 -35 50 -66
54 -68z m258 118 c14 -7 31 -24 38 -39 22 -47 -12 -89 -83 -100 -15 -3 -20
-11 -20 -33 -1 -23 -6 -31 -23 -33 -22 -3 -22 -1 -22 101 0 57 3 107 7 110 11
11 76 7 103 -6z m110 -97 c0 -103 -1 -110 -20 -110 -19 0 -20 7 -20 110 0 103
1 110 20 110 19 0 20 -7 20 -110z m195 98 c27 -12 29 -16 17 -35 -6 -10 -15
-10 -40 -1 -28 11 -35 10 -59 -8 -70 -53 -10 -155 67 -114 13 7 21 5 31 -6 34
-41 -79 -61 -132 -24 -104 75 -2 242 116 188z m170 -2 c16 -12 17 -16 6 -29
-10 -13 -17 -14 -31 -5 -19 12 -50 5 -50 -11 0 -6 15 -18 33 -27 49 -25 67
-45 67 -72 0 -40 -27 -62 -75 -62 -51 0 -86 29 -60 50 12 10 18 10 29 0 19
-15 61 -9 61 9 0 8 -20 26 -45 41 -36 21 -46 32 -48 57 -5 52 66 83 113 49z
m767 -77 c3 -29 9 -99 13 -155 7 -97 6 -101 -17 -129 -15 -17 -29 -25 -37 -21
-9 6 -7 14 9 31 21 23 22 29 15 148 -4 68 -10 129 -14 135 -4 7 -44 -13 -104
-50 -54 -33 -101 -58 -104 -54 -4 4 0 13 8 21 25 24 204 134 214 131 6 -1 13
-27 17 -57z m3658 -31 c0 -2 -9 -27 -20 -56 -25 -66 -25 -127 -1 -197 l19 -55
-22 0 c-41 0 -73 100 -62 193 8 64 38 117 66 117 11 0 20 -1 20 -2z m1224 -38
c45 -77 16 -270 -40 -270 l-22 0 19 55 c24 70 24 131 -1 197 -24 65 -25 60 2
56 13 -2 31 -18 42 -38z m-1057 -6 c21 -21 24 -32 20 -60 -4 -24 -2 -37 8 -40
25 -10 39 -61 26 -93 -16 -37 -48 -51 -116 -51 l-55 0 0 135 0 135 45 0 c36 0
52 -6 72 -26z m143 -84 l0 -110 55 0 c52 0 55 -1 55 -25 0 -25 -1 -25 -80 -25
l-80 0 0 135 0 135 25 0 25 0 0 -110z m317 -25 l62 -135 -29 0 c-20 0 -31 6
-35 20 -5 17 -15 20 -65 20 -49 0 -58 -3 -63 -20 -3 -14 -14 -20 -31 -20 -14
0 -26 3 -26 8 0 12 115 261 121 262 3 0 33 -61 66 -135z m262 118 c19 -16 20
-20 8 -37 -11 -15 -17 -17 -35 -7 -31 17 -66 13 -95 -9 -33 -26 -41 -63 -22
-100 25 -49 79 -65 119 -35 17 13 21 12 32 -3 19 -25 17 -30 -18 -48 -84 -44
-198 27 -198 123 0 39 29 89 65 113 39 26 114 27 144 3z m111 -40 l0 -58 38
57 c30 47 42 58 65 58 15 0 27 -2 27 -6 0 -3 -18 -32 -41 -65 l-40 -60 45 -65
c25 -36 46 -67 46 -69 0 -3 -13 -5 -29 -5 -24 0 -35 10 -67 56 l-39 57 -3 -57
c-3 -52 -5 -56 -27 -56 l-25 0 0 135 0 135 25 0 c24 0 25 -3 25 -57z m-4750 8
c13 -25 13 -51 0 -51 -6 0 -15 11 -20 25 -5 14 -14 25 -20 25 -5 0 -10 5 -10
10 0 18 39 11 50 -9z m-197 -13 c3 -10 -96 -78 -102 -72 -7 7 81 84 92 81 5
-1 9 -6 10 -9z m151 -20 c8 -13 24 -51 36 -85 18 -51 20 -66 10 -78 -15 -19
-173 -70 -192 -63 -8 4 -27 41 -43 83 -27 75 -27 77 -9 95 20 20 137 69 166
70 10 0 24 -10 32 -22z m-1606 -110 c2 -38 0 -68 -3 -68 -7 0 -195 118 -210
132 -6 5 34 8 100 6 l110 -3 3 -67z m712 62 c10 -6 11 -12 5 -19 -13 -12 -704
-451 -711 -451 -2 0 -3 55 -2 122 l3 123 180 102 c117 67 180 108 179 118 -2
13 21 15 165 15 91 0 173 -5 181 -10z m980 -19 c5 -11 10 -24 10 -30 0 -12
-30 -15 -30 -3 0 4 -3 17 -6 30 -8 27 11 30 26 3z m-250 -188 c22 -11 23 -13
6 -19 -23 -9 -56 27 -56 60 0 20 1 19 13 -4 7 -13 23 -30 37 -37z m194 36 c-8
-13 -225 -121 -231 -115 -6 6 20 23 132 85 81 45 115 56 99 30z m174 -65 c31
-26 59 -51 60 -55 7 -18 -20 -8 -63 21 l-43 30 -7 -75 c-7 -67 -17 -93 -27
-65 -7 21 4 190 13 190 5 0 35 -21 67 -46z m-421 -66 c-3 -8 -6 -5 -6 6 -1 11
2 17 5 13 3 -3 4 -12 1 -19z m549 -15 c9 -10 27 -16 39 -15 26 4 58 -30 53
-55 -2 -10 5 -26 14 -35 23 -23 23 -51 -1 -72 -11 -10 -17 -25 -14 -37 7 -26
-25 -61 -52 -57 -12 1 -30 -5 -39 -15 -22 -21 -35 -21 -66 0 -14 10 -35 16
-47 15 -25 -4 -57 36 -48 60 3 8 -1 21 -10 28 -20 17 -20 76 1 84 10 4 14 12
10 22 -10 25 21 66 47 62 12 -1 33 5 47 15 31 21 44 21 66 0z m204 -102 c77
-40 92 -50 84 -62 -5 -8 -132 50 -161 73 -13 10 -8 32 5 26 4 -2 36 -18 72
-37z m18 -73 c53 -37 16 -132 -46 -120 -68 13 -86 56 -48 114 19 30 57 32 94
6z m-653 -5 c34 -16 46 -33 24 -33 -12 0 -79 39 -79 46 0 8 20 4 55 -13z m757
-8 c0 -5 -5 -11 -11 -13 -6 -2 -11 4 -11 13 0 9 5 15 11 13 6 -2 11 -8 11 -13z
m-855 -72 c-3 -10 -5 -2 -5 17 0 19 2 27 5 18 2 -10 2 -26 0 -35z m1110 -82
c115 -70 209 -135 211 -143 2 -10 -58 -54 -178 -132 -100 -64 -185 -116 -190
-116 -28 0 0 26 87 82 54 35 133 86 176 114 l78 51 -108 66 c-59 37 -150 93
-202 125 -87 53 -119 82 -92 82 6 0 104 -58 218 -129z m-2927 90 c76 -55 56
-161 -37 -192 -44 -14 -102 13 -123 58 -17 36 -30 43 -30 15 0 -24 -39 -60
-76 -71 -72 -20 -134 30 -134 106 0 63 40 103 103 103 51 0 107 -37 107 -71 0
-29 13 -23 30 14 18 38 74 70 110 62 14 -3 36 -14 50 -24z m473 -11 c21 -23
27 -40 27 -74 0 -59 -41 -96 -104 -96 -52 0 -81 20 -96 65 -36 111 95 191 173
105z m1551 30 c42 -16 31 -30 -19 -23 -58 7 -99 -10 -126 -54 -32 -51 -22
-108 27 -151 38 -33 42 -52 5 -33 -12 7 -22 7 -26 1 -7 -12 -32 -2 -39 16 -4
12 -2 12 14 4 24 -13 25 -7 4 26 -23 35 -23 123 0 158 17 28 86 65 118 66 9 0
28 -4 42 -10z m642 -16 c5 -18 0 -34 -15 -54 -26 -35 -13 -46 29 -25 50 26 82
-12 41 -49 -15 -13 -21 -14 -27 -5 -4 7 -2 15 4 17 7 2 12 8 12 12 0 5 -15 3
-33 -5 -30 -12 -37 -12 -55 1 -27 19 -28 36 -2 59 12 11 20 28 19 39 -3 45 17
52 27 10z m-2023 9 c-7 -2 -19 -2 -25 0 -7 3 -2 5 12 5 14 0 19 -2 13 -5z
m278 -3 c26 -14 49 -62 49 -103 0 -70 -78 -121 -144 -93 -51 22 -71 52 -70
104 1 38 6 50 33 74 34 30 93 38 132 18z m4310 -10 c94 -29 138 -62 185 -138
50 -81 72 -154 115 -372 17 -91 53 -262 80 -380 27 -118 56 -258 64 -310 23
-135 49 -238 95 -370 l39 -115 259 -3 259 -2 17 80 c10 44 22 117 27 163 20
195 29 251 43 295 8 26 20 72 26 102 23 104 73 250 96 282 96 130 290 183 468
128 150 -47 218 -147 272 -400 8 -36 21 -96 29 -135 8 -38 26 -126 39 -195 14
-69 36 -172 50 -230 14 -58 36 -168 50 -245 28 -154 48 -230 99 -380 l33 -100
310 -3 310 -2 17 -29 c15 -25 17 -60 18 -235 1 -112 -2 -210 -6 -217 -5 -6
-11 -84 -16 -173 -5 -111 -14 -188 -30 -249 -21 -87 -22 -90 -5 -180 14 -74
16 -140 14 -342 -3 -233 8 -449 32 -640 6 -44 10 -134 10 -200 1 -171 15 -407
35 -570 19 -153 15 -181 -28 -210 -51 -33 -209 -66 -382 -80 -93 -8 -231 -26
-305 -40 -125 -24 -147 -26 -295 -19 -132 5 -197 2 -363 -16 l-202 -22 -113
20 c-124 23 -413 52 -522 53 -119 0 -157 11 -240 67 -42 29 -83 52 -91 52 -8
0 -42 -12 -77 -26 -68 -29 -106 -28 -204 4 -54 17 -54 17 -48 52 10 55 53 201
73 245 34 79 87 116 153 108 33 -4 59 -1 81 10 41 19 165 40 180 31 7 -5 9 -2
5 9 -5 14 -3 15 13 4 16 -9 24 -9 40 1 11 7 20 8 20 4 0 -4 23 -8 51 -8 46 0
50 2 45 20 -4 20 -4 19 11 -2 19 -27 43 -29 43 -4 0 15 6 18 30 14 21 -3 30 0
30 9 0 8 6 3 13 -11 24 -47 70 -35 82 22 5 20 10 26 15 18 6 -10 13 -7 26 9
11 13 32 29 48 38 26 13 27 16 12 25 -11 6 -37 5 -79 -6 -34 -8 -114 -17 -177
-21 -127 -6 -206 -17 -355 -47 -87 -17 -122 -19 -270 -13 -139 6 -205 3 -362
-14 -150 -17 -205 -19 -250 -12 -132 23 -196 31 -348 46 -88 8 -194 15 -235
16 -125 1 -162 11 -245 67 -42 29 -83 52 -91 52 -8 0 -43 -12 -77 -26 -57 -25
-67 -26 -122 -16 -33 5 -77 17 -97 26 -35 15 -37 18 -31 53 3 21 14 64 24 95
11 32 19 64 19 71 0 8 9 34 19 58 24 56 42 206 26 219 -6 5 -139 77 -296 159
-213 112 -284 154 -284 168 0 10 7 19 16 21 9 2 141 -62 294 -142 152 -81 280
-146 284 -146 22 0 26 127 18 595 -12 733 -8 829 43 1100 11 55 25 152 31 216
10 101 10 129 -4 206 -9 49 -20 134 -23 190 -7 95 -6 101 14 112 38 20 167 32
391 34 178 2 224 6 231 17 5 8 11 37 15 65 3 27 12 82 20 120 8 39 29 147 46
240 17 94 42 215 55 270 13 55 30 161 39 235 22 192 29 231 63 360 71 267 88
300 189 377 80 61 252 81 374 43z m-3087 -36 c35 -35 13 -59 -92 -99 -53 -20
-82 -25 -107 -21 -19 4 -35 10 -35 14 0 23 54 66 115 91 82 34 98 36 119 15z
m332 -55 c71 -44 100 -69 79 -69 -7 0 -185 111 -185 116 0 12 32 -2 106 -47z
m94 -6 c55 -35 73 -53 52 -53 -11 0 -132 78 -132 85 0 12 24 3 80 -32z m309
-48 c25 -8 58 -17 74 -20 44 -9 70 -41 62 -78 -10 -44 -33 -67 -65 -65 -29 2
-105 -47 -95 -61 9 -16 -31 -39 -68 -39 -45 0 -77 34 -77 84 0 18 -5 44 -12
58 -16 36 -2 59 57 100 58 40 62 41 124 21z m-759 -20 c0 -20 -58 -65 -83 -65
-28 0 -51 15 -44 27 3 5 19 8 36 5 23 -3 33 2 52 27 22 30 39 33 39 6z m562
-10 c0 -5 -5 -11 -11 -13 -6 -2 -11 4 -11 13 0 9 5 15 11 13 6 -2 11 -8 11
-13z m-91 -25 c22 -12 37 -25 34 -30 -9 -14 -167 -110 -182 -110 -30 0 -9 21
62 62 41 23 75 46 75 50 0 4 -9 10 -20 13 -11 3 -20 13 -20 21 0 18 3 18 51
-6z m-440 -23 c-1 -4 -1 -43 -1 -87 0 -61 -3 -80 -14 -80 -17 0 -186 109 -186
121 0 17 22 9 91 -36 38 -25 72 -45 74 -45 3 0 5 17 5 39 0 54 11 102 22 99 5
-2 9 -7 9 -11z m502 -88 c27 -39 34 -59 20 -59 -5 0 -21 -11 -37 -24 l-30 -23
22 -31 c12 -16 22 -34 22 -40 0 -10 -74 -62 -89 -62 -5 0 -19 16 -31 35 l-21
35 -37 -25 c-20 -14 -40 -25 -43 -25 -10 0 -61 80 -57 90 4 12 230 169 243
169 6 0 22 -18 38 -40z m-270 -84 c3 -16 -166 -95 -178 -83 -7 7 -6 12 3 15 8
3 46 22 85 43 74 38 87 42 90 25z m297 -14 c0 -5 9 -11 21 -14 12 -3 18 -10
14 -16 -10 -18 -43 -13 -55 8 -13 26 -13 31 5 31 8 0 15 -4 15 -9z m-400 -85
c0 -8 -4 -17 -9 -20 -10 -7 -23 19 -14 28 11 11 23 6 23 -8z m419 -23 c-28
-33 -287 -193 -314 -193 -3 0 -5 6 -5 13 0 6 33 29 73 50 39 21 106 62 147 92
75 53 128 74 99 38z m-501 -12 c3 -8 -1 -12 -9 -9 -7 2 -15 10 -17 17 -3 8 1
12 9 9 7 -2 15 -10 17 -17z m172 9 c0 -12 -28 -25 -36 -17 -9 9 6 27 22 27 8
0 14 -5 14 -10z m-56 -31 c30 -24 36 -81 11 -113 -8 -11 -15 -28 -15 -38 0
-10 -12 -24 -26 -30 -23 -11 -29 -10 -45 11 -11 13 -19 31 -19 40 0 9 -7 25
-15 35 -22 29 -18 64 10 91 30 30 64 32 99 4z m181 -9 c-5 -8 -11 -8 -17 -2
-6 6 -7 16 -3 22 5 8 11 8 17 2 6 -6 7 -16 3 -22z m-320 -40 c3 -6 -1 -13 -10
-16 -19 -8 -30 0 -20 15 8 14 22 14 30 1z m219 -11 c-7 -11 -34 -12 -34 -1 0
14 11 21 26 15 8 -3 11 -9 8 -14z m-204 -171 c16 9 32 13 36 9 8 -8 -63 -72
-81 -72 -6 0 -9 33 -8 89 3 118 17 145 21 39 l3 -82 29 17z m-475 -178 c3 -6
-1 -7 -9 -4 -24 9 -19 -11 6 -28 12 -8 18 -19 14 -26 -9 -14 -46 -16 -46 -2 0
5 7 7 15 4 20 -8 19 13 -2 24 -10 6 -14 16 -10 26 7 18 23 21 32 6z m95 0 c0
-5 -4 -10 -10 -10 -5 0 -10 -13 -10 -30 0 -16 -4 -30 -10 -30 -5 0 -10 13 -10
28 0 15 -5 33 -12 40 -9 9 -5 12 20 12 18 0 32 -4 32 -10z m72 -28 l15 -37
-37 0 -37 0 16 37 c9 21 19 38 22 38 3 0 13 -17 21 -38z m98 23 c10 -12 10
-19 2 -27 -8 -8 -9 -15 -1 -25 16 -19 -1 -16 -24 5 -19 16 -20 16 -14 0 4 -10
2 -18 -3 -18 -6 0 -10 18 -10 40 0 32 4 40 19 40 10 0 24 -7 31 -15z m90 5 c0
-5 -4 -10 -10 -10 -5 0 -10 -13 -10 -30 0 -16 -4 -30 -10 -30 -5 0 -10 14 -10
30 0 17 -4 30 -10 30 -5 0 -10 5 -10 10 0 6 14 10 30 10 17 0 30 -4 30 -10z
m42 -22 c2 -18 8 -33 13 -33 6 0 11 15 13 33 4 43 22 41 22 -3 0 -39 -24 -59
-52 -44 -12 6 -18 21 -18 44 0 44 18 46 22 3z m129 16 c10 -13 8 -19 -14 -40
-14 -13 -29 -24 -32 -24 -3 0 -5 18 -5 40 0 32 4 40 19 40 10 0 24 -7 32 -16z
m105 -14 c8 0 14 7 14 15 0 8 5 15 10 15 6 0 10 -18 10 -40 0 -22 -4 -40 -10
-40 -5 0 -10 7 -10 16 0 9 -6 14 -12 11 -7 -2 -12 -10 -10 -16 1 -6 -5 -11
-13 -11 -10 0 -15 10 -15 33 0 36 13 59 18 33 2 -9 10 -16 18 -16z m123 -9
l20 -38 -39 1 c-22 0 -40 2 -40 3 0 5 34 73 37 73 1 0 11 -17 22 -39z m101 29
c0 -5 -9 -10 -19 -10 -11 0 -23 -5 -26 -10 -9 -15 14 -40 31 -33 8 3 14 1 14
-5 0 -18 -27 -21 -49 -6 -23 17 -27 44 -9 62 15 15 58 16 58 2z m50 -1 c0 -8
5 -7 15 1 20 17 32 5 15 -15 -10 -12 -10 -18 0 -30 17 -20 5 -32 -15 -15 -10
8 -15 9 -15 1 0 -6 -4 -11 -10 -11 -5 0 -10 18 -10 40 0 22 5 40 10 40 6 0 10
-5 10 -11z m129 -28 l20 -38 -39 1 c-22 0 -40 1 -40 2 0 8 31 74 35 74 2 0 13
-17 24 -39z m91 29 c0 -5 -4 -10 -10 -10 -5 0 -10 -13 -10 -30 0 -16 -4 -30
-10 -30 -5 0 -10 14 -10 30 0 17 -4 30 -10 30 -5 0 -10 5 -10 10 0 6 14 10 30
10 17 0 30 -4 30 -10z m40 -5 c0 -8 7 -15 15 -15 8 0 15 7 15 15 0 8 5 15 10
15 6 0 10 -18 10 -40 0 -22 -4 -40 -10 -40 -5 0 -10 7 -10 15 0 8 -7 15 -15
15 -8 0 -15 -7 -15 -15 0 -8 -4 -15 -10 -15 -5 0 -10 18 -10 40 0 22 5 40 10
40 6 0 10 -7 10 -15z m148 3 c20 -20 14 -58 -10 -67 -43 -17 -85 31 -58 64 15
18 52 19 68 3z m92 -10 c0 12 5 22 10 22 6 0 10 -18 10 -40 0 -44 -5 -48 -32
-23 -17 15 -18 15 -18 0 0 -10 -4 -17 -10 -17 -5 0 -10 19 -10 42 l0 41 25
-23 25 -23 0 21z m-1524 -44 c-8 -22 -50 -13 -54 11 -4 20 -3 20 11 1 17 -23
37 -14 38 17 1 18 2 19 6 4 3 -10 2 -25 -1 -33z m-3386 -2033 l0 -779 24 -16
c64 -41 29 -145 -49 -145 -34 0 -56 14 -73 46 -18 33 -14 59 13 91 l25 30 0
776 0 776 30 0 30 0 0 -779z m5380 448 c-11 -8 -12 -12 -2 -16 6 -2 12 -9 12
-14 0 -5 -9 -4 -19 3 -15 9 -17 15 -9 25 6 7 16 13 22 13 6 0 4 -5 -4 -11z
m-3424 -744 c-2 -7 -47 -36 -100 -66 -53 -30 -96 -56 -96 -59 0 -3 43 -29 96
-59 53 -30 98 -59 100 -66 3 -7 4 -38 2 -69 l-3 -56 -192 123 c-106 67 -193
124 -193 127 0 3 87 60 193 126 l192 121 3 -55 c2 -30 1 -60 -2 -67z m623 78
c19 -16 20 -20 8 -37 -11 -15 -17 -17 -35 -7 -31 17 -66 13 -95 -9 -33 -26
-41 -63 -22 -100 25 -49 79 -65 119 -35 17 13 21 12 32 -3 19 -25 17 -30 -18
-48 -84 -44 -198 27 -198 123 0 39 29 89 65 113 39 26 114 27 144 3z m246 -3
c116 -72 62 -250 -75 -250 -105 0 -171 107 -122 198 37 70 129 94 197 52z
m271 -5 c52 -34 69 -125 34 -183 -26 -42 -73 -62 -145 -62 l-55 0 0 128 c0 71
3 132 8 136 12 13 131 -1 158 -19z m254 0 c0 -24 -3 -25 -55 -25 -54 0 -55 0
-55 -30 0 -29 2 -30 45 -30 41 0 45 -2 45 -25 0 -23 -4 -25 -45 -25 -43 0 -45
-1 -45 -30 0 -30 1 -30 55 -30 52 0 55 -1 55 -25 0 -25 -1 -25 -80 -25 l-80 0
0 135 0 135 80 0 c79 0 80 0 80 -25z m90 -85 l0 -110 55 0 c52 0 55 -1 55 -25
0 -25 -1 -25 -80 -25 l-80 0 0 135 0 135 25 0 25 0 0 -110z m149 63 l23 -48
24 48 c21 41 29 47 55 47 l31 0 -41 -76 c-35 -64 -41 -84 -41 -135 0 -56 -1
-59 -25 -59 -24 0 -25 3 -25 55 0 46 -7 69 -40 129 -22 40 -40 76 -40 79 0 4
13 7 28 7 24 0 32 -8 51 -47z m421 -88 l0 -135 -25 0 c-22 0 -24 4 -27 57 l-3
58 -34 -53 c-18 -28 -34 -52 -36 -52 -2 0 -18 24 -36 52 l-34 53 -3 -58 c-3
-53 -5 -57 -27 -57 l-25 0 0 133 c1 106 3 129 13 116 7 -9 34 -47 60 -84 l48
-67 61 86 c34 47 63 86 65 86 1 0 3 -61 3 -135z m211 109 c11 -11 22 -37 26
-57 5 -31 1 -40 -25 -67 -23 -22 -40 -30 -66 -30 -36 0 -36 0 -36 -45 0 -41
-2 -45 -25 -45 l-25 0 0 136 0 136 65 -4 c48 -3 71 -9 86 -24z m119 -109 l0
-135 -25 0 -25 0 0 135 0 135 25 0 25 0 0 -135z m239 118 c19 -16 20 -20 8
-37 -11 -15 -17 -17 -35 -7 -31 17 -66 13 -95 -9 -33 -26 -41 -63 -22 -100 25
-49 79 -65 119 -35 17 13 21 12 32 -3 19 -25 17 -30 -18 -48 -84 -44 -198 27
-198 123 0 39 29 89 65 113 39 26 114 27 144 3z m202 -4 c20 -20 20 -21 3 -34
-13 -9 -24 -10 -40 -3 -13 6 -30 8 -38 5 -29 -11 -16 -37 29 -58 77 -36 96
-89 50 -134 -33 -34 -103 -35 -141 -1 -27 23 -27 23 -7 34 15 8 29 8 52 -1 32
-12 61 -4 64 18 0 6 -25 27 -56 48 -49 33 -57 43 -57 70 0 18 4 37 8 43 25 37
101 45 133 13z m-2603 -267 c100 -64 182 -118 182 -121 0 -3 -12 -13 -28 -22
-15 -9 -102 -64 -194 -122 l-168 -106 0 67 0 67 100 55 c55 30 100 57 100 60
0 3 -44 31 -97 62 l-98 55 -3 68 c-2 52 0 65 10 59 7 -4 95 -59 196 -122z
m742 -147 c0 -21 -5 -25 -30 -25 l-30 0 0 -110 0 -110 -25 0 c-24 0 -24 1 -27
108 l-3 107 -32 3 c-27 3 -33 7 -33 28 0 24 1 24 90 24 89 0 90 0 90 -25z
m225 5 c116 -72 62 -250 -75 -250 -105 0 -171 107 -122 198 37 70 129 94 197
52z m255 -5 c0 -21 -5 -25 -30 -25 l-30 0 0 -110 0 -110 -25 0 c-24 0 -24 1
-27 108 l-3 107 -32 3 c-27 3 -33 7 -33 28 0 24 1 24 90 24 89 0 90 0 90 -25z
m200 0 c0 -24 -3 -25 -55 -25 -54 0 -55 0 -55 -30 0 -29 2 -30 45 -30 41 0 45
-2 45 -25 0 -23 -4 -25 -45 -25 -43 0 -45 -1 -45 -30 0 -30 1 -30 55 -30 52 0
55 -1 55 -25 0 -25 -1 -25 -80 -25 l-80 0 0 135 0 135 80 0 c79 0 80 0 80 -25z
m257 -1 c21 -21 24 -32 20 -60 -4 -24 -2 -37 8 -40 25 -10 39 -61 26 -93 -16
-37 -48 -51 -116 -51 l-55 0 0 135 0 135 45 0 c36 0 52 -6 72 -26z m260 -109
l62 -135 -29 0 c-20 0 -31 6 -35 20 -5 17 -15 20 -65 20 -49 0 -58 -3 -63 -20
-3 -14 -14 -20 -31 -20 -14 0 -26 3 -26 8 0 12 115 261 121 262 3 0 33 -61 66
-135z m258 123 c28 -12 30 -20 15 -49 -10 -18 -13 -18 -33 -4 -54 38 -131 -3
-131 -70 0 -68 88 -112 136 -68 27 24 22 33 -17 33 -31 0 -35 3 -35 25 0 24 2
25 65 25 63 0 65 -1 65 -26 0 -40 -30 -93 -61 -109 -40 -21 -106 -19 -144 5
-114 70 -62 250 72 250 23 0 54 -5 68 -12z m-3895 -178 c13 -13 20 -33 20 -59
0 -73 -84 -108 -135 -56 -52 51 -17 135 56 135 26 0 46 -7 59 -20z m450 -2
c30 -33 27 -91 -6 -117 -80 -63 -181 42 -112 116 29 31 89 32 118 1z m2110
-190 c0 -2 -9 -27 -20 -56 -25 -66 -25 -127 -1 -197 l19 -55 -22 0 c-41 0 -73
100 -62 193 8 64 38 117 66 117 11 0 20 -1 20 -2z m1174 -38 c45 -77 16 -270
-40 -270 l-22 0 19 55 c24 70 24 131 -1 197 -24 65 -25 60 2 56 13 -2 31 -18
42 -38z m-1070 -50 l19 -65 30 65 30 65 25 -57 c14 -32 28 -58 32 -58 4 0 15
27 24 60 16 55 19 60 45 60 l29 0 -41 -130 c-22 -71 -43 -130 -47 -130 -3 0
-20 30 -37 68 l-30 67 -34 -73 -34 -73 -43 128 c-23 71 -42 132 -42 137 0 4
12 6 27 4 24 -3 30 -10 47 -68z m316 15 l0 -55 50 0 50 0 0 55 c0 52 1 55 25
55 l25 0 0 -135 0 -135 -24 0 c-23 0 -25 4 -28 53 l-3 52 -47 3 -48 3 0 -55
c0 -53 -1 -56 -25 -56 l-25 0 0 135 0 135 25 0 c24 0 25 -3 25 -55z m250 -80
l0 -135 -25 0 -25 0 0 135 0 135 25 0 25 0 0 -135z m210 110 c0 -21 -5 -25
-30 -25 l-30 0 0 -110 0 -110 -25 0 c-24 0 -24 1 -27 108 l-3 107 -32 3 c-27
3 -33 7 -33 28 0 24 1 24 90 24 89 0 90 0 90 -25z m200 0 c0 -24 -3 -25 -55
-25 -54 0 -55 0 -55 -30 0 -29 2 -30 45 -30 41 0 45 -2 45 -25 0 -23 -4 -25
-45 -25 -43 0 -45 -1 -45 -30 0 -30 1 -30 55 -30 52 0 55 -1 55 -25 0 -25 -1
-25 -80 -25 l-80 0 0 135 0 135 80 0 c79 0 80 0 80 -25z m-4088 -213 c10 -9
20 -31 24 -49 5 -27 1 -37 -24 -63 -17 -16 -40 -30 -51 -30 -71 0 -114 73 -75
128 30 44 89 50 126 14z m450 1 c12 -11 18 -30 18 -59 0 -66 -57 -102 -113
-72 -32 17 -46 39 -46 73 0 72 86 108 141 58z m427 12 c73 -37 43 -155 -39
-155 -85 0 -110 117 -35 158 27 15 41 15 74 -3z m9329 -281 c39 -27 19 -94
-28 -94 -43 0 -58 69 -22 98 20 15 23 15 50 -4z m102 -21 c0 15 5 27 10 27 6
0 10 -23 10 -52 l0 -52 -30 29 -30 29 0 -27 c0 -15 -4 -27 -10 -27 -5 0 -10
23 -10 52 l0 52 30 -29 30 -29 0 27z m89 -19 c6 -6 -31 -33 -44 -33 -5 0 -1 6
9 14 17 13 17 15 3 21 -10 3 -17 10 -17 15 0 8 34 -4 49 -17z m-10397 -144
c25 -26 29 -36 24 -63 -15 -73 -96 -97 -142 -43 -26 30 -30 53 -13 90 24 52
87 59 131 16z m442 9 c20 -16 26 -29 26 -59 0 -53 -27 -84 -75 -84 -75 0 -113
89 -59 139 33 30 73 32 108 4z m451 -4 c44 -43 31 -112 -25 -135 -35 -15 -84
0 -100 31 -30 55 10 129 70 129 19 0 40 -9 55 -25z m7212 -51 c-3 -3 -12 -4
-19 -1 -8 3 -5 6 6 6 11 1 17 -2 13 -5z m-120 -91 c-3 -10 -5 -4 -5 12 0 17 2
24 5 18 2 -7 2 -21 0 -30z m-7093 -304 c57 -45 13 -159 -57 -145 -74 15 -102
92 -52 141 30 31 73 32 109 4z m638 -542 c21 -33 4 -64 -40 -73 l-32 -6 0 52
0 53 32 -7 c18 -3 36 -12 40 -19z m48 -27 c0 -27 -4 -50 -10 -50 -5 0 -10 23
-10 50 0 28 5 50 10 50 6 0 10 -22 10 -50z m46 25 c3 -14 10 -25 15 -25 5 0
11 11 15 25 3 14 13 25 20 25 12 0 11 -7 -4 -37 -11 -21 -21 -45 -24 -53 -3
-10 -12 -1 -26 27 -24 46 -27 63 -12 63 5 0 12 -11 16 -25z m-196 -16 c-13 -8
-13 -10 0 -18 8 -6 11 -13 8 -16 -4 -4 -16 0 -28 8 l-21 15 22 16 c13 8 25 13
28 10 3 -3 -1 -9 -9 -15z m318 -2 c10 -8 8 -13 -8 -24 -12 -8 -24 -12 -28 -8
-3 3 0 11 8 16 11 8 12 12 3 16 -7 2 -13 9 -13 14 0 10 13 5 38 -14z m6310
-459 l-3 -213 -210 0 -210 0 -3 213 -2 212 215 0 215 0 -2 -212z m482 -3 l0
-215 -212 2 -213 3 -3 213 -2 212 215 0 215 0 0 -215z m1460 5 l0 -210 -210 0
-210 0 0 210 0 210 210 0 210 0 0 -210z m-491 -5 l2 -205 -208 0 -208 0 3 177
c2 127 6 173 13 163 9 -12 9 -11 4 5 -4 11 -10 30 -12 43 l-5 22 204 0 205 0
2 -205z m-832 142 c2 -27 -2 -40 -13 -44 -20 -8 -33 13 -29 46 2 14 4 30 4 34
1 5 9 7 19 5 12 -2 18 -14 19 -41z m133 26 c0 -7 -6 -13 -12 -14 -74 -6 -88
-5 -88 11 0 12 11 16 50 15 33 0 50 -4 50 -12z m98 2 c10 -9 -5 -16 -37 -17
-37 -1 -51 9 -31 22 15 9 57 6 68 -5z m68 -13 c-6 -11 -56 -4 -56 8 0 11 43
18 54 9 4 -4 6 -12 2 -17z m1189 -17 c0 -39 -1 -40 -36 -42 -36 -2 -37 -1 -41
37 -4 43 -1 46 46 45 30 0 31 -2 31 -40z m151 25 c0 -18 -7 -20 -58 -20 -54 0
-76 10 -64 28 3 5 32 10 64 11 52 1 58 -1 58 -19z m273 -27 l-1 -48 -8 40 c-7
37 -5 55 6 55 2 0 3 -21 3 -47z m46 10 c-10 -56 -22 -61 -21 -8 1 31 5 45 15
45 10 0 12 -9 6 -37z m94 26 c15 10 51 3 51 -10 0 -4 -22 -7 -50 -6 -34 1 -50
5 -50 14 0 10 5 11 18 4 10 -5 24 -6 31 -2z m160 -17 c0 -9 -2 -12 -5 -7 -2 6
-24 9 -49 8 -25 0 -45 2 -45 7 0 4 23 8 50 9 41 0 50 -2 49 -17z m-2032 -42
c-1 -11 -14 -15 -54 -14 -29 0 -56 3 -59 7 -4 4 -13 2 -21 -4 -10 -9 -13 -7
-13 7 0 17 8 19 74 19 60 0 74 -3 73 -15z m131 11 c22 -2 13 -21 -10 -20 -13
0 -40 -2 -61 -4 -36 -4 -54 4 -44 21 4 6 65 8 115 3z m1293 4 c11 -4 19 -13
19 -21 0 -10 -13 -14 -50 -14 -41 0 -50 3 -50 18 0 19 45 28 81 17z m449 -14
c0 -12 -21 -19 -37 -13 -22 8 -14 22 12 22 14 0 25 -4 25 -9z m60 -5 c0 -9 -7
-12 -20 -9 -11 3 -20 9 -20 14 0 5 9 9 20 9 11 0 20 -6 20 -14z m80 1 c0 -8
-12 -13 -32 -12 -44 1 -46 20 -3 23 24 2 35 -2 35 -11z m17 -9 c-3 -8 -6 -5
-6 6 -1 11 2 17 5 13 3 -3 4 -12 1 -19z m-1967 -63 c0 -8 -5 -15 -12 -15 -7 0
-31 -19 -55 -42 -40 -39 -43 -41 -61 -25 -17 16 -20 16 -42 -8 -13 -14 -28
-25 -34 -25 -6 0 6 17 26 37 35 35 38 36 56 20 18 -17 21 -15 58 27 40 46 64
57 64 31z m1891 -17 c27 -17 51 -39 54 -49 7 -21 -22 -116 -38 -126 -17 -10
-109 -11 -129 -2 -21 11 -53 112 -42 132 8 13 92 76 103 77 2 0 25 -14 52 -32z
m-445 -15 c17 -8 42 -26 55 -40 l24 -25 -38 -33 c-76 -66 -196 -63 -262 5
l-29 30 29 30 c53 55 144 69 221 33z m-1458 -85 c-3 -82 -3 -83 -30 -86 -28
-3 -28 -3 -28 59 0 51 4 67 22 86 12 13 25 23 30 23 5 0 8 -37 6 -82z m-128
-29 c0 -60 0 -60 -27 -57 -41 4 -44 50 -7 89 15 16 29 29 31 29 2 0 3 -27 3
-61z m47 42 c10 9 13 1 13 -45 0 -53 -1 -56 -25 -56 -24 0 -25 3 -25 57 0 44
3 54 12 45 8 -8 15 -9 25 -1z"/>
<path d="M5605 11661 c-46 -12 -105 -39 -105 -48 0 -4 17 -24 37 -45 l37 -38
53 52 53 52 53 -52 53 -52 37 38 c20 21 37 41 37 45 0 4 -21 17 -47 28 -53 22
-161 33 -208 20z"/>
<path d="M4818 11538 c-16 -11 -28 -23 -28 -27 0 -14 83 -7 88 7 3 11 0 12
-17 3 -12 -7 -21 -8 -21 -2 0 5 6 11 13 14 8 3 9 8 2 15 -7 7 -18 5 -37 -10z"/>
<path d="M4830 11483 c-48 -8 -53 -12 -40 -28 10 -13 9 -15 -10 -15 -37 0
-150 -34 -150 -45 0 -20 43 -175 48 -171 2 3 -5 42 -18 86 -12 45 -20 83 -18
84 2 2 32 11 68 20 93 25 119 14 122 -51 l1 -48 6 50 c4 28 2 56 -3 63 -5 7
-4 12 3 12 6 0 11 -5 11 -11 0 -6 9 -8 21 -4 21 7 159 -24 159 -34 0 -3 -11
-46 -23 -96 l-23 -90 -152 0 c-97 0 -151 -4 -149 -10 2 -6 32 -9 70 -7 65 4
66 4 69 -24 5 -40 28 -43 28 -3 l0 32 65 -6 c36 -4 67 -2 70 3 6 10 65 214 62
216 -17 7 -132 34 -147 34 -14 0 -18 5 -13 16 5 14 -13 36 -27 32 -3 0 -16 -3
-30 -5z"/>
<path d="M4863 11383 c-7 -3 -13 -9 -13 -14 0 -6 5 -7 12 -3 8 5 9 2 5 -9 -3
-10 -2 -17 3 -17 6 0 10 7 10 16 0 8 5 12 10 9 6 -3 10 -2 10 3 0 12 -21 20
-37 15z"/>
<path d="M4856 11294 c-4 -14 -5 -28 -3 -31 3 -2 8 8 11 23 4 14 5 28 3 31 -3
2 -8 -8 -11 -23z"/>
<path d="M5392 11507 c-45 -58 -60 -207 -28 -293 27 -71 31 -73 76 -29 l40 39
-52 53 -52 53 51 53 52 52 -39 42 c-28 29 -42 38 -48 30z"/>
<path d="M5918 11476 l-37 -42 52 -52 52 -52 -53 -53 -52 -53 38 -37 c21 -20
40 -37 44 -37 3 0 16 24 28 53 34 77 33 182 -3 260 -14 31 -27 57 -29 56 -2 0
-20 -20 -40 -43z"/>
<path d="M5922 11318 c-6 -17 -10 -33 -9 -35 8 -7 48 47 42 56 -11 18 -20 12
-33 -21z"/>
<path d="M6950 11170 c0 -43 13 -50 34 -17 8 12 8 22 0 34 -21 33 -34 26 -34
-17z"/>
<path d="M5537 11092 c-20 -21 -37 -41 -37 -45 0 -16 92 -48 153 -54 67 -6
153 12 192 41 20 14 19 16 -20 55 l-39 41 -53 -52 -53 -52 -53 52 -53 52 -37
-38z"/>
<path d="M10670 9365 c-18 -22 -3 -57 23 -53 37 5 33 67 -4 68 -4 0 -12 -7
-19 -15z"/>
<path d="M7460 8865 l0 -75 49 0 c64 0 79 6 96 41 30 57 -17 109 -97 109 l-48
0 0 -75z"/>
<path d="M8535 8915 c-14 -13 -25 -36 -25 -50 0 -30 49 -85 75 -85 24 0 72 27
79 45 33 86 -66 154 -129 90z"/>
<path d="M9171 8914 c-52 -44 -67 -153 -31 -231 40 -88 140 -93 183 -10 78
151 -38 337 -152 241z"/>
<path d="M9641 8914 c-78 -65 -64 -249 22 -290 62 -30 122 5 145 84 46 153
-66 291 -167 206z"/>
<path d="M7764 8246 c-58 -49 -20 -146 56 -146 16 0 41 11 56 24 58 49 20 146
-56 146 -16 0 -41 -11 -56 -24z"/>
<path d="M8060 8185 l0 -87 33 6 c38 7 77 48 77 81 0 33 -39 74 -77 81 l-33 7
0 -88z"/>
<path d="M9190 8230 c0 -38 2 -40 30 -40 25 0 50 21 50 44 0 14 -34 36 -56 36
-21 0 -24 -4 -24 -40z"/>
<path d="M8084 7846 c-58 -49 -20 -146 56 -146 16 0 41 11 56 24 58 49 20 146
-56 146 -16 0 -41 -11 -56 -24z"/>
<path d="M8860 7840 c0 -25 4 -31 18 -28 11 2 17 12 17 28 0 16 -6 26 -17 28
-14 3 -18 -3 -18 -28z"/>
<path d="M8860 7730 c0 -26 3 -30 29 -30 32 0 56 22 47 45 -3 9 -18 15 -41 15
-32 0 -35 -2 -35 -30z"/>
<path d="M9107 7783 c-2 -10 -8 -26 -12 -35 -6 -15 -2 -18 24 -18 34 0 37 6
19 45 -13 29 -24 32 -31 8z"/>
<path d="M1951 7584 c-12 -15 -21 -34 -21 -44 0 -10 9 -29 21 -44 40 -50 119
-21 119 44 0 65 -79 94 -119 44z"/>
<path d="M2190 7540 c0 -75 7 -83 53 -59 29 16 37 28 37 61 0 29 -40 68 -71
68 -17 0 -19 -8 -19 -70z"/>
<path d="M3114 7595 c-11 -27 1 -50 25 -50 28 0 51 29 35 45 -17 17 -54 20
-60 5z"/>
<path d="M8180 7430 c0 -25 4 -31 18 -28 11 2 17 12 17 28 0 16 -6 26 -17 28
-14 3 -18 -3 -18 -28z"/>
<path d="M8180 7320 c0 -26 3 -30 29 -30 32 0 56 22 47 45 -3 9 -18 15 -41 15
-32 0 -35 -2 -35 -30z"/>
<path d="M8627 7373 c-2 -10 -8 -26 -12 -35 -6 -15 -2 -18 24 -18 34 0 37 6
19 45 -13 29 -24 32 -31 8z"/>
<path d="M4161 7402 c-76 -28 -87 -37 -72 -61 7 -11 22 -9 82 14 107 40 113
44 98 61 -15 18 -20 18 -108 -14z"/>
<path d="M4183 7341 c-40 -14 -75 -29 -78 -32 -7 -8 32 -99 42 -99 14 0 154
57 163 66 15 15 -19 94 -39 93 -9 0 -48 -13 -88 -28z m-12 -51 c15 -9 17 -15
9 -30 -13 -24 -32 -27 -23 -4 4 11 -1 22 -12 30 -22 16 -3 19 26 4z m89 -9 c0
-10 -25 -21 -48 -21 -12 1 -10 5 8 15 29 17 40 18 40 6z"/>
<path d="M4559 7029 c-7 -15 -17 -19 -32 -15 -26 7 -46 -9 -40 -33 2 -9 -3
-23 -11 -30 -21 -17 -20 -47 0 -55 11 -4 15 -14 11 -31 -5 -29 8 -41 40 -37
13 2 27 -6 38 -20 16 -23 16 -23 31 -3 9 13 27 20 47 20 29 0 32 3 32 32 1 21
8 38 20 47 20 14 20 15 -3 39 -13 14 -21 34 -20 48 3 20 -1 23 -30 24 -21 0
-37 6 -43 18 -13 23 -26 22 -40 -4z m63 -66 c38 -34 11 -103 -40 -103 -54 0
-81 62 -45 102 20 22 61 23 85 1z"/>
<path d="M4554 6936 c-10 -26 4 -48 28 -44 17 2 23 10 23 28 0 18 -6 26 -23
28 -13 2 -25 -3 -28 -12z"/>
<path d="M4754 6876 c-6 -7 -11 -24 -11 -39 0 -48 53 -71 86 -38 21 21 24 71
5 71 -8 0 -14 5 -14 10 0 14 -53 12 -66 -4z m64 -40 c-4 -27 -43 -34 -52 -9
-5 11 -1 22 9 30 23 16 47 5 43 -21z"/>
<path d="M4780 6834 c0 -9 5 -14 12 -12 18 6 21 28 4 28 -9 0 -16 -7 -16 -16z"/>
<path d="M1916 6779 c-14 -17 -26 -41 -26 -54 0 -13 12 -37 26 -54 51 -61 144
-26 144 54 0 80 -93 115 -144 54z m96 -81 c-18 -18 -26 -20 -48 -13 -50 18
-41 35 17 35 l53 0 -22 -22z"/>
<path d="M2146 6779 c-14 -17 -26 -41 -26 -54 0 -13 12 -37 26 -54 51 -61 144
-26 144 54 0 80 -93 115 -144 54z m84 -44 c10 -12 10 -18 0 -30 -17 -20 -37
-19 -49 3 -18 34 24 57 49 27z"/>
<path d="M2190 6726 c0 -8 4 -17 9 -20 11 -7 33 18 24 27 -12 12 -33 7 -33 -7z"/>
<path d="M2609 6791 c-37 -37 -38 -79 -3 -120 20 -24 34 -31 61 -31 46 0 93
45 93 90 0 43 -47 90 -90 90 -22 0 -41 -9 -61 -29z"/>
<path d="M3074 6786 c-39 -33 -39 -89 0 -122 38 -33 80 -31 117 5 36 36 37 70
3 110 -33 39 -80 42 -120 7z m56 -23 c0 -5 -5 -15 -10 -23 -8 -12 -10 -11 -10
8 0 12 5 22 10 22 6 0 10 -3 10 -7z m-36 -58 c3 -9 0 -15 -9 -15 -9 0 -12 6
-9 15 4 8 7 15 9 15 2 0 5 -7 9 -15z"/>
<path d="M7262 6764 c-76 -17 -116 -43 -142 -94 -32 -63 -68 -244 -80 -400
-42 -554 -52 -676 -70 -845 -10 -104 -21 -221 -22 -260 l-3 -70 50 -8 c28 -5
106 -26 175 -48 141 -45 155 -45 296 5 42 15 126 32 200 41 71 9 149 19 174
23 l45 7 3 59 c2 33 -4 94 -12 135 -8 42 -20 126 -27 186 -6 61 -13 113 -15
117 -3 4 -9 44 -15 90 -5 46 -32 193 -59 328 -26 135 -56 295 -65 355 -26 175
-36 216 -65 275 -54 106 -188 144 -368 104z"/>
<path d="M9027 6124 c-105 -26 -143 -69 -172 -194 -9 -41 -21 -89 -26 -106 -9
-28 -21 -177 -49 -564 -5 -74 -14 -178 -20 -230 -5 -52 -10 -106 -11 -120 -1
-17 -4 -12 -9 15 -4 22 -5 -12 -3 -77 2 -75 -3 -152 -13 -218 -10 -65 -15
-142 -13 -215 2 -62 0 -108 -4 -102 -5 7 -6 -10 -3 -38 4 -30 2 -44 -3 -37 -6
10 -14 -8 -24 -55 -15 -60 -15 -75 -3 -123 10 -37 15 -47 16 -30 2 17 6 9 12
-22 6 -27 13 -48 17 -48 3 0 6 44 7 98 0 53 4 156 9 227 4 72 8 136 8 144 0
23 102 7 207 -33 111 -42 145 -42 271 4 69 26 116 34 386 66 70 8 71 -28 -21
614 -8 58 -36 206 -61 330 -25 124 -57 298 -70 387 -32 214 -60 271 -155 315
-58 27 -191 33 -273 12z m-300 -1746 c-3 -8 -6 -5 -6 6 -1 11 2 17 5 13 3 -3
4 -12 1 -19z"/>
<path d="M8691 3974 c0 -11 3 -14 6 -6 3 7 2 16 -1 19 -3 4 -6 -2 -5 -13z"/>
<path d="M8702 3915 c0 -16 2 -22 5 -12 2 9 2 23 0 30 -3 6 -5 -1 -5 -18z"/>
<path d="M8685 3657 c-4 -82 -3 -154 3 -187 9 -45 10 -48 9 -16 -1 26 3 41 12
44 8 3 11 0 8 -5 -3 -5 9 -45 26 -88 26 -64 37 -81 55 -83 28 -4 161 44 186
68 16 16 17 22 6 56 -23 73 -52 133 -66 138 -8 3 -51 -8 -96 -23 -76 -28 -79
-28 -53 -7 17 13 25 28 21 34 -10 17 -21 15 -53 -12 l-28 -24 1 112 2 111 -13
-120 -13 -120 5 128 c3 70 3 127 0 127 -3 0 -8 -60 -12 -133z m240 -117 c0
-10 -27 -25 -75 -42 -89 -32 -103 -33 -98 -12 2 10 32 28 73 45 76 30 100 32
100 9z m33 -79 c7 -21 12 -43 12 -49 0 -13 -156 -66 -169 -58 -10 7 -35 75
-29 81 6 6 153 64 164 64 6 1 16 -16 22 -38z"/>
<path d="M8785 3430 c-3 -6 1 -13 10 -16 9 -4 15 -15 13 -27 -4 -30 17 -31 31
-1 6 15 10 28 9 29 -7 5 -47 25 -52 25 -3 0 -8 -5 -11 -10z"/>
<path d="M8878 3413 c-19 -5 -25 -33 -7 -33 17 0 49 20 49 30 0 10 -12 11 -42
3z"/>
<path d="M6430 3763 c-8 -3 -27 -17 -42 -31 -74 -69 -25 -192 76 -192 54 1 82
21 67 49 -11 19 -12 19 -41 3 -28 -16 -30 -16 -57 4 -37 28 -43 74 -12 103 25
23 59 27 77 9 8 -8 15 -8 27 2 22 18 19 28 -15 45 -30 15 -53 18 -80 8z"/>
<path d="M6620 3763 c-28 -10 -59 -46 -70 -79 -33 -98 79 -181 170 -127 50 29
69 99 40 152 -23 45 -93 71 -140 54z m89 -69 c26 -33 26 -55 3 -85 -38 -46
-122 -16 -122 44 0 30 39 67 71 67 18 0 35 -9 48 -26z"/>
<path d="M8055 3758 c-85 -47 -98 -142 -27 -198 40 -32 142 -22 142 13 0 28
-21 35 -50 19 -27 -16 -30 -16 -57 4 -40 30 -43 75 -7 103 31 24 46 26 74 9
17 -11 22 -10 30 2 15 23 12 28 -20 45 -34 18 -57 19 -85 3z"/>
<path d="M8222 3753 c-48 -42 -33 -83 49 -126 32 -18 33 -19 14 -33 -11 -8
-26 -12 -35 -8 -38 16 -50 16 -57 -1 -15 -41 97 -65 129 -27 37 43 26 82 -31
111 -22 12 -42 25 -46 31 -10 15 25 25 45 12 14 -9 21 -8 31 5 11 13 10 18
-10 34 -29 24 -63 24 -89 2z"/>
<path d="M6800 3650 l0 -110 44 0 c94 0 136 37 136 120 0 33 -6 48 -29 71 -26
26 -36 29 -90 29 l-61 0 0 -110z m119 45 c8 -8 14 -28 14 -46 0 -36 -24 -59
-60 -59 -22 0 -23 4 -23 66 l0 66 28 -7 c15 -3 33 -13 41 -20z"/>
<path d="M7010 3650 l0 -110 65 0 c63 0 65 1 65 25 0 23 -4 25 -45 25 -38 0
-45 3 -45 20 0 17 7 20 40 20 36 0 40 3 40 25 0 23 -4 25 -41 25 -33 0 -40 3
-37 18 2 12 15 18 46 20 34 3 42 7 42 23 0 17 -7 19 -65 19 l-65 0 0 -110z"/>
<path d="M7170 3650 l0 -110 70 0 c68 0 70 1 70 25 0 23 -4 25 -45 25 l-45 0
0 85 c0 84 0 85 -25 85 l-25 0 0 -110z"/>
<path d="M7280 3753 c0 -5 14 -32 30 -62 22 -39 30 -68 30 -103 0 -45 2 -48
25 -48 23 0 25 3 25 53 0 40 7 64 30 102 36 61 36 65 5 65 -18 0 -29 -9 -43
-36 l-18 -35 -19 35 c-14 25 -26 36 -42 36 -13 0 -23 -3 -23 -7z"/>
<path d="M7472 3653 c3 -103 4 -108 26 -111 20 -3 22 1 22 45 l0 48 28 -42
c15 -24 30 -43 33 -43 4 0 18 18 33 40 14 22 27 40 29 40 1 0 2 -19 2 -42 0
-37 3 -43 23 -46 22 -3 22 -2 22 108 0 68 -4 109 -10 105 -5 -3 -28 -33 -51
-65 -23 -33 -45 -60 -48 -60 -3 0 -26 30 -50 65 -24 36 -47 65 -52 65 -6 0 -8
-46 -7 -107z"/>
<path d="M7730 3649 c0 -109 0 -110 23 -107 18 2 22 9 21 36 -2 28 1 32 25 32
60 0 102 60 76 109 -17 35 -32 41 -96 41 l-49 0 0 -111z m95 57 c26 -19 13
-46 -24 -46 -27 0 -29 3 -26 28 2 15 4 28 4 30 2 7 30 0 46 -12z"/>
<path d="M7910 3650 c0 -103 1 -110 20 -110 19 0 20 7 20 110 0 103 -1 110
-20 110 -19 0 -20 -7 -20 -110z"/>
<path d="M8959 3694 c-120 -76 -137 -90 -124 -103 6 -6 46 14 109 54 55 36
101 63 102 62 2 -1 8 -63 15 -137 11 -131 11 -134 -10 -151 -11 -9 -21 -22
-21 -28 0 -21 40 -11 56 15 16 23 16 40 6 182 -7 86 -16 160 -20 164 -5 5 -55
-21 -113 -58z"/>
<path d="M8945 3609 c-4 -5 0 -18 9 -28 9 -10 16 -23 16 -29 0 -7 7 -12 15
-12 19 0 19 30 -1 58 -17 24 -29 28 -39 11z"/>
<path d="M8997 3513 c-9 -14 15 -74 28 -70 5 2 11 10 13 19 4 19 -33 65 -41
51z"/>
<path d="M8703 3330 c0 -47 2 -68 4 -47 l4 38 20 -25 c11 -15 28 -26 37 -26 9
-1 0 -10 -20 -21 -36 -19 -38 -22 -37 -67 1 -27 4 -36 6 -21 3 22 26 39 134
100 71 41 129 79 129 86 0 21 -17 15 -108 -34 -47 -25 -82 -41 -78 -34 5 7 -5
23 -23 40 -17 16 -31 36 -31 45 0 9 -6 16 -14 16 -8 0 -17 8 -19 18 -3 9 -4
-21 -4 -68z"/>
<path d="M9077 3323 c-3 -5 -9 -52 -13 -106 -6 -83 -5 -97 8 -97 19 0 28 30
28 97 l0 53 46 -35 c25 -19 50 -35 55 -35 19 0 8 28 -17 45 -14 9 -43 32 -64
51 -21 19 -41 31 -43 27z"/>
<path d="M8720 3264 c0 -8 5 -12 10 -9 6 4 8 11 5 16 -9 14 -15 11 -15 -7z"/>
<path d="M9209 3191 c-13 -10 -30 -16 -37 -14 -7 3 -24 -3 -38 -12 -19 -12
-25 -23 -21 -41 2 -15 -3 -30 -14 -40 -23 -21 -25 -57 -4 -74 8 -7 15 -25 15
-41 0 -30 36 -63 62 -57 7 1 26 -6 41 -16 23 -15 32 -17 52 -8 14 7 25 16 25
22 0 6 10 8 24 4 18 -4 28 1 44 21 12 14 18 33 15 40 -3 8 2 22 11 30 20 21
21 69 1 85 -9 7 -14 19 -11 26 8 21 -34 66 -56 61 -11 -3 -27 2 -39 14 -24 24
-40 24 -70 0z m54 -38 c10 -10 31 -18 45 -18 20 0 25 -5 26 -27 1 -15 10 -34
21 -42 20 -14 20 -15 -3 -39 -13 -14 -21 -34 -20 -48 3 -20 -2 -24 -25 -25
-15 -1 -36 -9 -47 -19 -20 -18 -21 -18 -41 3 -14 16 -27 20 -44 16 -23 -6 -25
-3 -25 30 0 23 -5 39 -15 42 -8 4 -15 12 -15 19 0 7 7 18 15 25 8 7 15 26 15
42 0 27 3 30 25 24 18 -5 30 -1 42 14 21 24 22 24 46 3z"/>
<path d="M9202 3094 c-15 -10 -22 -25 -22 -49 0 -60 67 -86 108 -42 28 30 28
58 -1 85 -27 26 -54 28 -85 6z m63 -49 c0 -22 -31 -33 -47 -17 -17 17 -1 44
24 40 15 -2 23 -10 23 -23z"/>
<path d="M8726 3134 c-11 -81 -8 -102 15 -109 37 -12 47 12 16 41 -27 25 -36
41 -16 28 8 -4 10 6 6 35 -6 58 -13 60 -21 5z"/>
<path d="M9397 3124 c-14 -14 -6 -23 56 -57 76 -43 117 -55 117 -35 0 7 -35
31 -77 53 -43 22 -81 41 -84 43 -3 1 -8 -1 -12 -4z"/>
<path d="M8787 3033 c-13 -13 -7 -23 26 -43 34 -21 67 -26 67 -10 0 9 -68 60
-81 60 -3 0 -9 -3 -12 -7z"/>
<path d="M9408 3012 c-45 -48 -22 -113 45 -124 60 -11 100 82 55 126 -29 27
-74 27 -100 -2z m83 -15 c17 -13 19 -39 5 -69 -9 -19 -66 -26 -66 -8 0 6 -6
10 -14 10 -18 0 -15 42 4 64 15 19 49 20 71 3z"/>
<path d="M9430 2975 c-15 -19 3 -45 31 -45 19 0 35 33 24 50 -9 15 -41 12 -55
-5z m40 -15 c0 -5 -7 -10 -15 -10 -8 0 -15 5 -15 10 0 6 7 10 15 10 8 0 15 -4
15 -10z"/>
<path d="M9585 3010 c-8 -13 4 -32 16 -25 12 8 12 35 0 35 -6 0 -13 -4 -16
-10z"/>
<path d="M8730 2918 c0 -53 4 -98 8 -100 5 -1 12 -16 16 -31 5 -22 4 -27 -6
-22 -7 4 -2 -3 12 -15 24 -21 24 -21 2 -10 -13 6 -25 10 -26 8 -1 -2 0 -43 3
-93 5 -88 6 -89 12 -35 4 31 5 -2 3 -75 -2 -85 0 -120 6 -100 6 21 7 7 5 -50
-3 -59 -2 -69 4 -40 l8 40 3 -40 c1 -22 6 -53 11 -70 5 -18 6 27 3 110 -7 213
-14 268 -32 283 -20 15 -8 16 20 1 14 -8 23 -8 31 0 7 7 16 7 29 0 35 -19 31
16 -7 54 -30 30 -35 42 -35 81 0 36 6 52 29 78 27 30 34 33 88 33 69 0 83 15
29 33 -70 23 -145 -12 -177 -82 l-18 -41 5 55 c4 38 1 66 -10 90 -15 35 -15
34 -16 -62z"/>
<path d="M9634 2969 c-8 -14 -15 -10 196 -139 102 -62 191 -118 198 -125 11
-9 -12 -28 -113 -93 -127 -83 -147 -93 -126 -69 6 8 8 16 5 20 -10 10 70 57
97 57 33 0 55 25 64 71 6 32 3 39 -20 58 -15 11 -38 21 -51 21 -13 0 -45 8
-71 19 -53 20 -59 19 -125 -24 -57 -36 -72 -64 -56 -102 6 -16 10 -41 9 -56
-2 -42 34 -87 69 -87 40 0 44 -13 9 -34 -30 -18 -36 -30 -20 -40 5 -4 87 44
183 105 177 114 208 136 208 150 0 7 -433 279 -444 279 -3 0 -8 -5 -12 -11z
m165 -213 l23 -13 -36 -23 c-36 -22 -38 -22 -51 -4 -19 25 -18 31 3 43 22 13
32 13 61 -3z m98 -44 c-21 -3 -32 -12 -42 -35 -16 -37 -67 -70 -109 -71 -21
-1 -34 -8 -42 -25 -12 -23 -12 -23 -23 -3 -10 19 -2 27 82 85 107 74 115 78
142 63 19 -10 18 -11 -8 -14z m-189 -13 c11 -18 11 -23 -5 -35 -25 -19 -32
-17 -39 10 -11 46 20 63 44 25z m202 -34 c0 -8 -4 -15 -10 -15 -5 0 -10 7 -10
15 0 8 5 15 10 15 6 0 10 -7 10 -15z m-153 -111 c-9 -9 -28 6 -21 18 4 6 10 6
17 -1 6 -6 8 -13 4 -17z"/>
<path d="M7283 2944 c-24 -14 -43 -30 -43 -36 0 -7 6 -6 15 2 8 7 15 8 15 2 0
-5 -6 -15 -14 -21 -12 -10 -12 -18 -2 -49 15 -44 55 -75 95 -75 17 0 28 -4 25
-9 -12 -19 -74 -8 -105 20 -26 23 -33 38 -37 80 -4 42 -10 57 -34 77 -37 31
-93 33 -148 5 -51 -26 -70 -55 -70 -106 0 -34 6 -49 29 -72 53 -52 116 -49
187 11 32 27 50 35 39 18 -11 -19 47 -51 91 -51 36 0 51 6 83 36 l40 35 15
-28 c17 -34 54 -53 101 -53 47 0 114 59 113 98 -1 15 2 37 6 49 14 42 -41 93
-100 93 -31 0 -61 -15 -96 -47 l-26 -25 -11 21 c-15 26 -62 51 -98 51 -15 0
-47 -12 -70 -26z m135 -17 c24 -25 33 -60 17 -66 -5 -3 -12 4 -14 15 -1 10
-10 27 -18 36 -12 13 -20 15 -39 6 -13 -6 -21 -15 -18 -20 3 -5 13 -3 21 4 12
10 18 9 29 -7 8 -10 19 -35 24 -54 8 -29 7 -39 -8 -53 -14 -15 -23 -16 -60 -6
-57 14 -83 49 -80 104 2 23 5 42 8 42 3 0 23 1 45 2 l40 3 -35 7 c-33 7 -32 7
16 9 41 1 55 -3 72 -22z m236 -16 c33 -37 12 -31 -24 6 -21 21 -27 32 -15 25
11 -5 29 -20 39 -31z m-503 -22 c16 -17 29 -37 29 -45 0 -24 -23 -64 -40 -69
-28 -9 -70 12 -70 34 0 14 -5 19 -15 15 -11 -5 -15 1 -15 26 0 76 58 96 111
39z m55 -11 c8 -16 13 -32 11 -34 -2 -3 -13 13 -24 35 -23 46 -11 45 13 -1z
m404 23 c16 -31 12 -43 -11 -36 -18 6 -19 4 -11 -12 5 -10 7 -24 5 -30 -7 -21
16 -15 29 7 15 23 28 26 28 6 0 -60 -118 -59 -120 2 0 20 21 14 27 -9 4 -15 8
-17 14 -8 5 8 2 20 -7 30 -13 15 -13 18 1 33 26 25 -5 20 -32 -6 -28 -26 -41
-17 -25 17 10 21 19 25 51 25 30 0 43 -5 51 -19z m-120 -76 c0 -18 48 -55 71
-55 10 0 21 -4 24 -10 4 -6 -7 -10 -25 -10 -37 0 -90 47 -90 80 0 12 5 18 10
15 6 -3 10 -12 10 -20z m-449 -41 c22 -25 22 -26 3 -16 -12 6 -24 18 -28 27
-8 21 -3 19 25 -11z"/>
<path d="M7320 2870 c6 -11 13 -20 15 -20 3 0 5 9 5 20 0 11 -7 20 -15 20 -13
0 -14 -4 -5 -20z"/>
<path d="M7360 2846 c0 -9 5 -16 10 -16 6 0 10 4 10 9 0 6 -4 13 -10 16 -5 3
-10 -1 -10 -9z"/>
<path d="M7295 2840 c-3 -5 1 -10 10 -10 9 0 13 5 10 10 -3 6 -8 10 -10 10 -2
0 -7 -4 -10 -10z"/>
<path d="M7330 2821 c0 -5 5 -13 10 -16 6 -3 10 -2 10 4 0 5 -4 13 -10 16 -5
3 -10 2 -10 -4z"/>
<path d="M7398 2798 c-10 -10 -14 -18 -9 -18 10 0 36 29 30 34 -2 1 -12 -6
-21 -16z"/>
<path d="M7125 2880 c-4 -6 -11 -7 -17 -4 -8 5 -9 1 -5 -10 5 -13 3 -16 -11
-12 -15 5 -17 1 -14 -29 4 -32 22 -51 22 -22 0 8 3 7 10 -3 12 -20 17 -12 22
43 6 48 4 55 -7 37z"/>
<path d="M7140 2840 c0 -16 5 -30 10 -30 6 0 10 14 10 30 0 17 -4 30 -10 30
-5 0 -10 -13 -10 -30z"/>
<path d="M7989 2956 c-14 -8 -36 -35 -49 -59 -76 -142 116 -242 200 -104 47
77 6 165 -80 173 -28 3 -55 -1 -71 -10z m92 -49 c21 -16 39 -51 39 -76 0 -25
-49 -54 -70 -41 -8 5 -18 6 -23 3 -15 -9 -57 39 -57 65 0 14 7 34 17 44 18 21
70 24 94 5z m-61 -146 c17 -6 19 -10 8 -10 -9 -1 -27 9 -40 22 -13 12 -17 17
-8 10 8 -7 27 -16 40 -22z"/>
<path d="M8029 2882 c10 -7 11 -14 2 -28 -9 -17 -10 -17 -11 -1 0 9 -3 17 -7
17 -5 0 -8 -11 -8 -24 0 -21 4 -23 40 -22 65 2 54 37 -20 64 -5 2 -4 -1 4 -6z
m51 -43 c0 -5 -4 -9 -10 -9 -5 0 -10 7 -10 16 0 8 5 12 10 9 6 -3 10 -10 10
-16z"/>
<path d="M9575 2958 c-4 -9 -4 -21 -1 -27 3 -5 -5 -23 -19 -40 -21 -24 -24
-34 -16 -49 14 -26 44 -33 76 -16 24 12 26 12 20 -5 -3 -11 -1 -22 4 -25 14
-9 43 38 35 58 -7 17 -49 22 -59 6 -7 -12 -45 -13 -45 -2 0 5 9 17 20 27 24
21 25 44 6 71 -13 17 -15 18 -21 2z"/>
<path d="M8960 2889 c-74 -29 -135 -79 -127 -102 7 -23 80 -19 152 9 106 41
132 74 83 108 -27 20 -18 21 -108 -15z m90 -19 c0 -5 -4 -10 -10 -10 -5 0 -10
5 -10 10 0 6 5 10 10 10 6 0 10 -4 10 -10z m-50 -20 c0 -10 -56 -36 -99 -47
-36 -8 -15 14 36 38 44 20 63 23 63 9z"/>
<path d="M9306 2891 c-8 -13 175 -124 186 -113 6 6 -28 32 -82 66 -98 61 -96
60 -104 47z"/>
<path d="M9420 2870 c0 -11 119 -89 138 -90 27 0 8 20 -56 59 -72 43 -82 47
-82 31z"/>
<path d="M9015 2769 c-7 -23 -47 -41 -69 -33 -8 3 -20 3 -26 -1 -19 -12 10
-35 45 -35 37 0 85 41 85 71 0 26 -27 24 -35 -2z"/>
<path d="M9590 2755 c0 -8 7 -15 15 -15 8 0 15 7 15 15 0 8 -7 15 -15 15 -8 0
-15 -7 -15 -15z"/>
<path d="M9470 2741 c0 -6 9 -16 20 -24 24 -17 24 -17 -67 -71 -62 -37 -72
-49 -54 -61 10 -5 186 98 196 116 3 4 -12 17 -34 29 -44 22 -61 25 -61 11z"/>
<path d="M9057 2714 c-4 -4 -7 -36 -7 -71 0 -34 -2 -63 -4 -63 -2 0 -38 23
-80 50 -69 46 -96 54 -96 30 0 -14 192 -132 200 -123 13 13 16 176 4 180 -6 2
-13 0 -17 -3z"/>
<path d="M9420 2579 c-63 -43 -116 -85 -118 -92 -4 -19 58 -98 71 -90 7 4 25
16 40 27 25 19 29 19 37 5 5 -9 18 -26 28 -39 l19 -23 46 32 c26 18 47 35 47
38 0 3 -10 21 -22 41 l-21 34 37 32 37 31 -31 43 c-18 23 -37 42 -43 42 -7 -1
-64 -37 -127 -81z m159 1 c0 -3 -11 -13 -25 -23 -24 -18 -25 -18 -44 5 -19 23
-19 23 7 46 l26 24 18 -24 c10 -12 19 -25 18 -28z m-92 -37 c13 -20 12 -23
-12 -39 -27 -17 -28 -17 -46 7 -18 24 -18 24 4 41 26 21 36 19 54 -9z m-67
-74 c0 -4 -12 -14 -26 -24 -24 -16 -26 -16 -40 2 -19 26 -17 40 8 58 21 14 24
14 40 -7 10 -13 18 -26 18 -29z m130 -21 c0 -4 -10 -14 -22 -22 -20 -14 -24
-14 -40 1 -24 21 -23 31 5 53 22 18 22 18 39 -3 10 -12 18 -25 18 -29z"/>
<path d="M9213 2506 c-95 -49 -101 -53 -80 -62 22 -8 187 71 187 90 0 23 -15
19 -107 -28z"/>
<path d="M9595 2528 c-7 -17 10 -58 23 -58 5 0 17 6 28 14 19 14 19 15 -1 22
-11 4 -25 15 -32 23 -10 14 -12 14 -18 -1z"/>
<path d="M9185 2440 c-7 -12 2 -30 16 -30 5 0 9 9 9 20 0 21 -15 27 -25 10z"/>
<path d="M9095 2420 c-10 -17 22 -47 35 -34 7 7 4 16 -9 28 -14 12 -21 14 -26
6z"/>
<path d="M9550 2384 c-36 -25 -96 -63 -135 -84 -94 -52 -109 -65 -101 -79 6
-8 30 0 84 30 106 58 242 151 242 167 0 21 -23 12 -90 -34z"/>
<path d="M9264 2409 c-8 -14 11 -33 25 -25 16 10 13 36 -3 36 -8 0 -18 -5 -22
-11z"/>
<path d="M9145 2375 c-28 -27 -33 -71 -10 -101 8 -10 15 -28 15 -39 0 -29 19
-45 52 -45 22 0 31 7 39 28 6 15 17 39 25 54 21 39 17 72 -12 102 -34 34 -77
34 -109 1z m90 -25 c15 -16 17 -26 9 -48 -17 -50 -94 -39 -94 14 0 49 52 70
85 34z m-20 -120 c-3 -5 -13 -10 -21 -10 -8 0 -14 5 -14 10 0 6 9 10 21 10 11
0 17 -4 14 -10z"/>
<path d="M9404 2389 c-8 -14 11 -33 25 -25 11 7 4 36 -9 36 -5 0 -12 -5 -16
-11z"/>
<path d="M9073 2318 c2 -7 10 -13 17 -13 7 0 15 6 18 13 2 7 -5 12 -18 12 -13
0 -20 -5 -17 -12z"/>
<path d="M9293 2318 c2 -7 10 -13 17 -13 7 0 15 6 18 13 2 7 -5 12 -18 12 -13
0 -20 -5 -17 -12z"/>
<path d="M8772 2285 c0 -16 2 -22 5 -12 2 9 2 23 0 30 -3 6 -5 -1 -5 -18z"/>
<path d="M9065 2278 c-10 -25 -1 -203 10 -203 6 0 28 15 50 32 29 24 36 36 28
44 -8 8 -18 6 -39 -7 l-27 -18 6 71 c6 56 4 73 -8 83 -12 10 -16 9 -20 -2z"/>
<path d="M8782 2205 c0 -16 2 -22 5 -12 2 9 2 23 0 30 -3 6 -5 -1 -5 -18z"/>
<path d="M8599 1964 c-11 -14 -10 -19 11 -36 20 -16 21 -19 6 -16 -26 4 -32
-19 -6 -27 40 -13 68 34 33 54 -17 10 -17 10 0 11 21 0 22 16 1 24 -24 9 -30
8 -45 -10z"/>
<path d="M8670 1965 c0 -8 4 -15 9 -15 6 0 11 -15 13 -32 2 -18 8 -33 13 -33
6 0 11 15 13 33 2 17 7 32 13 32 5 0 9 7 9 15 0 10 -11 15 -35 15 -24 0 -35
-5 -35 -15z"/>
<path d="M8760 1934 c-11 -25 -20 -46 -20 -47 0 -1 20 -2 45 -2 25 0 45 4 45
8 0 11 -40 87 -46 87 -2 0 -14 -21 -24 -46z"/>
<path d="M8854 1966 c-9 -22 0 -81 11 -77 6 1 9 8 7 14 -2 6 5 4 16 -6 26 -24
28 -22 28 23 -1 40 -15 60 -44 60 -7 0 -15 -6 -18 -14z"/>
<path d="M8933 1967 c-3 -5 -1 -12 5 -16 6 -3 12 -20 14 -36 4 -40 22 -38 26
3 2 17 8 32 13 32 6 0 9 5 7 12 -5 14 -57 18 -65 5z"/>
<path d="M9069 1975 c-1 -6 -2 -21 -3 -34 -2 -37 -26 -39 -26 -2 0 17 -4 31
-10 31 -16 0 -11 -66 6 -81 23 -19 48 1 52 41 3 28 -16 70 -19 45z"/>
<path d="M9246 1973 c-10 -11 -7 -81 5 -88 6 -4 13 2 16 14 3 12 9 21 13 21 4
0 10 -9 13 -21 9 -33 27 -12 27 31 0 43 -18 64 -27 31 -6 -24 -23 -29 -23 -7
0 17 -14 28 -24 19z"/>
<path d="M9452 1964 c-12 -8 -22 -24 -22 -34 0 -24 41 -53 64 -44 24 9 19 24
-9 24 -18 0 -25 5 -25 20 0 15 7 20 25 20 28 0 34 15 9 24 -20 8 -16 9 -42
-10z"/>
<path d="M9534 1967 c-8 -23 0 -82 11 -78 6 1 9 7 8 12 -5 15 9 10 23 -8 17
-24 29 -10 14 16 -7 15 -8 27 0 40 11 21 -3 40 -15 21 -5 -8 -11 -7 -21 1 -11
9 -15 8 -20 -4z"/>
<path d="M9639 1938 c-22 -46 -21 -74 2 -51 8 8 20 8 35 3 33 -13 35 -1 9 50
l-23 45 -23 -47z"/>
<path d="M9713 1967 c-3 -5 -1 -12 5 -16 6 -3 12 -20 14 -36 4 -40 22 -38 26
3 2 17 7 32 13 32 5 0 9 4 9 9 0 12 -60 20 -67 8z"/>
<path d="M9796 1973 c-10 -11 -7 -81 5 -88 6 -4 13 2 16 14 3 12 9 21 13 21 4
0 10 -9 13 -21 9 -33 27 -12 27 31 0 43 -18 64 -27 31 -6 -24 -23 -29 -23 -7
0 17 -14 28 -24 19z"/>
<path d="M9906 1964 c-9 -8 -16 -24 -16 -34 0 -20 25 -50 41 -50 27 0 49 22
49 50 0 44 -44 64 -74 34z m52 -31 c5 -17 -26 -29 -40 -15 -6 6 -7 15 -3 22 9
14 37 9 43 -7z"/>
<path d="M10055 1970 c-3 -5 -3 -14 0 -20 10 -16 -11 -12 -25 5 -21 25 -30 17
-30 -24 0 -44 18 -65 27 -31 l6 21 23 -22 24 -22 0 46 c0 45 -12 68 -25 47z"/>
<path d="M9110 1931 c0 -41 16 -64 26 -37 3 8 15 18 26 21 13 5 18 14 16 28
-2 17 -11 23 -35 25 -32 3 -33 2 -33 -37z m50 15 c0 -3 -4 -8 -10 -11 -5 -3
-10 -1 -10 4 0 6 5 11 10 11 6 0 10 -2 10 -4z"/>
<path d="M9355 1934 c-20 -48 -19 -57 5 -44 14 8 26 8 40 0 11 -6 20 -7 20 -2
0 19 -31 82 -40 82 -5 0 -17 -16 -25 -36z"/>
<path d="M4370 6744 c0 -9 5 -14 12 -12 18 6 21 28 4 28 -9 0 -16 -7 -16 -16z"/>
<path d="M4271 6717 c-50 -24 -70 -54 -30 -42 56 17 110 45 104 55 -9 15 -24
12 -74 -13z"/>
<path d="M5064 6636 c-19 -15 -19 -15 2 -37 l22 -21 36 24 36 25 -25 11 c-34
16 -47 15 -71 -2z"/>
<path d="M5165 6594 c-148 -99 -165 -114 -152 -134 15 -25 20 -25 32 3 7 16
19 22 40 22 36 0 105 43 105 66 0 21 20 39 43 39 16 0 17 3 7 15 -17 21 -29
19 -75 -11z"/>
<path d="M5002 6587 c-14 -16 -4 -57 13 -57 22 0 40 30 29 48 -14 22 -29 25
-42 9z"/>
<path d="M5220 6545 c0 -9 5 -15 11 -13 6 2 11 8 11 13 0 5 -5 11 -11 13 -6 2
-11 -4 -11 -13z"/>
<path d="M5065 6451 c-7 -12 12 -24 25 -16 11 7 4 25 -10 25 -5 0 -11 -4 -15
-9z"/>
<path d="M4851 6491 c-24 -18 -24 -20 -7 -45 17 -26 17 -26 46 -9 35 20 35 21
11 51 -23 26 -20 26 -50 3z"/>
<path d="M4768 6436 c-23 -17 -23 -29 2 -51 18 -17 21 -17 45 -1 24 16 25 19
12 39 -18 27 -36 31 -59 13z"/>
<path d="M4691 6381 c-23 -17 -23 -19 -6 -44 20 -32 23 -32 53 -7 22 18 22 20
6 45 -19 30 -22 30 -53 6z"/>
<path d="M4822 6360 c-22 -18 -22 -20 -6 -45 19 -30 22 -30 53 -6 23 17 23 19
6 44 -20 32 -23 32 -53 7z"/>
<path d="M4502 6238 c-7 -7 -12 -24 -12 -38 0 -33 17 -50 50 -50 36 0 58 39
42 75 -13 27 -58 35 -80 13z"/>
<path d="M4520 6115 c0 -10 7 -15 18 -13 21 4 19 22 -2 26 -10 2 -16 -3 -16
-13z"/>
<path d="M4120 5810 c0 -5 5 -10 10 -10 6 0 10 5 10 10 0 6 -4 10 -10 10 -5 0
-10 -4 -10 -10z"/>
<path d="M4215 5830 c4 -6 11 -8 16 -5 14 9 11 15 -7 15 -8 0 -12 -5 -9 -10z"/>
<path d="M4480 5830 c0 -5 5 -10 10 -10 6 0 10 5 10 10 0 6 -4 10 -10 10 -5 0
-10 -4 -10 -10z"/>
<path d="M4710 5810 c0 -5 5 -10 11 -10 5 0 7 5 4 10 -3 6 -8 10 -11 10 -2 0
-4 -4 -4 -10z"/>
<path d="M4990 5810 c0 -5 5 -10 11 -10 5 0 7 5 4 10 -3 6 -8 10 -11 10 -2 0
-4 -4 -4 -10z"/>
<path d="M5244 5829 c-3 -6 0 -17 7 -25 18 -17 44 -2 36 20 -7 18 -33 21 -43
5z"/>
<path d="M3174 3486 c-39 -33 -39 -89 0 -122 56 -49 140 -13 140 61 0 45 -39
85 -84 85 -16 0 -41 -11 -56 -24z"/>
<path d="M3470 3425 l0 -87 33 6 c38 7 77 48 77 81 0 33 -39 74 -77 81 l-33 7
0 -88z"/>
<path d="M4600 3470 c0 -38 2 -40 30 -40 25 0 50 21 50 44 0 14 -34 36 -56 36
-21 0 -24 -4 -24 -40z"/>
<path d="M3494 3076 c-39 -33 -39 -89 0 -122 56 -49 140 -13 140 61 0 45 -39
85 -84 85 -16 0 -41 -11 -56 -24z"/>
<path d="M4270 3070 c0 -25 4 -31 18 -28 11 2 17 12 17 28 0 16 -6 26 -17 28
-14 3 -18 -3 -18 -28z"/>
<path d="M4270 2960 c0 -26 3 -30 29 -30 32 0 56 22 47 45 -3 9 -18 15 -41 15
-32 0 -35 -2 -35 -30z"/>
<path d="M4517 3013 c-2 -10 -8 -26 -12 -35 -6 -15 -2 -18 24 -18 34 0 37 6
19 45 -13 29 -24 32 -31 8z"/>
<path d="M10671 2226 c-20 -24 -9 -51 22 -54 27 -3 28 -1 25 30 -3 36 -27 48
-47 24z"/>
<path d="M1990 1050 c0 -20 5 -30 15 -30 21 0 30 27 15 45 -19 23 -30 18 -30
-15z"/>
<path d="M9627 784 c-4 -4 -7 -12 -7 -18 0 -6 4 -5 9 2 5 8 17 12 27 10 15 -2
19 -12 19 -43 0 -31 -4 -41 -19 -43 -10 -2 -23 2 -28 10 -8 10 -9 10 -5 -2 6
-24 50 -18 62 7 9 22 15 23 170 26 l160 3 -160 2 c-156 2 -161 3 -170 25 -10
22 -44 34 -58 21z"/>
<path d="M9723 783 c20 -2 54 -2 75 0 20 2 3 4 -38 4 -41 0 -58 -2 -37 -4z"/>
<path d="M9878 783 c23 -2 61 -2 85 0 23 2 4 4 -43 4 -47 0 -66 -2 -42 -4z"/>
<path d="M9703 683 c9 -2 25 -2 35 0 9 3 1 5 -18 5 -19 0 -27 -2 -17 -5z"/>
<path d="M9768 683 c7 -3 16 -2 19 1 4 3 -2 6 -13 5 -11 0 -14 -3 -6 -6z"/>
<path d="M9848 683 c28 -2 76 -2 105 0 28 2 5 3 -53 3 -58 0 -81 -1 -52 -3z"/>
<path d="M9787 654 c-15 -8 -27 -17 -27 -20 0 -2 12 2 28 10 24 12 31 12 55 0
15 -8 27 -12 27 -10 0 3 -12 12 -28 20 -24 12 -31 12 -55 0z"/>
<path d="M9740 594 c0 -15 -8 -33 -17 -41 -16 -13 -16 -13 5 -3 15 7 22 20 22
40 0 17 -2 30 -5 30 -3 0 -5 -12 -5 -26z"/>
<path d="M9881 593 c-1 -24 4 -35 22 -43 19 -10 20 -9 5 2 -9 8 -18 27 -21 43
l-4 30 -2 -32z"/>
<path d="M9770 584 c0 -8 5 -12 10 -9 6 4 8 11 5 16 -9 14 -15 11 -15 -7z"/>
<path d="M9845 591 c-3 -5 -1 -12 5 -16 5 -3 10 1 10 9 0 18 -6 21 -15 7z"/>
<path d="M9792 561 c-11 -7 -11 -9 0 -14 9 -3 15 1 15 9 0 8 -1 14 -1 14 -1 0
-7 -4 -14 -9z"/>
<path d="M9825 550 c-3 -6 1 -7 9 -4 18 7 21 14 7 14 -6 0 -13 -4 -16 -10z"/>
<path d="M9842 531 c-11 -7 -10 -10 3 -15 26 -9 43 -6 20 5 -17 8 -16 9 7 6
15 -2 25 0 22 4 -7 11 -35 11 -52 0z"/>
<path d="M9693 495 c0 -22 2 -30 4 -17 2 12 2 30 0 40 -3 9 -5 -1 -4 -23z"/>
<path d="M9933 495 c0 -22 2 -30 4 -17 2 12 2 30 0 40 -3 9 -5 -1 -4 -23z"/>
<path d="M9720 492 c0 -11 7 -25 15 -32 12 -10 15 -9 15 8 0 11 -7 25 -15 32
-12 10 -15 9 -15 -8z"/>
<path d="M9792 501 c-11 -7 -11 -9 0 -14 9 -3 15 1 15 9 0 8 -1 14 -1 14 -1 0
-7 -4 -14 -9z"/>
<path d="M9893 499 c-7 -7 -13 -22 -13 -33 0 -19 1 -19 16 -4 9 8 14 23 12 32
-2 14 -5 15 -15 5z"/>
<path d="M9770 465 c0 -9 6 -12 15 -9 8 4 15 7 15 9 0 2 -7 5 -15 9 -9 3 -15
0 -15 -9z"/>
<path d="M9724 436 c11 -9 24 -16 30 -16 12 0 7 5 -24 19 -24 11 -24 11 -6 -3z"/>
<path d="M9784 434 c-18 -14 -18 -15 5 -4 17 9 30 9 50 1 24 -11 25 -10 7 4
-25 19 -37 19 -62 -1z"/>
<path d="M9890 435 c-14 -8 -20 -14 -14 -15 5 0 19 7 30 15 24 18 16 19 -16 0z"/>
<path d="M10643 753 c-7 -2 -13 -11 -13 -18 0 -7 6 -15 13 -18 7 -3 12 4 12
19 0 13 0 24 0 23 0 0 -6 -3 -12 -6z"/>
<path d="M11235 619 c-4 -6 1 -17 11 -24 25 -19 28 -18 48 4 15 17 15 19 1 25
-25 9 -53 7 -60 -5z"/>
<path d="M11180 570 c-6 -11 -7 -27 -3 -34 13 -23 47 7 38 33 -8 26 -21 27
-35 1z"/>
<path d="M11230 571 c13 -25 33 -28 28 -4 -2 10 -11 19 -21 21 -16 3 -17 1 -7
-17z"/>
<path d="M11283 575 c-3 -9 -3 -18 0 -21 9 -9 27 6 27 22 0 19 -19 18 -27 -1z"/>
<path d="M11323 571 c-10 -16 -9 -22 11 -35 22 -14 24 -14 29 3 5 19 -9 51
-21 51 -4 0 -13 -9 -19 -19z"/>
<path d="M11205 520 c-3 -5 3 -10 14 -10 11 0 23 5 26 10 3 6 -3 10 -14 10
-11 0 -23 -4 -26 -10z"/>
<path d="M11285 520 c3 -5 17 -10 31 -10 14 0 22 4 19 10 -3 6 -17 10 -31 10
-14 0 -22 -4 -19 -10z"/>
<path d="M11259 488 c0 -30 -1 -31 -11 -12 -7 15 -16 20 -34 16 -20 -3 -22 -7
-13 -23 18 -35 79 -18 79 22 0 34 -20 31 -21 -3z"/>
<path d="M11290 476 c-6 -17 -3 -22 12 -24 22 -4 35 5 40 27 5 23 -43 21 -52
-3z"/>
<path d="M10780 592 c0 -5 -10 -14 -22 -20 -13 -6 -17 -11 -10 -11 6 -1 12 -5
12 -11 0 -5 -7 -7 -15 -4 -19 8 -19 -15 0 -40 15 -20 16 -19 27 24 3 9 17 15
38 15 38 0 48 15 25 39 -17 17 -55 22 -55 8z"/>
<path d="M10830 510 c-9 -6 -10 -10 -3 -10 6 0 15 5 18 10 8 12 4 12 -15 0z"/>
<path d="M9400 11720 l0 -280 633 2 632 3 3 278 2 277 -635 0 -635 0 0 -280z
m881 180 c27 -15 26 -75 -2 -90 -30 -17 -62 -8 -78 21 -13 24 -13 29 2 53 18
27 45 33 78 16z m301 -7 c35 -32 13 -93 -34 -93 -49 0 -74 56 -41 92 20 22 51
23 75 1z m-294 -295 c21 -21 14 -66 -13 -84 -50 -32 -103 22 -70 72 17 26 62
33 83 12z m302 -7 c16 -31 12 -59 -12 -75 -30 -21 -44 -20 -68 4 -24 24 -26
53 -4 74 22 23 71 20 84 -3z"/>
<path d="M0 10070 l0 -1100 175 0 175 0 0 1100 0 1100 -175 0 -175 0 0 -1100z"/>
<path d="M0 1695 c0 -49 2 -55 20 -55 31 0 70 -44 70 -78 0 -39 -35 -82 -66
-82 l-24 0 0 -460 0 -460 565 0 565 0 0 595 0 595 -565 0 -565 0 0 -55z m501
-68 c67 -51 35 -147 -49 -147 -38 0 -82 37 -82 70 0 26 25 77 42 83 24 10 73
6 89 -6z m456 -9 c30 -28 32 -89 3 -118 -31 -31 -93 -27 -119 6 -63 80 42 181
116 112z"/>
</g>
</svg>
