<?xml version="1.0" standalone="no"?>
<!DOCTYPE svg PUBLIC "-//W3C//DTD SVG 20010904//EN"
 "http://www.w3.org/TR/2001/REC-SVG-20010904/DTD/svg10.dtd">
<svg version="1.0" xmlns="http://www.w3.org/2000/svg"
 width="1200.000000pt" height="1200.000000pt" viewBox="0 0 1200.000000 1200.000000"
 preserveAspectRatio="xMidYMid meet">

<g transform="translate(0.000000,1200.000000) scale(0.100000,-0.100000)"
fill="#000000" stroke="none">
<path d="M0 11610 l0 -390 175 0 175 0 0 390 0 390 -175 0 -175 0 0 -390z"/>
<path d="M412 11613 l3 -388 118 -3 117 -3 0 391 0 390 -120 0 -120 0 2 -387z"/>
<path d="M710 11585 l0 -414 -147 -3 -148 -3 -3 -1122 -2 -1123 -205 0 -205 0
0 -2970 0 -2970 24 0 c31 0 66 -43 66 -82 0 -34 -39 -78 -70 -78 -19 0 -20 -6
-20 -140 0 -121 2 -140 16 -140 22 0 74 -55 74 -79 0 -37 -23 -71 -57 -83
l-33 -12 0 -136 0 -136 33 -12 c34 -12 57 -46 57 -81 0 -27 -36 -68 -65 -75
-23 -6 -25 -11 -25 -66 l0 -60 595 0 595 0 0 -650 0 -650 -595 0 -595 0 0
-250 0 -250 6000 0 6000 0 0 6000 0 6000 -640 0 -640 0 0 -310 0 -310 -688 2
-687 3 -3 308 -2 307 -4315 0 -4315 0 0 -415z m10177 299 c15 -24 15 -29 2
-53 -28 -49 -99 -32 -99 24 0 55 67 75 97 29z m284 16 c27 -15 26 -75 -2 -90
-30 -17 -62 -8 -78 21 -13 24 -13 29 2 53 18 27 45 33 78 16z m-6291 -212 c15
-20 21 -21 44 -10 24 11 76 2 76 -13 0 -2 -12 0 -27 6 -18 7 -30 6 -37 -1 -17
-17 -55 -11 -66 10 -6 12 -21 20 -35 20 -14 0 -29 -8 -35 -20 -12 -22 -49 -27
-67 -9 -15 15 -49 -4 -65 -38 -7 -15 -20 -28 -28 -30 -11 -3 -11 -2 1 6 9 6
19 21 23 34 7 28 54 53 70 37 17 -17 54 -12 61 10 9 28 61 27 85 -2z m2473
-177 c-29 -85 -55 -157 -57 -158 -2 -2 -27 64 -56 147 -29 83 -51 152 -49 154
15 13 49 25 52 19 2 -5 12 -33 22 -63 10 -30 21 -59 25 -63 4 -4 19 26 34 66
l27 75 29 -11 28 -11 -55 -155z m-1530 136 c31 -14 57 -28 57 -32 0 -11 -83
-95 -93 -95 -6 0 -33 21 -59 47 l-48 47 -48 -47 c-26 -26 -52 -47 -57 -47 -11
0 -95 81 -95 92 0 10 54 38 105 55 62 20 170 11 238 -20z m672 3 c16 -16 26
-33 22 -36 -4 -4 -15 4 -26 17 l-20 24 -1 -123 c0 -132 9 -166 52 -194 59 -39
127 -28 178 27 22 23 25 37 29 117 2 73 0 89 -10 86 -10 -3 -16 -30 -19 -86
-4 -67 -9 -85 -29 -106 -33 -35 -83 -43 -119 -20 -45 29 -51 44 -52 130 0 87
10 110 42 93 15 -8 18 -22 18 -83 0 -52 4 -77 15 -86 20 -16 54 -3 61 24 9 37
0 129 -13 134 -10 3 -13 -14 -13 -62 0 -35 -4 -68 -10 -71 -6 -4 -10 20 -10
64 0 59 3 72 19 81 32 17 51 -12 51 -78 0 -75 -16 -106 -57 -110 -46 -5 -63
26 -63 111 0 51 -3 68 -12 64 -9 -2 -13 -28 -13 -81 0 -73 2 -79 28 -102 37
-31 81 -31 112 1 22 21 25 33 25 99 0 84 16 114 51 96 28 -16 27 -144 -1 -201
-55 -106 -209 -106 -262 1 -14 28 -18 61 -18 154 l0 119 -25 -23 c-14 -13 -25
-20 -25 -15 0 10 51 65 60 65 3 0 19 -13 35 -30z m719 -188 c37 -104 71 -194
76 -201 7 -12 38 66 125 312 15 42 31 77 35 77 4 0 23 -7 42 -15 l35 -14 -115
-316 c-67 -185 -118 -311 -123 -303 -4 7 -55 146 -114 308 -59 162 -109 298
-112 303 -4 7 52 36 72 37 6 0 42 -85 79 -188z m-2168 154 c35 9 66 -21 62
-60 -2 -24 1 -31 17 -34 25 -5 45 -21 45 -36 0 -6 -5 -3 -11 7 -5 9 -18 17
-27 17 -27 0 -41 20 -36 50 7 32 -16 55 -48 47 -23 -6 -48 8 -48 27 0 6 5 3
11 -7 7 -12 17 -15 35 -11z m-122 -2 c3 -8 2 -12 -4 -9 -6 3 -10 10 -10 16 0
14 7 11 14 -7z m-328 -15 c-20 -16 -26 -28 -22 -44 4 -15 0 -27 -12 -36 -15
-12 -16 -12 -5 2 7 8 10 25 6 37 -6 25 20 62 45 62 9 0 4 -8 -12 -21z m-3480
-23 c73 -84 9 -207 -98 -193 -110 15 -141 159 -46 214 38 22 118 11 144 -21z
m413 20 c34 -18 51 -54 51 -107 0 -56 -51 -109 -104 -109 -75 0 -126 51 -126
126 0 54 53 104 109 104 23 0 54 -6 70 -14z m439 -2 c12 -8 29 -28 37 -45 l16
-29 464 0 465 0 0 -25 0 -25 -465 0 -464 0 -16 -30 c-8 -16 -29 -36 -45 -45
-124 -64 -236 87 -138 186 24 24 38 29 77 29 26 0 56 -7 69 -16z m8917 -4 c41
-45 -18 -110 -70 -76 -27 18 -34 63 -13 84 18 18 63 14 83 -8z m291 10 c6 -6
110 -11 249 -12 l240 -3 -1 -32 c0 -18 -1 -238 -2 -488 l-2 -455 -25 0 -25 0
-2 458 -3 457 -203 3 c-168 2 -207 0 -233 -13 -37 -20 -67 -11 -80 22 -13 36
12 73 49 73 16 0 32 -4 38 -10z m-6198 -25 c-3 -3 -9 2 -12 12 -6 14 -5 15 5
6 7 -7 10 -15 7 -18z m-28 -18 c219 -113 134 -451 -114 -451 -153 0 -273 146
-237 289 40 161 205 237 351 162z m113 -42 c-3 -9 -8 -14 -10 -11 -3 3 -2 9 2
15 9 16 15 13 8 -4z m385 -28 c23 -23 42 -47 42 -52 0 -5 -21 -31 -47 -57
l-47 -48 47 -48 c26 -26 47 -52 47 -57 0 -11 -81 -95 -92 -95 -12 0 -44 71
-58 129 -8 32 -10 75 -6 109 7 57 48 162 63 162 5 0 28 -19 51 -43z m536 16
c7 -16 20 -47 26 -70 7 -24 17 -43 22 -43 11 0 10 -86 -1 -108 -6 -9 -17 -41
-26 -70 -9 -29 -24 -59 -32 -68 -14 -14 -20 -11 -59 27 -49 49 -52 58 -24 84
11 10 17 21 14 26 -3 5 1 27 7 49 12 38 11 42 -14 68 -15 16 -27 32 -27 37 0
11 81 95 92 95 4 0 14 -12 22 -27z m-1470 -19 c-13 -19 -14 -28 -5 -37 18 -18
13 -55 -9 -67 -12 -6 -20 -21 -20 -35 0 -14 8 -29 20 -35 22 -12 27 -49 9 -67
-8 -8 -8 -17 0 -31 6 -11 11 -24 11 -29 -1 -4 -8 5 -16 21 -11 20 -13 31 -5
39 17 17 13 51 -9 65 -11 7 -20 23 -20 37 0 14 9 30 20 37 22 14 27 47 10 64
-12 12 6 64 22 64 5 0 1 -11 -8 -26z m96 22 c0 -3 -4 -8 -10 -11 -5 -3 -10 -1
-10 4 0 6 5 11 10 11 6 0 10 -2 10 -4z m1147 -88 c68 -67 74 -71 98 -60 14 6
25 8 25 3 0 -5 -7 -12 -17 -15 -14 -6 -14 -8 3 -22 18 -14 18 -15 -5 -8 -20 5
-36 -6 -102 -72 l-79 -79 -82 83 -83 82 80 80 c44 44 82 80 85 80 2 0 37 -32
77 -72z m-1162 44 c-3 -3 -11 0 -18 7 -9 10 -8 11 6 5 10 -3 15 -9 12 -12z
m577 -14 c-19 -19 -14 -56 8 -63 28 -9 27 -61 -2 -85 -21 -16 -21 -20 -9 -44
11 -20 12 -31 3 -51 -6 -14 -16 -25 -22 -25 -7 0 -4 7 5 16 11 11 14 25 10 38
-17 55 -17 64 4 75 27 15 28 57 1 71 -11 6 -20 20 -20 30 0 22 21 62 29 54 3
-2 -1 -10 -7 -16z m-71 -11 c-10 -9 -11 -8 -5 6 3 10 9 15 12 12 3 -3 0 -11
-7 -18z m989 -97 c0 -61 -16 -66 -22 -7 -4 35 4 56 20 57 1 0 2 -22 2 -50z
m69 4 c6 -6 -31 -33 -44 -33 -5 0 -1 6 9 14 17 13 17 15 3 21 -10 3 -17 10
-17 15 0 8 34 -4 49 -17z m-1034 -14 c3 -5 -1 -10 -10 -10 -9 0 -13 5 -10 10
3 6 8 10 10 10 2 0 7 -4 10 -10z m5153 -26 c24 -17 30 -62 10 -82 -38 -38
-108 9 -89 61 15 38 44 46 79 21z m300 0 c41 -28 22 -94 -28 -94 -55 0 -78 52
-40 90 24 24 38 25 68 4z m302 -4 c24 -24 25 -47 3 -72 -18 -20 -63 -24 -81
-6 -20 20 -14 65 10 82 30 21 44 20 68 -4z m288 4 c24 -17 30 -62 10 -82 -38
-38 -108 9 -89 61 15 38 44 46 79 21z m-4956 -119 c3 -42 6 -50 23 -50 17 0
21 8 25 55 6 70 24 71 28 3 4 -69 -9 -93 -52 -93 -44 0 -57 18 -59 78 -1 89
29 95 35 7z m208 52 c8 0 23 3 32 7 12 5 25 0 43 -18 22 -22 26 -34 23 -73 -2
-36 -7 -49 -20 -51 -14 -3 -17 6 -20 50 -2 39 -7 53 -18 53 -11 0 -16 -14 -20
-50 -4 -36 -10 -51 -22 -53 -14 -3 -17 6 -20 50 -2 39 -7 53 -18 53 -11 0 -16
-14 -18 -53 -3 -44 -6 -53 -20 -50 -13 2 -18 16 -20 54 -3 46 0 54 24 73 17
13 34 19 43 15 9 -4 23 -7 31 -7z m162 -52 c3 -42 6 -50 23 -50 17 0 21 8 25
55 6 70 24 71 28 2 2 -36 8 -55 18 -59 22 -8 28 2 34 58 7 66 24 63 28 -5 4
-73 -9 -85 -95 -85 -37 0 -73 5 -80 11 -14 11 -19 119 -6 132 13 12 22 -9 25
-59z m294 29 c21 -31 15 -108 -8 -112 -15 -3 -18 4 -18 48 0 36 -4 52 -15 57
-19 7 -24 2 -30 -26 -2 -13 2 -24 10 -28 20 -7 19 -23 -2 -39 -34 -25 -43 -17
-43 39 0 56 5 68 34 84 26 14 54 5 72 -23z m117 19 c4 -2 14 -17 22 -34 14
-26 14 -32 0 -59 -15 -30 -47 -45 -82 -38 -14 3 -19 14 -21 61 -4 69 8 90 47
81 14 -4 29 -9 34 -11z m-1896 -9 c-3 -3 -12 -4 -19 -1 -8 3 -5 6 6 6 11 1 17
-2 13 -5z m-471 -51 c-3 -8 -2 -12 3 -9 4 3 18 -6 31 -19 13 -13 38 -29 56
-35 34 -11 42 -24 25 -34 -15 -9 -56 10 -94 43 -38 34 -53 68 -30 68 8 0 12
-6 9 -14z m437 -2 c-10 -28 -57 -72 -71 -66 -7 2 -10 1 -7 -5 6 -10 -26 -30
-49 -30 -30 0 -16 28 19 40 19 6 47 26 62 44 30 34 55 44 46 17z m-494 -5 c6
-7 8 -21 5 -30 -9 -24 25 -58 52 -52 14 4 27 0 35 -11 12 -14 12 -16 -1 -8 -8
5 -26 8 -41 7 -35 -3 -63 29 -55 63 5 20 2 27 -16 35 -15 6 -18 9 -7 9 9 1 22
-5 28 -13z m548 -1 c-9 -8 -13 -24 -10 -35 7 -26 -24 -61 -51 -59 -38 2 -45
-1 -48 -23 -4 -28 -54 -56 -71 -39 -17 17 -46 13 -59 -9 -9 -13 -24 -20 -45
-20 -23 0 -33 6 -38 20 -7 22 -26 25 -55 10 -24 -13 -70 4 -70 25 0 12 4 11
20 -5 22 -22 36 -25 45 -10 11 18 54 11 65 -10 6 -12 21 -20 35 -20 14 0 29 8
35 20 11 21 49 27 66 10 16 -16 64 5 64 28 0 27 20 42 50 36 32 -7 55 16 47
48 -6 22 7 48 25 48 5 0 3 -7 -5 -15z m515 -72 l48 -47 48 47 c26 26 53 47 59
47 6 0 30 -21 53 -46 41 -44 42 -48 25 -60 -39 -28 -127 -54 -185 -54 -58 0
-146 26 -185 54 -17 12 -16 16 25 60 23 25 47 46 53 46 6 0 33 -21 59 -47z
m-802 -23 c0 -5 -4 -10 -10 -10 -5 0 -10 5 -10 10 0 6 5 10 10 10 6 0 10 -4
10 -10z m5451 -60 c27 -15 26 -75 -2 -90 -30 -17 -62 -8 -78 21 -13 24 -13 29
2 53 18 27 45 33 78 16z m301 -7 c34 -31 11 -93 -35 -93 -27 0 -57 28 -57 53
0 48 56 73 92 40z m305 -9 c15 -24 15 -29 2 -53 -28 -49 -99 -32 -99 24 0 55
67 75 97 29z m284 16 c27 -15 26 -75 -2 -90 -30 -17 -62 -8 -78 21 -13 24 -13
29 2 53 18 27 45 33 78 16z m-883 -302 c21 -21 14 -66 -13 -84 -50 -32 -103
22 -70 72 17 26 62 33 83 12z m302 -7 c16 -31 12 -59 -12 -75 -30 -21 -44 -20
-68 4 -24 24 -26 53 -4 74 22 23 71 20 84 -3z m295 -1 c41 -45 -18 -110 -70
-76 -27 18 -34 63 -13 84 18 18 63 14 83 -8z m293 8 c21 -21 14 -66 -13 -84
-50 -32 -103 22 -70 72 17 26 62 33 83 12z m-694 -1314 c22 -8 20 -23 -2 -17
-10 2 -25 -3 -32 -12 -18 -22 -1 -50 29 -49 25 1 28 -11 5 -20 -28 -11 -64 20
-64 55 0 9 36 49 44 49 2 0 11 -3 20 -6z m238 -11 c20 -18 24 -63 6 -81 -36
-36 -98 11 -79 61 15 38 44 46 73 20z m-414 -11 c-24 -5 -23 -19 2 -27 24 -8
27 -40 4 -49 -9 -3 -23 -2 -32 4 -15 8 -14 9 6 10 28 0 28 10 0 34 -21 18 -21
19 -3 32 10 7 23 10 29 6 7 -4 5 -8 -6 -10z m102 8 c0 -5 -9 -10 -20 -10 -11
0 -20 -4 -20 -10 0 -5 7 -10 15 -10 8 0 15 -4 15 -10 0 -5 -7 -10 -15 -10 -8
0 -15 -4 -15 -10 0 -5 9 -10 20 -10 11 0 20 -4 20 -10 0 -5 -13 -10 -30 -10
-29 0 -30 1 -30 50 0 49 1 50 30 50 17 0 30 -4 30 -10z m170 0 c0 -5 -4 -10
-10 -10 -5 0 -10 -18 -10 -40 0 -22 -4 -40 -10 -40 -5 0 -10 18 -10 40 0 22
-4 40 -10 40 -5 0 -10 5 -10 10 0 6 14 10 30 10 17 0 30 -4 30 -10z m40 -40
c0 -27 -4 -50 -10 -50 -5 0 -10 23 -10 50 0 28 5 50 10 50 6 0 10 -22 10 -50z
m200 23 c0 15 5 27 10 27 6 0 10 -23 10 -52 l0 -52 -30 29 -30 29 0 -27 c0
-15 -4 -27 -10 -27 -5 0 -10 23 -10 52 l0 52 30 -29 30 -29 0 27z m-580 -13
c-11 -7 -11 -11 -1 -24 16 -20 3 -20 -22 -2 -17 13 -17 15 4 30 13 8 25 13 28
10 3 -3 -1 -9 -9 -14z m670 -11 c0 -9 -33 -29 -47 -29 -4 0 1 7 11 15 17 13
17 15 3 21 -10 3 -17 10 -17 15 0 5 11 3 25 -3 14 -6 25 -15 25 -19z m-3677
-20 c-360 -15 -696 -88 -1012 -218 -41 -17 -76 -29 -79 -26 -3 2 4 8 14 11 10
4 44 18 74 31 314 138 670 211 1030 210 l155 0 -182 -8z m392 -15 c60 -9 112
-17 114 -20 7 -7 -23 -5 -75 5 -27 5 -87 13 -134 16 -47 4 -92 11 -100 16 -17
10 27 6 195 -17z m168 -31 c-7 -2 -21 -2 -30 0 -10 3 -4 5 12 5 17 0 24 -2 18
-5z m120 -23 c285 -68 590 -203 842 -373 271 -184 537 -442 707 -688 86 -123
112 -165 163 -262 157 -297 248 -572 297 -902 28 -183 30 -542 5 -713 -80
-542 -283 -995 -622 -1392 -398 -465 -954 -784 -1559 -895 -286 -52 -646 -55
-926 -6 -171 30 -443 109 -509 147 l-26 15 25 -5 c14 -2 43 -10 65 -16 50 -13
60 -16 215 -55 386 -98 877 -99 1255 -5 50 13 95 27 100 33 7 6 2 8 -15 3 -14
-3 -63 -13 -110 -22 -47 -9 -101 -20 -120 -25 -57 -15 -122 -20 -358 -26 -140
-3 -257 -1 -315 6 -51 6 -112 14 -137 16 -25 3 -52 8 -60 10 -8 2 -30 7 -48
10 -58 10 -281 71 -327 90 -103 42 -117 52 -122 88 -4 25 38 22 128 -9 186
-64 386 -108 602 -135 113 -13 484 -7 587 10 135 23 286 53 305 61 11 4 47 16
80 25 99 29 334 123 409 164 187 102 294 171 369 237 20 19 40 34 45 34 4 0
28 19 54 43 26 23 61 52 77 65 24 19 89 83 171 171 65 68 177 215 235 306 21
33 46 72 56 87 11 15 19 31 19 36 0 5 6 14 13 20 13 11 70 121 102 197 9 22
22 54 29 70 29 67 35 82 52 140 9 33 20 62 24 65 10 7 50 171 50 204 0 14 4
27 9 31 6 3 13 24 16 48 4 23 9 56 11 72 8 50 14 161 8 148 -3 -7 -9 -13 -13
-13 -8 0 -5 243 4 293 5 25 4 37 -4 37 -8 0 -10 19 -7 62 4 45 1 67 -9 78 -8
9 -16 51 -20 105 -4 50 -13 107 -21 128 -8 20 -14 58 -14 83 0 28 -4 43 -10
39 -6 -4 -11 8 -11 29 -2 52 -3 56 -15 64 -6 4 -12 15 -12 25 -4 41 -6 47 -13
47 -5 0 -11 17 -15 38 -4 20 -11 48 -17 62 -6 14 -11 29 -11 34 -2 20 -25 16
-29 -6 -2 -13 -2 -2 0 23 3 28 0 50 -6 54 -6 3 -11 15 -11 27 0 11 -6 32 -14
46 -7 15 -21 44 -30 65 -8 20 -20 37 -25 37 -5 0 -9 8 -8 18 1 21 -30 92 -41
92 -9 0 -32 50 -32 70 0 8 -9 21 -20 28 -11 7 -20 17 -20 23 0 7 -20 42 -45
80 -25 38 -45 73 -45 78 0 6 -9 15 -20 21 -11 6 -18 15 -15 21 4 5 2 9 -4 9
-5 0 -12 8 -15 18 -3 9 -18 31 -33 47 -16 17 -53 60 -83 95 -98 116 -290 293
-400 370 -19 13 -43 32 -52 40 -31 29 -271 168 -353 205 -44 20 -98 45 -120
55 -22 10 -71 28 -110 40 -38 12 -79 25 -90 30 -34 15 -217 58 -280 65 -33 4
-67 11 -75 15 -37 19 -436 32 -525 18 -27 -5 -77 -11 -110 -14 -104 -8 -139
-18 -143 -37 -3 -16 1 -18 30 -12 113 21 358 20 365 -2 2 -6 -6 -8 -20 -6 -18
4 -26 0 -29 -15 -3 -11 -2 -26 2 -33 5 -7 4 -22 0 -35 -5 -12 -6 -31 -4 -41 3
-11 -1 -36 -9 -56 -17 -40 -25 -117 -13 -135 4 -7 2 -12 -4 -12 -8 0 -8 -6 0
-20 12 -23 6 -40 -15 -40 -9 0 -12 -6 -9 -15 4 -11 2 -13 -9 -9 -8 3 -18 1
-22 -5 -12 -20 -26 -11 -21 12 4 13 -1 8 -11 -11 -13 -26 -23 -33 -43 -31 -14
1 -38 -4 -55 -11 -16 -7 -43 -14 -60 -15 -16 -2 -43 -8 -58 -14 -42 -16 -90
-13 -108 7 -50 55 -209 190 -326 276 -62 45 -90 72 -86 81 4 12 -1 14 -23 10
-20 -4 -37 1 -53 14 l-24 19 29 15 c16 8 103 40 194 70 295 99 529 139 830
139 189 1 228 -2 409 -28 296 -43 601 -145 866 -291 152 -83 212 -120 267
-163 37 -28 47 -7 11 25 -15 14 -44 35 -63 47 -19 12 -44 29 -55 39 -34 29
-184 118 -290 171 -172 87 -354 154 -575 212 -84 22 -43 19 53 -4z m-1914
-163 c378 -190 701 -455 958 -787 74 -96 201 -290 190 -290 -3 0 -16 17 -28
38 -86 138 -258 352 -394 487 -134 133 -288 265 -309 265 -8 0 -20 8 -25 19
-19 34 -222 165 -421 270 -151 80 -132 78 29 -2z m-2499 -123 c0 -17 -6 -24
-20 -24 -25 0 -36 25 -20 45 16 20 40 7 40 -21z m-172 -6 c-3 -7 -15 -14 -29
-16 -23 -2 -23 -2 -5 13 24 18 39 20 34 3z m3903 -21 c-13 -13 -26 -3 -16 12
3 6 11 8 17 5 6 -4 6 -10 -1 -17z m-1290 -32 c29 -14 57 -25 61 -25 5 0 14 -5
21 -10 25 -22 149 -91 154 -87 2 3 -5 10 -16 17 -12 6 -21 17 -21 24 0 8 -8
17 -17 20 -34 13 -63 31 -63 39 0 4 10 3 23 -3 12 -6 38 -19 57 -28 119 -58
258 -153 303 -208 16 -19 48 -46 72 -60 80 -46 322 -320 302 -340 -2 -3 -11 6
-20 19 -21 33 -46 57 -59 57 -13 0 16 -47 47 -77 13 -12 25 -19 29 -16 3 3 9
-3 12 -13 4 -10 20 -35 35 -55 89 -114 126 -189 95 -189 -11 0 -16 9 -17 28 0
23 -1 24 -8 7 -8 -19 -9 -18 -27 10 -27 43 -117 153 -126 154 -16 2 -7 -21 31
-84 41 -67 59 -110 45 -103 -5 2 -28 12 -51 23 -32 15 -43 25 -43 42 0 15 -6
23 -16 23 -9 0 -29 15 -45 33 -28 31 -29 31 -29 8 0 -13 -3 -22 -6 -18 -3 3
-6 9 -6 14 0 4 -8 23 -20 41 -23 37 -15 43 13 10 17 -20 17 -16 -3 20 -13 24
-31 48 -40 53 -10 5 -18 19 -18 29 0 11 -4 20 -9 20 -5 0 -11 10 -15 23 -7 30
-54 51 -74 34 -13 -10 -14 -9 -3 11 15 28 7 28 -27 1 -23 -18 -27 -19 -30 -5
-2 9 -11 16 -20 16 -19 0 -132 102 -132 119 0 6 -4 11 -9 11 -5 0 -23 13 -40
29 -17 16 -38 31 -46 35 -9 3 -19 14 -22 23 -4 10 -17 28 -30 41 -27 27 -22
42 13 42 39 0 29 25 -21 50 -16 8 -44 25 -60 37 -19 14 -39 20 -52 17 -16 -4
-26 1 -38 20 -10 14 -24 26 -31 26 -16 0 -51 18 -72 38 -7 6 -20 12 -28 12
-16 0 -44 23 -44 36 0 4 8 0 18 -8 9 -8 33 -21 52 -28 19 -7 41 -18 49 -24 11
-9 13 -7 7 12 -4 12 -4 22 1 21 37 -6 9 27 -31 37 -14 3 -26 10 -26 14 0 5 -8
11 -17 13 -10 2 -6 3 9 1 14 -2 50 -15 79 -29z m-151 9 c0 -2 -7 -4 -15 -4 -8
0 -15 4 -15 10 0 5 7 7 15 4 8 -4 15 -8 15 -10z m1420 -13 c0 -6 -4 -12 -8
-15 -5 -3 -9 1 -9 9 0 8 4 15 9 15 4 0 8 -4 8 -9z m-4060 -96 c10 -12 10 -18
0 -30 -25 -30 -61 -7 -46 30 3 8 12 15 19 15 8 0 20 -7 27 -15z m178 -13 c4
-28 -24 -40 -45 -19 -14 13 -14 19 -3 32 18 22 44 15 48 -13z m167 -2 c0 -16
-6 -26 -18 -28 -19 -4 -32 20 -23 44 9 25 41 13 41 -16z m1985 20 c0 -5 -4
-10 -10 -10 -5 0 -10 5 -10 10 0 6 5 10 10 10 6 0 10 -4 10 -10z m540 -100 c0
-5 -4 -10 -10 -10 -5 0 -10 5 -10 10 0 6 5 10 10 10 6 0 10 -4 10 -10z m-24
-31 c3 -5 -6 -9 -20 -9 -14 0 -27 4 -30 9 -3 5 6 9 19 9 14 0 28 -4 31 -9z
m44 -63 c0 -5 -7 -3 -15 4 -8 7 -15 20 -15 28 0 13 3 12 15 -4 8 -10 15 -23
15 -28z m-3063 8 c3 -8 -2 -23 -11 -32 -15 -15 -17 -15 -32 0 -21 21 -11 48
16 48 11 0 23 -7 27 -16z m172 3 c15 -19 -10 -53 -33 -44 -16 6 -22 38 -9 50
10 11 30 8 42 -6z m178 -7 c4 -23 -13 -44 -31 -37 -9 4 -16 18 -16 32 0 22 4
26 22 23 13 -2 24 -10 25 -18z m171 -7 c-4 -34 -33 -43 -43 -14 -8 27 1 41 26
41 16 0 20 -6 17 -27z m2573 -20 c13 -16 12 -17 -3 -4 -10 7 -18 15 -18 17 0
8 8 3 21 -13z m1034 -30 c7 16 8 16 19 2 9 -13 17 -14 39 -6 19 8 34 8 47 1
13 -7 21 -7 25 0 5 8 11 7 21 -1 11 -9 15 -8 20 6 4 9 10 12 13 7 3 -6 49 -13
101 -16 155 -11 164 -12 188 -25 18 -10 27 -10 38 0 11 9 14 8 14 -6 0 -14 3
-15 14 -6 9 8 16 8 20 2 4 -6 13 -8 22 -4 8 3 21 -2 28 -13 12 -15 16 -16 30
-5 13 11 19 11 32 0 9 -7 23 -14 32 -14 42 -4 163 -49 217 -80 33 -19 56 -35
51 -35 -5 0 -3 -6 3 -14 14 -17 61 -27 61 -13 0 12 14 0 16 -14 1 -5 2 -12 3
-16 0 -4 7 1 14 11 12 16 14 16 33 -3 15 -14 25 -16 32 -9 12 12 113 -23 143
-49 8 -7 21 -13 27 -13 7 0 12 -4 12 -10 0 -5 6 -10 13 -10 8 0 22 -9 32 -20
10 -11 25 -20 34 -20 9 0 29 -14 45 -30 16 -17 34 -30 41 -30 6 0 22 -13 35
-30 14 -16 31 -29 38 -30 6 0 12 -4 12 -9 0 -5 9 -12 19 -16 11 -3 23 -15 26
-26 4 -11 9 -18 12 -15 7 6 43 -32 43 -45 0 -5 7 -6 15 -3 8 4 15 1 15 -5 0
-6 11 -16 25 -23 13 -6 22 -15 19 -19 -3 -5 3 -20 12 -34 13 -20 19 -23 25
-13 8 12 10 11 13 -12 0 -6 6 -14 11 -18 6 -4 21 -25 34 -47 13 -22 32 -45 42
-53 11 -7 19 -25 19 -40 0 -19 3 -23 9 -14 7 11 9 11 14 -2 4 -9 13 -13 22
-10 12 5 15 -1 12 -35 -2 -26 1 -42 10 -45 7 -3 13 -18 13 -33 1 -27 1 -27 16
-8 15 19 15 18 13 -15 -2 -23 1 -34 9 -32 7 1 12 -5 12 -13 0 -8 5 -15 10 -15
6 0 9 -12 8 -27 -3 -48 2 -87 10 -79 7 8 8 11 12 49 2 21 2 21 9 -3 4 -14 5
-36 1 -50 -8 -29 -2 -53 11 -44 5 3 9 4 9 2 0 -2 3 -43 7 -93 3 -49 10 -93 15
-96 5 -3 6 -28 2 -56 -5 -39 -3 -51 8 -56 17 -6 24 -97 8 -97 -5 0 -10 -7 -10
-15 0 -8 5 -15 10 -15 6 0 10 -16 10 -35 0 -19 -5 -35 -11 -35 -7 0 -9 10 -5
24 3 14 2 28 -4 31 -9 6 -11 -5 -14 -62 -1 -10 5 -17 12 -15 6 1 12 -8 12 -19
0 -18 -2 -19 -15 -9 -13 10 -15 9 -15 -8 0 -12 5 -24 10 -27 12 -7 10 -64 -3
-72 -4 -2 -6 -12 -3 -21 3 -10 -1 -30 -9 -47 l-13 -30 -2 40 -2 40 -8 -34 c-5
-19 -5 -44 -1 -55 10 -29 7 -76 -6 -84 -6 -4 -14 -31 -17 -61 -8 -80 -25 -86
-19 -7 4 44 2 66 -5 66 -6 0 -14 -5 -17 -10 -4 -6 -11 -8 -16 -5 -5 4 -9 2 -9
-4 0 -5 5 -13 11 -16 6 -4 7 -14 4 -24 -15 -35 -37 -129 -46 -190 -5 -36 -13
-69 -18 -75 -4 -6 -11 -23 -15 -39 -4 -15 -15 -36 -25 -46 -10 -10 -21 -38
-25 -62 -4 -25 -15 -59 -26 -77 -11 -18 -20 -38 -20 -44 0 -6 -7 -16 -16 -22
-8 -6 -19 -31 -25 -55 -9 -43 -33 -76 -53 -76 -6 0 -12 -10 -14 -22 -2 -13 -7
-23 -11 -23 -5 0 -11 -13 -14 -29 -4 -18 -14 -30 -27 -34 -12 -3 -19 -10 -16
-16 3 -5 -6 -19 -21 -31 -16 -12 -33 -38 -38 -58 -6 -19 -16 -37 -24 -40 -8
-3 -11 0 -7 7 4 6 5 11 3 11 -2 0 -18 -22 -36 -50 -18 -27 -38 -50 -46 -50 -7
0 -15 -9 -18 -20 -3 -11 -11 -19 -18 -18 -7 2 -18 -8 -25 -20 -17 -35 -34 -50
-34 -32 0 8 -6 4 -13 -10 -7 -14 -36 -38 -64 -55 -28 -16 -54 -38 -56 -47 -3
-10 -15 -18 -26 -18 -12 0 -21 -6 -21 -15 0 -8 -4 -15 -9 -15 -5 0 -23 -12
-40 -26 -17 -14 -35 -23 -40 -20 -5 3 -16 -5 -24 -17 -8 -13 -35 -29 -58 -37
-24 -8 -57 -24 -72 -37 -16 -13 -41 -26 -55 -30 -15 -3 -40 -15 -57 -25 -16
-10 -37 -18 -45 -18 -8 0 -28 -7 -44 -15 -15 -8 -36 -15 -45 -15 -10 0 -26 -6
-36 -14 -11 -8 -25 -12 -31 -9 -7 2 -15 0 -19 -6 -3 -6 -16 -11 -29 -11 -12 0
-26 -3 -29 -7 -4 -3 -17 -8 -30 -9 -48 -6 -75 -12 -94 -22 -11 -6 -29 -8 -41
-5 -12 3 -30 2 -39 -2 -36 -14 -373 -27 -373 -14 0 4 -15 6 -32 4 -18 -2 -60
2 -93 7 -33 6 -67 11 -77 11 -12 1 -3 18 35 67 29 36 60 74 70 85 28 31 161
232 202 305 30 54 120 236 155 315 12 27 47 116 54 138 3 9 11 17 17 17 9 0 9
-3 0 -14 -9 -11 -9 -15 1 -19 10 -4 10 -7 1 -18 -10 -9 -10 -16 -1 -27 9 -10
9 -15 -1 -22 -8 -4 -10 -13 -7 -19 4 -6 0 -11 -8 -11 -9 0 -16 -4 -16 -10 0
-5 5 -10 10 -10 6 0 3 -11 -6 -25 -11 -18 -17 -46 -16 -88 1 -37 -4 -65 -11
-69 -9 -6 -8 -11 3 -21 10 -8 14 -26 13 -54 -2 -24 2 -43 7 -43 6 0 10 -8 10
-19 0 -10 7 -24 15 -31 8 -7 15 -28 15 -46 0 -34 0 -34 38 -28 30 5 41 2 56
-15 21 -23 46 -27 63 -10 9 9 19 6 42 -10 30 -21 30 -23 16 -50 -24 -47 -99
-63 -167 -36 -11 4 -18 3 -18 -4 0 -17 45 -31 125 -38 68 -5 75 -4 97 19 28
27 26 18 68 325 31 229 31 252 -6 285 -28 24 -78 28 -82 6 -2 -12 3 -18 17
-18 18 0 20 -7 20 -65 0 -36 3 -70 7 -76 9 -15 -6 -312 -16 -330 -15 -24 -25
1 -24 57 1 45 -1 54 -13 49 -17 -6 -16 -2 12 95 9 30 17 81 19 113 2 48 0 60
-16 68 -10 5 -22 8 -27 5 -13 -8 -26 -109 -26 -196 0 -48 -4 -74 -11 -73 -6 1
-11 -20 -13 -50 -1 -28 -4 -54 -7 -56 -11 -11 -19 15 -17 60 1 29 -2 49 -8 49
-15 0 -3 131 22 245 22 105 39 201 114 650 146 885 219 1342 247 1553 6 50 15
92 20 92 4 0 8 5 8 11 0 6 -10 10 -22 9 -39 -4 -58 0 -58 9 0 9 72 21 151 24
l46 2 12 93 c7 52 11 95 9 96 -10 7 -132 36 -152 36 -14 0 -28 5 -31 10 -5 8
26 12 80 10 3 0 18 6 33 14 18 9 35 11 50 5 13 -5 28 -7 33 -3 5 3 9 36 9 73
0 60 -3 71 -26 95 -25 24 -63 34 -77 19 -4 -3 5 -16 18 -29 32 -30 36 -93 5
-101 -10 -3 -22 -14 -25 -24 -4 -11 -11 -17 -16 -13 -5 3 -7 14 -4 25 4 13 2
19 -9 19 -9 0 -16 -7 -16 -15 0 -16 -4 -18 -37 -9 -11 3 -24 15 -26 26 -3 11
-10 17 -16 14 -6 -4 -8 -13 -4 -21 3 -8 0 -15 -6 -15 -6 0 -11 11 -11 24 0 37
-16 40 -30 6 -8 -19 -22 -33 -39 -37 -37 -9 -41 -19 -41 -99 0 -39 -7 -93 -15
-120 -21 -68 -19 -95 5 -101 20 -5 24 -20 20 -75 -1 -14 6 -40 15 -57 9 -18
11 -31 5 -31 -5 0 -10 -5 -10 -11 0 -5 5 -7 10 -4 6 3 10 -1 10 -9 0 -9 -5
-16 -11 -16 -6 0 -8 -7 -5 -16 10 -25 -5 -94 -20 -94 -22 0 -16 -17 7 -23 13
-4 18 -10 14 -17 -6 -9 -10 -9 -16 1 -14 23 -18 7 -22 -83 -3 -63 -9 -91 -21
-103 -9 -9 -16 -22 -16 -28 -2 -70 -12 -153 -19 -160 -5 -5 -7 -16 -4 -23 3
-8 1 -14 -4 -14 -6 0 -9 -25 -8 -55 2 -30 -1 -58 -6 -61 -6 -3 -7 -14 -4 -25
4 -12 2 -18 -5 -17 -13 3 -40 -65 -40 -104 0 -15 -5 -39 -10 -54 -8 -20 -8
-29 1 -35 9 -5 8 -12 -5 -24 -10 -11 -14 -25 -10 -37 4 -13 -1 -24 -13 -34
-17 -13 -17 -15 -1 -27 16 -13 16 -15 -1 -33 -10 -11 -20 -26 -23 -34 -3 -8
-8 71 -11 175 -9 277 -48 509 -132 775 -15 47 -33 99 -40 115 -7 17 -23 57
-36 90 -40 105 -163 338 -233 446 -75 114 -131 189 -218 291 -52 62 -55 69
-45 92 9 19 15 22 25 13 18 -15 40 -18 48 -6 3 6 14 7 24 4 12 -4 22 1 29 12
6 10 11 13 11 7 0 -20 61 -10 73 11 11 19 11 19 18 -5 5 -22 7 -23 14 -7z
m-992 -3 c13 -15 14 -20 3 -20 -7 0 -16 9 -19 20 -3 11 -4 20 -3 20 1 0 9 -9
19 -20z m62 -68 c6 -7 24 -16 40 -21 29 -9 29 -9 4 -10 -17 -1 -36 11 -60 36
-18 20 -25 31 -14 23 11 -8 25 -21 30 -28z m-3198 -48 c3 -8 -2 -23 -11 -32
-15 -15 -17 -15 -32 0 -21 21 -11 48 16 48 11 0 23 -7 27 -16z m177 -1 c4 -9
0 -23 -8 -31 -12 -13 -18 -13 -30 -2 -9 7 -16 21 -16 31 0 24 45 26 54 2z
m173 1 c3 -8 -2 -23 -11 -32 -14 -15 -18 -15 -31 -1 -9 9 -13 23 -9 32 8 21
43 22 51 1z m173 -8 c0 -32 -18 -43 -37 -23 -20 20 -10 47 17 47 15 0 20 -7
20 -24z m2770 -21 c0 -5 -5 -3 -10 5 -5 8 -10 20 -10 25 0 6 5 3 10 -5 5 -8
10 -19 10 -25z m34 -31 c3 -8 2 -12 -4 -9 -6 3 -10 10 -10 16 0 14 7 11 14 -7z
m96 -86 c15 -21 17 -28 6 -19 -16 13 -41 51 -33 51 2 0 14 -15 27 -32z m-3432
-17 c21 -13 10 -46 -16 -49 -27 -4 -40 22 -22 43 14 17 20 18 38 6z m192 -20
c0 -15 -29 -33 -45 -27 -18 7 -20 43 -2 49 14 5 47 -10 47 -22z m160 14 c25
-30 -10 -61 -38 -33 -7 7 -8 17 -1 30 12 22 23 23 39 3z m175 -16 c0 -17 -6
-24 -20 -24 -23 0 -33 34 -13 46 20 13 33 5 33 -22z m2962 15 c-3 -3 -12 -4
-19 -1 -8 3 -5 6 6 6 11 1 17 -2 13 -5z m-1707 -153 l0 -138 -182 -104 c-101
-57 -196 -111 -213 -120 -52 -28 -48 -32 107 -117 27 -15 57 -32 66 -37 9 -6
63 -36 120 -69 l102 -58 0 -139 c0 -76 -4 -139 -8 -139 -5 0 -38 19 -73 41
-35 23 -95 62 -134 87 -38 25 -89 58 -112 73 -23 16 -44 29 -47 29 -3 0 -83
50 -178 111 -95 61 -199 128 -230 148 -32 20 -58 38 -58 41 0 5 194 130 348
224 26 16 76 48 112 71 108 70 373 235 377 235 2 0 3 -62 3 -139z m-2722 113
c28 -19 28 -49 0 -68 -43 -30 -58 -21 -58 34 0 55 15 64 58 34z m62 -34 c0
-27 -4 -50 -10 -50 -5 0 -10 23 -10 50 0 28 5 50 10 50 6 0 10 -22 10 -50z
m44 25 c4 -14 10 -25 15 -25 4 0 13 11 19 25 6 14 16 25 22 25 5 0 0 -20 -12
-45 -12 -25 -25 -45 -29 -45 -6 0 -39 72 -39 85 0 17 19 1 24 -20z m4411 15
c13 -5 14 -9 5 -9 -8 0 -24 4 -35 9 -13 5 -14 9 -5 9 8 0 24 -4 35 -9z m-4605
-30 c-11 -7 -11 -11 -1 -24 16 -20 3 -20 -22 -2 -17 13 -17 15 4 30 13 8 25
13 28 10 3 -3 -1 -9 -9 -14z m318 -3 c9 -8 8 -13 -5 -23 -25 -19 -38 -17 -22
3 11 13 11 17 2 20 -7 3 -13 9 -13 14 0 10 13 5 38 -14z m4356 -19 c-3 -4 -9
-8 -15 -8 -5 0 -9 4 -9 8 0 5 7 9 15 9 8 0 12 -4 9 -9z m-199 -28 c3 -5 -1
-10 -10 -10 -9 0 -13 5 -10 10 3 6 8 10 10 10 2 0 7 -4 10 -10z m1466 -40 c23
0 6 -18 -21 -22 -16 -3 -30 -3 -30 -2 0 17 16 34 27 30 8 -3 19 -6 24 -6z
m-4904 -26 c3 -8 -2 -23 -11 -32 -15 -15 -17 -15 -32 0 -21 21 -11 48 16 48
11 0 23 -7 27 -16z m173 1 c10 -12 10 -18 0 -30 -25 -30 -61 -7 -46 30 3 8 12
15 19 15 8 0 20 -7 27 -15z m177 -5 c4 -23 -13 -44 -31 -37 -9 4 -16 18 -16
32 0 22 4 26 22 23 13 -2 24 -10 25 -18z m171 -4 c2 -10 -1 -23 -7 -29 -15
-15 -46 16 -37 38 8 21 40 15 44 -9z m3200 -26 c7 -11 11 -20 9 -20 -2 0 -12
9 -22 20 -10 11 -14 20 -9 20 5 0 15 -9 22 -20z m1251 11 c14 -9 11 -47 -11
-123 -10 -33 -15 -38 -42 -38 -23 0 -27 3 -18 12 16 16 15 28 0 28 -7 0 -23
18 -34 40 -22 39 -21 58 1 40 9 -8 14 -6 19 5 4 11 12 14 27 10 15 -5 19 -4
15 4 -15 24 15 40 43 22z m86 -7 c13 -18 3 -104 -18 -155 -10 -26 -14 -28 -28
-17 -15 12 -15 21 -3 98 7 47 13 86 13 88 2 8 26 -1 36 -14z m-1285 -65 c0
-18 -18 -9 -23 12 -4 16 -3 18 9 8 8 -6 14 -15 14 -20z m247 -74 c7 -21 7 -37
2 -41 -12 -7 -23 21 -14 36 4 6 -5 10 -22 10 -27 1 -27 1 -9 15 28 21 31 19
43 -20z m-181 -1 c18 -14 18 -14 -6 -3 -31 14 -36 19 -24 19 6 0 19 -7 30 -16z
m94 -36 c0 -16 -3 -19 -11 -11 -6 6 -8 16 -5 22 11 17 16 13 16 -11z m2390 -3
c0 -14 -4 -25 -9 -25 -6 0 -8 36 -2 48 5 10 11 -2 11 -23z m-2430 -6 c0 -14
-17 -10 -23 5 -4 10 -1 13 9 9 7 -3 14 -9 14 -14z m-1880 -154 c36 -23 93 -59
128 -81 34 -21 111 -70 171 -109 59 -38 151 -97 204 -130 53 -33 96 -65 97
-72 0 -7 -10 -18 -22 -24 -13 -6 -54 -32 -93 -57 -106 -68 -123 -79 -365 -232
-124 -78 -248 -158 -277 -176 -83 -55 -78 -61 -79 94 l-2 139 57 34 c31 18 72
43 93 54 206 113 287 162 285 170 -2 5 -19 18 -38 28 -98 56 -200 113 -249
140 -48 27 -129 75 -138 82 -2 2 -4 234 -2 278 0 7 75 -38 230 -138z m2850
124 c0 -6 -4 -7 -10 -4 -5 3 -10 11 -10 16 0 6 5 7 10 4 6 -3 10 -11 10 -16z
m-921 0 c-12 -8 -11 -12 5 -24 11 -8 16 -18 13 -22 -4 -3 -8 -4 -9 -2 -2 2
-13 15 -25 29 l-22 25 26 2 c19 1 22 -1 12 -8z m2348 -11 c-3 -8 -6 -5 -6 6
-1 11 2 17 5 13 3 -3 4 -12 1 -19z m-1354 -54 c-5 -61 -12 -76 -36 -68 -12 4
-24 11 -25 16 -2 4 -10 15 -18 22 -19 19 -18 36 3 36 9 0 13 3 10 7 -15 14 14
31 41 24 22 -7 27 -13 25 -37z m1347 -4 c0 -5 -2 -10 -4 -10 -3 0 -8 5 -11 10
-3 6 -1 10 4 10 6 0 11 -4 11 -10z m145 -20 c3 -5 -1 -10 -10 -10 -9 0 -13 5
-10 10 3 6 8 10 10 10 2 0 7 -4 10 -10z m34 -21 c-6 -12 -13 -18 -16 -15 -3 3
-1 12 5 19 7 8 8 18 4 22 -4 5 -1 5 6 1 9 -5 9 -12 1 -27z m-190 -23 c0 -7 -2
-6 -6 2 -2 6 -11 12 -19 12 -9 0 -12 5 -9 10 8 13 35 -6 34 -24z m69 -37 c14
0 13 -2 -3 -8 -26 -11 -35 -5 -35 22 1 20 2 20 11 5 5 -10 18 -18 27 -19z
m142 11 c-8 -5 -17 -7 -19 -4 -3 3 1 9 9 14 8 5 17 7 19 4 3 -3 -1 -9 -9 -14z
m-1560 -27 c0 -43 -180 -1158 -319 -1978 -12 -66 -21 -123 -21 -127 0 -5 -4
-8 -10 -8 -5 0 -10 7 -10 16 0 8 -4 13 -9 10 -15 -10 -24 70 -11 94 7 12 10
31 7 41 -3 11 2 23 11 29 10 5 12 10 5 10 -15 0 -18 30 -3 30 14 0 12 104 -2
119 -10 11 -10 13 0 7 7 -5 13 0 14 11 0 10 2 23 3 28 2 6 4 15 5 20 1 6 2 18
1 28 -2 11 5 17 19 17 20 0 22 4 18 37 -3 21 1 48 8 61 10 19 12 85 3 112 -7
23 19 170 30 170 11 0 12 103 1 110 -6 4 -3 15 6 29 13 18 18 20 25 10 5 -9 7
-3 5 16 -1 17 1 35 5 40 4 6 9 42 12 82 2 39 8 77 12 84 5 6 9 26 11 43 8 90
12 115 19 125 4 7 2 18 -5 26 -8 10 -8 24 0 56 9 32 9 44 0 49 -8 5 -10 21 -5
49 7 44 25 66 25 32 0 -12 5 -21 11 -21 8 0 9 12 5 38 -17 89 -17 92 5 92 15
0 19 5 14 19 -3 10 -1 31 5 46 6 15 11 46 11 68 1 23 7 51 14 62 18 29 28 82
17 89 -5 3 -3 36 6 79 14 68 17 73 39 69 13 -2 23 -11 23 -19z m1452 -15 c-7
-7 -12 -8 -12 -2 0 14 12 26 19 19 2 -3 -1 -11 -7 -17z m108 -9 c0 -5 -4 -9
-10 -9 -5 0 -10 7 -10 16 0 8 5 12 10 9 6 -3 10 -10 10 -16z m-203 -21 c-3 -8
-6 -5 -6 6 -1 11 2 17 5 13 3 -3 4 -12 1 -19z m234 -51 c-10 -9 -11 -8 -5 6 3
10 9 15 12 12 3 -3 0 -11 -7 -18z m-41 9 c0 -3 -4 -8 -10 -11 -5 -3 -10 -1
-10 4 0 6 5 11 10 11 6 0 10 -2 10 -4z m-2055 -21 c0 -6 -169 -11 -483 -13
l-482 -2 2 -223 3 -222 60 2 c93 4 97 3 154 -3 35 -4 62 -2 78 7 19 10 28 10
43 1 11 -7 42 -12 70 -12 28 0 59 5 70 12 15 9 24 9 43 -1 16 -9 43 -11 78 -7
30 3 64 6 77 5 32 -1 148 0 175 1 36 1 107 -12 107 -20 0 -4 -26 -9 -57 -12
-69 -5 -912 -2 -918 4 -7 7 -8 475 -1 487 10 15 981 11 981 -4z m1766 -22 c-8
-15 -10 -15 -11 -2 0 17 10 32 18 25 2 -3 -1 -13 -7 -23z m239 17 c0 -5 -5
-10 -11 -10 -5 0 -7 5 -4 10 3 6 8 10 11 10 2 0 4 -4 4 -10z m-30 -4 c0 -3 -4
-8 -10 -11 -5 -3 -10 -1 -10 4 0 6 5 11 10 11 6 0 10 -2 10 -4z m76 -18 c5 -7
3 -8 -6 -3 -7 4 -16 2 -21 -6 -7 -11 -9 -10 -9 4 0 19 25 23 36 5z m91 -10
c-3 -8 -6 -5 -6 6 -1 11 2 17 5 13 3 -3 4 -12 1 -19z m-2187 -18 c0 -5 -4 -10
-10 -10 -5 0 -10 5 -10 10 0 6 5 10 10 10 6 0 10 -4 10 -10z m2027 -30 c-1
-11 -5 -20 -9 -20 -10 0 -10 4 -2 24 8 22 13 20 11 -4z m133 -5 c0 -14 -4 -25
-9 -25 -5 0 -8 11 -8 25 0 14 3 25 8 25 5 0 9 -11 9 -25z m-2910 -10 c16 -19
6 -45 -18 -45 -31 0 -46 25 -27 44 20 20 29 20 45 1z m176 -2 c15 -22 1 -43
-28 -43 -24 0 -34 26 -18 45 16 20 30 19 46 -2z m174 2 c17 -20 5 -45 -20 -45
-11 0 -23 7 -26 15 -6 15 11 45 26 45 4 0 13 -7 20 -15z m179 -3 c12 -22 -3
-42 -30 -42 -21 0 -29 19 -17 43 11 22 35 22 47 -1z m179 -15 c3 -23 0 -27
-22 -27 -31 0 -40 14 -26 40 16 29 44 21 48 -13z m2152 -27 c0 -5 -7 -7 -15
-4 -8 4 -15 8 -15 10 0 2 7 4 15 4 8 0 15 -4 15 -10z m70 0 c0 -5 -4 -10 -10
-10 -5 0 -10 5 -10 10 0 6 5 10 10 10 6 0 10 -4 10 -10z m-90 -55 c-7 -9 -15
-13 -18 -10 -3 2 1 11 8 20 7 9 15 13 18 10 3 -2 -1 -11 -8 -20z m-70 -45 c0
-5 -4 -10 -10 -10 -5 0 -10 5 -10 10 0 6 5 10 10 10 6 0 10 -4 10 -10z m-1610
-19 c0 -6 -4 -13 -10 -16 -5 -3 -10 1 -10 9 0 9 5 16 10 16 6 0 10 -4 10 -9z
m-450 -32 c0 -27 -28 -35 -48 -15 -16 16 -16 18 1 31 24 17 47 9 47 -16z
m-705 2 c0 -8 -8 -19 -17 -25 -14 -8 -21 -7 -34 6 -9 9 -13 21 -9 28 10 15 60
8 60 -9z m175 -1 c0 -27 -27 -37 -47 -17 -20 19 -9 37 23 37 17 0 24 -5 24
-20z m176 9 c9 -16 -21 -43 -40 -36 -9 4 -16 16 -16 27 0 15 7 20 24 20 14 0
28 -5 32 -11z m179 -8 c0 -8 -8 -19 -17 -25 -14 -8 -21 -7 -34 6 -9 9 -13 21
-9 28 10 15 60 8 60 -9z m2225 -1 c0 -5 -2 -10 -4 -10 -3 0 -8 5 -11 10 -3 6
-1 10 4 10 6 0 11 -4 11 -10z m-2760 -335 c16 -19 6 -45 -18 -45 -31 0 -46 25
-27 44 20 20 29 20 45 1z m168 6 c20 -12 10 -46 -14 -49 -25 -4 -40 24 -23 44
13 16 19 17 37 5z m182 -6 c17 -20 5 -45 -20 -45 -11 0 -23 7 -26 15 -6 15 11
45 26 45 4 0 13 -7 20 -15z m180 0 c10 -12 10 -18 0 -30 -7 -8 -18 -15 -25
-15 -7 0 -18 7 -25 15 -10 12 -10 18 0 30 7 8 18 15 25 15 7 0 18 -7 25 -15z
m175 -15 c0 -18 -6 -26 -21 -28 -26 -4 -40 24 -23 45 18 21 44 11 44 -17z
m-4322 -456 c41 -20 47 -42 17 -69 -18 -17 -21 -16 -64 5 -49 23 -84 21 -139
-7 -33 -17 -67 -68 -67 -103 0 -39 35 -87 79 -110 51 -25 74 -25 129 2 l45 21
19 -22 c28 -35 22 -47 -34 -71 -112 -48 -246 -3 -303 101 -14 26 -25 60 -25
75 1 70 72 162 146 190 49 18 146 13 197 -12z m394 10 c165 -55 193 -245 51
-341 -105 -70 -258 -45 -335 55 -24 32 -28 46 -28 104 0 59 3 70 31 105 64 81
176 112 281 77z m1095 -148 l3 -151 93 -3 92 -3 0 -34 0 -35 -135 0 -135 0 0
188 c0 104 2 191 5 193 2 3 20 3 39 1 l35 -4 3 -152z m278 93 c19 -32 38 -59
42 -59 4 0 22 26 41 58 32 54 35 57 81 63 26 3 49 3 51 -1 2 -3 -9 -24 -25
-47 -15 -22 -47 -72 -70 -109 -40 -67 -41 -71 -38 -144 l3 -75 -43 -3 -42 -3
0 82 0 82 -65 102 c-36 56 -65 106 -65 111 0 5 21 8 48 6 46 -4 48 -5 82 -63z
m419 -88 c41 -50 77 -91 80 -91 3 0 53 57 111 126 l105 126 5 -148 c3 -82 3
-170 2 -196 l-4 -48 -45 0 -45 0 4 75 c2 47 0 75 -7 75 -5 0 -35 -32 -65 -70
-29 -39 -57 -70 -60 -70 -3 0 -29 32 -59 70 -29 39 -57 70 -62 70 -5 0 -9 -34
-9 -75 l0 -75 -45 0 -45 0 0 198 0 197 33 -36 c18 -20 66 -77 106 -128z m1279
133 l51 -26 -21 -29 c-25 -34 -30 -35 -64 -12 -31 20 -99 21 -139 2 -37 -18
-75 -73 -75 -109 0 -58 76 -128 140 -130 14 0 42 9 63 20 48 26 49 25 75 -9
l22 -30 -56 -27 c-47 -23 -63 -26 -118 -22 -159 13 -255 146 -196 271 53 113
200 160 318 101z m359 0 c37 -28 38 -38 7 -59 -25 -16 -29 -16 -55 -1 -15 9
-36 16 -47 16 -26 0 -67 -34 -58 -48 4 -6 45 -29 91 -51 87 -41 115 -71 115
-125 0 -34 -43 -82 -86 -96 -55 -19 -146 -8 -188 21 -44 29 -45 44 -6 64 27
14 32 14 62 -5 38 -23 66 -25 103 -8 27 12 33 39 11 57 -7 6 -45 27 -83 45
-90 44 -103 58 -103 108 0 32 6 46 30 68 36 34 56 39 128 36 34 -2 62 -10 79
-22z m-2944 -8 c21 -10 50 -35 65 -54 24 -31 27 -44 27 -111 0 -94 -22 -131
-99 -167 -43 -20 -67 -24 -153 -24 l-103 0 0 191 0 191 113 -4 c84 -2 121 -8
150 -22z m442 -11 l0 -30 -90 -5 -90 -5 0 -35 0 -35 75 -5 75 -5 3 -32 3 -32
-78 -3 -78 -3 0 -40 0 -40 90 -5 89 -5 1 -30 0 -30 -133 0 -134 0 1 185 c0
102 1 186 1 188 0 1 59 1 132 0 l132 -3 1 -30z m1505 14 c52 -29 77 -84 60
-133 -21 -65 -69 -92 -175 -98 l-40 -3 -3 -62 -3 -63 -44 0 -45 0 0 190 0 190
106 0 c90 0 112 -3 144 -21z m220 -169 l0 -190 -40 0 -40 0 0 190 0 190 40 0
40 0 0 -190z m1555 160 c3 -5 -1 -10 -9 -10 -9 0 -16 5 -16 10 0 6 4 10 9 10
6 0 13 -4 16 -10z m-3195 -520 c12 -22 4 -46 -16 -54 -21 -8 -17 -26 7 -26 11
0 17 -4 14 -10 -3 -5 -25 -10 -48 -10 l-41 0 38 39 c43 44 41 65 -7 56 l-32
-6 23 20 c25 22 47 19 62 -9z m257 8 c28 -26 30 -61 3 -88 -24 -24 -38 -25
-62 -3 -26 23 -24 78 4 97 28 20 27 20 55 -6z m281 -26 c2 -12 -6 -26 -20 -36
l-23 -16 23 -6 c38 -11 24 -24 -25 -24 l-47 0 38 39 c43 44 41 65 -7 56 l-32
-6 24 21 c21 18 26 19 45 7 12 -8 22 -23 24 -35z m218 6 c-9 -12 -16 -28 -16
-35 0 -21 21 -15 27 7 7 28 20 25 27 -6 7 -28 -12 -61 -21 -36 -3 6 -18 12
-34 12 l-29 0 15 37 c9 20 21 43 27 51 19 22 22 -4 4 -30z m2309 -105 c0 -14
-6 -28 -14 -31 -10 -3 -12 0 -8 12 4 10 7 24 7 32 0 8 4 14 8 14 4 0 8 -12 7
-27z m-2905 -263 c0 -5 -4 -10 -10 -10 -5 0 -10 5 -10 10 0 6 5 10 10 10 6 0
10 -4 10 -10z m-1234 -50 c65 -32 97 -68 120 -132 41 -117 -17 -246 -132 -294
-40 -17 -137 -17 -181 -1 -40 15 -97 68 -120 110 -23 44 -23 170 0 214 40 75
131 131 213 132 26 1 62 -10 100 -29z m2866 -121 l-10 -34 1 42 c1 24 5 39 10
34 4 -4 4 -23 -1 -42z m-32 11 c0 -16 -4 -30 -10 -30 -5 0 -10 14 -10 30 0 17
5 30 10 30 6 0 10 -13 10 -30z m120 20 c0 -5 -6 -10 -14 -10 -8 0 -18 5 -21
10 -3 6 3 10 14 10 12 0 21 -4 21 -10z m135 0 c-3 -5 -31 -10 -61 -10 -30 0
-54 5 -54 10 0 6 27 10 61 10 37 0 58 -4 54 -10z m-143 -52 c-9 -9 -15 -9 -24
0 -9 9 -7 12 12 12 19 0 21 -3 12 -12z m58 2 c0 -5 -4 -10 -9 -10 -6 0 -13 5
-16 10 -3 6 1 10 9 10 9 0 16 -4 16 -10z m90 0 c0 -5 -13 -10 -30 -10 -16 0
-30 5 -30 10 0 6 14 10 30 10 17 0 30 -4 30 -10z m-54 -86 c24 -19 44 -43 44
-52 -1 -26 -23 -50 -50 -54 -14 -1 -29 -13 -35 -25 -5 -12 -18 -24 -29 -27
-22 -6 -56 10 -56 26 0 6 9 3 19 -6 18 -17 20 -17 40 3 22 22 28 51 11 51 -5
0 -10 -7 -10 -15 0 -11 -8 -13 -32 -8 -35 7 -57 28 -58 55 0 18 77 88 99 88 8
0 34 -16 57 -36z m1304 -75 c0 -10 -4 -19 -10 -19 -5 0 -10 12 -10 26 0 14 4
23 10 19 6 -3 10 -15 10 -26z m-3863 -60 c118 -57 159 -226 82 -342 -45 -69
-107 -101 -194 -102 -59 0 -77 4 -118 28 -93 55 -140 159 -117 257 37 155 199
229 347 159z m2559 -15 c-30 -21 -42 -17 -15 5 13 11 26 17 29 14 3 -2 -4 -11
-14 -19z m-618 -98 c-3 -27 -7 -31 -35 -34 -32 -3 -33 -2 -33 32 0 28 4 35 23
38 37 6 48 -2 45 -36z m132 24 c0 -5 -22 -10 -50 -10 -27 0 -50 5 -50 10 0 6
23 10 50 10 28 0 50 -4 50 -10z m-10 -51 c0 -5 -20 -9 -45 -9 -54 0 -60 17 -7
22 41 4 52 1 52 -13z m-444 -95 c103 -35 163 -163 130 -278 -64 -218 -366
-232 -445 -20 -25 66 -26 84 -5 153 21 72 73 127 144 151 60 21 101 20 176 -6z
m514 -4 c59 -30 67 -46 40 -75 -56 -60 -158 -69 -232 -19 -45 29 -48 55 -12
79 71 47 133 51 204 15z m-1865 -127 c0 -18 -6 -29 -17 -31 -14 -3 -18 4 -18
31 0 18 3 37 7 40 12 12 29 -12 28 -40z m112 31 c-10 -10 -77 -12 -83 -2 -3 4
16 8 42 8 26 0 44 -3 41 -6z m89 -1 c-10 -11 -56 -11 -56 -1 0 4 14 8 32 8 17
0 28 -3 24 -7z m69 -3 c-3 -5 -13 -10 -21 -10 -8 0 -14 5 -14 10 0 6 9 10 21
10 11 0 17 -4 14 -10z m-119 -47 c-7 -7 -108 -5 -115 3 -2 2 24 4 59 4 35 0
60 -3 56 -7z m104 3 c0 -8 -61 -12 -66 -4 -3 4 11 8 30 8 20 0 36 -2 36 -4z
m-40 -63 c0 -3 -19 -24 -41 -45 -33 -32 -46 -38 -67 -33 -18 4 -31 0 -48 -16
-33 -31 -30 -12 2 22 24 25 28 27 48 14 20 -14 24 -12 56 25 32 37 50 49 50
33z m-12 -120 c-2 -53 -6 -68 -18 -68 -19 0 -27 100 -9 121 23 27 30 13 27
-53z m347 -8 c0 -33 -3 -40 -20 -40 -15 0 -20 8 -22 30 -4 41 4 57 24 53 14
-2 18 -13 18 -43z m135 31 c0 -9 -16 -16 -43 -20 -49 -8 -77 0 -77 20 0 10 15
14 60 14 44 0 60 -4 60 -14z m170 -6 c0 -18 -7 -20 -75 -20 -68 0 -75 2 -75
20 0 18 7 20 75 20 68 0 75 -2 75 -20z m-767 -32 c-6 -48 -16 -64 -32 -54 -16
10 -13 48 5 74 23 34 33 27 27 -20z m55 -15 c-2 -26 -8 -38 -18 -38 -10 0 -16
12 -18 38 -3 32 0 37 18 37 18 0 21 -5 18 -37z m710 0 c-3 -16 -18 -18 -143
-18 -125 0 -140 2 -143 18 -3 16 9 17 143 17 134 0 146 -1 143 -17z m-4438
-772 l0 -779 24 -16 c64 -41 29 -145 -49 -145 -34 0 -56 14 -73 46 -18 33 -14
59 13 91 l25 30 0 776 0 776 30 0 30 0 0 -779z m4310 699 c11 -11 20 -28 20
-38 0 -10 12 -28 26 -41 32 -28 29 -67 -8 -94 -24 -18 -31 -19 -52 -7 -20 10
-31 10 -55 0 -27 -11 -34 -9 -61 10 -19 13 -30 30 -30 45 0 24 23 55 41 55 5
0 9 13 9 29 0 55 70 81 110 41z m95 -435 c28 -27 31 -49 12 -83 -12 -20 6
-119 130 -745 94 -473 141 -727 135 -737 -15 -24 -41 -24 -52 2 -5 13 -73 342
-149 731 -131 662 -142 710 -165 728 -31 25 -39 49 -26 83 18 48 78 59 115 21z
m-3925 -1065 c13 -13 20 -33 20 -59 0 -73 -84 -108 -135 -56 -52 51 -17 135
56 135 26 0 46 -7 59 -20z m450 -2 c30 -33 27 -91 -6 -117 -80 -63 -181 42
-112 116 29 31 89 32 118 1z m6241 -78 c79 -22 122 -117 85 -188 -9 -18 -21
-32 -27 -32 -6 0 3 -13 20 -29 142 -132 -29 -345 -204 -255 -35 18 -85 74 -85
94 0 4 20 13 45 19 41 10 46 9 69 -14 31 -31 72 -32 103 -3 51 47 10 132 -70
145 -53 8 -50 53 5 66 35 9 58 33 58 61 0 43 -46 61 -80 31 -20 -19 -110 -10
-110 11 0 20 52 76 85 90 37 16 59 17 106 4z m-436 -11 c25 -7 56 -28 83 -56
36 -37 47 -43 72 -39 28 4 30 2 30 -30 0 -30 -3 -34 -25 -34 -14 0 -25 -4 -25
-10 0 -5 11 -10 25 -10 21 0 25 -5 25 -30 0 -28 -2 -30 -38 -30 -30 0 -41 -5
-51 -23 -23 -43 -76 -69 -151 -75 l-70 -5 0 -83 0 -84 -50 0 -50 0 0 135 0
135 -25 0 c-21 0 -25 5 -25 30 0 23 5 30 19 30 11 0 23 5 26 10 4 6 -5 10 -19
10 -22 0 -26 5 -26 29 0 23 5 30 23 33 19 3 22 10 25 56 l3 52 92 0 c51 0 110
-5 132 -11z m935 -39 l0 -50 -95 0 c-94 0 -95 0 -95 -24 0 -13 -3 -31 -6 -39
-5 -13 0 -14 34 -5 72 18 155 -19 189 -85 25 -49 22 -134 -6 -183 -60 -106
-221 -120 -307 -27 -13 14 -24 29 -24 34 0 4 21 14 46 23 44 15 48 15 72 -4
47 -37 104 -21 128 35 16 38 6 79 -24 101 -25 19 -92 17 -127 -5 -27 -16 -33
-17 -58 -4 -19 9 -26 20 -23 31 2 9 12 70 21 135 l18 117 128 0 129 0 0 -50z
m583 36 c46 -19 102 -87 118 -144 8 -26 13 -80 12 -120 -2 -126 -61 -215 -160
-241 -161 -43 -289 118 -253 319 6 35 18 76 25 90 19 36 65 81 100 96 39 17
117 17 158 0z m473 -2 c48 -23 99 -86 115 -142 8 -26 13 -80 12 -120 -2 -126
-61 -215 -160 -241 -93 -25 -187 21 -228 112 -68 151 -19 340 100 393 42 18
120 17 161 -2z m-8694 -352 c10 -9 20 -31 24 -49 5 -27 1 -37 -24 -63 -17 -16
-40 -30 -51 -30 -71 0 -114 73 -75 128 30 44 89 50 126 14z m450 1 c12 -11 18
-30 18 -59 0 -66 -57 -102 -113 -72 -32 17 -46 39 -46 73 0 72 86 108 141 58z
m427 12 c73 -37 43 -155 -39 -155 -85 0 -110 117 -35 158 27 15 41 15 74 -3z
m6971 -75 c28 -28 25 -64 -6 -89 -34 -27 -50 -26 -79 4 -30 29 -31 45 -4 79
25 31 61 34 89 6z m-2994 -305 c-2 -7 -47 -36 -100 -66 -53 -30 -96 -56 -96
-59 0 -3 43 -29 96 -59 53 -30 98 -59 100 -66 3 -7 4 -38 2 -69 l-3 -56 -192
123 c-106 67 -193 124 -193 127 0 3 87 60 193 126 l192 121 3 -55 c2 -30 1
-60 -2 -67z m5118 109 c23 -9 20 -24 -5 -21 -29 3 -47 -26 -30 -47 8 -10 21
-14 32 -11 23 8 26 -10 3 -19 -28 -11 -64 20 -64 55 0 9 36 49 44 49 2 0 11
-3 20 -6z m234 -10 c24 -17 30 -62 10 -82 -19 -19 -55 -14 -72 10 -21 30 -20
44 4 68 24 24 29 24 58 4z m-405 -12 c-28 -4 -30 -19 -3 -27 24 -8 27 -40 4
-49 -9 -3 -23 -2 -32 4 -15 8 -14 9 6 10 12 0 22 3 22 6 0 3 -10 14 -22 25
-22 18 -22 20 -5 33 11 8 26 12 35 8 14 -6 13 -7 -5 -10z m97 8 c0 -5 -9 -10
-20 -10 -11 0 -20 -4 -20 -10 0 -5 7 -10 15 -10 8 0 15 -4 15 -10 0 -5 -7 -10
-15 -10 -8 0 -15 -4 -15 -10 0 -5 9 -10 20 -10 11 0 20 -4 20 -10 0 -5 -13
-10 -30 -10 -29 0 -30 1 -30 50 0 49 1 50 30 50 17 0 30 -4 30 -10z m170 0 c0
-5 -4 -10 -10 -10 -5 0 -10 -18 -10 -40 0 -22 -4 -40 -10 -40 -5 0 -10 18 -10
40 0 22 -4 40 -10 40 -5 0 -10 5 -10 10 0 6 14 10 30 10 17 0 30 -4 30 -10z
m40 -40 c0 -27 -4 -50 -10 -50 -5 0 -10 23 -10 50 0 28 5 50 10 50 6 0 10 -22
10 -50z m200 23 c0 15 5 27 10 27 6 0 10 -23 10 -52 l0 -52 -30 29 -30 29 0
-27 c0 -15 -4 -27 -10 -27 -5 0 -10 23 -10 52 l0 52 30 -29 30 -29 0 27z
m-580 -14 c-13 -8 -13 -10 0 -18 8 -6 11 -13 8 -16 -4 -4 -16 0 -28 8 l-21 15
22 16 c13 8 25 13 28 10 3 -3 -1 -9 -9 -15z m669 -5 c6 -6 -31 -33 -44 -33 -5
0 -1 6 9 14 17 13 17 15 3 21 -10 3 -17 10 -17 15 0 8 34 -4 49 -17z m-10397
-144 c25 -26 29 -36 24 -63 -15 -73 -96 -97 -142 -43 -26 30 -30 53 -13 90 24
52 87 59 131 16z m442 9 c20 -16 26 -29 26 -59 0 -53 -27 -84 -75 -84 -75 0
-113 89 -59 139 33 30 73 32 108 4z m451 -4 c44 -43 31 -112 -25 -135 -35 -15
-84 0 -100 31 -30 55 10 129 70 129 19 0 40 -9 55 -25z m4178 -109 c103 -65
187 -121 187 -125 0 -3 -12 -13 -28 -22 -15 -9 -102 -64 -194 -122 l-168 -106
0 67 0 67 100 55 c55 30 100 57 100 60 0 3 -44 31 -97 62 l-98 55 -3 68 c-2
37 1 65 5 63 5 -1 93 -56 196 -122z m576 77 c19 -16 20 -20 8 -37 -11 -15 -17
-17 -35 -7 -31 17 -66 13 -95 -9 -33 -26 -41 -63 -22 -100 25 -49 79 -65 119
-35 17 13 21 12 32 -3 19 -25 17 -30 -18 -48 -84 -44 -198 27 -198 123 0 39
29 89 65 113 39 26 114 27 144 3z m246 -3 c116 -72 62 -250 -75 -250 -105 0
-171 107 -122 198 37 70 129 94 197 52z m261 -5 c52 -34 69 -125 34 -183 -26
-42 -73 -62 -145 -62 l-55 0 0 128 c0 71 3 132 8 136 12 13 131 -1 158 -19z
m254 0 c0 -24 -3 -25 -55 -25 -54 0 -55 0 -55 -30 0 -29 2 -30 45 -30 41 0 45
-2 45 -25 0 -23 -4 -25 -45 -25 -43 0 -45 -1 -45 -30 0 -30 1 -30 55 -30 52 0
55 -1 55 -25 0 -25 -1 -25 -80 -25 l-80 0 0 135 0 135 80 0 c79 0 80 0 80 -25z
m90 -85 l0 -110 55 0 c52 0 55 -1 55 -25 0 -25 -1 -25 -80 -25 l-80 0 0 135 0
135 25 0 25 0 0 -110z m159 63 l23 -48 24 48 c21 41 29 47 55 47 l31 0 -41
-76 c-35 -64 -41 -84 -41 -135 0 -56 -1 -59 -25 -59 -24 0 -25 3 -25 55 0 46
-7 69 -40 129 -22 40 -40 76 -40 79 0 4 13 7 28 7 24 0 32 -8 51 -47z m411
-88 l0 -135 -25 0 c-22 0 -24 4 -27 57 l-3 58 -34 -53 c-18 -28 -34 -52 -36
-52 -2 0 -18 24 -36 52 l-34 53 -3 -58 c-3 -53 -5 -57 -27 -57 l-25 0 0 133
c1 106 3 129 13 116 7 -9 34 -47 60 -84 l48 -67 61 86 c34 47 63 86 65 86 1 0
3 -61 3 -135z m211 109 c11 -11 22 -37 26 -57 5 -31 1 -40 -25 -67 -23 -22
-40 -30 -66 -30 -36 0 -36 0 -36 -45 0 -41 -2 -45 -25 -45 l-25 0 0 136 0 136
65 -4 c48 -3 71 -9 86 -24z m119 -109 l0 -135 -25 0 -25 0 0 135 0 135 25 0
25 0 0 -135z m239 118 c19 -16 20 -20 8 -37 -11 -15 -17 -17 -35 -7 -31 17
-66 13 -95 -9 -33 -26 -41 -63 -22 -100 25 -49 79 -65 119 -35 17 13 21 12 32
-3 19 -25 17 -30 -18 -48 -84 -44 -198 27 -198 123 0 39 29 89 65 113 39 26
114 27 144 3z m202 -4 c20 -20 20 -21 3 -34 -13 -9 -24 -10 -40 -3 -13 6 -30
8 -38 5 -29 -11 -16 -37 29 -58 77 -36 96 -89 50 -134 -33 -34 -103 -35 -141
-1 -27 23 -27 23 -7 34 15 8 29 8 52 -1 32 -12 61 -4 64 18 0 6 -25 27 -56 48
-49 33 -57 43 -57 70 0 18 4 37 8 43 25 37 101 45 133 13z m312 1 c49 -39 45
-98 -13 -164 l-32 -36 41 0 c37 0 41 -2 41 -25 l0 -25 -100 0 c-55 0 -100 2
-100 4 0 3 27 31 61 63 92 87 109 135 53 149 -26 7 -54 -10 -54 -32 0 -10 -6
-11 -22 -5 -33 12 -33 28 0 61 37 36 86 40 125 10z m246 -1 c30 -28 41 -60 41
-117 0 -109 -95 -169 -169 -107 -60 51 -66 161 -11 217 36 36 104 40 139 7z
m224 1 c49 -39 45 -98 -13 -164 l-32 -36 41 0 c37 0 41 -2 41 -25 l0 -25 -100
0 c-55 0 -100 2 -100 4 0 3 27 31 61 63 92 87 109 135 53 149 -26 7 -54 -10
-54 -32 0 -10 -6 -11 -22 -5 -33 12 -33 28 0 61 37 36 86 40 125 10z m198 -2
c-5 -13 -20 -49 -34 -80 l-26 -58 30 0 c27 0 29 3 29 35 0 31 3 35 25 35 22 0
25 -4 25 -35 0 -24 5 -35 15 -35 9 0 15 -9 15 -24 0 -13 -7 -26 -15 -30 -8 -3
-15 -17 -15 -31 0 -20 -5 -25 -25 -25 -21 0 -25 5 -25 30 l0 30 -65 0 c-36 0
-65 3 -65 8 0 4 19 51 42 105 39 89 45 97 70 97 24 0 27 -3 19 -22z m370 -4
c11 -11 22 -37 26 -57 5 -31 1 -40 -25 -67 -23 -22 -40 -30 -66 -30 -36 0 -36
0 -36 -45 0 -41 -2 -45 -25 -45 l-25 0 0 136 0 136 65 -4 c48 -3 71 -9 86 -24z
m119 -109 l0 -135 -25 0 -25 0 0 135 0 135 25 0 25 0 0 -135z m210 58 c0 75 0
77 25 77 l25 0 0 -137 0 -138 -80 80 -80 80 0 -78 c0 -75 0 -77 -25 -77 l-25
0 0 137 0 138 80 -80 80 -80 0 78z m241 56 c20 -20 20 -21 3 -34 -13 -9 -24
-10 -40 -3 -13 6 -30 8 -38 5 -29 -11 -16 -37 29 -58 77 -36 96 -89 50 -134
-33 -34 -103 -35 -141 -1 -27 23 -27 23 -7 34 15 8 29 8 52 -1 32 -12 61 -4
64 18 0 6 -25 27 -56 48 -49 33 -57 43 -57 70 0 18 4 37 8 43 25 37 101 45
133 13z m-8867 -410 c57 -45 13 -159 -57 -145 -74 15 -102 92 -52 141 30 31
73 32 109 4z m638 -542 c21 -33 4 -64 -40 -73 l-32 -6 0 52 0 53 32 -7 c18 -3
36 -12 40 -19z m48 -27 c0 -27 -4 -50 -10 -50 -5 0 -10 23 -10 50 0 28 5 50
10 50 6 0 10 -22 10 -50z m46 25 c3 -14 10 -25 15 -25 5 0 11 11 15 25 3 14
13 25 20 25 12 0 11 -7 -4 -37 -11 -21 -21 -45 -24 -53 -3 -10 -12 -1 -26 27
-24 46 -27 63 -12 63 5 0 12 -11 16 -25z m-196 -16 c-13 -8 -13 -10 0 -18 8
-6 11 -13 8 -16 -4 -4 -16 0 -28 8 l-21 15 22 16 c13 8 25 13 28 10 3 -3 -1
-9 -9 -15z m318 -2 c10 -8 8 -13 -8 -24 -12 -8 -24 -12 -28 -8 -3 3 0 11 8 16
11 8 12 12 3 16 -7 2 -13 9 -13 14 0 10 13 5 38 -14z m6310 -459 l-3 -213
-210 0 -210 0 -3 213 -2 212 215 0 215 0 -2 -212z m482 -3 l0 -215 -212 2
-213 3 -3 213 -2 212 215 0 215 0 0 -215z m1460 5 l0 -210 -210 0 -210 0 0
210 0 210 210 0 210 0 0 -210z m-491 -5 l2 -205 -208 0 -208 0 3 177 c2 127 6
173 13 163 9 -12 9 -11 4 5 -4 11 -10 30 -12 43 l-5 22 204 0 205 0 2 -205z
m-832 142 c2 -27 -2 -40 -13 -44 -20 -8 -33 13 -29 46 2 14 4 30 4 34 1 5 9 7
19 5 12 -2 18 -14 19 -41z m133 26 c0 -7 -6 -13 -12 -14 -74 -6 -88 -5 -88 11
0 12 11 16 50 15 33 0 50 -4 50 -12z m98 2 c10 -9 -5 -16 -37 -17 -37 -1 -51
9 -31 22 15 9 57 6 68 -5z m68 -13 c-6 -11 -56 -4 -56 8 0 11 43 18 54 9 4 -4
6 -12 2 -17z m1189 -17 c0 -39 -1 -40 -36 -42 -36 -2 -37 -1 -41 37 -4 43 -1
46 46 45 30 0 31 -2 31 -40z m151 25 c0 -18 -7 -20 -58 -20 -54 0 -76 10 -64
28 3 5 32 10 64 11 52 1 58 -1 58 -19z m273 -27 l-1 -48 -8 40 c-7 37 -5 55 6
55 2 0 3 -21 3 -47z m46 10 c-10 -56 -22 -61 -21 -8 1 31 5 45 15 45 10 0 12
-9 6 -37z m94 26 c15 10 51 3 51 -10 0 -4 -22 -7 -50 -6 -34 1 -50 5 -50 14 0
10 5 11 18 4 10 -5 24 -6 31 -2z m160 -17 c0 -9 -2 -12 -5 -7 -2 6 -24 9 -49
8 -25 0 -45 2 -45 7 0 4 23 8 50 9 41 0 50 -2 49 -17z m-2032 -42 c-1 -11 -14
-15 -54 -14 -29 0 -56 3 -59 7 -4 4 -13 2 -21 -4 -10 -9 -13 -7 -13 7 0 17 8
19 74 19 60 0 74 -3 73 -15z m131 11 c22 -2 13 -21 -10 -20 -13 0 -40 -2 -61
-4 -36 -4 -54 4 -44 21 4 6 65 8 115 3z m1293 4 c11 -4 19 -13 19 -21 0 -10
-13 -14 -50 -14 -41 0 -50 3 -50 18 0 19 45 28 81 17z m449 -14 c0 -12 -21
-19 -37 -13 -22 8 -14 22 12 22 14 0 25 -4 25 -9z m60 -5 c0 -9 -7 -12 -20 -9
-11 3 -20 9 -20 14 0 5 9 9 20 9 11 0 20 -6 20 -14z m80 1 c0 -8 -12 -13 -32
-12 -44 1 -46 20 -3 23 24 2 35 -2 35 -11z m17 -9 c-3 -8 -6 -5 -6 6 -1 11 2
17 5 13 3 -3 4 -12 1 -19z m-1967 -63 c0 -8 -5 -15 -12 -15 -7 0 -31 -19 -55
-42 -40 -39 -43 -41 -61 -25 -17 16 -20 16 -42 -8 -13 -14 -28 -25 -34 -25 -6
0 6 17 26 37 35 35 38 36 56 20 18 -17 21 -15 58 27 40 46 64 57 64 31z m1891
-17 c27 -17 51 -39 54 -49 7 -21 -22 -116 -38 -126 -17 -10 -109 -11 -129 -2
-21 11 -53 112 -42 132 8 13 92 76 103 77 2 0 25 -14 52 -32z m-445 -15 c17
-8 42 -26 55 -40 l24 -25 -38 -33 c-76 -66 -196 -63 -262 5 l-29 30 29 30 c53
55 144 69 221 33z m-1458 -85 c-3 -82 -3 -83 -30 -86 -28 -3 -28 -3 -28 59 0
51 4 67 22 86 12 13 25 23 30 23 5 0 8 -37 6 -82z m-128 -29 c0 -60 0 -60 -27
-57 -41 4 -44 50 -7 89 15 16 29 29 31 29 2 0 3 -27 3 -61z m47 42 c10 9 13 1
13 -45 0 -53 -1 -56 -25 -56 -24 0 -25 3 -25 57 0 44 3 54 12 45 8 -8 15 -9
25 -1z"/>
<path d="M5605 11661 c-46 -12 -105 -39 -105 -48 0 -4 17 -24 37 -45 l37 -38
53 52 53 52 53 -52 53 -52 37 38 c20 21 37 41 37 45 0 4 -21 17 -47 28 -53 22
-161 33 -208 20z"/>
<path d="M4818 11538 c-16 -11 -28 -23 -28 -27 0 -14 83 -7 88 7 3 11 0 12
-17 3 -12 -7 -21 -8 -21 -2 0 5 6 11 13 14 8 3 9 8 2 15 -7 7 -18 5 -37 -10z"/>
<path d="M4830 11483 c-48 -8 -53 -12 -40 -28 10 -13 9 -15 -10 -15 -37 0
-150 -34 -150 -45 0 -20 43 -175 48 -171 2 3 -5 42 -18 86 -12 45 -20 83 -18
84 2 2 32 11 68 20 93 25 119 14 122 -51 l1 -48 6 50 c4 28 2 56 -3 63 -5 7
-4 12 3 12 6 0 11 -5 11 -11 0 -6 9 -8 21 -4 21 7 159 -24 159 -34 0 -3 -11
-46 -23 -96 l-23 -90 -152 0 c-97 0 -151 -4 -149 -10 2 -6 32 -9 70 -7 65 4
66 4 69 -24 5 -40 28 -43 28 -3 l0 32 65 -6 c36 -4 67 -2 70 3 6 10 65 214 62
216 -17 7 -132 34 -147 34 -14 0 -18 5 -13 16 5 14 -13 36 -27 32 -3 0 -16 -3
-30 -5z"/>
<path d="M4863 11383 c-7 -3 -13 -9 -13 -14 0 -6 5 -7 12 -3 8 5 9 2 5 -9 -3
-10 -2 -17 3 -17 6 0 10 7 10 16 0 8 5 12 10 9 6 -3 10 -2 10 3 0 12 -21 20
-37 15z"/>
<path d="M4856 11294 c-4 -14 -5 -28 -3 -31 3 -2 8 8 11 23 4 14 5 28 3 31 -3
2 -8 -8 -11 -23z"/>
<path d="M5392 11507 c-45 -58 -60 -207 -28 -293 27 -71 31 -73 76 -29 l40 39
-52 53 -52 53 51 53 52 52 -39 42 c-28 29 -42 38 -48 30z"/>
<path d="M5918 11476 l-37 -42 52 -52 52 -52 -53 -53 -52 -53 38 -37 c21 -20
40 -37 44 -37 3 0 16 24 28 53 34 77 33 182 -3 260 -14 31 -27 57 -29 56 -2 0
-20 -20 -40 -43z"/>
<path d="M5922 11318 c-6 -17 -10 -33 -9 -35 8 -7 48 47 42 56 -11 18 -20 12
-33 -21z"/>
<path d="M6950 11170 c0 -43 13 -50 34 -17 8 12 8 22 0 34 -21 33 -34 26 -34
-17z"/>
<path d="M5537 11092 c-20 -21 -37 -41 -37 -45 0 -16 92 -48 153 -54 67 -6
153 12 192 41 20 14 19 16 -20 55 l-39 41 -53 -52 -53 -52 -53 52 -53 52 -37
-38z"/>
<path d="M10670 9365 c-18 -22 -3 -57 23 -53 37 5 33 67 -4 68 -4 0 -12 -7
-19 -15z"/>
<path d="M6775 9118 c-22 -5 -52 -9 -67 -9 -15 0 -30 -4 -33 -9 -4 -6 -16 -10
-28 -10 -12 0 -29 -4 -37 -10 -30 -19 1 -21 82 -5 46 9 92 17 103 19 11 2 21
10 23 19 2 10 2 16 0 16 -2 -1 -21 -6 -43 -11z"/>
<path d="M7156 9091 c-4 -7 -5 -15 -2 -18 9 -9 19 4 14 18 -4 11 -6 11 -12 0z"/>
<path d="M6545 9059 c-4 -6 -4 -13 -1 -16 8 -8 36 5 36 17 0 13 -27 13 -35 -1z"/>
<path d="M7147 9053 c-10 -9 -9 -33 1 -33 4 0 8 9 8 20 0 23 0 22 -9 13z"/>
<path d="M6483 9043 c-7 -2 -13 -9 -13 -14 0 -15 36 -10 50 6 10 12 9 15 -6
14 -11 0 -25 -3 -31 -6z"/>
<path d="M6425 9019 c-4 -6 -5 -13 -2 -16 7 -7 27 6 27 18 0 12 -17 12 -25 -2z"/>
<path d="M7122 8800 c0 -14 2 -19 5 -12 2 6 2 18 0 25 -3 6 -5 1 -5 -13z"/>
<path d="M8890 8730 c0 -5 5 -10 11 -10 5 0 7 5 4 10 -3 6 -8 10 -11 10 -2 0
-4 -4 -4 -10z"/>
<path d="M8920 8701 c0 -6 5 -13 10 -16 6 -3 10 1 10 9 0 9 -4 16 -10 16 -5 0
-10 -4 -10 -9z"/>
<path d="M9800 6589 c0 -11 4 -18 10 -14 5 3 7 12 3 20 -7 21 -13 19 -13 -6z"/>
<path d="M9788 6436 c-7 -39 -4 -55 8 -44 3 3 4 23 2 44 l-3 39 -7 -39z"/>
<path d="M8110 4190 c-13 -8 -12 -10 3 -10 9 0 17 5 17 10 0 12 -1 12 -20 0z"/>
<path d="M8003 4158 c-18 -6 -33 -15 -33 -19 0 -5 2 -9 4 -9 9 0 76 31 76 35
0 6 -8 5 -47 -7z"/>
<path d="M5990 8780 c0 -5 5 -10 10 -10 6 0 10 5 10 10 0 6 -4 10 -10 10 -5 0
-10 -4 -10 -10z"/>
<path d="M6180 8650 c0 -5 5 -10 10 -10 6 0 10 5 10 10 0 6 -4 10 -10 10 -5 0
-10 -4 -10 -10z"/>
<path d="M6376 8593 c3 -15 18 -38 32 -51 15 -13 52 -47 83 -75 31 -29 72 -64
90 -79 33 -26 34 -26 37 -6 2 12 -3 25 -12 30 -9 5 -16 16 -16 23 0 8 -3 15
-7 15 -5 0 -33 24 -64 53 -30 30 -77 68 -103 86 l-47 32 7 -28z"/>
<path d="M6660 8365 c7 -9 15 -13 17 -11 7 7 -7 26 -19 26 -6 0 -6 -6 2 -15z"/>
<path d="M6680 8281 c0 -6 4 -13 10 -16 6 -3 7 1 4 9 -7 18 -14 21 -14 7z"/>
<path d="M8005 7783 c-1 -21 -5 -55 -9 -75 -7 -31 -5 -38 7 -38 31 0 69 44 77
90 5 25 8 46 7 46 -1 1 -20 5 -42 8 l-40 7 0 -38z"/>
<path d="M9127 6548 c-5 -17 3 -48 14 -48 4 0 7 13 6 30 -2 31 -12 40 -20 18z"/>
<path d="M1990 8199 c0 -24 4 -30 17 -27 22 4 30 38 11 49 -22 15 -28 10 -28
-22z"/>
<path d="M7890 8004 c0 -14 4 -23 10 -19 6 3 10 15 10 26 0 10 -4 19 -10 19
-5 0 -10 -12 -10 -26z"/>
<path d="M7810 7339 c0 -5 5 -7 10 -4 6 3 10 8 10 11 0 2 -4 4 -10 4 -5 0 -10
-5 -10 -11z"/>
<path d="M7766 7221 c-4 -7 -5 -15 -2 -18 9 -9 19 4 14 18 -4 11 -6 11 -12 0z"/>
<path d="M7740 7089 c0 -5 5 -7 10 -4 6 3 10 8 10 11 0 2 -4 4 -10 4 -5 0 -10
-5 -10 -11z"/>
<path d="M3244 6399 c-18 -5 -46 -25 -63 -44 -74 -85 -8 -195 117 -195 47 0
98 32 125 78 17 29 18 39 8 73 -20 66 -112 110 -187 88z"/>
<path d="M3692 6283 c3 -134 5 -135 88 -113 61 17 90 52 90 111 0 76 -55 119
-152 119 l-29 0 3 -117z"/>
<path d="M5650 6345 l0 -55 50 0 c37 0 55 5 70 20 45 45 9 90 -72 90 l-48 0 0
-55z"/>
<path d="M4597 5913 c-13 -12 -7 -50 9 -63 22 -19 49 9 40 44 -6 25 -33 35
-49 19z"/>
<path d="M3101 5404 c0 -11 3 -14 6 -6 3 7 2 16 -1 19 -3 4 -6 -2 -5 -13z"/>
<path d="M3033 5395 c5 -11 3 -21 -4 -26 -6 -3 -10 -12 -7 -19 2 -8 10 -4 20
11 14 22 14 26 0 39 -14 13 -15 12 -9 -5z"/>
<path d="M3205 5400 c-3 -5 -1 -10 4 -10 6 0 11 5 11 10 0 6 -2 10 -4 10 -3 0
-8 -4 -11 -10z"/>
<path d="M3090 5373 c0 -5 5 -15 10 -23 8 -12 10 -11 10 8 0 12 -4 22 -10 22
-5 0 -10 -3 -10 -7z"/>
<path d="M3068 5323 c7 -3 16 -2 19 1 4 3 -2 6 -13 5 -11 0 -14 -3 -6 -6z"/>
<path d="M3135 5281 c-3 -10 -3 -26 1 -35 4 -12 0 -16 -16 -16 -11 0 -18 -4
-15 -10 3 -5 18 -10 32 -10 20 0 24 3 17 18 -4 9 -7 29 -7 45 0 32 -3 34 -12
8z"/>
<path d="M3267 5275 c-4 -8 -2 -17 3 -20 6 -4 10 3 10 14 0 25 -6 27 -13 6z"/>
<path d="M3221 5264 c0 -11 3 -14 6 -6 3 7 2 16 -1 19 -3 4 -6 -2 -5 -13z"/>
<path d="M3190 5226 c0 -9 5 -16 10 -16 6 0 10 4 10 9 0 6 -4 13 -10 16 -5 3
-10 -1 -10 -9z"/>
<path d="M3230 5226 c0 -9 5 -16 10 -16 6 0 10 4 10 9 0 6 -4 13 -10 16 -5 3
-10 -1 -10 -9z"/>
<path d="M3280 5224 c0 -16 9 -18 28 -5 10 6 9 10 -7 14 -14 3 -21 0 -21 -9z"/>
<path d="M3080 5190 c1 -33 91 -110 130 -110 23 0 73 31 103 64 30 34 11 28
-29 -8 -30 -28 -48 -36 -76 -36 -21 0 -38 4 -38 8 0 5 -11 15 -25 22 -14 7
-34 27 -45 44 -11 17 -20 24 -20 16z"/>
<path d="M6280 5275 c-7 -8 -9 -15 -4 -15 5 0 1 -5 -9 -11 -9 -5 -21 -7 -27
-4 -15 9 -34 -35 -20 -49 8 -8 15 -7 24 7 8 9 20 15 28 12 10 -4 18 2 23 17
l8 23 4 -23 c3 -16 9 -22 20 -18 9 4 21 -1 29 -11 9 -14 16 -15 24 -7 15 15
-9 57 -25 44 -6 -4 -15 -2 -23 6 -7 8 -10 14 -6 14 3 0 1 7 -6 15 -7 8 -16 15
-20 15 -4 0 -13 -7 -20 -15z"/>
<path d="M6246 5185 c-4 -10 1 -15 14 -15 11 0 20 7 20 15 0 8 -6 15 -14 15
-8 0 -16 -7 -20 -15z"/>
<path d="M6320 5185 c0 -8 9 -15 20 -15 13 0 18 5 14 15 -4 8 -12 15 -20 15
-8 0 -14 -7 -14 -15z"/>
<path d="M5696 5021 c-4 -5 -2 -12 3 -15 5 -4 12 -2 15 3 4 5 2 12 -3 15 -5 4
-12 2 -15 -3z"/>
<path d="M5819 4877 c-9 -7 -14 -18 -11 -26 3 -8 0 -11 -6 -7 -20 12 -22 -11
-3 -28 19 -18 39 -7 26 14 -4 6 8 10 29 10 41 0 56 18 31 37 -23 16 -45 16
-66 0z"/>
<path d="M5875 4810 c-3 -5 -2 -10 4 -10 5 0 13 5 16 10 3 6 2 10 -4 10 -5 0
-13 -4 -16 -10z"/>
<path d="M4705 4420 c3 -5 8 -10 11 -10 2 0 4 5 4 10 0 6 -5 10 -11 10 -5 0
-7 -4 -4 -10z"/>
<path d="M4770 4419 c0 -5 5 -7 10 -4 6 3 10 8 10 11 0 2 -4 4 -10 4 -5 0 -10
-5 -10 -11z"/>
<path d="M4735 4400 c-18 -8 -17 -9 8 -9 16 -1 26 3 22 9 -3 6 -7 10 -8 9 -1
0 -11 -4 -22 -9z"/>
<path d="M4775 4371 c-3 -5 -1 -12 4 -15 13 -8 42 4 35 15 -7 12 -31 12 -39 0z"/>
<path d="M4720 4336 c0 -8 -6 -16 -12 -19 -7 -2 -10 -8 -5 -12 4 -5 14 0 22
11 17 23 19 34 5 34 -5 0 -10 -6 -10 -14z"/>
<path d="M4660 4331 c0 -6 5 -13 10 -16 6 -3 10 1 10 9 0 9 -4 16 -10 16 -5 0
-10 -4 -10 -9z"/>
<path d="M4803 4325 c-8 -22 6 -33 17 -15 13 20 12 30 0 30 -6 0 -13 -7 -17
-15z"/>
<path d="M7090 2705 l0 -75 49 0 c64 0 79 6 96 41 30 57 -17 109 -97 109 l-48
0 0 -75z"/>
<path d="M8591 2754 c-78 -65 -64 -249 22 -290 100 -48 185 81 146 220 -25 89
-105 123 -168 70z"/>
<path d="M9061 2754 c-78 -65 -64 -249 22 -290 62 -30 122 5 145 84 46 153
-66 291 -167 206z"/>
<path d="M10670 2225 c-18 -22 -3 -57 23 -53 37 5 33 67 -4 68 -4 0 -12 -7
-19 -15z"/>
<path d="M6274 1976 c-58 -49 -20 -146 56 -146 16 0 41 11 56 24 58 49 20 146
-56 146 -16 0 -41 -11 -56 -24z"/>
<path d="M6560 1915 l0 -87 33 6 c38 7 77 48 77 81 0 33 -39 74 -77 81 l-33 7
0 -88z"/>
<path d="M7690 1960 c0 -38 2 -40 30 -40 25 0 50 21 50 44 0 14 -34 36 -56 36
-21 0 -24 -4 -24 -40z"/>
<path d="M8808 1983 c-25 -28 -30 -60 -18 -98 28 -84 110 -56 110 37 0 66 -56
102 -92 61z"/>
<path d="M9600 1960 c0 -38 2 -40 30 -40 25 0 50 21 50 44 0 14 -34 36 -56 36
-21 0 -24 -4 -24 -40z"/>
<path d="M1990 1050 c0 -20 5 -30 15 -30 21 0 30 27 15 45 -19 23 -30 18 -30
-15z"/>
<path d="M9627 784 c-4 -4 -7 -12 -7 -18 0 -6 4 -5 9 2 5 8 17 12 27 10 15 -2
19 -12 19 -43 0 -31 -4 -41 -19 -43 -10 -2 -23 2 -28 10 -8 10 -9 10 -5 -2 6
-24 50 -18 62 7 9 22 15 23 170 26 l160 3 -160 2 c-156 2 -161 3 -170 25 -10
22 -44 34 -58 21z"/>
<path d="M9723 783 c20 -2 54 -2 75 0 20 2 3 4 -38 4 -41 0 -58 -2 -37 -4z"/>
<path d="M9878 783 c23 -2 61 -2 85 0 23 2 4 4 -43 4 -47 0 -66 -2 -42 -4z"/>
<path d="M9703 683 c9 -2 25 -2 35 0 9 3 1 5 -18 5 -19 0 -27 -2 -17 -5z"/>
<path d="M9768 683 c7 -3 16 -2 19 1 4 3 -2 6 -13 5 -11 0 -14 -3 -6 -6z"/>
<path d="M9848 683 c28 -2 76 -2 105 0 28 2 5 3 -53 3 -58 0 -81 -1 -52 -3z"/>
<path d="M9787 654 c-15 -8 -27 -17 -27 -20 0 -2 12 2 28 10 24 12 31 12 55 0
15 -8 27 -12 27 -10 0 3 -12 12 -28 20 -24 12 -31 12 -55 0z"/>
<path d="M9740 594 c0 -15 -8 -33 -17 -41 -16 -13 -16 -13 5 -3 15 7 22 20 22
40 0 17 -2 30 -5 30 -3 0 -5 -12 -5 -26z"/>
<path d="M9881 593 c-1 -24 4 -35 22 -43 19 -10 20 -9 5 2 -9 8 -18 27 -21 43
l-4 30 -2 -32z"/>
<path d="M9770 584 c0 -8 5 -12 10 -9 6 4 8 11 5 16 -9 14 -15 11 -15 -7z"/>
<path d="M9845 591 c-3 -5 -1 -12 5 -16 5 -3 10 1 10 9 0 18 -6 21 -15 7z"/>
<path d="M9792 561 c-11 -7 -11 -9 0 -14 9 -3 15 1 15 9 0 8 -1 14 -1 14 -1 0
-7 -4 -14 -9z"/>
<path d="M9825 550 c-3 -6 1 -7 9 -4 18 7 21 14 7 14 -6 0 -13 -4 -16 -10z"/>
<path d="M9842 531 c-11 -7 -10 -10 3 -15 26 -9 43 -6 20 5 -17 8 -16 9 7 6
15 -2 25 0 22 4 -7 11 -35 11 -52 0z"/>
<path d="M9693 495 c0 -22 2 -30 4 -17 2 12 2 30 0 40 -3 9 -5 -1 -4 -23z"/>
<path d="M9933 495 c0 -22 2 -30 4 -17 2 12 2 30 0 40 -3 9 -5 -1 -4 -23z"/>
<path d="M9720 492 c0 -11 7 -25 15 -32 12 -10 15 -9 15 8 0 11 -7 25 -15 32
-12 10 -15 9 -15 -8z"/>
<path d="M9792 501 c-11 -7 -11 -9 0 -14 9 -3 15 1 15 9 0 8 -1 14 -1 14 -1 0
-7 -4 -14 -9z"/>
<path d="M9893 499 c-7 -7 -13 -22 -13 -33 0 -19 1 -19 16 -4 9 8 14 23 12 32
-2 14 -5 15 -15 5z"/>
<path d="M9770 465 c0 -9 6 -12 15 -9 8 4 15 7 15 9 0 2 -7 5 -15 9 -9 3 -15
0 -15 -9z"/>
<path d="M9724 436 c11 -9 24 -16 30 -16 12 0 7 5 -24 19 -24 11 -24 11 -6 -3z"/>
<path d="M9784 434 c-18 -14 -18 -15 5 -4 17 9 30 9 50 1 24 -11 25 -10 7 4
-25 19 -37 19 -62 -1z"/>
<path d="M9890 435 c-14 -8 -20 -14 -14 -15 5 0 19 7 30 15 24 18 16 19 -16 0z"/>
<path d="M10643 753 c-7 -2 -13 -11 -13 -18 0 -7 6 -15 13 -18 7 -3 12 4 12
19 0 13 0 24 0 23 0 0 -6 -3 -12 -6z"/>
<path d="M11235 619 c-4 -6 1 -17 11 -24 25 -19 28 -18 48 4 15 17 15 19 1 25
-25 9 -53 7 -60 -5z"/>
<path d="M11180 570 c-6 -11 -7 -27 -3 -34 13 -23 47 7 38 33 -8 26 -21 27
-35 1z"/>
<path d="M11230 571 c13 -25 33 -28 28 -4 -2 10 -11 19 -21 21 -16 3 -17 1 -7
-17z"/>
<path d="M11283 575 c-3 -9 -3 -18 0 -21 9 -9 27 6 27 22 0 19 -19 18 -27 -1z"/>
<path d="M11323 571 c-10 -16 -9 -22 11 -35 22 -14 24 -14 29 3 5 19 -9 51
-21 51 -4 0 -13 -9 -19 -19z"/>
<path d="M11205 520 c-3 -5 3 -10 14 -10 11 0 23 5 26 10 3 6 -3 10 -14 10
-11 0 -23 -4 -26 -10z"/>
<path d="M11285 520 c3 -5 17 -10 31 -10 14 0 22 4 19 10 -3 6 -17 10 -31 10
-14 0 -22 -4 -19 -10z"/>
<path d="M11259 488 c0 -30 -1 -31 -11 -12 -7 15 -16 20 -34 16 -20 -3 -22 -7
-13 -23 18 -35 79 -18 79 22 0 34 -20 31 -21 -3z"/>
<path d="M11290 476 c-6 -17 -3 -22 12 -24 22 -4 35 5 40 27 5 23 -43 21 -52
-3z"/>
<path d="M10780 592 c0 -5 -10 -14 -22 -20 -13 -6 -17 -11 -10 -11 6 -1 12 -5
12 -11 0 -5 -7 -7 -15 -4 -19 8 -19 -15 0 -40 15 -20 16 -19 27 24 3 9 17 15
38 15 38 0 48 15 25 39 -17 17 -55 22 -55 8z"/>
<path d="M10830 510 c-9 -6 -10 -10 -3 -10 6 0 15 5 18 10 8 12 4 12 -15 0z"/>
<path d="M9400 11720 l0 -280 633 2 632 3 3 278 2 277 -635 0 -635 0 0 -280z
m881 180 c27 -15 26 -75 -2 -90 -30 -17 -62 -8 -78 21 -13 24 -13 29 2 53 18
27 45 33 78 16z m301 -7 c35 -32 13 -93 -34 -93 -49 0 -74 56 -41 92 20 22 51
23 75 1z m-294 -295 c21 -21 14 -66 -13 -84 -50 -32 -103 22 -70 72 17 26 62
33 83 12z m302 -7 c16 -31 12 -59 -12 -75 -30 -21 -44 -20 -68 4 -24 24 -26
53 -4 74 22 23 71 20 84 -3z"/>
<path d="M0 10070 l0 -1100 175 0 175 0 0 1100 0 1100 -175 0 -175 0 0 -1100z"/>
<path d="M0 1695 c0 -49 2 -55 20 -55 31 0 70 -44 70 -78 0 -39 -35 -82 -66
-82 l-24 0 0 -460 0 -460 565 0 565 0 0 595 0 595 -565 0 -565 0 0 -55z m501
-68 c67 -51 35 -147 -49 -147 -38 0 -82 37 -82 70 0 26 25 77 42 83 24 10 73
6 89 -6z m456 -9 c30 -28 32 -89 3 -118 -31 -31 -93 -27 -119 6 -63 80 42 181
116 112z"/>
</g>
</svg>
