<?xml version="1.0" standalone="no"?>
<!DOCTYPE svg PUBLIC "-//W3C//DTD SVG 20010904//EN"
 "http://www.w3.org/TR/2001/REC-SVG-20010904/DTD/svg10.dtd">
<svg version="1.0" xmlns="http://www.w3.org/2000/svg"
 width="1200.000000pt" height="1200.000000pt" viewBox="0 0 1200.000000 1200.000000"
 preserveAspectRatio="xMidYMid meet">

<g transform="translate(0.000000,1200.000000) scale(0.100000,-0.100000)"
fill="#000000" stroke="none">
<path d="M0 11610 l0 -390 185 0 185 0 0 390 0 390 -185 0 -185 0 0 -390z"/>
<path d="M432 11613 l3 -388 118 -3 117 -3 0 391 0 390 -120 0 -120 0 2 -387z"/>
<path d="M730 11585 l0 -414 -147 -3 -148 -3 -3 -1122 -2 -1123 -215 0 -215 0
0 -2970 0 -2970 34 0 c41 0 76 -37 76 -82 0 -39 -40 -78 -80 -78 l-30 0 0
-140 0 -140 26 0 c31 0 84 -50 84 -79 0 -50 -41 -91 -90 -91 -19 0 -20 -8 -20
-140 0 -132 1 -140 20 -140 49 0 90 -41 90 -89 0 -31 -39 -70 -75 -77 l-35 -6
0 -59 0 -59 605 0 605 0 0 -650 0 -650 -605 0 -605 0 0 -250 0 -250 6000 0
6000 0 0 6000 0 6000 -630 0 -630 0 0 -310 0 -310 -688 2 -687 3 -3 308 -2
307 -4315 0 -4315 0 0 -415z m10177 299 c15 -24 15 -29 2 -53 -28 -49 -99 -32
-99 24 0 55 67 75 97 29z m284 16 c27 -15 26 -75 -2 -90 -30 -17 -62 -8 -78
21 -13 24 -13 29 2 53 18 27 45 33 78 16z m-6291 -212 c15 -20 21 -21 44 -10
24 11 76 2 76 -13 0 -2 -12 0 -27 6 -18 7 -30 6 -37 -1 -17 -17 -55 -11 -66
10 -6 12 -21 20 -35 20 -14 0 -29 -8 -35 -20 -12 -22 -49 -27 -67 -9 -15 15
-49 -4 -65 -38 -7 -15 -20 -28 -28 -30 -11 -3 -11 -2 1 6 9 6 19 21 23 34 7
28 54 53 70 37 17 -17 54 -12 61 10 9 28 61 27 85 -2z m2473 -177 c-29 -85
-55 -157 -57 -158 -2 -2 -27 64 -56 147 -29 83 -51 152 -49 154 15 13 49 25
52 19 2 -5 12 -33 22 -63 10 -30 21 -59 25 -63 4 -4 19 26 34 66 l27 75 29
-11 28 -11 -55 -155z m-1530 136 c31 -14 57 -28 57 -32 0 -11 -83 -95 -93 -95
-6 0 -33 21 -59 47 l-48 47 -48 -47 c-26 -26 -52 -47 -57 -47 -11 0 -95 81
-95 92 0 10 54 38 105 55 62 20 170 11 238 -20z m672 3 c16 -16 26 -33 22 -36
-4 -4 -15 4 -26 17 l-20 24 -1 -123 c0 -132 9 -166 52 -194 59 -39 127 -28
178 27 22 23 25 37 29 117 2 73 0 89 -10 86 -10 -3 -16 -30 -19 -86 -4 -67 -9
-85 -29 -106 -44 -47 -112 -44 -153 8 -13 16 -18 40 -18 102 0 87 10 110 42
93 15 -8 18 -22 18 -84 0 -63 3 -76 19 -85 26 -13 50 -3 57 24 9 37 0 129 -13
134 -10 3 -13 -14 -13 -62 0 -35 -4 -68 -10 -71 -6 -4 -10 20 -10 64 0 59 3
72 19 81 33 17 51 -12 51 -83 0 -75 -18 -107 -60 -107 -43 0 -60 31 -60 113 0
51 -3 68 -12 64 -9 -2 -13 -28 -13 -81 0 -73 2 -79 28 -102 37 -31 81 -31 112
1 22 21 25 33 25 99 0 84 16 114 51 96 28 -16 27 -144 -1 -201 -55 -106 -209
-106 -262 1 -14 28 -18 61 -18 154 l0 119 -25 -23 c-14 -13 -25 -20 -25 -15 0
10 51 65 60 65 3 0 19 -13 35 -30z m719 -188 c37 -104 71 -194 75 -201 5 -7
38 69 81 188 40 111 77 201 80 201 4 0 23 -7 42 -15 l35 -14 -115 -316 c-67
-185 -118 -311 -123 -303 -4 7 -55 146 -114 308 -59 162 -109 298 -112 303 -4
7 52 36 72 37 6 0 42 -85 79 -188z m-2168 154 c35 9 66 -21 62 -60 -2 -24 1
-31 17 -34 25 -5 45 -21 45 -36 0 -6 -5 -3 -11 7 -5 9 -18 17 -27 17 -27 0
-41 20 -36 50 7 32 -16 55 -48 47 -23 -6 -48 8 -48 27 0 6 5 3 11 -7 7 -12 17
-15 35 -11z m-122 -2 c3 -8 2 -12 -4 -9 -6 3 -10 10 -10 16 0 14 7 11 14 -7z
m-328 -15 c-20 -15 -26 -28 -22 -42 6 -22 -9 -47 -28 -47 -6 0 -3 5 7 11 12 7
15 17 11 35 -7 27 18 64 44 64 9 0 4 -8 -12 -21z m-3480 -23 c73 -84 9 -207
-98 -193 -110 15 -141 159 -46 214 38 22 118 11 144 -21z m413 20 c34 -18 51
-54 51 -107 0 -56 -51 -109 -104 -109 -75 0 -126 51 -126 126 0 54 53 104 109
104 23 0 54 -6 70 -14z m439 -2 c12 -8 29 -28 37 -45 l16 -29 464 0 465 0 0
-25 0 -25 -465 0 -464 0 -16 -30 c-8 -16 -29 -36 -45 -45 -124 -64 -236 87
-138 186 24 24 38 29 77 29 26 0 56 -7 69 -16z m8917 -4 c41 -45 -18 -110 -70
-76 -27 18 -34 63 -13 84 18 18 63 14 83 -8z m291 10 c6 -6 110 -11 249 -12
l240 -3 -1 -32 c0 -18 -1 -238 -2 -488 l-2 -455 -25 0 -25 0 -2 458 -3 457
-203 3 c-168 2 -207 0 -233 -13 -37 -20 -67 -11 -80 22 -13 36 12 73 49 73 16
0 32 -4 38 -10z m-6198 -25 c-3 -3 -9 2 -12 12 -6 14 -5 15 5 6 7 -7 10 -15 7
-18z m-28 -18 c219 -113 134 -451 -114 -451 -138 1 -240 103 -240 239 0 183
189 297 354 212z m113 -42 c-3 -9 -8 -14 -10 -11 -3 3 -2 9 2 15 9 16 15 13 8
-4z m385 -28 c23 -23 42 -47 42 -52 0 -5 -21 -31 -47 -57 l-47 -48 47 -48 c26
-26 47 -52 47 -57 0 -11 -81 -95 -92 -95 -12 0 -44 71 -58 129 -8 32 -10 75
-6 109 7 57 48 162 63 162 5 0 28 -19 51 -43z m536 16 c7 -16 20 -47 26 -70 7
-24 17 -43 22 -43 11 0 10 -86 -1 -108 -6 -9 -17 -41 -26 -70 -9 -29 -24 -59
-32 -68 -14 -14 -20 -11 -59 27 -49 49 -52 58 -24 84 11 10 17 21 14 26 -3 5
1 27 7 49 12 38 11 42 -14 68 -15 16 -27 32 -27 37 0 11 81 95 92 95 4 0 14
-12 22 -27z m-1470 -19 c-13 -19 -14 -28 -5 -37 18 -18 13 -55 -9 -67 -12 -6
-20 -21 -20 -35 0 -14 8 -29 20 -35 22 -12 27 -49 9 -67 -8 -8 -8 -17 0 -31 6
-11 11 -24 11 -29 -1 -4 -8 5 -16 21 -11 20 -13 31 -5 39 17 17 13 51 -9 65
-11 7 -20 23 -20 37 0 14 9 30 20 37 22 14 27 47 10 64 -12 12 6 64 22 64 5 0
1 -11 -8 -26z m96 22 c0 -3 -4 -8 -10 -11 -5 -3 -10 -1 -10 4 0 6 5 11 10 11
6 0 10 -2 10 -4z m1147 -88 c68 -67 74 -71 98 -60 14 6 25 8 25 3 0 -5 -7 -12
-17 -15 -14 -6 -14 -8 3 -22 18 -14 18 -15 -5 -8 -20 5 -36 -6 -102 -72 l-79
-79 -82 83 -83 82 80 80 c44 44 82 80 85 80 2 0 37 -32 77 -72z m-1162 44 c-3
-3 -11 0 -18 7 -9 10 -8 11 6 5 10 -3 15 -9 12 -12z m577 -14 c-19 -19 -14
-56 8 -63 28 -9 27 -61 -2 -85 -21 -16 -21 -20 -9 -44 16 -30 2 -76 -23 -76
-23 0 -45 -28 -39 -50 7 -26 -24 -61 -51 -59 -38 2 -45 -1 -48 -23 -4 -28 -54
-56 -71 -39 -17 17 -46 13 -59 -9 -9 -13 -24 -20 -45 -20 -23 0 -33 6 -38 20
-7 22 -26 25 -55 10 -26 -14 -70 4 -70 29 0 25 -17 36 -51 33 -35 -3 -63 29
-55 63 5 20 2 27 -16 35 -15 6 -18 9 -7 9 23 1 39 -21 33 -45 -7 -25 29 -59
52 -50 19 7 54 -19 54 -40 0 -20 40 -38 53 -25 18 18 55 13 67 -9 6 -12 21
-20 35 -20 14 0 29 8 35 20 11 21 49 27 66 10 16 -16 64 5 64 29 0 26 22 41
48 34 32 -8 53 14 50 51 -3 26 2 33 29 46 41 19 47 34 31 78 -12 32 -11 36 10
50 28 18 29 58 2 72 -11 6 -20 20 -20 30 0 22 21 62 29 54 3 -2 -1 -10 -7 -16z
m-71 -11 c-10 -9 -11 -8 -5 6 3 10 9 15 12 12 3 -3 0 -11 -7 -18z m989 -97 c0
-61 -16 -66 -22 -7 -4 35 4 56 20 57 1 0 2 -22 2 -50z m69 4 c6 -6 -31 -33
-44 -33 -5 0 -1 6 9 14 17 13 17 15 3 21 -10 3 -17 10 -17 15 0 8 34 -4 49
-17z m-1034 -14 c3 -5 -1 -10 -10 -10 -9 0 -13 5 -10 10 3 6 8 10 10 10 2 0 7
-4 10 -10z m5153 -26 c24 -17 30 -62 10 -82 -38 -38 -108 9 -89 61 15 38 44
46 79 21z m300 0 c41 -28 22 -94 -28 -94 -55 0 -78 52 -40 90 24 24 38 25 68
4z m302 -4 c24 -24 25 -47 3 -72 -18 -20 -63 -24 -81 -6 -20 20 -14 65 10 82
30 21 44 20 68 -4z m288 4 c24 -17 30 -62 10 -82 -38 -38 -108 9 -89 61 15 38
44 46 79 21z m-4956 -119 c3 -42 6 -50 23 -50 17 0 21 8 25 55 6 70 24 71 28
3 4 -69 -9 -93 -52 -93 -44 0 -57 18 -59 78 -1 89 29 95 35 7z m208 52 c8 0
23 3 32 7 12 5 25 0 43 -18 22 -22 26 -34 23 -73 -2 -36 -7 -49 -20 -51 -14
-3 -17 6 -20 50 -2 39 -7 53 -18 53 -11 0 -16 -14 -20 -50 -4 -36 -10 -51 -22
-53 -14 -3 -17 6 -20 50 -2 39 -7 53 -18 53 -11 0 -16 -14 -18 -53 -3 -44 -6
-53 -20 -50 -13 2 -18 16 -20 54 -3 46 0 54 24 73 17 13 34 19 43 15 9 -4 23
-7 31 -7z m162 -52 c3 -42 6 -50 23 -50 17 0 21 8 25 55 6 70 24 71 28 2 2
-36 8 -55 18 -59 22 -8 28 2 34 58 7 66 24 67 28 2 5 -82 -5 -92 -90 -92 -40
0 -78 5 -85 11 -14 11 -18 119 -6 132 13 12 22 -9 25 -59z m294 29 c21 -31 15
-108 -8 -112 -15 -3 -18 4 -18 48 0 36 -4 52 -15 57 -19 7 -24 2 -30 -26 -2
-13 2 -24 10 -28 20 -7 19 -23 -2 -39 -34 -25 -43 -17 -43 39 0 56 5 68 34 84
26 14 54 5 72 -23z m117 19 c4 -2 14 -17 22 -34 14 -26 14 -32 0 -59 -15 -30
-47 -45 -82 -38 -14 3 -19 14 -21 61 -4 69 8 90 47 81 14 -4 29 -9 34 -11z
m-1896 -9 c-3 -3 -12 -4 -19 -1 -8 3 -5 6 6 6 11 1 17 -2 13 -5z m-471 -51
c-3 -8 -2 -12 3 -9 4 3 18 -6 31 -19 13 -13 38 -29 56 -35 34 -11 42 -24 25
-34 -15 -9 -56 10 -94 43 -38 34 -53 68 -30 68 8 0 12 -6 9 -14z m437 -2 c-10
-28 -57 -72 -71 -66 -7 2 -10 1 -7 -5 6 -10 -26 -30 -49 -30 -30 0 -16 28 19
40 19 6 47 26 62 44 30 34 55 44 46 17z m569 -78 l48 -47 48 47 c26 26 53 47
59 47 6 0 30 -21 53 -46 41 -44 42 -48 25 -60 -39 -28 -127 -54 -185 -54 -58
0 -146 26 -185 54 -17 12 -16 16 25 60 23 25 47 46 53 46 6 0 33 -21 59 -47z
m-802 -23 c0 -5 -4 -10 -10 -10 -5 0 -10 5 -10 10 0 6 5 10 10 10 6 0 10 -4
10 -10z m5451 -60 c27 -15 26 -75 -2 -90 -30 -17 -62 -8 -78 21 -13 24 -13 29
2 53 18 27 45 33 78 16z m301 -7 c34 -31 11 -93 -35 -93 -27 0 -57 28 -57 53
0 48 56 73 92 40z m305 -9 c15 -24 15 -29 2 -53 -28 -49 -99 -32 -99 24 0 55
67 75 97 29z m284 16 c27 -15 26 -75 -2 -90 -30 -17 -62 -8 -78 21 -13 24 -13
29 2 53 18 27 45 33 78 16z m-883 -302 c21 -21 14 -66 -13 -84 -50 -32 -103
22 -70 72 17 26 62 33 83 12z m302 -7 c16 -31 12 -59 -12 -75 -30 -21 -44 -20
-68 4 -24 24 -26 53 -4 74 22 23 71 20 84 -3z m295 -1 c41 -45 -18 -110 -70
-76 -27 18 -34 63 -13 84 18 18 63 14 83 -8z m293 8 c21 -21 14 -66 -13 -84
-50 -32 -103 22 -70 72 17 26 62 33 83 12z m-7018 -292 c130 -20 180 -36 300
-94 217 -107 318 -285 264 -464 -17 -56 -17 -63 -2 -107 31 -87 41 -166 34
-268 -4 -54 -6 -130 -6 -170 1 -39 -5 -98 -14 -130 -8 -32 -17 -105 -20 -162
l-4 -103 31 29 c249 230 438 366 647 466 169 81 264 108 380 109 79 1 106 -3
160 -24 257 -100 471 -275 602 -493 126 -210 278 -550 278 -621 0 -7 4 -15 9
-19 6 -3 165 58 356 135 190 78 353 140 363 138 9 -2 17 -12 17 -22 0 -16 -62
-45 -350 -162 -192 -78 -355 -146 -362 -151 -10 -6 -9 -21 3 -68 9 -35 15
-110 16 -180 1 -124 -16 -205 -62 -295 -47 -92 -224 -209 -416 -275 l-82 -28
15 -36 c9 -20 21 -74 29 -120 28 -172 -19 -306 -126 -361 -36 -18 -154 -41
-187 -36 -29 5 -33 -2 -17 -32 18 -35 17 -116 -2 -167 -9 -22 -15 -56 -15 -75
1 -19 -5 -73 -13 -119 -18 -111 -36 -125 -131 -100 -22 6 -47 10 -57 10 -9 0
-105 16 -215 35 -109 20 -226 39 -259 43 -34 5 -67 12 -75 16 -7 5 -37 10 -67
11 -29 2 -69 8 -88 14 -19 7 -59 13 -90 15 -30 2 -65 10 -77 18 -12 8 -37 12
-57 10 -19 -2 -69 3 -110 12 -41 9 -91 18 -110 21 -84 11 -100 16 -115 30 -21
21 -19 71 10 236 14 78 25 146 25 149 0 4 -15 11 -32 14 -83 18 -270 77 -309
97 -50 26 -89 79 -89 118 0 28 -1 28 -82 34 -107 8 -106 8 -150 0 -44 -7 -81
0 -101 21 -13 12 -19 12 -53 -5 -46 -24 -118 -26 -158 -5 -26 14 -33 14 -72
-1 -32 -12 -58 -15 -96 -10 -29 4 -62 6 -73 6 -11 -1 -51 -2 -90 -4 -146 -6
-138 -4 -162 -41 l-22 -34 29 -31 c32 -34 50 -104 48 -185 0 -27 7 -94 16
-149 15 -89 15 -101 1 -122 -17 -26 -30 -30 -130 -39 -38 -3 -131 -12 -205
-19 -74 -8 -141 -11 -149 -6 -8 4 -29 1 -47 -6 -43 -18 -105 -18 -129 0 -17
12 -23 11 -47 -7 -21 -15 -48 -22 -96 -25 -64 -4 -69 -2 -105 30 -20 18 -43
51 -51 73 l-14 40 5 -57 c5 -50 3 -59 -19 -80 -22 -23 -37 -26 -178 -37 -85
-7 -188 -17 -227 -23 -63 -9 -76 -8 -98 6 -31 21 -32 22 -54 261 -18 204 -16
237 16 260 18 13 12 19 -30 29 -74 18 -164 71 -225 134 -104 107 -141 196
-128 314 16 161 92 292 231 402 28 22 54 43 58 47 5 4 1 31 -9 62 -17 54 -18
55 -61 61 -81 11 -134 51 -183 139 -25 45 -34 74 -38 127 -4 64 -7 69 -32 80
-41 17 -67 49 -111 136 -47 92 -49 124 -12 154 27 21 39 22 99 4 20 -5 22 0
33 100 19 169 65 299 156 441 94 147 196 227 386 302 245 98 433 132 613 113
132 -15 193 -40 271 -110 21 -20 46 -30 84 -34 30 -4 69 -13 88 -21 l33 -14
-29 42 c-50 74 -131 236 -131 265 0 43 26 70 84 88 35 11 97 49 182 112 238
176 506 320 658 352 61 13 405 4 526 -14z m4686 -925 c22 -10 54 -34 70 -53
23 -28 36 -35 62 -34 30 1 32 -1 32 -31 0 -28 -3 -33 -25 -33 -14 0 -25 -4
-25 -10 0 -5 11 -10 25 -10 21 0 25 -5 25 -30 0 -28 -2 -30 -38 -30 -30 0 -41
-5 -51 -23 -23 -43 -76 -69 -151 -75 l-70 -5 0 -83 0 -84 -50 0 -50 0 0 135 0
135 -25 0 c-21 0 -25 5 -25 30 0 23 5 30 19 30 11 0 23 5 26 10 4 6 -5 10 -19
10 -22 0 -26 5 -26 29 0 23 5 30 23 33 19 3 22 10 25 56 l3 52 102 0 c78 0
112 -5 143 -19z m354 -241 l0 -260 -50 0 -50 0 0 196 0 196 -30 -7 -30 -7 0
51 0 50 63 20 c107 33 97 58 97 -239z m390 210 l0 -50 -95 0 c-94 0 -95 0 -95
-24 0 -13 -3 -31 -6 -39 -5 -13 0 -14 34 -5 72 18 155 -19 189 -85 25 -49 22
-134 -6 -183 -60 -106 -221 -120 -307 -27 -13 14 -24 29 -24 34 0 4 21 14 46
23 44 15 48 15 72 -4 47 -37 104 -21 128 35 16 38 6 79 -24 101 -25 19 -92 17
-127 -5 -27 -16 -33 -17 -58 -4 -19 9 -26 20 -23 31 4 14 36 232 36 247 0 3
59 5 130 5 l130 0 0 -50z m596 34 c41 -20 91 -74 112 -123 10 -24 16 -66 15
-123 0 -74 -4 -95 -27 -142 -31 -64 -72 -99 -133 -115 -129 -35 -240 60 -259
221 -7 57 7 140 31 188 18 36 65 80 100 96 41 18 120 17 161 -2z m501 -20 c21
-17 51 -52 67 -78 28 -44 30 -55 30 -141 0 -81 -4 -100 -28 -149 -31 -64 -72
-99 -133 -115 -137 -37 -248 67 -258 241 -3 40 -7 92 -11 116 -6 38 -4 42 14
42 12 0 30 14 43 33 48 67 92 88 176 84 52 -2 69 -8 100 -33z m152 -131 c0
-36 -3 -43 -9 -28 -12 28 -12 75 0 75 6 0 10 -21 9 -47z m71 -4 c0 -9 -33 -29
-47 -29 -4 0 1 7 11 15 17 13 17 15 3 21 -10 3 -17 10 -17 15 0 5 11 3 25 -3
14 -6 25 -15 25 -19z m-1100 -259 c28 -28 25 -64 -6 -89 -34 -27 -50 -26 -79
4 -30 29 -31 45 -4 79 25 31 61 34 89 6z m-1704 -205 c-2 -7 -47 -36 -100 -66
-53 -30 -96 -56 -96 -59 0 -3 43 -29 96 -59 53 -30 98 -59 100 -66 3 -7 4 -38
2 -69 l-3 -56 -192 123 c-106 67 -193 124 -193 127 0 3 87 60 193 126 l192
121 3 -55 c2 -30 1 -60 -2 -67z m217 -189 c103 -65 187 -121 187 -125 0 -3
-12 -13 -28 -22 -15 -9 -102 -64 -194 -122 l-168 -107 0 68 0 67 100 55 c55
30 100 57 100 60 0 3 -44 31 -97 62 l-98 55 -3 68 c-2 37 1 65 6 63 4 -1 92
-56 195 -122z m460 73 c20 -24 22 -51 6 -80 -8 -16 -7 -25 5 -38 18 -20 21
-63 6 -90 -13 -26 -64 -45 -97 -36 -62 15 -90 73 -30 61 59 -12 69 -11 80 6
14 21 -15 58 -45 58 -26 0 -22 18 6 32 32 14 41 38 21 57 -12 12 -17 13 -27 3
-25 -25 -64 -10 -52 21 15 40 95 44 127 6z m127 -34 l0 -55 50 0 50 0 0 55 c0
52 1 55 25 55 l25 0 0 -135 0 -135 -24 0 c-23 0 -25 4 -28 53 l-3 52 -47 3
-48 3 0 -55 c0 -53 -1 -56 -25 -56 l-25 0 0 135 0 135 25 0 c24 0 25 -3 25
-55z m441 34 c20 -20 20 -21 3 -34 -13 -9 -24 -10 -40 -3 -13 6 -30 8 -38 5
-29 -11 -16 -37 29 -58 77 -36 96 -89 50 -134 -33 -34 -103 -35 -141 -1 -27
23 -27 23 -7 34 15 8 29 8 52 -1 32 -12 61 -4 64 18 0 6 -25 27 -56 48 -49 33
-57 43 -57 70 0 18 4 37 8 43 25 37 101 45 133 13z m229 -4 c0 -21 -5 -25 -30
-25 l-30 0 0 -110 0 -110 -25 0 c-24 0 -24 1 -27 108 l-3 107 -32 3 c-27 3
-33 7 -33 28 0 24 1 24 90 24 89 0 90 0 90 -25z m90 -110 l0 -135 -25 0 -25 0
0 135 0 135 25 0 25 0 0 -135z m239 118 c19 -16 20 -20 8 -37 -11 -15 -17 -17
-35 -7 -31 17 -66 13 -95 -9 -33 -26 -41 -63 -22 -100 25 -49 79 -65 119 -35
17 13 21 12 32 -3 19 -25 17 -30 -18 -48 -84 -44 -198 27 -198 123 0 39 29 89
65 113 39 26 114 27 144 3z m111 -40 l0 -58 38 57 c30 47 42 58 65 58 15 0 27
-2 27 -6 0 -3 -18 -32 -41 -65 l-40 -60 45 -65 c25 -36 46 -67 46 -69 0 -3
-13 -5 -29 -5 -24 0 -35 10 -67 56 l-39 57 -3 -57 c-3 -52 -5 -56 -27 -56
l-25 0 0 135 0 135 25 0 c24 0 25 -3 25 -57z m340 32 c0 -24 -3 -25 -55 -25
-54 0 -55 0 -55 -30 0 -29 2 -30 45 -30 41 0 45 -2 45 -25 0 -23 -4 -25 -45
-25 -43 0 -45 -1 -45 -30 0 -30 1 -30 55 -30 52 0 55 -1 55 -25 0 -25 -1 -25
-80 -25 l-80 0 0 135 0 135 80 0 c79 0 80 0 80 -25z m181 -4 c16 -16 29 -39
29 -51 0 -26 -18 -62 -37 -73 -10 -6 -7 -17 15 -50 46 -68 46 -67 13 -67 -26
0 -35 8 -68 62 l-38 62 -3 -62 c-3 -58 -4 -62 -27 -62 l-25 0 0 135 0 135 56
0 c48 0 59 -4 85 -29z m230 8 c20 -20 20 -21 3 -34 -13 -9 -24 -10 -40 -3 -13
6 -30 8 -38 5 -29 -11 -16 -37 29 -58 77 -36 96 -89 50 -134 -33 -34 -103 -35
-141 -1 -27 23 -27 23 -7 34 15 8 29 8 52 -1 32 -12 61 -4 64 18 0 6 -25 27
-56 48 -49 33 -57 43 -57 70 0 18 4 37 8 43 25 37 101 45 133 13z m-10291
-4998 l0 -779 24 -16 c64 -41 29 -145 -49 -145 -34 0 -56 14 -73 46 -18 33
-14 59 13 91 l25 30 0 776 0 776 30 0 30 0 0 -779z m5449 437 c-21 -55 -29
-68 -29 -51 0 21 32 103 41 103 5 0 -1 -24 -12 -52z m51 32 c0 -13 7 -20 20
-20 13 0 20 7 20 20 0 11 5 20 10 20 6 0 10 -22 10 -50 0 -27 -4 -50 -10 -50
-5 0 -10 9 -10 20 0 13 -7 20 -20 20 -13 0 -20 -7 -20 -20 0 -11 -4 -20 -10
-20 -5 0 -10 23 -10 50 0 28 5 50 10 50 6 0 10 -9 10 -20z m110 -30 c0 -61
-16 -66 -22 -7 -4 35 4 56 20 57 1 0 2 -22 2 -50z m-223 8 c-18 -9 -18 -10 0
-24 21 -16 10 -18 -18 -4 -25 14 -24 25 4 37 27 13 39 5 14 -9z m293 -9 c0 -9
-33 -29 -47 -29 -4 0 1 7 11 15 17 13 17 15 3 21 -10 3 -17 10 -17 15 0 5 11
3 25 -3 14 -6 25 -15 25 -19z m1232 -211 c-7 -7 -12 -8 -12 -2 0 14 12 26 19
19 2 -3 -1 -11 -7 -17z m96 11 c-2 -6 -8 -10 -13 -10 -5 0 -11 4 -13 10 -2 6
4 11 13 11 9 0 15 -5 13 -11z m-5712 -124 c-2 -7 -47 -36 -100 -66 -53 -30
-96 -56 -96 -59 0 -3 43 -29 96 -59 53 -30 98 -59 100 -66 3 -7 4 -38 2 -69
l-3 -56 -192 123 c-106 67 -193 124 -193 127 0 3 87 60 193 126 l192 121 3
-55 c2 -30 1 -60 -2 -67z m623 78 c19 -16 20 -20 8 -37 -11 -15 -17 -17 -35
-7 -31 17 -66 13 -95 -9 -33 -26 -41 -63 -22 -100 25 -49 79 -65 119 -35 17
13 21 12 32 -3 19 -25 17 -30 -18 -48 -84 -44 -198 27 -198 123 0 39 29 89 65
113 39 26 114 27 144 3z m246 -3 c116 -72 62 -250 -75 -250 -105 0 -171 107
-122 198 37 70 129 94 197 52z m271 -5 c52 -34 69 -125 34 -183 -26 -42 -73
-62 -145 -62 l-55 0 0 128 c0 71 3 132 8 136 12 13 131 -1 158 -19z m254 0 c0
-24 -3 -25 -55 -25 -54 0 -55 0 -55 -30 0 -29 2 -30 45 -30 41 0 45 -2 45 -25
0 -23 -4 -25 -45 -25 -43 0 -45 -1 -45 -30 0 -30 1 -30 55 -30 52 0 55 -1 55
-25 0 -25 -1 -25 -80 -25 l-80 0 0 135 0 135 80 0 c79 0 80 0 80 -25z m90 -85
l0 -110 55 0 c52 0 55 -1 55 -25 0 -25 -1 -25 -80 -25 l-80 0 0 135 0 135 25
0 25 0 0 -110z m149 63 l23 -48 24 48 c21 41 29 47 55 47 l31 0 -41 -76 c-35
-64 -41 -84 -41 -135 0 -56 -1 -59 -25 -59 -24 0 -25 3 -25 55 0 46 -7 69 -40
129 -22 40 -40 76 -40 79 0 4 13 7 28 7 24 0 32 -8 51 -47z m421 -88 l0 -135
-25 0 c-22 0 -24 4 -27 57 l-3 58 -34 -53 c-18 -28 -34 -52 -36 -52 -2 0 -18
24 -36 52 l-34 53 -3 -58 c-3 -53 -5 -57 -27 -57 l-25 0 0 133 c1 106 3 129
13 116 7 -9 34 -47 60 -84 l48 -67 61 86 c34 47 63 86 65 86 1 0 3 -61 3 -135z
m211 109 c11 -11 22 -37 26 -57 5 -31 1 -40 -25 -67 -23 -22 -40 -30 -66 -30
-36 0 -36 0 -36 -45 0 -41 -2 -45 -25 -45 l-25 0 0 136 0 136 65 -4 c48 -3 71
-9 86 -24z m119 -109 l0 -135 -25 0 -25 0 0 135 0 135 25 0 25 0 0 -135z m239
118 c19 -16 20 -20 8 -37 -11 -15 -17 -17 -35 -7 -31 17 -66 13 -95 -9 -33
-26 -41 -63 -22 -100 25 -49 79 -65 119 -35 17 13 21 12 32 -3 19 -25 17 -30
-18 -48 -84 -44 -198 27 -198 123 0 39 29 89 65 113 39 26 114 27 144 3z m202
-4 c20 -20 20 -21 3 -34 -13 -9 -24 -10 -40 -3 -13 6 -30 8 -38 5 -29 -11 -16
-37 29 -58 77 -36 96 -89 50 -134 -33 -34 -103 -35 -141 -1 -27 23 -27 23 -7
34 15 8 29 8 52 -1 32 -12 61 -4 64 18 0 6 -25 27 -56 48 -49 33 -57 43 -57
70 0 18 4 37 8 43 25 37 101 45 133 13z m2709 -37 c0 -13 -12 -22 -22 -16 -10
6 -1 24 13 24 5 0 9 -4 9 -8z m88 -3 c-2 -6 -8 -10 -13 -10 -5 0 -11 4 -13 10
-2 6 4 11 13 11 9 0 15 -5 13 -11z m90 0 c-2 -6 -8 -10 -13 -10 -5 0 -11 4
-13 10 -2 6 4 11 13 11 9 0 15 -5 13 -11z m-276 -101 c-7 -7 -12 -8 -12 -2 0
14 12 26 19 19 2 -3 -1 -11 -7 -17z m96 10 c-6 -18 -28 -21 -28 -4 0 9 7 16
16 16 9 0 14 -5 12 -12z m90 1 c-2 -6 -8 -10 -13 -10 -5 0 -11 4 -13 10 -2 6
4 11 13 11 9 0 15 -5 13 -11z m90 0 c-2 -6 -8 -10 -13 -10 -5 0 -11 4 -13 10
-2 6 4 11 13 11 9 0 15 -5 13 -11z m-5502 -129 c104 -67 190 -124 191 -128 2
-4 -9 -14 -25 -23 -15 -9 -102 -64 -194 -122 l-168 -106 0 67 0 67 100 55 c55
30 100 57 100 60 0 3 -44 31 -97 62 l-98 55 -3 67 c-2 36 -1 66 2 66 2 0 89
-54 192 -120z m6264 28 l0 -73 -43 -24 c-23 -13 -73 -42 -110 -63 l-69 -40
109 -62 108 -62 3 -77 3 -77 -73 48 c-40 27 -137 88 -215 138 -78 49 -138 92
-134 96 7 8 413 267 419 268 1 0 2 -33 2 -72z m1948 -510 c-7 -4 -138 -78
-291 -165 -152 -87 -277 -162 -276 -168 0 -5 129 -83 287 -172 l287 -161 3
-197 c2 -163 0 -196 -11 -192 -8 3 -156 96 -330 207 l-315 202 13 46 c39 131
58 386 39 524 l-6 44 -240 1 c-132 1 -242 3 -245 6 -3 3 -5 59 -5 124 l-1 118
214 0 214 1 -207 -3 -208 -3 0 -114 0 -114 233 1 c179 0 234 4 242 14 6 7 145
98 310 202 l300 190 3 -191 c2 -147 -1 -194 -10 -200z m-1678 217 c85 -53 159
-101 163 -105 5 -4 -63 -52 -150 -107 -87 -55 -184 -117 -215 -137 l-58 -37 0
75 0 74 110 62 c61 34 110 63 110 65 0 1 -49 30 -110 64 l-110 62 0 75 0 75
53 -34 c28 -18 122 -78 207 -132z m-5749 114 c20 -20 20 -21 3 -34 -13 -9 -24
-10 -40 -3 -13 6 -30 8 -38 5 -29 -11 -16 -37 29 -58 77 -36 96 -89 50 -134
-33 -34 -103 -35 -141 -1 -27 23 -27 23 -7 34 15 8 29 8 52 -1 32 -12 61 -4
64 18 0 6 -25 27 -56 48 -49 33 -57 43 -57 70 0 18 4 37 8 43 25 37 101 45
133 13z m229 -4 c0 -21 -5 -25 -30 -25 l-30 0 0 -110 0 -110 -25 0 c-24 0 -24
1 -27 108 l-3 107 -32 3 c-27 3 -33 7 -33 28 0 24 1 24 90 24 89 0 90 0 90
-25z m90 -110 l0 -135 -25 0 -25 0 0 135 0 135 25 0 25 0 0 -135z m239 118
c19 -16 20 -20 8 -37 -11 -15 -17 -17 -35 -7 -31 17 -66 13 -95 -9 -33 -26
-41 -63 -22 -100 25 -49 79 -65 119 -35 17 13 21 12 32 -3 19 -25 17 -30 -18
-48 -84 -44 -198 27 -198 123 0 39 29 89 65 113 39 26 114 27 144 3z m111 -40
l0 -58 38 57 c30 47 42 58 65 58 15 0 27 -2 27 -6 0 -3 -18 -32 -41 -65 l-40
-60 45 -65 c25 -36 46 -67 46 -69 0 -3 -13 -5 -29 -5 -24 0 -35 10 -67 56
l-39 57 -3 -57 c-3 -52 -5 -56 -27 -56 l-25 0 0 135 0 135 25 0 c24 0 25 -3
25 -57z m340 32 c0 -24 -3 -25 -55 -25 -54 0 -55 0 -55 -30 0 -29 2 -30 45
-30 41 0 45 -2 45 -25 0 -23 -4 -25 -45 -25 -43 0 -45 -1 -45 -30 0 -30 1 -30
55 -30 52 0 55 -1 55 -25 0 -25 -1 -25 -80 -25 l-80 0 0 135 0 135 80 0 c79 0
80 0 80 -25z m181 -4 c16 -16 29 -39 29 -51 0 -26 -18 -62 -37 -73 -10 -6 -7
-17 15 -50 46 -68 46 -67 13 -67 -26 0 -35 8 -68 62 l-38 62 -3 -62 c-3 -58
-4 -62 -27 -62 l-25 0 0 135 0 135 56 0 c48 0 59 -4 85 -29z m230 8 c20 -20
20 -21 3 -34 -13 -9 -24 -10 -40 -3 -13 6 -30 8 -38 5 -29 -11 -16 -37 29 -58
77 -36 96 -89 50 -134 -33 -34 -103 -35 -141 -1 -27 23 -27 23 -7 34 15 8 29
8 52 -1 32 -12 61 -4 64 18 0 6 -25 27 -56 48 -49 33 -57 43 -57 70 0 18 4 37
8 43 25 37 101 45 133 13z m2229 -189 c8 -20 11 -82 9 -197 l-4 -168 256 -164
256 -163 29 -97 c15 -53 51 -142 80 -198 l51 -101 -355 -226 c-369 -235 -391
-246 -438 -212 -18 13 -19 29 -20 206 l-1 191 -394 250 c-217 138 -402 258
-411 266 -28 25 -24 88 8 120 14 14 24 27 22 29 -2 1 -175 93 -383 203 -287
151 -380 204 -380 218 0 10 7 19 16 21 9 2 193 -90 410 -203 323 -170 396
-205 413 -197 12 5 176 107 366 227 190 120 358 223 374 230 40 17 81 2 96
-35z m2785 21 c7 -12 -12 -24 -25 -16 -11 7 -4 25 10 25 5 0 11 -4 15 -9z m87
-6 c0 -5 -5 -11 -11 -13 -6 -2 -11 4 -11 13 0 9 5 15 11 13 6 -2 11 -8 11 -13z
m90 0 c0 -5 -5 -11 -11 -13 -6 -2 -11 4 -11 13 0 9 5 15 11 13 6 -2 11 -8 11
-13z m96 3 c-6 -18 -28 -21 -28 -4 0 9 7 16 16 16 9 0 14 -5 12 -12z m-273
-87 c7 -12 -12 -24 -25 -16 -11 7 -4 25 10 25 5 0 11 -4 15 -9z m87 -6 c0 -5
-5 -11 -11 -13 -6 -2 -11 4 -11 13 0 9 5 15 11 13 6 -2 11 -8 11 -13z m90 0
c0 -5 -5 -11 -11 -13 -6 -2 -11 4 -11 13 0 9 5 15 11 13 6 -2 11 -8 11 -13z
m96 -3 c2 -7 -3 -12 -12 -12 -9 0 -16 7 -16 16 0 17 22 14 28 -4z m92 3 c0 -8
-7 -15 -15 -15 -8 0 -15 7 -15 15 0 8 7 15 15 15 8 0 15 -7 15 -15z m-365
-174 c7 -12 -12 -24 -25 -16 -11 7 -4 25 10 25 5 0 11 -4 15 -9z m87 -6 c0 -5
-5 -11 -11 -13 -6 -2 -11 4 -11 13 0 9 5 15 11 13 6 -2 11 -8 11 -13z m90 0
c0 -5 -5 -11 -11 -13 -6 -2 -11 4 -11 13 0 9 5 15 11 13 6 -2 11 -8 11 -13z
m96 -3 c2 -7 -3 -12 -12 -12 -9 0 -16 7 -16 16 0 17 22 14 28 -4z m92 3 c0 -8
-7 -15 -15 -15 -8 0 -15 7 -15 15 0 8 7 15 15 15 8 0 15 -7 15 -15z m1216
-460 c308 -196 560 -361 562 -368 2 -8 -184 -131 -445 -297 -246 -156 -503
-319 -571 -362 l-122 -78 6 198 c3 108 9 200 13 204 3 3 98 59 211 123 258
148 262 150 291 167 13 7 26 16 29 19 3 3 14 9 24 13 12 4 16 10 10 16 -5 5
-135 80 -289 167 l-280 159 -3 197 c-1 108 -1 197 2 197 2 0 255 -160 562
-355z m-9826 325 c13 -13 20 -33 20 -59 0 -73 -84 -108 -135 -56 -52 51 -17
135 56 135 26 0 46 -7 59 -20z m450 -2 c30 -33 27 -91 -6 -117 -80 -63 -181
42 -112 116 29 31 89 32 118 1z m5927 -93 c32 -14 35 -17 22 -30 -12 -12 -20
-13 -47 -3 -28 11 -35 10 -59 -8 -35 -26 -41 -66 -14 -93 23 -23 70 -28 89 -9
8 8 15 8 27 -2 21 -17 19 -25 -10 -38 -94 -43 -201 40 -165 127 16 40 56 65
108 70 7 0 29 -6 49 -14z m217 1 c70 -29 88 -105 37 -156 -52 -52 -126 -52
-176 0 -51 53 -32 124 40 156 39 17 58 17 99 0z m1563 -1 c32 -14 35 -17 22
-30 -12 -12 -20 -13 -47 -3 -28 11 -35 10 -59 -8 -35 -26 -41 -66 -14 -93 22
-22 66 -27 91 -11 9 5 19 5 27 -2 19 -15 16 -23 -12 -36 -112 -51 -227 76
-142 156 22 21 62 40 85 41 7 1 29 -6 49 -14z m200 -7 c13 -10 12 -14 -3 -25
-12 -9 -21 -10 -30 -2 -14 12 -54 3 -54 -11 0 -5 19 -18 43 -28 53 -24 71 -45
63 -75 -10 -41 -78 -59 -131 -35 -29 13 -31 21 -10 38 12 10 18 10 29 0 18
-14 58 -10 63 7 3 7 -19 24 -47 38 -47 24 -51 28 -48 58 5 52 80 73 125 35z
m-1491 -21 c54 -63 13 -148 -78 -162 -83 -12 -83 -13 -86 99 l-3 98 72 -4 c63
-3 74 -7 95 -31z m204 19 c0 -11 -14 -16 -47 -18 -40 -3 -48 -6 -48 -23 0 -16
8 -21 38 -23 23 -2 37 -8 37 -17 0 -9 -14 -15 -37 -17 -30 -2 -38 -7 -38 -23
0 -17 8 -20 48 -23 39 -3 48 -6 45 -20 -3 -14 -17 -18 -71 -20 l-67 -3 0 101
0 100 70 0 c54 0 70 -3 70 -14z m82 -63 l3 -78 48 -3 c39 -3 48 -6 45 -20 -3
-14 -17 -18 -71 -20 l-67 -3 0 101 c0 93 1 100 20 100 17 0 19 -8 22 -77z
m128 70 c0 -5 9 -19 19 -32 l19 -24 16 31 c12 23 24 32 41 32 31 0 31 -1 -2
-53 -16 -25 -29 -62 -33 -92 -4 -42 -8 -50 -25 -50 -17 0 -21 8 -25 50 -4 34
-16 65 -38 98 l-33 47 31 0 c16 0 30 -3 30 -7z m260 -105 c1 -19 21 -3 65 52
26 33 51 60 54 60 3 0 5 -45 3 -100 -3 -91 -5 -100 -23 -100 -16 0 -19 7 -19
40 0 22 -3 40 -7 40 -5 0 -19 -16 -32 -35 -13 -19 -26 -35 -30 -35 -3 0 -17
16 -31 35 -32 45 -42 44 -38 -2 3 -33 0 -38 -20 -41 -22 -3 -22 -2 -22 100 l0
103 50 -55 c27 -30 49 -58 50 -62z m308 96 c22 -15 30 -57 14 -80 -11 -17 -48
-34 -76 -34 -21 0 -25 -5 -28 -32 -2 -25 -8 -33 -23 -33 -18 0 -20 8 -23 98
l-3 97 58 0 c37 0 67 -6 81 -16z m102 -84 c0 -93 -1 -100 -20 -100 -19 0 -20
7 -20 100 0 93 1 100 20 100 19 0 20 -7 20 -100z m-844 -203 c1 -21 -4 -27
-19 -27 -19 0 -19 1 -4 18 21 23 22 36 2 28 -8 -3 -15 -1 -15 5 0 6 8 9 18 7
11 -2 17 -13 18 -31z m139 3 c0 -29 -32 -41 -41 -16 -9 24 4 48 23 44 12 -2
18 -12 18 -28z m140 20 c4 -6 2 -17 -4 -24 -6 -7 -8 -16 -4 -19 3 -4 -5 -7
-18 -7 -21 1 -22 2 -6 11 22 13 23 44 1 35 -8 -3 -12 -2 -9 4 8 13 32 13 40 0z
m109 -12 c-6 -20 -5 -21 10 -9 14 12 16 11 16 -9 0 -16 -4 -20 -16 -16 -9 3
-20 6 -25 6 -5 0 -3 11 3 25 14 31 22 33 12 3z m-7942 -66 c10 -9 20 -31 24
-49 5 -27 1 -37 -24 -63 -17 -16 -40 -30 -51 -30 -71 0 -114 73 -75 128 30 44
89 50 126 14z m450 1 c12 -11 18 -30 18 -59 0 -66 -57 -102 -113 -72 -32 17
-46 39 -46 73 0 72 86 108 141 58z m427 12 c73 -37 43 -155 -39 -155 -85 0
-110 117 -35 158 27 15 41 15 74 -3z m6150 -120 c89 -75 40 -215 -75 -215 -37
0 -51 6 -82 34 -34 31 -37 39 -37 86 0 47 3 55 37 86 49 44 110 48 157 9z
m1443 -49 c7 4 8 2 4 -5 -10 -15 -26 -4 -25 17 1 15 2 15 6 -1 2 -9 9 -14 15
-11z m106 17 c-16 -2 -40 -2 -55 0 -16 2 -3 4 27 4 30 0 43 -2 28 -4z m19 -29
c-3 -3 -12 -4 -19 -1 -8 3 -5 6 6 6 11 1 17 -2 13 -5z m-26 -44 c21 -17 21
-19 4 -13 -11 3 -23 11 -27 17 -6 8 -10 8 -15 0 -5 -6 -17 -14 -28 -17 -17 -6
-17 -4 4 13 13 11 27 20 31 20 4 0 18 -9 31 -20z m-13 -19 c11 -7 11 -9 -2
-14 -9 -4 -23 -4 -32 0 -13 5 -13 7 -2 14 7 5 15 9 18 9 3 0 11 -4 18 -9z
m-45 -41 c3 -11 2 -18 -3 -15 -4 3 -10 14 -13 25 -3 11 -2 18 3 15 4 -3 10
-14 13 -25z m70 10 c-3 -11 -10 -23 -16 -27 -5 -3 -8 -2 -5 3 3 5 8 17 11 27
9 24 16 22 10 -3z m-1338 -14 c67 -28 93 -111 55 -173 -37 -61 -108 -79 -168
-43 -82 50 -76 178 11 215 41 18 60 18 102 1z m1308 -3 c-3 -7 -9 -13 -13 -13
-4 0 -10 6 -13 13 -3 7 3 13 13 13 10 0 16 -6 13 -13z m-303 -58 c0 -16 -6
-25 -15 -25 -21 0 -31 30 -14 41 23 14 29 11 29 -16z m70 15 c0 -6 -11 -10
-25 -10 -14 0 -25 4 -25 8 0 4 11 9 25 10 14 1 25 -3 25 -8z m0 -30 c0 -5 -11
-10 -25 -10 -14 0 -25 5 -25 10 0 6 11 10 25 10 14 0 25 -4 25 -10z m28 -50
c41 -25 40 -36 -2 -57 -36 -17 -68 -13 -101 10 -17 13 -18 17 -5 32 14 17 45
33 65 34 6 1 25 -8 43 -19z m-242 -9 c63 -38 69 -133 13 -187 -26 -25 -38 -29
-84 -29 -60 0 -89 19 -112 73 -20 48 -8 96 33 132 42 36 102 41 150 11z
m-8104 -41 c25 -26 29 -36 24 -63 -15 -73 -96 -97 -142 -43 -26 30 -30 53 -13
90 24 52 87 59 131 16z m442 9 c20 -16 26 -29 26 -59 0 -53 -27 -84 -75 -84
-75 0 -113 89 -59 139 33 30 73 32 108 4z m451 -4 c44 -43 31 -112 -25 -135
-35 -15 -84 0 -100 31 -30 55 10 129 70 129 19 0 40 -9 55 -25z m6491 -32
c-11 -11 -19 6 -11 24 8 17 8 17 12 0 3 -10 2 -21 -1 -24z m64 27 c0 -5 -4
-10 -10 -10 -5 0 -10 5 -10 10 0 6 5 10 10 10 6 0 10 -4 10 -10z m45 0 c-3 -5
-10 -10 -16 -10 -5 0 -9 5 -9 10 0 6 7 10 16 10 8 0 12 -4 9 -10z m35 0 c0 -5
-4 -10 -10 -10 -5 0 -10 5 -10 10 0 6 5 10 10 10 6 0 10 -4 10 -10z m-23 -27
c-20 -2 -52 -2 -70 0 -17 2 0 4 38 4 39 0 53 -2 32 -4z m315 -45 c31 -21 47
-69 40 -116 -5 -38 -47 -86 -68 -78 -8 3 -13 2 -10 -3 3 -5 -14 -8 -39 -8 -25
0 -45 4 -45 9 0 5 -4 7 -10 3 -28 -17 -73 77 -62 131 5 26 6 26 14 9 7 -16 8
-15 4 8 -2 21 3 32 23 46 49 35 103 35 153 -1z m-318 10 c-4 -6 -8 -30 -8 -52
-1 -40 -1 -40 -41 -40 -37 0 -40 2 -41 27 -1 28 18 53 34 43 5 -3 17 3 27 14
19 22 41 28 29 8z m-1437 -249 l36 -48 27 37 c46 64 41 63 231 57 96 -3 188
-5 204 -4 41 2 132 1 175 -1 19 -1 52 2 73 5 56 11 103 -2 137 -37 27 -27 31
-37 30 -82 -1 -28 2 -67 7 -86 29 -112 -80 -205 -201 -172 -26 8 -53 7 -90 0
-43 -9 -62 -9 -99 4 -32 10 -49 12 -57 4 -6 -6 -35 -10 -66 -10 -47 0 -59 4
-75 23 -18 22 -21 22 -32 8 -22 -29 -63 -36 -174 -30 -59 3 -117 4 -128 3 -20
-3 -71 -3 -115 -1 -14 0 -123 -1 -242 -4 -168 -4 -225 -2 -250 8 -28 11 -40
11 -78 0 -47 -15 -145 -12 -162 5 -6 6 -24 4 -46 -4 -47 -17 -87 -17 -134 0
-32 11 -44 11 -83 -1 -82 -28 -165 0 -221 72 -61 81 -37 216 48 273 49 32 140
42 183 19 25 -13 33 -13 64 0 25 11 53 13 96 9 33 -4 70 -6 83 -6 35 2 164 3
202 2 104 -2 561 6 565 10 16 16 60 -9 92 -53z m-5173 -130 c57 -45 13 -159
-57 -145 -74 15 -102 92 -52 141 30 31 73 32 109 4z m638 -542 c21 -33 4 -64
-40 -73 l-32 -6 0 52 0 53 32 -7 c18 -3 36 -12 40 -19z m48 -27 c0 -27 -4 -50
-10 -50 -5 0 -10 23 -10 50 0 28 5 50 10 50 6 0 10 -22 10 -50z m46 25 c3 -14
10 -25 15 -25 5 0 11 11 15 25 3 14 13 25 20 25 12 0 11 -7 -4 -37 -11 -21
-21 -45 -24 -53 -3 -10 -12 -1 -26 27 -24 46 -27 63 -12 63 5 0 12 -11 16 -25z
m-196 -16 c-13 -8 -13 -10 0 -18 8 -6 11 -13 8 -16 -4 -4 -16 0 -28 8 l-21 15
22 16 c13 8 25 13 28 10 3 -3 -1 -9 -9 -15z m318 -2 c10 -8 8 -13 -8 -24 -12
-8 -24 -12 -28 -8 -3 3 0 11 8 16 11 8 12 12 3 16 -7 2 -13 9 -13 14 0 10 13
5 38 -14z m6310 -459 l-3 -213 -210 0 -210 0 -3 213 -2 212 215 0 215 0 -2
-212z m482 -3 l0 -215 -212 2 -213 3 -3 213 -2 212 215 0 215 0 0 -215z m1460
5 l0 -210 -210 0 -210 0 0 210 0 210 210 0 210 0 0 -210z m-491 -5 l2 -205
-209 0 -209 0 0 205 -1 205 208 0 207 0 2 -205z m-832 142 c2 -27 -2 -40 -13
-44 -20 -8 -33 13 -29 46 2 14 4 30 4 34 1 5 9 7 19 5 12 -2 18 -14 19 -41z
m133 26 c0 -7 -6 -13 -12 -14 -74 -6 -88 -5 -88 11 0 12 11 16 50 15 33 0 50
-4 50 -12z m98 2 c10 -9 -5 -16 -37 -17 -37 -1 -51 9 -31 22 15 9 57 6 68 -5z
m68 -13 c-6 -11 -56 -4 -56 8 0 11 43 18 54 9 4 -4 6 -12 2 -17z m1189 -17 c0
-39 -1 -40 -36 -42 -36 -2 -37 -1 -41 37 -4 43 -1 46 46 45 30 0 31 -2 31 -40z
m151 25 c0 -18 -7 -20 -58 -20 -54 0 -76 10 -64 28 3 5 32 10 64 11 52 1 58
-1 58 -19z m273 -27 l-1 -48 -8 40 c-7 37 -5 55 6 55 2 0 3 -21 3 -47z m46 10
c-10 -56 -22 -61 -21 -8 1 31 5 45 15 45 10 0 12 -9 6 -37z m94 26 c15 10 51
3 51 -10 0 -4 -22 -7 -50 -6 -34 1 -50 5 -50 14 0 10 5 11 18 4 10 -5 24 -6
31 -2z m160 -17 c0 -9 -2 -12 -5 -7 -2 6 -24 9 -49 8 -25 0 -45 2 -45 7 0 4
23 8 50 9 41 0 50 -2 49 -17z m-2032 -42 c-1 -11 -14 -15 -54 -14 -29 0 -56 3
-59 7 -4 4 -13 2 -21 -4 -10 -9 -13 -7 -13 7 0 17 8 19 74 19 60 0 74 -3 73
-15z m131 11 c22 -2 13 -21 -10 -20 -13 0 -40 -2 -61 -4 -36 -4 -54 4 -44 21
4 6 65 8 115 3z m1293 4 c11 -4 19 -13 19 -21 0 -10 -14 -14 -54 -14 -47 0
-54 2 -49 18 4 19 50 28 84 17z m449 -14 c0 -12 -21 -19 -37 -13 -22 8 -14 22
12 22 14 0 25 -4 25 -9z m60 -5 c0 -9 -7 -12 -20 -9 -11 3 -20 9 -20 14 0 5 9
9 20 9 11 0 20 -6 20 -14z m80 1 c0 -8 -12 -13 -32 -12 -44 1 -46 20 -3 23 24
2 35 -2 35 -11z m17 -9 c-3 -8 -6 -5 -6 6 -1 11 2 17 5 13 3 -3 4 -12 1 -19z
m-1967 -63 c0 -8 -5 -15 -12 -15 -7 0 -31 -19 -55 -42 -40 -39 -43 -41 -61
-25 -17 16 -20 16 -42 -8 -13 -14 -28 -25 -34 -25 -6 0 6 17 26 37 35 35 38
36 56 20 18 -17 21 -15 58 27 40 46 64 57 64 31z m1891 -17 c27 -17 51 -39 54
-49 7 -21 -22 -116 -38 -126 -17 -10 -109 -11 -129 -2 -21 11 -53 112 -42 132
8 13 92 76 103 77 2 0 25 -14 52 -32z m-445 -14 c17 -8 42 -27 55 -41 l24 -25
-38 -33 c-76 -66 -196 -63 -262 5 l-29 30 29 30 c54 56 145 70 221 34z m-1458
-86 c-3 -82 -3 -83 -30 -86 -28 -3 -28 -3 -28 59 0 51 4 67 22 86 12 13 25 23
30 23 5 0 8 -37 6 -82z m-128 -29 c0 -60 0 -60 -27 -57 -41 4 -44 50 -7 89 15
16 29 29 31 29 2 0 3 -27 3 -61z m47 42 c10 9 13 1 13 -45 0 -53 -1 -56 -25
-56 -24 0 -25 3 -25 57 0 44 3 54 12 45 8 -8 15 -9 25 -1z"/>
<path d="M5625 11661 c-46 -12 -105 -39 -105 -48 0 -4 17 -24 37 -45 l37 -38
53 52 53 52 53 -52 53 -52 37 38 c20 21 37 41 37 45 0 4 -21 17 -47 28 -53 22
-161 33 -208 20z"/>
<path d="M4838 11538 c-16 -11 -28 -23 -28 -27 0 -14 83 -7 88 7 3 11 0 12
-17 3 -12 -7 -21 -8 -21 -2 0 5 6 11 13 14 8 3 9 8 2 15 -7 7 -18 5 -37 -10z"/>
<path d="M4850 11483 c-48 -8 -53 -12 -40 -28 10 -13 9 -15 -10 -15 -37 0
-150 -34 -150 -45 0 -20 43 -175 48 -171 2 3 -5 42 -18 86 -12 45 -20 83 -18
84 2 2 32 11 68 20 93 25 119 14 122 -51 l1 -48 6 50 c4 28 2 56 -3 63 -5 7
-4 12 3 12 6 0 11 -5 11 -11 0 -6 9 -8 21 -4 21 7 159 -24 159 -34 0 -3 -11
-46 -23 -96 l-23 -90 -152 0 c-97 0 -151 -4 -149 -10 2 -6 32 -9 70 -7 65 4
66 4 69 -24 5 -40 28 -43 28 -3 l0 32 65 -6 c36 -4 67 -2 70 3 6 10 65 214 62
216 -17 7 -132 34 -147 34 -14 0 -18 5 -13 16 5 14 -13 36 -27 32 -3 0 -16 -3
-30 -5z"/>
<path d="M4883 11383 c-7 -3 -13 -9 -13 -14 0 -6 5 -7 12 -3 8 5 9 2 5 -9 -3
-10 -2 -17 3 -17 6 0 10 7 10 16 0 8 5 12 10 9 6 -3 10 -2 10 3 0 12 -21 20
-37 15z"/>
<path d="M4876 11294 c-4 -14 -5 -28 -3 -31 3 -2 8 8 11 23 4 14 5 28 3 31 -3
2 -8 -8 -11 -23z"/>
<path d="M5412 11507 c-45 -58 -60 -207 -28 -293 27 -71 31 -73 76 -29 l40 39
-52 53 -52 53 51 53 52 52 -39 42 c-28 29 -42 38 -48 30z"/>
<path d="M5938 11476 l-37 -42 52 -52 52 -52 -53 -53 -52 -53 38 -37 c21 -20
40 -37 44 -37 3 0 16 24 28 53 34 77 33 182 -3 260 -14 31 -27 57 -29 56 -2 0
-20 -20 -40 -43z"/>
<path d="M5942 11318 c-6 -17 -10 -33 -9 -35 8 -7 48 47 42 56 -11 18 -20 12
-33 -21z"/>
<path d="M6970 11170 c0 -43 13 -50 34 -17 8 12 8 22 0 34 -21 33 -34 26 -34
-17z"/>
<path d="M5555 11089 c-39 -39 -39 -41 -20 -55 29 -22 113 -44 165 -44 52 0
136 22 165 44 19 14 19 16 -20 55 l-39 41 -53 -52 -53 -52 -53 52 -53 52 -39
-41z"/>
<path d="M3675 10300 c-134 -27 -371 -152 -570 -301 -108 -81 -202 -139 -226
-139 -10 0 -21 -4 -24 -10 -10 -15 59 -127 127 -208 16 -18 26 -37 24 -41 -3
-4 -13 -54 -22 -112 -20 -127 -14 -222 20 -312 24 -64 24 -66 5 -83 -24 -22
-42 -85 -33 -121 11 -47 62 -119 106 -149 42 -30 102 -38 158 -22 22 6 34 -3
103 -77 l78 -85 -64 -64 c-46 -45 -76 -85 -100 -137 -75 -156 -102 -340 -63
-421 30 -63 89 -115 147 -132 114 -34 367 -4 494 59 l70 34 34 -42 c56 -68
116 -123 141 -130 18 -5 32 2 59 31 20 20 43 47 51 59 14 22 17 22 55 8 47
-17 145 -19 197 -4 72 19 148 133 148 220 0 48 -30 165 -61 241 -29 70 -98
176 -138 212 l-21 19 64 39 c121 72 170 157 181 314 12 176 15 202 31 264 12
47 13 72 6 101 -7 27 -6 54 4 96 23 99 17 164 -28 306 -22 67 -22 68 -3 100
29 48 26 138 -5 202 -41 82 -107 140 -223 195 -121 58 -147 64 -340 85 -155
16 -316 18 -382 5z m528 -626 c91 -14 129 -15 167 -8 47 10 51 9 76 -17 23
-24 118 -199 111 -205 -1 -2 -27 9 -57 24 -50 25 -65 27 -170 27 -132 0 -172
-14 -231 -83 -37 -42 -86 -60 -111 -39 -8 7 -22 24 -31 39 -20 32 -104 74
-175 88 -65 12 -187 -3 -253 -31 -92 -40 -169 -147 -153 -214 4 -16 -5 -25
-41 -42 -25 -12 -45 -19 -45 -15 0 4 16 34 36 66 56 93 86 156 110 231 l22 69
116 53 c64 30 142 60 174 68 74 19 295 14 455 -11z m-318 -224 c87 -42 106
-120 55 -222 -21 -42 -110 -143 -110 -125 0 4 16 39 35 77 44 87 53 141 31
175 -42 64 -172 90 -310 61 -43 -9 -84 -16 -92 -16 -22 0 -17 18 10 35 73 48
294 57 381 15z m524 15 c84 -20 179 -71 202 -110 38 -61 17 -171 -39 -215 -34
-27 -37 -20 -11 24 27 47 28 108 2 144 -10 15 -50 43 -88 62 -64 32 -77 35
-180 38 -60 2 -114 8 -119 13 -15 14 7 30 61 45 64 17 95 17 172 -1z m-336
-187 c7 -58 36 -107 99 -168 66 -64 130 -92 219 -98 80 -5 118 7 168 52 l23
21 -6 -110 c-13 -206 -41 -253 -191 -326 -94 -45 -262 -84 -408 -95 -93 -7
-282 21 -402 58 -87 28 -172 91 -239 178 -37 49 -55 64 -70 62 -131 -21 -169
-9 -217 66 -37 58 -39 114 -7 136 39 28 130 21 191 -14 30 -16 57 -30 61 -30
5 0 5 31 1 68 l-7 68 45 22 c24 12 47 22 50 22 4 0 15 -17 26 -38 26 -51 109
-126 156 -142 56 -19 150 -8 214 25 98 49 201 180 201 256 0 34 6 39 50 39
l37 0 6 -52z m20 -791 c-2 -35 -33 -98 -54 -110 -25 -16 -70 13 -106 67 -18
26 -33 52 -33 57 0 9 76 16 150 15 43 -1 45 -2 43 -29z m-14 -174 c46 -91 70
-181 64 -233 -4 -37 -1 -61 12 -90 l18 -39 -33 -51 c-19 -29 -39 -50 -50 -50
-19 0 -125 108 -142 145 -8 17 -4 29 16 60 29 43 34 104 12 146 -11 22 -11 33
3 79 16 52 27 63 73 69 4 1 16 -16 27 -36z m-142 -125 c28 -26 29 -47 4 -97
-24 -46 -80 -97 -135 -122 -51 -23 -72 -24 -80 -2 -15 37 -18 133 -6 181 13
58 15 58 124 61 59 1 73 -2 93 -21z m393 -90 c13 -22 20 -51 20 -85 0 -70 -7
-83 -42 -83 -77 0 -154 85 -133 149 7 24 52 42 123 50 7 0 21 -14 32 -31z"/>
<path d="M2150 9609 c-82 -12 -300 -85 -405 -135 -63 -30 -97 -55 -160 -119
-88 -88 -126 -154 -185 -320 -41 -113 -53 -265 -26 -329 16 -39 16 -39 -3 -22
-13 12 -38 18 -85 19 -61 2 -65 1 -49 -13 10 -8 17 -25 15 -36 -2 -12 9 -35
24 -54 26 -30 30 -32 78 -25 35 4 63 1 86 -8 l34 -15 -32 -16 c-41 -21 -62
-53 -62 -96 0 -43 29 -107 61 -137 48 -44 134 -66 169 -43 13 9 13 11 0 20 -8
5 -28 10 -44 10 -46 0 -104 39 -126 85 -32 67 -26 106 21 131 37 19 87 7 138
-34 41 -32 75 -52 90 -52 6 0 11 21 11 48 0 41 15 139 35 238 6 25 17 36 57
55 59 28 121 94 175 185 43 74 40 77 64 -49 15 -81 83 -181 125 -185 42 -4
128 62 171 130 36 56 73 162 73 207 0 24 2 23 24 -16 14 -23 37 -58 52 -78 28
-37 167 -155 183 -155 4 0 14 28 21 62 12 62 12 62 29 39 9 -12 38 -64 64
-116 41 -82 49 -109 56 -192 2 -25 23 -12 78 47 43 47 61 60 85 60 30 0 78
-38 78 -62 0 -24 -20 -83 -35 -102 -13 -18 -15 -18 -41 3 -15 11 -39 21 -55
21 -37 0 -59 -41 -59 -110 l0 -52 -41 35 c-49 42 -71 49 -98 30 -33 -23 -26
-66 26 -163 l47 -88 -26 -39 c-44 -67 -189 -131 -380 -168 -107 -21 -344 -21
-450 -1 -188 36 -265 110 -285 274 -7 59 -17 72 -32 43 -8 -14 -6 -41 5 -98
20 -97 44 -144 89 -178 l35 -27 -82 -40 c-92 -44 -187 -134 -246 -232 -108
-179 -42 -365 164 -463 60 -28 83 -34 114 -30 39 5 40 4 40 -24 0 -16 5 -29
10 -29 6 0 10 8 10 18 0 9 7 82 16 162 8 80 18 185 21 234 l6 88 -24 -7 c-13
-4 -34 -14 -47 -22 -21 -13 -26 -12 -70 25 -26 21 -68 54 -95 72 l-47 34 37
39 c43 44 128 105 188 134 37 17 44 18 75 5 43 -18 171 -41 225 -42 33 0 49
-8 92 -45 91 -80 158 -93 250 -51 40 19 60 37 92 85 23 34 49 61 57 61 24 0
159 59 204 89 23 15 50 41 60 56 l19 29 11 -28 c6 -16 15 -60 20 -98 11 -77
32 -133 60 -163 10 -11 21 -31 25 -45 5 -20 1 -27 -17 -35 -34 -15 -34 -59 2
-177 42 -136 81 -248 88 -248 16 0 -13 194 -44 289 -18 58 -34 111 -34 116 0
6 19 9 43 7 23 -1 51 3 62 10 12 7 35 22 53 33 17 11 32 23 32 27 0 4 -13 27
-28 51 l-28 45 -33 -30 c-26 -23 -40 -28 -69 -26 -32 3 -40 9 -56 42 -11 22
-21 68 -23 110 -6 101 -7 104 -63 190 -91 139 -116 206 -79 206 6 0 52 -39
102 -87 69 -68 88 -82 84 -63 -31 130 -32 240 -2 240 20 0 39 -31 86 -142 23
-54 45 -98 50 -98 15 0 11 22 -20 111 l-30 84 24 25 c34 37 45 64 45 110 0 54
-13 76 -59 99 -46 24 -134 118 -163 175 -30 58 -30 159 0 207 l22 36 -21 58
c-14 39 -20 86 -21 148 l-2 90 -53 24 c-32 15 -72 25 -99 25 -39 0 -51 6 -100
48 -31 27 -77 56 -102 66 -57 20 -255 27 -352 13z m312 -51 c27 -5 46 -14 43
-18 -3 -5 3 -6 14 -3 10 3 22 -1 26 -8 5 -7 4 -10 -3 -5 -12 7 -13 -2 -12 -81
0 -39 -4 -54 -17 -63 -17 -10 -17 -10 1 -8 24 4 32 -35 11 -56 -9 -9 -11 -17
-5 -21 5 -3 10 -1 10 4 0 6 4 11 8 11 19 0 7 -30 -12 -31 -20 0 -20 -1 2 -9
17 -7 22 -17 22 -48 0 -21 4 -42 9 -48 11 -11 -5 -58 -17 -50 -4 2 -9 -4 -9
-15 -1 -10 3 -19 8 -19 6 0 8 4 4 9 -3 5 -1 12 5 16 5 3 10 2 10 -4 0 -5 3
-17 7 -27 4 -11 3 -15 -4 -11 -15 9 -26 -24 -13 -37 8 -8 9 -6 5 7 -4 9 -3 17
3 17 5 0 12 -11 14 -25 l5 -24 -29 17 c-16 9 -66 54 -111 99 -45 46 -85 83
-89 83 -5 0 -8 -17 -8 -37 0 -21 -12 -63 -26 -93 -30 -64 -121 -165 -149 -165
-11 0 -34 19 -56 48 -35 47 -43 67 -69 165 -6 23 -14 42 -18 42 -4 0 -22 -26
-39 -57 -18 -32 -74 -105 -125 -162 l-93 -103 -9 66 c-9 70 -21 84 -32 39 -10
-42 -162 -312 -175 -313 -35 -1 -14 317 28 426 14 38 -20 0 -41 -45 -12 -26
-44 -78 -71 -117 -47 -65 -50 -68 -53 -41 -5 43 43 201 93 302 45 94 117 179
199 234 54 37 249 114 356 142 143 37 285 43 402 17z m-1147 -897 c10 -17 -9
-20 -30 -5 -18 14 -18 14 2 14 12 0 24 -4 28 -9z m105 -32 c6 -10 9 -19 6 -19
-9 0 -36 31 -36 41 0 14 18 1 30 -22z m1040 -684 c-13 -14 -48 -37 -77 -52
-50 -24 -57 -25 -95 -13 -47 13 -88 38 -88 51 0 5 28 9 63 10 34 0 94 6 132
13 39 8 74 14 79 15 5 0 -1 -10 -14 -24z m621 -105 c-27 -23 -57 -26 -64 -6
-7 18 7 24 53 25 l35 0 -24 -19z m-1448 -174 c55 -47 57 -50 42 -72 -24 -38
-19 -100 16 -168 17 -33 35 -65 40 -70 14 -15 11 -42 -6 -56 -36 -30 -108 -7
-190 61 -63 51 -84 86 -101 157 -19 80 -6 137 48 215 l20 28 36 -23 c21 -12
63 -44 95 -72z m127 -131 l-17 -100 -16 32 c-26 50 -22 89 15 133 18 21 33 38
34 37 1 -1 -6 -47 -16 -102z"/>
<path d="M2526 9225 c-3 -8 -1 -15 4 -15 6 0 10 7 10 15 0 8 -2 15 -4 15 -2 0
-6 -7 -10 -15z"/>
<path d="M2520 9189 c0 -5 5 -7 10 -4 6 3 10 8 10 11 0 2 -4 4 -10 4 -5 0 -10
-5 -10 -11z"/>
<path d="M5685 9349 c-60 -14 -169 -56 -270 -104 -82 -38 -183 -101 -335 -209
-144 -103 -355 -325 -436 -462 l-55 -92 17 -33 c9 -19 32 -81 51 -139 63 -194
55 -321 -30 -438 l-34 -47 31 -15 c60 -29 79 -96 67 -235 -1 -16 1 -77 5 -135
9 -143 7 -144 -160 -146 -213 -3 -226 -4 -226 -13 0 -39 232 -88 1091 -227
288 -47 297 -47 324 -30 16 10 24 23 21 32 -7 18 -4 18 101 -7 117 -28 278
-24 319 7 50 37 69 89 68 184 -1 99 -21 175 -64 244 -17 26 -30 50 -28 51 2 2
55 20 118 40 149 48 282 113 347 170 96 84 134 211 114 382 -6 52 -14 99 -16
104 -11 17 -86 -28 -103 -62 -12 -25 -25 -35 -46 -37 -46 -6 -73 6 -86 37 -15
38 -6 65 31 92 26 18 34 19 58 9 23 -9 38 -8 80 5 47 16 50 19 45 44 -35 159
-187 486 -307 659 -90 130 -231 243 -414 329 -82 39 -108 47 -168 49 -38 2
-88 -1 -110 -7z m-280 -743 c204 -70 279 -86 441 -93 l132 -6 17 -84 c25 -130
62 -210 150 -332 14 -19 25 -45 25 -57 0 -31 17 -30 51 2 l27 26 10 -34 c6
-18 14 -52 17 -75 l7 -43 -38 0 c-31 0 -44 -8 -83 -48 -25 -26 -78 -69 -116
-95 -60 -41 -86 -51 -170 -69 -121 -25 -213 -25 -364 1 -63 10 -120 17 -126
15 -6 -3 -16 16 -24 40 -7 25 -18 49 -24 54 -7 5 -86 31 -177 58 -91 26 -172
54 -181 61 -43 36 -51 201 -19 364 l21 104 71 65 c39 35 90 95 114 132 27 42
51 68 61 68 10 0 90 -24 178 -54z m-502 -368 c-14 -142 -11 -226 11 -266 10
-19 15 -36 13 -39 -13 -12 -46 21 -74 74 -67 128 -71 184 -17 281 52 94 56 99
68 73 5 -13 5 -59 -1 -123z m1346 -367 c13 -8 13 -12 1 -27 -19 -21 -77 -58
-125 -79 l-38 -15 49 42 c27 24 58 53 69 65 23 26 25 26 44 14z m-759 -207
c30 -6 46 -12 36 -13 -11 -1 -39 -12 -63 -26 -55 -33 -83 -22 -83 31 0 33 1
34 28 27 15 -3 52 -12 82 -19z m-685 -84 c9 -42 24 -47 49 -15 16 19 25 25 30
16 9 -14 -52 -93 -66 -85 -14 9 -38 69 -38 94 0 31 18 24 25 -10z m700 -44
c-9 -21 -23 -76 -32 -122 -8 -46 -19 -84 -24 -84 -25 0 11 205 44 248 19 25
27 -5 12 -42z m-724 -26 c17 -38 34 -70 36 -70 8 0 42 43 58 73 9 15 20 27 25
27 19 0 10 -28 -23 -76 -48 -69 -73 -67 -109 6 -32 67 -44 110 -30 110 6 0 25
-31 43 -70z m917 -272 c2 -26 -1 -61 -6 -80 -8 -31 -11 -33 -48 -29 -51 4
-107 23 -111 38 -10 29 119 130 152 120 6 -2 11 -24 13 -49z"/>
<path d="M5179 8339 c-20 -20 -21 -29 -17 -121 6 -124 21 -148 61 -96 14 18
40 64 58 101 37 80 34 110 -12 126 -46 16 -66 14 -90 -10z"/>
<path d="M5674 8249 c-16 -18 -19 -37 -19 -130 0 -125 10 -147 49 -110 28 26
81 130 91 178 13 65 -77 111 -121 62z"/>
<path d="M2514 8721 c-50 -12 -57 -20 -51 -61 5 -42 66 -182 91 -212 37 -43
52 -13 62 125 6 90 4 110 -10 132 -17 26 -35 29 -92 16z"/>
<path d="M3218 8626 c-2 -25 -2 -46 -1 -46 1 0 11 13 22 29 20 28 20 29 2 45
-18 17 -19 15 -23 -28z"/>
<path d="M1921 8634 c-20 -14 -23 -23 -18 -58 3 -22 19 -78 37 -124 26 -67 36
-83 57 -88 15 -4 28 -2 33 6 4 6 15 59 24 116 16 109 12 146 -19 158 -31 11
-90 6 -114 -10z"/>
<path d="M3023 8102 c-32 -33 -60 -92 -42 -92 5 0 25 15 45 33 28 26 35 39 32
62 l-3 30 -32 -33z"/>
<path d="M2734 7995 c-12 -17 -34 -55 -49 -85 -52 -103 -160 -244 -196 -255
-10 -4 -19 -11 -19 -16 0 -16 73 20 109 54 46 44 106 134 148 222 39 83 43
132 7 80z"/>
<path d="M1910 7946 c0 -33 72 -148 139 -219 34 -36 142 -117 157 -117 3 0
-32 41 -80 90 -47 50 -103 117 -125 148 -37 55 -91 113 -91 98z"/>
<path d="M2311 7670 c-63 -10 -82 -25 -90 -77 -6 -37 -7 -38 -59 -44 -28 -4
-64 -10 -78 -13 l-26 -7 7 -84 c4 -46 12 -126 19 -177 11 -91 12 -93 38 -96
39 -5 541 58 552 69 9 8 -17 296 -30 342 -5 15 -13 17 -47 13 -23 -3 -68 -8
-99 -11 l-58 -6 0 34 c0 55 -35 71 -129 57z m-8 -237 c18 -9 61 -24 96 -33 73
-18 95 -40 69 -66 -16 -16 -19 -15 -46 14 -23 25 -39 32 -69 33 -53 1 -96 9
-106 19 -11 10 1 50 14 50 6 0 24 -7 42 -17z"/>
<path d="M8720 9335 l0 -75 49 0 c64 0 79 6 96 41 30 57 -17 109 -97 109 l-48
0 0 -75z"/>
<path d="M10061 9384 c-76 -64 -64 -246 19 -289 59 -31 125 6 148 83 46 153
-66 291 -167 206z"/>
<path d="M10531 9384 c-78 -65 -64 -249 22 -290 42 -20 80 -13 112 21 63 69
53 230 -17 279 -34 24 -82 20 -117 -10z m109 -84 c0 -5 -4 -10 -10 -10 -5 0
-10 5 -10 10 0 6 5 10 10 10 6 0 10 -4 10 -10z"/>
<path d="M10470 8695 c0 -30 3 -35 24 -35 13 0 29 6 35 14 18 22 -3 56 -34 56
-22 0 -25 -4 -25 -35z"/>
<path d="M2534 3896 c-58 -49 -20 -146 56 -146 16 0 41 11 56 24 58 49 20 146
-56 146 -16 0 -41 -11 -56 -24z"/>
<path d="M2830 3835 l0 -87 33 6 c38 7 77 48 77 81 0 33 -39 74 -77 81 l-33 7
0 -88z"/>
<path d="M3960 3880 c0 -38 2 -40 30 -40 25 0 50 21 50 44 0 14 -34 36 -56 36
-21 0 -24 -4 -24 -40z"/>
<path d="M3890 3475 c0 -30 3 -35 24 -35 13 0 29 6 35 14 18 22 -3 56 -34 56
-22 0 -25 -4 -25 -35z"/>
<path d="M6200 2854 c-52 -31 -96 -57 -97 -58 -2 -1 42 -28 97 -59 l100 -56 0
115 c0 63 -1 114 -2 114 -2 -1 -46 -26 -98 -56z"/>
<path d="M6450 2410 c0 -60 2 -110 5 -110 3 0 48 24 101 54 l96 53 -79 45
c-43 25 -88 50 -100 57 l-23 12 0 -111z"/>
<path d="M7477 2820 c-35 -27 -35 -62 -1 -89 35 -28 69 -26 99 4 30 29 31 45
8 74 -27 32 -73 37 -106 11z"/>
<path d="M7730 2769 l0 -61 32 6 c43 8 58 23 58 57 0 36 -24 59 -61 59 -29 0
-29 0 -29 -61z"/>
<path d="M8740 2810 c0 -25 4 -30 24 -30 13 0 30 7 37 16 11 14 10 18 -6 30
-33 24 -55 18 -55 -16z"/>
<path d="M8195 2580 c-7 -12 2 -30 16 -30 5 0 9 9 9 20 0 21 -15 27 -25 10z"/>
<path d="M8820 2095 c-7 -8 -10 -19 -6 -22 4 -4 11 -2 15 6 5 7 11 12 15 12
10 -1 9 13 -2 17 -5 1 -15 -4 -22 -13z"/>
<path d="M8239 1893 c-13 -15 -12 -15 9 -2 18 11 26 11 42 2 16 -11 18 -10 14
2 -8 20 -48 19 -65 -2z"/>
<path d="M8338 1903 c7 -3 16 -2 19 1 4 3 -2 6 -13 5 -11 0 -14 -3 -6 -6z"/>
<path d="M8216 1851 c-10 -11 -16 -26 -13 -33 4 -10 6 -10 6 1 1 8 8 23 18 33
9 10 14 18 11 18 -3 0 -13 -9 -22 -19z"/>
<path d="M8316 1853 c7 -4 14 -17 17 -28 5 -16 5 -15 4 4 -1 14 -9 26 -17 28
-10 3 -11 2 -4 -4z"/>
<path d="M7960 1960 c0 -5 5 -10 11 -10 5 0 7 5 4 10 -3 6 -8 10 -11 10 -2 0
-4 -4 -4 -10z"/>
<path d="M5370 1717 c-34 -17 -70 -74 -70 -112 0 -47 38 -97 87 -115 38 -13
46 -12 78 3 36 17 44 34 24 54 -8 8 -19 7 -39 -5 -23 -13 -33 -14 -54 -4 -56
25 -59 101 -4 132 22 12 33 13 59 3 28 -11 34 -10 45 5 10 14 8 19 -14 34 -32
21 -77 23 -112 5z"/>
<path d="M5572 1710 c-68 -42 -78 -133 -21 -189 82 -83 217 -18 206 98 -10 89
-109 139 -185 91z m112 -51 c68 -53 -5 -155 -83 -115 -48 25 -55 73 -16 111
30 30 64 32 99 4z"/>
<path d="M5790 1610 l0 -120 61 0 c56 0 64 3 95 34 28 28 34 41 34 78 0 85
-51 128 -152 128 l-38 0 0 -120z m103 59 c29 -16 37 -28 37 -63 0 -38 -26 -66
-62 -66 l-28 0 0 70 c0 75 7 83 53 59z"/>
<path d="M6017 1724 c-4 -4 -7 -58 -7 -121 l0 -113 76 0 c72 0 75 1 72 23 -3
19 -10 22 -50 25 -40 3 -48 6 -48 23 0 16 7 19 40 19 36 0 40 3 40 25 0 23 -4
25 -40 25 -36 0 -40 3 -40 25 0 23 3 25 51 25 47 0 50 2 47 23 -3 20 -9 22
-68 25 -36 2 -69 0 -73 -4z"/>
<path d="M6190 1610 l0 -120 69 0 c60 0 69 3 74 19 7 27 0 31 -50 31 l-43 0 0
95 c0 95 0 95 -25 95 l-25 0 0 -120z"/>
<path d="M6300 1725 c0 -2 16 -33 35 -68 27 -50 35 -75 35 -115 0 -49 2 -52
25 -52 23 0 25 3 25 52 0 40 8 65 35 114 19 34 35 65 35 68 0 3 -11 6 -25 6
-19 0 -29 -10 -45 -40 -11 -22 -22 -40 -25 -40 -3 0 -14 18 -25 40 -16 30 -26
40 -45 40 -14 0 -25 -2 -25 -5z"/>
<path d="M6511 1610 l-2 -120 29 0 c29 0 30 1 27 45 -2 25 0 45 3 45 4 0 18
-18 32 -40 14 -22 28 -40 32 -40 4 0 20 19 35 42 l28 42 3 -47 c3 -42 6 -47
28 -47 l24 0 0 120 c0 66 -2 120 -3 120 -2 0 -28 -34 -57 -75 -37 -53 -56 -72
-65 -65 -6 5 -31 39 -56 74 -24 36 -47 66 -50 66 -4 0 -8 -54 -8 -120z"/>
<path d="M6790 1610 l0 -120 25 0 c22 0 25 4 25 40 0 29 3 38 14 34 26 -10 82
22 95 54 26 62 -24 112 -111 112 l-48 0 0 -120z m101 60 c10 -6 19 -17 19 -25
0 -16 -30 -35 -54 -35 -12 0 -16 10 -16 35 0 37 14 44 51 25z"/>
<path d="M6980 1610 l0 -120 25 0 25 0 0 120 0 120 -25 0 -25 0 0 -120z"/>
<path d="M7116 1709 c-56 -44 -70 -110 -36 -167 36 -59 125 -78 172 -35 17 15
17 18 2 34 -15 16 -18 17 -39 3 -44 -29 -105 9 -105 64 0 12 12 34 26 49 25
25 52 28 94 9 9 -4 20 1 27 14 11 17 9 21 -17 35 -41 21 -92 19 -124 -6z"/>
<path d="M7315 1705 c-14 -13 -25 -30 -25 -37 0 -24 31 -58 71 -78 21 -11 39
-27 39 -35 0 -22 -38 -29 -64 -11 -22 14 -25 13 -40 -3 -15 -16 -15 -19 5 -37
14 -12 36 -19 64 -19 54 0 85 25 85 71 0 34 -16 51 -80 86 -41 23 -30 41 20
33 45 -8 60 8 34 36 -25 28 -79 25 -109 -6z"/>
<path d="M2010 1050 c0 -20 5 -30 15 -30 21 0 30 27 15 45 -19 23 -30 18 -30
-15z"/>
<path d="M9678 780 c19 -8 23 -16 20 -47 -3 -40 -31 -58 -50 -31 -8 10 -9 10
-5 -2 6 -24 50 -18 62 7 9 22 15 23 165 26 l155 3 -155 2 c-150 2 -156 3 -165
24 -6 13 -19 24 -30 25 -17 3 -16 1 3 -7z"/>
<path d="M9743 783 c20 -2 54 -2 75 0 20 2 3 4 -38 4 -41 0 -58 -2 -37 -4z"/>
<path d="M9898 783 c23 -2 61 -2 85 0 23 2 4 4 -43 4 -47 0 -66 -2 -42 -4z"/>
<path d="M9723 683 c9 -2 25 -2 35 0 9 3 1 5 -18 5 -19 0 -27 -2 -17 -5z"/>
<path d="M9788 683 c7 -3 16 -2 19 1 4 3 -2 6 -13 5 -11 0 -14 -3 -6 -6z"/>
<path d="M9878 683 c29 -2 74 -2 100 0 26 2 2 3 -53 3 -55 0 -76 -1 -47 -3z"/>
<path d="M9808 654 c-38 -20 -36 -28 2 -9 17 9 30 18 30 20 0 7 -1 6 -32 -11z"/>
<path d="M9850 656 c0 -3 9 -10 20 -16 11 -6 20 -8 20 -6 0 3 -9 10 -20 16
-11 6 -20 8 -20 6z"/>
<path d="M9759 588 c-3 -22 -1 -34 4 -29 5 5 7 21 5 37 -3 27 -4 26 -9 -8z"/>
<path d="M9900 591 c0 -17 4 -32 8 -35 4 -2 6 11 4 30 -5 42 -12 45 -12 5z"/>
<path d="M9790 584 c0 -8 5 -12 10 -9 6 4 8 11 5 16 -9 14 -15 11 -15 -7z"/>
<path d="M9865 591 c-3 -5 -1 -12 5 -16 5 -3 10 1 10 9 0 18 -6 21 -15 7z"/>
<path d="M9812 561 c-11 -7 -11 -9 0 -14 9 -3 15 1 15 9 0 8 -1 14 -1 14 -1 0
-7 -4 -14 -9z"/>
<path d="M9845 550 c-3 -6 1 -7 9 -4 18 7 21 14 7 14 -6 0 -13 -4 -16 -10z"/>
<path d="M9861 531 c-11 -7 -9 -10 8 -16 13 -4 25 -4 28 -1 4 3 -1 6 -11 6 -9
0 -14 5 -11 10 8 12 4 12 -14 1z"/>
<path d="M9890 536 c0 -2 7 -7 16 -10 8 -3 12 -2 9 4 -6 10 -25 14 -25 6z"/>
<path d="M9713 495 c0 -22 2 -30 4 -17 2 12 2 30 0 40 -3 9 -5 -1 -4 -23z"/>
<path d="M9953 495 c0 -22 2 -30 4 -17 2 12 2 30 0 40 -3 9 -5 -1 -4 -23z"/>
<path d="M9740 492 c0 -11 7 -25 15 -32 12 -10 15 -9 15 8 0 11 -7 25 -15 32
-12 10 -15 9 -15 -8z"/>
<path d="M9812 501 c-11 -7 -11 -9 0 -14 9 -3 15 1 15 9 0 8 -1 14 -1 14 -1 0
-7 -4 -14 -9z"/>
<path d="M9913 499 c-7 -7 -13 -22 -13 -33 0 -19 1 -19 16 -4 9 8 14 23 12 32
-2 14 -5 15 -15 5z"/>
<path d="M9790 465 c0 -9 6 -12 15 -9 8 4 15 7 15 9 0 2 -7 5 -15 9 -9 3 -15
0 -15 -9z"/>
<path d="M9730 446 c0 -3 9 -10 20 -16 11 -6 20 -8 20 -6 0 3 -9 10 -20 16
-11 6 -20 8 -20 6z"/>
<path d="M9804 434 c-18 -14 -18 -15 5 -4 17 9 30 9 50 1 24 -11 25 -10 7 4
-25 19 -37 19 -62 -1z"/>
<path d="M9910 435 c-14 -8 -20 -14 -14 -15 5 0 19 7 30 15 24 18 16 19 -16 0z"/>
<path d="M10663 753 c-7 -2 -13 -11 -13 -18 0 -7 6 -15 13 -18 7 -3 12 4 12
19 0 13 0 24 0 23 0 0 -6 -3 -12 -6z"/>
<path d="M11255 619 c-4 -6 1 -17 11 -24 25 -19 28 -18 48 4 15 17 15 19 1 25
-25 9 -53 7 -60 -5z"/>
<path d="M11200 570 c-6 -11 -7 -27 -3 -34 13 -23 47 7 38 33 -8 26 -21 27
-35 1z"/>
<path d="M11250 571 c13 -25 33 -28 28 -4 -2 10 -11 19 -21 21 -16 3 -17 1 -7
-17z"/>
<path d="M11303 575 c-3 -9 -3 -18 0 -21 9 -9 27 6 27 22 0 19 -19 18 -27 -1z"/>
<path d="M11343 571 c-10 -16 -9 -22 11 -35 22 -14 24 -14 29 3 5 19 -9 51
-21 51 -4 0 -13 -9 -19 -19z"/>
<path d="M11225 520 c-3 -5 3 -10 14 -10 11 0 23 5 26 10 3 6 -3 10 -14 10
-11 0 -23 -4 -26 -10z"/>
<path d="M11305 520 c3 -5 17 -10 31 -10 14 0 22 4 19 10 -3 6 -17 10 -31 10
-14 0 -22 -4 -19 -10z"/>
<path d="M11279 488 c0 -30 -1 -31 -11 -12 -7 15 -16 20 -34 16 -20 -3 -22 -7
-13 -23 18 -35 79 -18 79 22 0 34 -20 31 -21 -3z"/>
<path d="M11310 476 c-6 -17 -3 -22 12 -24 22 -4 35 5 40 27 5 23 -43 21 -52
-3z"/>
<path d="M10800 592 c0 -5 -10 -14 -22 -20 -13 -6 -17 -11 -10 -11 6 -1 12 -5
12 -11 0 -5 -7 -7 -15 -4 -19 8 -19 -15 0 -40 15 -20 16 -19 27 24 3 9 17 15
38 15 38 0 48 15 25 39 -17 17 -55 22 -55 8z"/>
<path d="M10850 510 c-9 -6 -10 -10 -3 -10 6 0 15 5 18 10 8 12 4 12 -15 0z"/>
<path d="M9420 11720 l0 -280 633 2 632 3 3 278 2 277 -635 0 -635 0 0 -280z
m881 180 c27 -15 26 -75 -2 -90 -30 -17 -62 -8 -78 21 -13 24 -13 29 2 53 18
27 45 33 78 16z m301 -7 c35 -32 13 -93 -34 -93 -49 0 -74 56 -41 92 20 22 51
23 75 1z m-294 -295 c21 -21 14 -66 -13 -84 -50 -32 -103 22 -70 72 17 26 62
33 83 12z m302 -7 c16 -31 12 -59 -12 -75 -30 -21 -44 -20 -68 4 -24 24 -26
53 -4 74 22 23 71 20 84 -3z"/>
<path d="M0 10070 l0 -1100 185 0 185 0 0 1100 0 1100 -185 0 -185 0 0 -1100z"/>
<path d="M0 1695 c0 -55 0 -55 30 -55 40 0 80 -39 80 -78 0 -45 -35 -82 -76
-82 l-34 0 0 -460 0 -460 575 0 575 0 0 595 0 595 -575 0 -575 0 0 -55z m521
-68 c67 -51 35 -147 -49 -147 -38 0 -82 37 -82 70 0 26 25 77 42 83 24 10 73
6 89 -6z m456 -9 c30 -28 32 -89 3 -118 -31 -31 -93 -27 -119 6 -63 80 42 181
116 112z"/>
</g>
</svg>
