<?xml version="1.0" standalone="no"?>
<!DOCTYPE svg PUBLIC "-//W3C//DTD SVG 20010904//EN"
 "http://www.w3.org/TR/2001/REC-SVG-20010904/DTD/svg10.dtd">
<svg version="1.0" xmlns="http://www.w3.org/2000/svg"
 width="1080.000000pt" height="1080.000000pt" viewBox="0 0 1080.000000 1080.000000"
 preserveAspectRatio="xMidYMid meet">

<g transform="translate(0.000000,1080.000000) scale(0.100000,-0.100000)"
fill="#000000" stroke="none">
<path d="M0 5400 l0 -5400 5400 0 5400 0 0 5400 0 5400 -5400 0 -5400 0 0
-5400z m5755 3810 c230 -27 643 -163 923 -306 136 -70 368 -219 483 -312 139
-112 436 -437 610 -667 46 -61 265 -375 376 -540 182 -271 252 -407 426 -825
90 -218 119 -312 164 -530 51 -251 29 -519 -61 -739 -68 -167 -311 -404 -617
-604 -122 -80 -411 -239 -546 -302 -46 -21 -83 -40 -83 -43 0 -3 35 -42 78
-86 189 -200 314 -539 299 -818 -6 -122 -26 -190 -82 -273 -76 -114 -199 -178
-420 -221 -200 -38 -306 -47 -531 -43 l-212 4 19 -24 c27 -34 24 -65 -11 -105
-32 -36 -112 -69 -195 -80 -45 -6 -294 -12 -1120 -26 -308 -5 -632 -12 -720
-15 -762 -26 -1099 -25 -1365 4 -47 6 -137 15 -200 21 -138 13 -207 24 -320
52 -95 24 -134 40 -168 72 -61 55 -64 68 -237 1051 -25 146 -80 520 -114 785
-39 297 -39 370 -2 390 10 5 119 14 242 20 310 14 399 21 399 32 0 6 -29 58
-64 117 -83 138 -90 152 -120 246 -85 269 -83 512 10 831 34 119 227 492 331
639 163 233 324 453 412 565 299 380 359 448 691 778 211 209 286 274 490 427
80 60 147 112 150 116 8 11 236 147 375 224 172 94 316 148 510 188 37 8 110
7 200 -3z m-520 -6931 c53 -15 120 -82 134 -134 6 -22 14 -80 17 -128 l7 -87
-82 0 -81 0 0 79 c0 69 -3 84 -23 106 -17 21 -32 27 -62 27 -30 0 -45 -6 -62
-27 -23 -26 -23 -27 -23 -361 l0 -335 25 -24 c33 -34 87 -34 120 0 23 22 25
31 25 125 l0 100 82 0 81 0 -6 -104 c-8 -136 -22 -181 -72 -232 -44 -44 -100
-64 -177 -64 -103 0 -176 43 -214 124 -24 51 -24 53 -24 405 0 243 4 366 12
393 16 53 74 116 123 133 49 17 146 19 200 4z m-1415 -224 l0 -225 95 0 95 0
0 225 0 225 80 0 80 0 0 -525 0 -525 -80 0 -80 0 0 225 0 225 -95 0 -95 0 0
-225 0 -225 -85 0 -85 0 0 525 0 525 85 0 85 0 0 -225z m844 198 c3 -16 40
-242 81 -503 41 -261 77 -485 80 -497 5 -22 3 -23 -78 -23 l-83 0 -13 95 -14
95 -102 0 c-117 0 -108 8 -121 -106 -3 -34 -10 -67 -14 -73 -4 -8 -31 -11 -76
-9 l-70 3 83 515 c45 283 83 518 83 523 0 4 54 7 119 7 l119 0 6 -27z m988
-200 l3 -227 104 219 c57 121 107 224 111 228 4 4 41 7 84 5 l76 -3 -113 -231
-114 -230 108 -275 c60 -151 111 -282 115 -291 5 -16 -3 -18 -78 -18 l-83 0
-79 210 c-44 116 -81 210 -83 210 -1 0 -14 -22 -28 -50 -24 -47 -25 -58 -25
-210 l0 -160 -80 0 -80 0 0 525 0 525 80 0 80 0 2 -227z m908 152 l0 -75 -145
0 -145 0 0 -145 0 -145 115 0 115 0 0 -75 0 -75 -115 0 -115 0 0 -155 0 -155
145 0 145 0 0 -75 0 -75 -225 0 -225 0 0 525 0 525 225 0 225 0 0 -75z m456
60 c102 -30 137 -98 137 -265 1 -130 -17 -187 -69 -230 l-30 -25 42 -40 c37
-36 43 -47 53 -110 6 -38 12 -136 13 -218 l3 -147 -76 0 c-61 0 -78 3 -83 16
-3 9 -6 70 -7 137 -1 233 -15 267 -113 275 l-56 4 0 -216 0 -216 -85 0 -85 0
0 525 0 525 153 0 c106 0 169 -5 203 -15z"/>
<path d="M5545 8950 c-131 -20 -315 -87 -460 -167 -267 -148 -464 -280 -689
-462 -167 -134 -600 -558 -706 -691 -214 -267 -373 -487 -504 -700 -33 -52
-70 -111 -83 -131 -56 -85 -238 -516 -267 -634 -47 -193 -63 -495 -32 -633 20
-92 79 -251 119 -322 17 -30 73 -109 124 -175 l93 -120 -107 -6 c-60 -4 -198
-7 -308 -8 -110 -1 -247 -6 -304 -10 -135 -10 -135 -10 -127 -152 3 -59 10
-127 16 -153 5 -25 14 -74 19 -108 17 -113 89 -493 165 -866 41 -202 77 -390
81 -418 10 -78 51 -213 71 -236 47 -51 150 -73 411 -90 239 -15 3028 -23 3155
-9 175 20 258 88 197 165 l-21 26 89 -7 c48 -5 198 -8 333 -8 209 1 262 4 362
23 249 47 348 110 420 268 20 43 22 65 22 194 1 159 -10 221 -65 376 -67 191
-162 348 -270 448 l-71 65 99 45 c54 25 105 50 113 55 8 6 83 46 166 90 453
237 775 509 863 730 54 133 74 246 75 421 1 116 -4 175 -17 235 -45 197 -84
329 -133 445 -28 69 -71 172 -93 230 -58 145 -191 392 -307 567 -125 190 -311
457 -388 558 -130 171 -346 411 -487 540 -87 80 -361 264 -494 331 -376 192
-858 326 -1060 294z m-989 -2056 c49 -8 139 -24 199 -34 61 -11 162 -28 225
-39 418 -74 997 -72 1299 5 52 13 96 24 97 24 1 0 42 -108 80 -210 36 -99 141
-310 210 -421 73 -118 177 -243 249 -299 105 -82 112 -89 133 -132 12 -24 27
-62 32 -85 10 -40 13 -43 44 -43 35 0 48 11 119 104 15 20 32 36 36 36 21 0
137 -318 129 -356 -4 -22 -74 -46 -110 -39 -49 11 -68 -4 -144 -120 -119 -180
-313 -383 -458 -479 -100 -66 -565 -222 -705 -237 -47 -5 -207 -9 -356 -10
-333 -2 -414 -8 -429 -31 -25 -41 27 -53 292 -64 l172 -7 -47 -17 c-85 -30
-153 -70 -205 -120 -57 -55 -93 -63 -148 -35 -23 12 -31 25 -40 72 -32 158
-85 282 -153 359 -51 58 -58 61 -163 73 -49 6 -141 18 -204 26 -252 33 -439
54 -525 61 -83 6 -93 9 -123 37 -38 37 -92 131 -115 202 -20 62 -50 213 -73
364 -14 95 -16 155 -11 373 5 181 10 266 19 283 7 13 47 62 88 110 173 202
213 263 290 450 25 61 58 134 73 163 l27 52 54 0 c29 0 93 -7 142 -16z m-848
-914 c29 -34 32 -43 32 -106 0 -110 38 -541 54 -628 26 -134 63 -214 145 -315
25 -31 30 -43 18 -38 -10 4 -39 7 -63 7 -40 0 -49 5 -85 43 -68 72 -164 198
-218 286 -73 120 -94 180 -99 281 -4 92 4 123 100 400 22 63 43 124 46 134 5
19 6 19 21 -3 9 -13 31 -40 49 -61z m3685 -677 c-31 -76 -88 -147 -168 -210
-71 -57 -217 -153 -231 -153 -3 0 16 24 42 53 90 98 212 255 230 296 17 39 19
40 73 44 31 2 59 4 63 5 4 1 0 -15 -9 -35z m-1789 -1055 c7 -12 7 -33 -3 -75
-24 -103 -29 -165 -30 -329 -1 -206 -7 -254 -33 -254 -10 0 -21 6 -23 13 -13
40 -24 371 -15 452 11 96 32 179 51 202 15 17 38 13 53 -9z m-1852 -245 c10
-9 18 -21 18 -26 0 -16 74 -137 83 -137 4 0 20 26 34 58 31 68 50 92 74 92 38
0 32 -43 -20 -153 -52 -107 -76 -132 -106 -107 -24 20 -115 168 -133 215 -13
36 -14 46 -3 59 17 20 30 20 53 -1z m-94 -114 c73 -108 185 -266 200 -281 16
-17 20 -12 69 75 28 50 59 116 68 145 19 57 47 81 71 61 35 -29 4 -127 -91
-285 -84 -141 -113 -140 -223 8 -94 127 -182 262 -182 280 0 19 20 38 42 38
10 0 30 -18 46 -41z m2537 -333 c38 -57 61 -322 35 -392 l-11 -27 -157 6 c-93
3 -173 11 -197 19 -38 13 -40 15 -39 55 1 56 51 138 135 222 62 62 178 141
206 141 7 0 19 -11 28 -24z"/>
<path d="M4508 6121 c-45 -9 -83 -33 -105 -68 -32 -48 -18 -184 44 -437 44
-181 82 -219 145 -149 28 31 133 330 158 448 20 98 -2 164 -63 190 -42 17
-133 25 -179 16z"/>
<path d="M5765 6096 c-17 -7 -39 -26 -49 -41 -49 -75 -32 -308 41 -540 66
-210 152 -154 242 156 57 200 64 289 29 359 -31 60 -73 80 -163 80 -38 -1 -84
-7 -100 -14z"/>
<path d="M4527 2060 c-4 -14 -20 -119 -37 -235 -17 -115 -33 -222 -36 -237
l-6 -28 81 0 c66 0 81 3 81 15 0 19 -69 486 -74 500 -2 6 -6 -1 -9 -15z"/>
<path d="M6830 1970 l0 -160 55 0 c46 0 60 4 80 25 24 23 25 31 25 133 0 95
-3 113 -21 136 -18 23 -28 26 -80 26 l-59 0 0 -160z"/>
</g>
</svg>
