<?xml version="1.0" standalone="no"?>
<!DOCTYPE svg PUBLIC "-//W3C//DTD SVG 20010904//EN"
 "http://www.w3.org/TR/2001/REC-SVG-20010904/DTD/svg10.dtd">
<svg version="1.0" xmlns="http://www.w3.org/2000/svg"
 width="1080.000000pt" height="1080.000000pt" viewBox="0 0 1080.000000 1080.000000"
 preserveAspectRatio="xMidYMid meet">

<g transform="translate(0.000000,1080.000000) scale(0.100000,-0.100000)"
fill="#000000" stroke="none">
<path d="M0 5400 l0 -5400 5400 0 5400 0 0 5400 0 5400 -5400 0 -5400 0 0
-5400z m5610 3860 c36 -5 146 -16 245 -25 303 -27 549 -67 662 -109 211 -76
480 -208 584 -286 134 -100 265 -262 330 -408 79 -175 77 -361 -5 -519 -20
-38 -36 -82 -36 -98 0 -16 21 -91 46 -168 121 -373 142 -650 67 -910 -22 -77
-24 -94 -14 -130 40 -146 31 -258 -41 -497 -5 -19 -14 -138 -18 -265 -4 -126
-12 -261 -18 -300 -6 -38 -16 -113 -22 -165 -31 -243 -167 -481 -361 -628 -50
-38 -195 -126 -223 -135 -6 -2 22 -39 62 -83 188 -203 301 -443 424 -904 29
-106 31 -128 32 -275 0 -180 -12 -241 -69 -356 -75 -153 -166 -251 -268 -292
-35 -14 -116 -33 -178 -43 -186 -27 -354 -7 -465 57 -28 16 -54 29 -57 29 -3
0 -34 -41 -69 -92 -73 -107 -149 -193 -189 -213 -65 -34 -138 -9 -239 82 -62
56 -285 301 -326 357 l-21 30 -49 -35 c-155 -112 -323 -167 -716 -234 -241
-41 -463 -54 -603 -36 -101 14 -278 70 -339 108 -77 49 -201 194 -251 293 -67
135 -77 377 -29 680 30 189 101 405 181 550 73 131 243 378 308 444 l67 68
-80 82 c-43 44 -107 117 -141 161 l-63 79 -147 1 c-220 2 -297 28 -438 153
-95 84 -167 182 -210 282 -26 60 -28 75 -28 195 0 123 2 133 28 183 24 45 63
82 101 95 5 2 -18 84 -52 183 -53 157 -62 194 -73 304 -16 173 -7 330 35 573
l36 209 -43 56 c-78 103 -123 174 -236 382 -103 188 -152 302 -137 318 4 3 43
16 89 29 137 40 237 102 615 382 265 197 240 180 472 324 372 230 466 278 802
408 223 86 270 98 448 115 155 14 504 11 620 -6z m-598 -6980 c84 -24 138
-102 146 -212 l5 -68 -75 0 -75 0 -5 51 c-7 64 -31 91 -84 91 -72 0 -101 -66
-73 -166 8 -28 42 -70 129 -161 145 -150 172 -197 178 -310 5 -90 -7 -146 -41
-196 -73 -108 -290 -120 -380 -20 -42 46 -59 100 -61 191 l-1 65 75 0 75 0 5
-68 c6 -80 28 -107 87 -107 52 0 83 36 83 97 -1 77 -30 124 -148 242 -145 144
-167 187 -167 326 0 108 15 154 68 203 50 47 170 66 259 42z m-1392 -225 l0
-225 95 0 95 0 0 225 0 225 85 0 85 0 0 -525 0 -525 -85 0 -85 0 0 225 0 225
-95 0 -95 0 0 -225 0 -225 -80 0 -80 0 0 525 0 525 80 0 80 0 0 -225z m640
-207 c0 -429 0 -432 22 -455 30 -32 90 -32 123 2 l25 24 0 431 0 430 75 0 75
0 0 -442 0 -443 -24 -50 c-13 -27 -34 -60 -47 -72 -53 -48 -173 -67 -264 -42
-51 14 -119 81 -136 134 -9 29 -14 156 -16 478 l-4 437 85 0 86 0 0 -432z
m1460 357 l0 -75 -85 0 -85 0 0 -450 0 -450 -80 0 -80 0 0 450 0 449 -87 3
-88 3 -3 73 -3 72 256 0 255 0 0 -75z m240 -375 l0 -450 135 0 135 0 0 -75 0
-75 -215 0 -215 0 0 525 0 525 80 0 80 0 0 -450z m790 375 l0 -75 -140 0 -140
0 0 -145 0 -144 113 -3 112 -3 3 -72 3 -73 -116 0 -115 0 0 -155 0 -155 140 0
140 0 0 -75 0 -75 -220 0 -220 0 0 525 0 525 220 0 220 0 0 -75z m500 45 c29
-17 53 -41 70 -70 23 -42 25 -54 25 -180 0 -120 -2 -140 -22 -176 -12 -23 -34
-49 -49 -59 l-27 -17 33 -26 c54 -43 63 -77 70 -277 4 -99 10 -188 14 -197 7
-16 0 -18 -77 -18 l-84 0 -7 31 c-3 17 -6 93 -6 169 0 75 -5 151 -11 169 -14
39 -54 61 -114 61 l-45 0 0 -215 0 -215 -80 0 -80 0 0 526 0 526 173 -4 c162
-3 175 -4 217 -28z"/>
<path d="M5025 9104 c-131 -10 -224 -28 -318 -60 -148 -52 -389 -150 -487
-199 -208 -104 -584 -340 -805 -504 -452 -337 -549 -395 -690 -416 -25 -4 -45
-10 -45 -14 0 -3 31 -59 68 -123 79 -138 217 -339 285 -415 66 -74 72 -93 53
-173 -38 -155 -76 -445 -76 -570 0 -200 20 -306 90 -488 56 -145 60 -158 43
-167 -49 -27 -92 -83 -108 -140 -27 -92 -17 -223 24 -310 81 -175 245 -328
380 -356 75 -15 174 -13 241 6 116 32 108 35 175 -57 33 -45 121 -144 196
-219 l137 -137 -104 -91 c-200 -176 -302 -326 -407 -601 -85 -220 -125 -400
-134 -606 -6 -135 5 -232 35 -304 23 -57 96 -161 159 -226 94 -98 235 -154
441 -175 143 -15 279 -4 552 42 351 60 537 124 671 230 l35 28 61 -82 c127
-170 296 -340 372 -373 90 -38 159 8 282 190 34 50 65 95 69 99 4 5 32 -5 61
-22 82 -45 159 -61 303 -61 143 0 253 19 333 56 101 48 218 203 270 359 24 71
27 95 27 210 0 114 -4 146 -33 259 -62 247 -160 483 -265 640 -65 96 -228 282
-256 291 -11 4 -20 10 -20 15 0 4 35 24 78 45 42 20 127 70 189 111 141 94
203 165 286 330 74 146 88 232 107 624 12 246 23 324 66 468 31 103 37 265 12
342 -13 43 -12 54 19 205 32 148 34 169 28 285 -7 154 -38 309 -99 496 -25 77
-46 154 -46 170 0 16 16 61 35 101 45 93 54 137 55 253 0 113 -31 217 -100
329 -135 224 -303 352 -670 509 -239 102 -312 116 -915 178 -150 15 -549 26
-660 18z m755 -1593 c134 -11 285 -31 486 -66 130 -22 310 -26 390 -9 38 8 80
17 94 20 42 9 108 -59 188 -194 82 -138 136 -243 168 -330 35 -93 33 -98 -28
-59 -100 63 -207 97 -368 117 -107 13 -277 13 -358 0 -220 -36 -400 -150 -461
-293 l-20 -47 -115 0 -115 0 -26 55 c-36 75 -109 143 -213 197 -151 79 -269
108 -437 108 -192 0 -411 -42 -528 -100 -137 -70 -293 -213 -345 -319 -24 -51
-27 -67 -28 -170 l-1 -114 -106 -53 c-149 -73 -149 -75 33 231 129 217 195
372 264 626 l16 56 79 36 c44 21 102 46 128 56 26 11 105 46 174 79 227 108
386 157 589 181 88 11 336 7 540 -8z m-540 -586 c276 -64 410 -230 364 -451
-16 -80 -69 -199 -126 -282 -39 -59 -197 -222 -214 -222 -20 0 -1 50 76 205
123 247 140 387 58 481 -41 47 -192 119 -288 138 -175 34 -249 31 -547 -24
-149 -27 -187 -31 -208 -22 -33 15 -32 27 8 63 46 43 71 55 183 83 86 22 140
30 304 50 79 9 317 -2 390 -19z m1452 1 c116 -23 265 -74 372 -129 116 -59
209 -143 246 -222 47 -102 34 -263 -31 -386 -36 -68 -137 -169 -169 -169 -21
0 -21 1 5 43 205 334 78 545 -410 680 -72 20 -104 22 -308 22 l-229 0 -24 28
c-13 15 -24 33 -24 38 0 16 143 77 217 93 88 19 262 20 355 2z m-833 -382 c2
-2 7 -38 11 -81 10 -91 27 -166 48 -208 74 -149 289 -363 443 -440 165 -84
417 -120 555 -80 86 25 175 77 248 144 l38 36 -6 -130 c-25 -508 -59 -657
-180 -791 -45 -51 -193 -148 -326 -214 -155 -78 -375 -145 -573 -176 -56 -8
-134 -22 -172 -29 -94 -19 -369 -45 -473 -45 -88 0 -121 4 -412 51 -399 65
-605 130 -780 249 -118 80 -321 301 -419 458 -18 28 -35 52 -37 52 -3 0 -21
-7 -42 -16 -78 -33 -130 -44 -219 -44 -131 0 -187 23 -278 114 -112 113 -165
237 -150 353 12 101 63 130 245 140 136 7 209 -11 296 -73 64 -46 178 -99 193
-89 5 2 3 33 -4 67 -7 35 -16 113 -20 173 l-7 110 44 27 c57 35 189 98 206 98
7 0 25 -26 38 -57 92 -207 282 -377 479 -428 115 -30 199 -30 311 -2 179 45
342 142 470 280 156 168 214 274 242 442 18 109 18 110 47 116 28 5 176 0 184
-7z m61 -2109 c20 -21 22 -30 16 -75 -9 -66 -58 -192 -92 -237 -68 -89 -170
-72 -277 47 -45 50 -137 214 -137 244 0 19 -10 17 160 22 74 1 158 7 185 12
89 17 119 14 145 -13z m-15 -552 c63 -131 102 -225 133 -323 43 -138 45 -147
26 -202 -29 -89 -7 -241 47 -319 38 -54 35 -69 -34 -170 -36 -52 -83 -114
-105 -139 -39 -44 -40 -44 -68 -30 -82 43 -374 379 -374 431 0 9 25 53 55 98
98 146 108 249 41 387 -27 54 -35 80 -30 101 12 54 44 158 65 209 l20 51 62
10 c112 18 99 26 162 -104z m-419 -256 c51 -26 104 -112 104 -168 0 -21 -50
-131 -78 -173 -35 -50 -155 -167 -213 -206 -56 -39 -132 -74 -228 -105 -51
-17 -54 -17 -72 1 -36 37 -53 137 -54 309 0 140 3 170 24 243 13 46 29 86 35
88 6 2 58 10 116 19 134 18 323 14 366 -8z m1041 -246 c90 -116 102 -402 20
-470 -38 -31 -183 11 -272 78 -69 52 -111 114 -131 192 -29 112 10 182 119
213 88 25 191 42 212 36 11 -4 35 -26 52 -49z"/>
<path d="M7020 1970 l0 -160 54 0 c44 0 61 5 83 24 28 24 28 26 28 141 0 111
-1 118 -24 136 -17 14 -39 19 -82 19 l-59 0 0 -160z"/>
</g>
</svg>
