<?xml version="1.0" standalone="no"?>
<!DOCTYPE svg PUBLIC "-//W3C//DTD SVG 20010904//EN"
 "http://www.w3.org/TR/2001/REC-SVG-20010904/DTD/svg10.dtd">
<svg version="1.0" xmlns="http://www.w3.org/2000/svg"
 width="1080.000000pt" height="1080.000000pt" viewBox="0 0 1080.000000 1080.000000"
 preserveAspectRatio="xMidYMid meet">

<g transform="translate(0.000000,1080.000000) scale(0.100000,-0.100000)"
fill="#000000" stroke="none">
<path d="M0 5400 l0 -5400 5400 0 5400 0 0 5400 0 5400 -5400 0 -5400 0 0
-5400z m5815 3910 c282 -24 488 -81 627 -174 52 -34 86 -66 242 -225 55 -56
64 -61 102 -61 175 0 395 -103 546 -257 196 -199 412 -522 464 -692 57 -189
25 -547 -70 -781 -34 -85 -137 -268 -187 -334 -44 -57 -47 -66 -21 -66 60 -1
151 -76 188 -155 67 -143 -20 -406 -164 -494 l-38 -23 7 -54 c4 -29 16 -82 28
-116 11 -35 32 -115 46 -178 13 -63 27 -125 30 -137 3 -14 18 -26 42 -34 114
-37 263 -134 316 -206 38 -53 97 -165 118 -228 8 -24 14 -85 14 -155 0 -98 -3
-122 -23 -164 -58 -126 -189 -277 -322 -371 -42 -30 -104 -84 -139 -120 -103
-110 -255 -165 -455 -165 -58 0 -58 0 -53 -28 2 -15 19 -94 36 -177 72 -339
80 -404 81 -631 0 -243 -9 -309 -45 -341 -53 -47 -302 -108 -705 -173 -267
-44 -546 -57 -1605 -76 -336 -6 -370 -5 -515 15 -85 12 -247 44 -361 72 -113
27 -216 49 -229 49 -47 0 -60 25 -60 118 0 76 -2 83 -17 77 -49 -20 -75 -23
-110 -13 -163 45 -378 174 -499 300 -140 147 -256 345 -280 478 -28 158 -11
305 57 485 81 216 169 349 337 505 105 98 378 280 533 356 l57 27 -39 49 c-78
99 -123 229 -135 389 l-7 87 -103 11 c-227 26 -336 100 -433 295 -60 121 -73
174 -72 282 2 137 41 216 140 282 l61 41 -34 26 c-33 25 -35 25 -104 13 -84
-14 -173 -1 -228 32 -62 39 -79 70 -157 295 -11 33 -33 81 -49 106 -15 25 -28
49 -28 53 0 11 27 6 74 -15 32 -14 76 -22 139 -25 51 -2 121 -6 157 -8 l65 -4
1 176 c0 144 4 196 22 280 80 368 331 851 584 1124 98 105 261 233 388 305
223 127 878 309 1230 342 63 6 131 13 150 14 80 8 293 6 405 -3z m-422 -7031
c88 -24 147 -115 147 -226 l0 -53 -75 0 -75 0 0 44 c0 62 -31 98 -84 98 -58 0
-81 -28 -80 -100 0 -79 18 -107 154 -247 133 -138 160 -188 163 -305 4 -183
-98 -283 -274 -267 -102 9 -174 66 -199 156 -5 20 -10 66 -10 104 l0 67 75 0
75 0 0 -65 c0 -57 3 -69 25 -90 16 -17 35 -25 60 -25 55 0 85 35 85 100 0 28
-7 66 -14 85 -8 19 -67 89 -131 154 -147 152 -170 196 -170 326 0 74 4 99 24
138 24 50 66 87 116 105 40 14 140 15 188 1z m-1643 -224 l0 -225 95 0 95 0 0
225 0 225 80 0 80 0 0 -525 0 -525 -80 0 -80 0 0 225 0 225 -95 0 -95 0 0
-225 0 -225 -80 0 -80 0 0 525 0 525 80 0 80 0 0 -225z m640 -300 l0 -525 -80
0 -80 0 0 525 0 525 80 0 80 0 0 -525z m455 514 c55 -15 101 -52 128 -102 20
-39 22 -55 22 -212 0 -156 -2 -173 -22 -211 -44 -83 -105 -114 -225 -114 l-68
0 0 -200 0 -200 -85 0 -85 0 0 525 0 525 148 0 c81 0 165 -5 187 -11z m1255
-64 l0 -75 -85 0 -85 0 0 -450 0 -450 -80 0 -80 0 0 450 0 450 -85 0 -85 0 0
75 0 75 250 0 250 0 0 -75z m530 0 l0 -75 -145 0 -145 0 0 -145 0 -145 115 0
115 0 0 -75 0 -75 -115 0 -115 0 0 -155 0 -155 145 0 145 0 0 -75 0 -75 -225
0 -225 0 0 525 0 525 225 0 225 0 0 -75z m457 60 c59 -18 106 -65 122 -122 14
-49 14 -237 0 -286 -6 -21 -28 -56 -49 -77 l-38 -38 29 -21 c55 -41 62 -69 70
-271 4 -102 10 -193 14 -202 6 -16 -1 -18 -73 -18 -54 0 -84 4 -89 13 -4 6
-10 92 -13 189 -6 213 -9 219 -110 226 l-60 4 0 -216 0 -216 -80 0 -80 0 0
525 0 525 153 0 c108 0 169 -5 204 -15z"/>
<path d="M5370 9153 c-78 -5 -232 -24 -316 -38 -271 -46 -735 -179 -909 -261
-231 -108 -472 -324 -633 -568 -177 -266 -341 -644 -377 -866 -24 -147 -30
-289 -16 -362 15 -72 64 -184 111 -253 18 -26 30 -49 27 -51 -3 -3 -18 1 -35
10 -23 12 -33 29 -52 87 -15 50 -34 85 -60 112 l-37 40 -124 9 c-71 6 -146 18
-176 28 -29 10 -53 15 -53 10 0 -15 50 -69 70 -75 23 -7 26 -30 5 -39 -18 -6
-12 -45 17 -121 53 -135 143 -180 283 -139 60 17 52 19 184 -54 l63 -35 -46
-18 c-173 -65 -251 -229 -196 -410 49 -165 129 -264 267 -331 100 -48 202 -61
266 -34 20 9 37 20 37 25 0 18 -53 42 -127 57 -90 19 -143 41 -200 83 -110 81
-181 275 -142 392 26 77 134 146 212 136 75 -10 162 -63 270 -166 114 -108
166 -144 199 -139 21 3 24 11 35 93 37 269 44 307 83 420 23 66 53 160 68 209
29 99 31 100 167 142 135 42 344 218 452 382 31 48 80 115 107 150 59 74 64
70 65 -49 1 -126 21 -280 44 -349 30 -87 175 -328 207 -345 63 -31 93 -28 185
20 244 128 362 249 474 487 55 116 95 237 106 317 l7 55 33 -80 c89 -220 143
-295 369 -516 105 -103 196 -188 203 -188 12 0 30 51 74 213 13 48 27 87 31
87 10 0 68 -73 68 -85 0 -6 22 -54 49 -107 46 -88 83 -180 142 -348 20 -55 23
-86 23 -205 1 -77 5 -146 9 -153 17 -25 62 3 156 98 53 53 123 115 156 136 51
34 66 39 114 39 147 -1 221 -118 177 -280 -18 -70 -38 -105 -94 -166 l-48 -52
-32 44 c-47 65 -93 92 -163 97 -57 4 -60 3 -98 -35 -50 -50 -79 -140 -88 -275
l-6 -99 -30 38 c-58 72 -148 154 -190 173 -81 37 -146 19 -182 -50 -36 -70 -5
-197 106 -430 92 -195 92 -199 -8 -301 -59 -61 -96 -89 -164 -124 -310 -160
-915 -249 -1394 -205 -384 35 -679 102 -870 197 -96 48 -258 164 -292 211 -77
105 -115 245 -133 499 -5 69 -14 131 -19 136 -8 8 -19 3 -39 -16 -27 -27 -27
-29 -26 -150 1 -148 27 -337 57 -420 28 -77 92 -162 167 -226 l58 -48 -72 -18
c-85 -22 -269 -98 -361 -150 -209 -117 -493 -411 -598 -621 -59 -117 -90 -315
-69 -447 20 -129 155 -350 295 -484 97 -91 252 -188 375 -233 94 -34 115 -36
165 -15 l34 14 7 -87 c14 -174 33 -134 85 178 42 252 85 463 128 630 68 264
75 316 53 375 -9 24 -14 26 -43 20 -17 -4 -70 -22 -117 -40 l-85 -34 -155 153
c-85 84 -188 179 -228 211 l-74 59 39 33 c184 162 534 363 632 363 17 0 39 8
50 19 18 18 20 18 72 -10 136 -75 342 -137 595 -180 l130 -22 89 -100 c104
-117 175 -172 282 -218 69 -30 88 -34 168 -34 76 1 103 5 177 32 106 39 155
64 197 98 24 21 140 165 182 227 3 5 73 24 155 43 324 76 513 162 633 290 29
31 57 53 61 48 4 -4 17 -35 28 -68 16 -47 22 -95 26 -220 8 -245 46 -392 120
-464 25 -25 36 -44 36 -65 1 -17 7 -49 15 -71 20 -54 20 -53 -22 -61 -62 -11
-89 -30 -107 -74 -23 -58 -20 -107 15 -260 32 -145 53 -255 64 -335 4 -27 21
-108 39 -180 18 -71 39 -155 45 -186 7 -31 18 -65 25 -75 12 -16 15 3 21 131
13 265 -4 418 -81 730 -14 55 -28 128 -31 163 l-6 62 28 -14 c41 -21 142 -29
210 -17 113 21 257 103 300 171 13 21 50 55 81 76 125 83 245 217 306 342 41
82 50 200 23 302 -24 94 -91 217 -150 276 -65 65 -162 114 -226 114 -47 0 -49
2 -64 38 -9 20 -27 87 -40 147 -13 61 -35 146 -48 190 -13 44 -27 99 -30 122
-5 40 -3 44 28 63 105 65 185 228 185 377 0 53 -37 137 -77 175 -33 31 -101
68 -125 68 -30 0 -28 15 11 61 81 97 185 299 226 444 62 213 71 487 22 633
-24 70 -109 231 -171 322 -65 97 -219 281 -294 351 -88 83 -214 159 -312 190
-73 22 -234 39 -253 27 -18 -12 25 -45 113 -86 41 -19 113 -52 159 -74 162
-75 246 -150 402 -359 147 -196 204 -291 244 -410 22 -64 25 -88 24 -213 0
-78 -4 -162 -7 -188 l-7 -47 -55 65 c-30 36 -65 80 -77 98 -12 17 -65 76 -118
131 -53 55 -131 142 -173 194 -118 144 -160 159 -98 35 46 -91 118 -287 151
-409 21 -76 26 -110 20 -149 -8 -65 -70 -254 -93 -284 l-18 -23 -51 73 c-62
89 -117 153 -295 347 -76 82 -138 157 -138 166 0 22 -59 197 -72 212 -19 23
-28 2 -28 -63 0 -36 -4 -64 -10 -64 -5 0 -10 -12 -10 -26 0 -15 -8 -41 -19
-58 -10 -17 -24 -52 -31 -78 -7 -27 -17 -48 -23 -48 -5 0 -47 25 -93 55 -136
91 -323 291 -474 509 -38 55 -70 72 -70 36 0 -90 -83 -288 -165 -395 -60 -78
-300 -309 -342 -328 -25 -11 -29 -8 -85 53 -65 71 -146 200 -172 276 -19 55
-63 285 -68 353 -2 25 -7 46 -13 47 -5 2 -57 -65 -115 -148 -84 -122 -124
-169 -210 -247 -58 -53 -166 -155 -240 -227 -126 -122 -175 -164 -191 -164 -4
0 -5 65 -2 143 6 147 0 217 -18 217 -10 0 -69 -120 -69 -141 0 -6 -33 -56 -74
-112 -40 -56 -99 -140 -129 -187 -31 -47 -83 -119 -116 -160 -33 -41 -88 -114
-122 -162 -57 -79 -65 -86 -79 -73 -12 13 -15 47 -14 198 0 156 4 199 26 302
38 176 91 374 137 507 23 65 41 121 41 124 0 27 -88 -94 -145 -198 -18 -34
-64 -95 -102 -136 -63 -69 -143 -165 -175 -210 -14 -20 -50 -42 -68 -42 -9 0
-10 16 -5 56 8 68 60 257 80 293 8 14 26 55 41 91 99 243 279 530 425 680 114
116 284 240 403 294 133 61 522 176 791 235 222 49 651 67 867 36 259 -36 427
-96 589 -211 97 -69 125 -79 113 -42 -38 120 -264 275 -474 326 -210 52 -480
72 -720 55z m-2408 -2252 l28 -26 -35 -11 c-33 -10 -36 -9 -76 32 l-41 42 49
-5 c34 -4 56 -13 75 -32z m4233 -752 c55 -48 103 -162 160 -374 33 -123 58
-194 90 -251 14 -25 25 -50 25 -57 0 -7 41 -34 91 -61 110 -58 148 -91 201
-169 53 -77 85 -153 97 -224 11 -73 -7 -211 -37 -269 -45 -88 -198 -193 -312
-214 -30 -6 -64 -13 -74 -16 -14 -5 -6 11 27 52 62 80 96 159 114 265 25 145
1 223 -80 259 -91 42 -184 12 -280 -88 -49 -52 -107 -145 -107 -172 0 -34 85
13 190 104 66 58 91 70 131 64 36 -5 50 -43 44 -113 -13 -123 -55 -214 -134
-288 -87 -81 -187 -117 -266 -96 -59 16 -83 44 -110 131 -39 124 -50 246 -36
391 10 104 9 129 -3 162 -31 86 -99 231 -160 343 -79 145 -157 323 -164 374
-5 42 17 78 48 78 33 0 111 -64 188 -153 58 -69 224 -277 259 -326 9 -12 10
10 3 54 -5 28 -14 133 -21 235 -11 164 -10 194 4 264 17 83 38 126 62 126 8 0
30 -14 50 -31z m-1367 -1318 c-7 -20 -105 -92 -165 -121 -80 -40 -228 -90
-265 -90 -36 0 -153 44 -202 76 -49 33 -126 104 -126 116 0 6 14 8 34 4 90
-17 684 0 705 20 8 8 23 4 19 -5z m-2428 -437 c52 -45 139 -127 193 -181 l98
-99 -45 -66 c-41 -62 -66 -134 -66 -192 0 -52 44 -187 105 -326 84 -190 84
-223 2 -261 -70 -31 -132 -25 -226 22 -92 46 -163 107 -293 253 -99 112 -133
183 -162 335 -42 222 1 366 177 589 l49 63 37 -27 c20 -15 79 -65 131 -110z
m4025 -4 c-26 -29 -131 -77 -185 -85 l-45 -6 -17 43 c-10 24 -18 46 -18 50 0
4 57 9 128 11 70 1 133 4 141 5 10 1 9 -4 -4 -18z m-3528 -331 c-24 -73 -79
-293 -94 -377 -4 -24 -12 -44 -17 -45 -14 -3 -64 137 -72 201 -9 84 15 130
118 227 44 42 82 74 85 72 2 -3 -7 -38 -20 -78z"/>
<path d="M6089 6770 c-76 -9 -122 -30 -145 -65 -13 -20 -15 -38 -10 -87 10
-80 49 -234 85 -328 16 -41 41 -109 57 -150 34 -92 68 -130 118 -130 61 0 66
14 132 380 37 205 38 261 7 328 -28 60 -80 71 -244 52z"/>
<path d="M4523 6689 c-46 -29 -68 -92 -60 -172 8 -78 66 -304 107 -418 37
-103 76 -149 125 -149 19 0 41 7 49 16 27 27 121 371 146 537 11 72 10 81 -10
122 -32 67 -78 85 -216 85 -93 0 -114 -3 -141 -21z"/>
<path d="M4345 4868 c30 -179 285 -580 471 -743 103 -90 176 -150 206 -169 24
-16 26 -22 23 -74 l-4 -57 -138 -7 c-196 -9 -259 -20 -271 -46 -10 -24 1 -904
12 -921 10 -16 267 -12 1051 15 376 13 442 17 457 31 16 15 18 40 18 290 0
151 -5 351 -10 446 -10 154 -13 174 -31 189 -19 16 -43 17 -254 13 l-233 -5
-4 90 c-4 83 -6 92 -33 120 -42 43 -91 54 -250 53 -186 -1 -228 -15 -265 -90
-14 -28 -28 -51 -32 -50 -8 2 -265 319 -349 431 -33 43 -85 122 -116 175 -31
53 -76 131 -101 173 -47 81 -126 178 -144 178 -6 0 -7 -16 -3 -42z m822 -1336
c10 -11 52 -38 93 -61 41 -23 82 -46 90 -51 29 -18 197 -80 249 -92 31 -7 55
-19 59 -27 3 -9 12 -24 20 -33 12 -15 12 -20 -7 -47 -12 -17 -33 -39 -47 -50
-24 -19 -28 -19 -54 -6 -17 9 -33 28 -40 50 -12 36 -76 95 -105 95 -9 0 -26 5
-38 12 -12 7 -49 16 -82 20 -33 5 -70 10 -82 11 -13 2 -26 7 -30 10 -3 4 -18
7 -32 7 -38 0 -71 11 -71 23 0 6 -7 19 -16 28 -14 16 -15 23 -4 49 17 42 49
80 65 80 8 0 22 -8 32 -18z"/>
<path d="M6492 4851 c-27 -32 -67 -87 -88 -121 -158 -252 -209 -320 -359 -480
-129 -139 -198 -198 -276 -240 -33 -17 -57 -35 -54 -40 7 -12 117 16 173 44
177 90 414 358 590 667 37 65 82 180 82 209 0 33 -17 23 -68 -39z"/>
<path d="M4680 1950 l0 -180 39 0 c58 0 98 18 111 50 7 18 11 71 8 148 -4 150
-12 162 -100 162 l-58 0 0 -180z"/>
<path d="M6890 1970 l0 -160 58 0 c94 1 112 27 112 168 0 85 -3 103 -21 126
-18 23 -27 26 -85 26 l-64 0 0 -160z"/>
</g>
</svg>
